M48
; DRILL file {KiCad 9.0.1-9.0.1-0~ubuntu24.04.1} date 2025-04-05T16:25:19+0200
; FORMAT={-:-/ absolute / metric / decimal}
; #@! TF.CreationDate,2025-04-05T16:25:19+02:00
; #@! TF.GenerationSoftware,Kicad,Pcbnew,9.0.1-9.0.1-0~ubuntu24.04.1
; #@! TF.FileFunction,NonPlated,1,6,NPTH
FMAT,2
METRIC
; #@! TA.AperFunction,NonPlated,NPTH,ComponentDrill
T1C0.600
; #@! TA.AperFunction,NonPlated,NPTH,ComponentDrill
T2C1.000
%
G90
G05
T1
X9.476Y-12.699
X9.476Y-29.299
X9.476Y-42.699
X9.476Y-59.299
X9.476Y-72.699
X9.476Y-89.299
X10.037Y-11.975
X10.037Y-30.023
X10.037Y-41.975
X10.037Y-60.023
X10.037Y-71.975
X10.037Y-90.023
X10.641Y-11.287
X10.641Y-30.711
X10.641Y-41.287
X10.641Y-60.711
X10.641Y-71.287
X10.641Y-90.711
X11.287Y-40.637
X11.287Y-61.361
X11.287Y-70.637
X11.287Y-10.637
X11.287Y-31.36
X11.287Y-91.36
X11.977Y-10.036
X11.977Y-31.962
X11.977Y-40.036
X11.977Y-61.962
X11.977Y-70.036
X11.977Y-91.962
X12.703Y-9.477
X12.703Y-32.521
X12.703Y-39.477
X12.703Y-62.521
X12.703Y-69.477
X12.703Y-92.521
X29.289Y-9.475
X29.289Y-32.523
X29.289Y-39.475
X29.289Y-62.523
X29.289Y-69.475
X29.289Y-92.523
X30.016Y-10.035
X30.016Y-31.963
X30.016Y-40.035
X30.016Y-61.963
X30.016Y-70.035
X30.016Y-91.963
X30.704Y-10.642
X30.704Y-31.356
X30.704Y-40.642
X30.704Y-61.356
X30.704Y-70.642
X30.704Y-91.356
X31.353Y-30.708
X31.353Y-41.29
X31.353Y-71.29
X31.353Y-90.708
X31.354Y-11.29
X31.354Y-60.708
X31.96Y-11.978
X31.96Y-30.02
X31.96Y-41.978
X31.96Y-60.02
X31.96Y-71.978
X31.96Y-90.02
X32.518Y-12.707
X32.518Y-29.291
X32.518Y-42.707
X32.518Y-59.291
X32.518Y-72.707
X32.518Y-89.291
X39.476Y-12.699
X39.476Y-29.299
X39.476Y-42.699
X39.476Y-59.299
X39.476Y-72.699
X39.476Y-89.299
X40.037Y-11.975
X40.037Y-30.023
X40.037Y-41.975
X40.037Y-60.023
X40.037Y-71.975
X40.037Y-90.023
X40.641Y-11.287
X40.641Y-30.711
X40.641Y-41.287
X40.641Y-60.711
X40.641Y-71.287
X40.641Y-90.711
X41.287Y-10.637
X41.287Y-31.361
X41.287Y-40.637
X41.287Y-61.361
X41.287Y-70.637
X41.287Y-91.36
X41.977Y-10.036
X41.977Y-31.962
X41.977Y-40.036
X41.977Y-61.962
X41.977Y-70.036
X41.977Y-91.962
X42.703Y-9.477
X42.703Y-32.521
X42.703Y-39.477
X42.703Y-62.521
X42.703Y-69.477
X42.703Y-92.521
X59.289Y-9.475
X59.289Y-32.523
X59.289Y-39.475
X59.289Y-62.523
X59.289Y-69.475
X59.289Y-92.523
X60.016Y-10.035
X60.016Y-31.963
X60.016Y-40.035
X60.016Y-61.963
X60.016Y-70.035
X60.016Y-91.963
X60.704Y-10.642
X60.704Y-31.356
X60.704Y-40.642
X60.704Y-61.356
X60.704Y-70.642
X60.704Y-91.356
X61.353Y-11.29
X61.353Y-30.708
X61.353Y-41.29
X61.353Y-60.708
X61.353Y-71.29
X61.353Y-90.708
X61.96Y-11.978
X61.96Y-30.02
X61.96Y-41.978
X61.96Y-60.02
X61.96Y-71.978
X61.96Y-90.02
X62.518Y-12.707
X62.518Y-29.291
X62.518Y-42.707
X62.518Y-59.291
X62.518Y-72.707
X62.518Y-89.291
X69.476Y-12.699
X69.476Y-29.299
X69.476Y-42.699
X69.476Y-59.299
X69.476Y-72.699
X69.476Y-89.299
X70.037Y-11.975
X70.037Y-30.023
X70.037Y-41.975
X70.037Y-60.023
X70.037Y-71.975
X70.037Y-90.023
X70.641Y-11.287
X70.641Y-30.711
X70.641Y-41.287
X70.641Y-60.711
X70.641Y-71.287
X70.641Y-90.711
X71.287Y-10.637
X71.287Y-31.361
X71.287Y-40.637
X71.287Y-61.361
X71.287Y-70.637
X71.287Y-91.36
X71.977Y-10.036
X71.977Y-31.962
X71.977Y-40.036
X71.977Y-61.962
X71.977Y-70.036
X71.977Y-91.962
X72.703Y-9.477
X72.703Y-32.521
X72.703Y-39.477
X72.703Y-62.521
X72.703Y-69.477
X72.703Y-92.521
X89.289Y-9.475
X89.289Y-32.523
X89.289Y-39.475
X89.289Y-62.523
X89.289Y-69.475
X89.289Y-92.523
X90.016Y-10.035
X90.016Y-31.963
X90.016Y-40.035
X90.016Y-61.963
X90.016Y-70.035
X90.016Y-91.963
X90.704Y-10.642
X90.704Y-31.356
X90.704Y-40.642
X90.704Y-61.356
X90.704Y-70.642
X90.704Y-91.356
X91.353Y-11.29
X91.353Y-30.708
X91.353Y-41.29
X91.353Y-71.29
X91.353Y-90.708
X91.354Y-60.708
X91.96Y-11.978
X91.96Y-30.02
X91.96Y-41.978
X91.96Y-60.02
X91.96Y-71.978
X91.96Y-90.02
X92.518Y-12.707
X92.518Y-29.291
X92.518Y-42.707
X92.518Y-59.291
X92.518Y-72.707
X92.518Y-89.291
T2
X8.874Y-18.878
X8.874Y-48.878
X8.874Y-78.878
X38.874Y-18.878
X38.874Y-48.878
X38.874Y-78.878
X68.874Y-18.878
X68.874Y-48.878
X68.874Y-78.878
M30
