G04 #@! TF.GenerationSoftware,KiCad,Pcbnew,9.0.1-9.0.1-0~ubuntu24.04.1*
G04 #@! TF.CreationDate,2025-04-05T16:25:19+02:00*
G04 #@! TF.ProjectId,panel,70616e65-6c2e-46b6-9963-61645f706362,rev?*
G04 #@! TF.SameCoordinates,Original*
G04 #@! TF.FileFunction,Soldermask,Bot*
G04 #@! TF.FilePolarity,Negative*
%FSLAX46Y46*%
G04 Gerber Fmt 4.6, Leading zero omitted, Abs format (unit mm)*
G04 Created by KiCad (PCBNEW 9.0.1-9.0.1-0~ubuntu24.04.1) date 2025-04-05 16:25:19*
%MOMM*%
%LPD*%
G01*
G04 APERTURE LIST*
G04 Aperture macros list*
%AMRoundRect*
0 Rectangle with rounded corners*
0 $1 Rounding radius*
0 $2 $3 $4 $5 $6 $7 $8 $9 X,Y pos of 4 corners*
0 Add a 4 corners polygon primitive as box body*
4,1,4,$2,$3,$4,$5,$6,$7,$8,$9,$2,$3,0*
0 Add four circle primitives for the rounded corners*
1,1,$1+$1,$2,$3*
1,1,$1+$1,$4,$5*
1,1,$1+$1,$6,$7*
1,1,$1+$1,$8,$9*
0 Add four rect primitives between the rounded corners*
20,1,$1+$1,$2,$3,$4,$5,0*
20,1,$1+$1,$4,$5,$6,$7,0*
20,1,$1+$1,$6,$7,$8,$9,0*
20,1,$1+$1,$8,$9,$2,$3,0*%
%AMFreePoly0*
4,1,23,0.500000,-0.750000,0.000000,-0.750000,0.000000,-0.745722,-0.065263,-0.745722,-0.191342,-0.711940,-0.304381,-0.646677,-0.396677,-0.554381,-0.461940,-0.441342,-0.495722,-0.315263,-0.495722,-0.250000,-0.500000,-0.250000,-0.500000,0.250000,-0.495722,0.250000,-0.495722,0.315263,-0.461940,0.441342,-0.396677,0.554381,-0.304381,0.646677,-0.191342,0.711940,-0.065263,0.745722,0.000000,0.745722,
0.000000,0.750000,0.500000,0.750000,0.500000,-0.750000,0.500000,-0.750000,$1*%
%AMFreePoly1*
4,1,23,0.000000,0.745722,0.065263,0.745722,0.191342,0.711940,0.304381,0.646677,0.396677,0.554381,0.461940,0.441342,0.495722,0.315263,0.495722,0.250000,0.500000,0.250000,0.500000,-0.250000,0.495722,-0.250000,0.495722,-0.315263,0.461940,-0.441342,0.396677,-0.554381,0.304381,-0.646677,0.191342,-0.711940,0.065263,-0.745722,0.000000,-0.745722,0.000000,-0.750000,-0.500000,-0.750000,
-0.500000,0.750000,0.000000,0.750000,0.000000,0.745722,0.000000,0.745722,$1*%
G04 Aperture macros list end*
%ADD10C,0.600000*%
%ADD11C,1.000000*%
%ADD12C,4.200000*%
%ADD13C,2.600000*%
%ADD14C,4.400000*%
%ADD15RoundRect,0.160000X0.197500X0.160000X-0.197500X0.160000X-0.197500X-0.160000X0.197500X-0.160000X0*%
%ADD16R,0.300000X0.800000*%
%ADD17R,0.400000X0.800000*%
%ADD18RoundRect,0.250000X0.300000X-0.300000X0.300000X0.300000X-0.300000X0.300000X-0.300000X-0.300000X0*%
%ADD19RoundRect,0.160000X-0.197500X-0.160000X0.197500X-0.160000X0.197500X0.160000X-0.197500X0.160000X0*%
%ADD20R,0.200000X0.470000*%
%ADD21R,0.470000X0.200000*%
%ADD22R,1.900000X1.900000*%
%ADD23FreePoly0,180.000000*%
%ADD24FreePoly1,180.000000*%
%ADD25RoundRect,0.250000X0.412500X1.100000X-0.412500X1.100000X-0.412500X-1.100000X0.412500X-1.100000X0*%
%ADD26RoundRect,0.155000X0.212500X0.155000X-0.212500X0.155000X-0.212500X-0.155000X0.212500X-0.155000X0*%
%ADD27RoundRect,0.250000X-0.250000X-1.500000X0.250000X-1.500000X0.250000X1.500000X-0.250000X1.500000X0*%
%ADD28RoundRect,0.250001X-0.499999X-1.449999X0.499999X-1.449999X0.499999X1.449999X-0.499999X1.449999X0*%
%ADD29RoundRect,0.155000X0.155000X-0.212500X0.155000X0.212500X-0.155000X0.212500X-0.155000X-0.212500X0*%
%ADD30RoundRect,0.250000X0.550000X-1.500000X0.550000X1.500000X-0.550000X1.500000X-0.550000X-1.500000X0*%
%ADD31RoundRect,0.237500X0.237500X-0.300000X0.237500X0.300000X-0.237500X0.300000X-0.237500X-0.300000X0*%
%ADD32RoundRect,0.155000X-0.212500X-0.155000X0.212500X-0.155000X0.212500X0.155000X-0.212500X0.155000X0*%
G04 APERTURE END LIST*
G04 #@! TO.C,JP2*
G36*
X60345716Y-57448929D02*
G01*
X60045716Y-57448929D01*
X60045716Y-58948929D01*
X60345716Y-58948929D01*
X60345716Y-57448929D01*
G37*
G36*
X30345716Y-87448929D02*
G01*
X30045716Y-87448929D01*
X30045716Y-88948929D01*
X30345716Y-88948929D01*
X30345716Y-87448929D01*
G37*
G36*
X30345716Y-57448929D02*
G01*
X30045716Y-57448929D01*
X30045716Y-58948929D01*
X30345716Y-58948929D01*
X30345716Y-57448929D01*
G37*
G36*
X90345716Y-27448929D02*
G01*
X90045716Y-27448929D01*
X90045716Y-28948929D01*
X90345716Y-28948929D01*
X90345716Y-27448929D01*
G37*
G36*
X60345716Y-27448929D02*
G01*
X60045716Y-27448929D01*
X60045716Y-28948929D01*
X60345716Y-28948929D01*
X60345716Y-27448929D01*
G37*
G36*
X60345716Y-87448929D02*
G01*
X60045716Y-87448929D01*
X60045716Y-88948929D01*
X60345716Y-88948929D01*
X60345716Y-87448929D01*
G37*
G36*
X90345716Y-57448929D02*
G01*
X90045716Y-57448929D01*
X90045716Y-58948929D01*
X90345716Y-58948929D01*
X90345716Y-57448929D01*
G37*
G36*
X90345716Y-87448929D02*
G01*
X90045716Y-87448929D01*
X90045716Y-88948929D01*
X90345716Y-88948929D01*
X90345716Y-87448929D01*
G37*
G36*
X30345716Y-27448929D02*
G01*
X30045716Y-27448929D01*
X30045716Y-28948929D01*
X30345716Y-28948929D01*
X30345716Y-27448929D01*
G37*
G04 #@! TD*
D10*
G04 #@! TO.C,KiKit_MB_2_2*
X11977156Y-31962169D03*
G04 #@! TD*
G04 #@! TO.C,KiKit_MB_19_3*
X60703668Y-40641747D03*
G04 #@! TD*
G04 #@! TO.C,KiKit_MB_14_4*
X10641440Y-60711092D03*
G04 #@! TD*
G04 #@! TO.C,KiKit_MB_25_1*
X9476484Y-72698529D03*
G04 #@! TD*
G04 #@! TO.C,KiKit_MB_36_5*
X90015572Y-91963188D03*
G04 #@! TD*
D11*
G04 #@! TO.C,J2*
X68874396Y-18877609D03*
D12*
X70995716Y-20998929D03*
G04 #@! TD*
D10*
G04 #@! TO.C,KiKit_MB_23_2*
X90015572Y-40034669D03*
G04 #@! TD*
G04 #@! TO.C,KiKit_MB_6_5*
X40037341Y-30023074D03*
G04 #@! TD*
G04 #@! TO.C,KiKit_MB_8_2*
X61960220Y-30019841D03*
G04 #@! TD*
G04 #@! TO.C,KiKit_MB_26_3*
X11287002Y-91360422D03*
G04 #@! TD*
G04 #@! TO.C,KiKit_MB_26_5*
X10037342Y-90023074D03*
G04 #@! TD*
G04 #@! TO.C,KiKit_MB_7_5*
X61960220Y-11978017D03*
G04 #@! TD*
G04 #@! TO.C,KiKit_MB_14_3*
X11286845Y-61360597D03*
G04 #@! TD*
G04 #@! TO.C,KiKit_MB_22_6*
X69476483Y-59299328D03*
G04 #@! TD*
G04 #@! TO.C,KiKit_MB_11_1*
X89288652Y-9474660D03*
G04 #@! TD*
G04 #@! TO.C,KiKit_MB_5_4*
X41286844Y-10637261D03*
G04 #@! TD*
G04 #@! TO.C,KiKit_MB_18_2*
X41977155Y-61962169D03*
G04 #@! TD*
G04 #@! TO.C,KiKit_MB_25_5*
X11977156Y-70035688D03*
G04 #@! TD*
G04 #@! TO.C,KiKit_MB_29_6*
X42702610Y-69477105D03*
G04 #@! TD*
G04 #@! TO.C,KiKit_MB_28_1*
X32517992Y-89291176D03*
G04 #@! TD*
G04 #@! TO.C,KiKit_MB_12_6*
X89288652Y-32523198D03*
G04 #@! TD*
G04 #@! TO.C,KiKit_MB_15_6*
X32517992Y-42706681D03*
G04 #@! TD*
G04 #@! TO.C,KiKit_MB_36_4*
X90703668Y-91356110D03*
G04 #@! TD*
G04 #@! TO.C,KiKit_MB_26_6*
X9476484Y-89299328D03*
G04 #@! TD*
G04 #@! TO.C,KiKit_MB_24_6*
X89288652Y-62523198D03*
G04 #@! TD*
D11*
G04 #@! TO.C,J2*
X8874396Y-18877609D03*
D12*
X10995716Y-20998929D03*
G04 #@! TD*
D10*
G04 #@! TO.C,KiKit_MB_1_5*
X11977156Y-10035689D03*
G04 #@! TD*
G04 #@! TO.C,KiKit_MB_3_4*
X31353544Y-11289559D03*
G04 #@! TD*
G04 #@! TO.C,KiKit_MB_36_3*
X91353408Y-90708168D03*
G04 #@! TD*
G04 #@! TO.C,KiKit_MB_33_4*
X71286844Y-70637260D03*
G04 #@! TD*
G04 #@! TO.C,KiKit_MB_8_6*
X59288652Y-32523198D03*
G04 #@! TD*
G04 #@! TO.C,KiKit_MB_30_4*
X40641439Y-90711092D03*
G04 #@! TD*
G04 #@! TO.C,KiKit_MB_1_1*
X9476484Y-12698530D03*
G04 #@! TD*
G04 #@! TO.C,KiKit_MB_13_3*
X10641440Y-41286765D03*
G04 #@! TD*
G04 #@! TO.C,KiKit_MB_27_6*
X32517992Y-72706681D03*
G04 #@! TD*
G04 #@! TO.C,KiKit_MB_12_1*
X92517992Y-29291176D03*
G04 #@! TD*
G04 #@! TO.C,KiKit_MB_11_6*
X92517992Y-12706682D03*
G04 #@! TD*
G04 #@! TO.C,KiKit_MB_2_3*
X11287002Y-31360422D03*
G04 #@! TD*
G04 #@! TO.C,KiKit_MB_21_2*
X70037341Y-41974783D03*
G04 #@! TD*
G04 #@! TO.C,KiKit_MB_30_2*
X41977155Y-91962169D03*
G04 #@! TD*
G04 #@! TO.C,KiKit_MB_26_4*
X10641440Y-90711092D03*
G04 #@! TD*
G04 #@! TO.C,KiKit_MB_7_1*
X59288652Y-9474660D03*
G04 #@! TD*
G04 #@! TO.C,KiKit_MB_28_3*
X31353408Y-90708168D03*
G04 #@! TD*
G04 #@! TO.C,KiKit_MB_5_3*
X40641439Y-11286766D03*
G04 #@! TD*
G04 #@! TO.C,KiKit_MB_4_2*
X31960220Y-30019841D03*
G04 #@! TD*
G04 #@! TO.C,KiKit_MB_31_5*
X61960220Y-71978016D03*
G04 #@! TD*
G04 #@! TO.C,KiKit_MB_20_5*
X60015572Y-61963188D03*
G04 #@! TD*
G04 #@! TO.C,KiKit_MB_35_5*
X91960220Y-71978016D03*
G04 #@! TD*
G04 #@! TO.C,KiKit_MB_21_1*
X69476483Y-42698529D03*
G04 #@! TD*
G04 #@! TO.C,KiKit_MB_19_2*
X60015572Y-40034669D03*
G04 #@! TD*
G04 #@! TO.C,KiKit_MB_6_3*
X41286844Y-31360597D03*
G04 #@! TD*
D11*
G04 #@! TO.C,J2*
X38874396Y-78877609D03*
D12*
X40995716Y-80998929D03*
G04 #@! TD*
D10*
G04 #@! TO.C,KiKit_MB_9_5*
X71977155Y-10035689D03*
G04 #@! TD*
G04 #@! TO.C,KiKit_MB_28_2*
X31960220Y-90019841D03*
G04 #@! TD*
G04 #@! TO.C,KiKit_MB_34_1*
X72702610Y-92520752D03*
G04 #@! TD*
G04 #@! TO.C,KiKit_MB_21_4*
X71286844Y-40637260D03*
G04 #@! TD*
G04 #@! TO.C,KiKit_MB_29_2*
X40037341Y-71974783D03*
G04 #@! TD*
G04 #@! TO.C,KiKit_MB_2_5*
X10037342Y-30023074D03*
G04 #@! TD*
D13*
G04 #@! TO.C,H1*
X30995716Y-80998929D03*
D14*
X30995716Y-80998929D03*
G04 #@! TD*
D10*
G04 #@! TO.C,KiKit_MB_11_2*
X90015572Y-10034670D03*
G04 #@! TD*
G04 #@! TO.C,KiKit_MB_22_5*
X70037341Y-60023074D03*
G04 #@! TD*
G04 #@! TO.C,KiKit_MB_18_5*
X40037341Y-60023074D03*
G04 #@! TD*
G04 #@! TO.C,KiKit_MB_24_3*
X91353544Y-60708299D03*
G04 #@! TD*
G04 #@! TO.C,KiKit_MB_14_2*
X11977156Y-61962169D03*
G04 #@! TD*
G04 #@! TO.C,KiKit_MB_36_2*
X91960220Y-90019841D03*
G04 #@! TD*
G04 #@! TO.C,KiKit_MB_30_3*
X41287001Y-91360422D03*
G04 #@! TD*
G04 #@! TO.C,KiKit_MB_17_6*
X42702610Y-39477105D03*
G04 #@! TD*
G04 #@! TO.C,KiKit_MB_35_6*
X92517992Y-72706681D03*
G04 #@! TD*
D11*
G04 #@! TO.C,J2*
X68874396Y-78877609D03*
D12*
X70995716Y-80998929D03*
G04 #@! TD*
D10*
G04 #@! TO.C,KiKit_MB_13_2*
X10037342Y-41974783D03*
G04 #@! TD*
D13*
G04 #@! TO.C,H1*
X60995716Y-50998929D03*
D14*
X60995716Y-50998929D03*
G04 #@! TD*
D10*
G04 #@! TO.C,KiKit_MB_10_1*
X72702610Y-32520752D03*
G04 #@! TD*
D13*
G04 #@! TO.C,H1*
X30995716Y-20998929D03*
D14*
X30995716Y-20998929D03*
G04 #@! TD*
D10*
G04 #@! TO.C,KiKit_MB_32_3*
X61353408Y-90708168D03*
G04 #@! TD*
G04 #@! TO.C,KiKit_MB_30_6*
X39476483Y-89299328D03*
G04 #@! TD*
D13*
G04 #@! TO.C,H1*
X90995716Y-20998929D03*
D14*
X90995716Y-20998929D03*
G04 #@! TD*
D10*
G04 #@! TO.C,KiKit_MB_24_2*
X91960220Y-60019841D03*
G04 #@! TD*
G04 #@! TO.C,KiKit_MB_11_5*
X91960220Y-11978017D03*
G04 #@! TD*
G04 #@! TO.C,KiKit_MB_33_1*
X69476483Y-72698529D03*
G04 #@! TD*
G04 #@! TO.C,KiKit_MB_8_3*
X61353408Y-30708168D03*
G04 #@! TD*
G04 #@! TO.C,KiKit_MB_23_4*
X91353408Y-41289689D03*
G04 #@! TD*
G04 #@! TO.C,KiKit_MB_15_4*
X31353408Y-41289689D03*
G04 #@! TD*
G04 #@! TO.C,KiKit_MB_28_6*
X29288652Y-92523198D03*
G04 #@! TD*
G04 #@! TO.C,KiKit_MB_29_3*
X40641439Y-71286765D03*
G04 #@! TD*
G04 #@! TO.C,KiKit_MB_16_5*
X30015572Y-61963188D03*
G04 #@! TD*
G04 #@! TO.C,KiKit_MB_6_2*
X41977155Y-31962169D03*
G04 #@! TD*
G04 #@! TO.C,KiKit_MB_5_2*
X40037341Y-11974784D03*
G04 #@! TD*
G04 #@! TO.C,KiKit_MB_4_6*
X29288652Y-32523198D03*
G04 #@! TD*
G04 #@! TO.C,KiKit_MB_16_2*
X31960220Y-60019841D03*
G04 #@! TD*
G04 #@! TO.C,KiKit_MB_5_1*
X39476483Y-12698530D03*
G04 #@! TD*
G04 #@! TO.C,KiKit_MB_4_1*
X32517992Y-29291176D03*
G04 #@! TD*
G04 #@! TO.C,KiKit_MB_21_3*
X70641439Y-41286765D03*
G04 #@! TD*
D11*
G04 #@! TO.C,J2*
X8874396Y-48877609D03*
D12*
X10995716Y-50998929D03*
G04 #@! TD*
D10*
G04 #@! TO.C,KiKit_MB_24_5*
X90015572Y-61963188D03*
G04 #@! TD*
G04 #@! TO.C,KiKit_MB_15_5*
X31960220Y-41978016D03*
G04 #@! TD*
G04 #@! TO.C,KiKit_MB_21_6*
X72702610Y-39477105D03*
G04 #@! TD*
G04 #@! TO.C,KiKit_MB_1_3*
X10641440Y-11286766D03*
G04 #@! TD*
G04 #@! TO.C,KiKit_MB_24_1*
X92517992Y-59291176D03*
G04 #@! TD*
G04 #@! TO.C,KiKit_MB_6_6*
X39476483Y-29299328D03*
G04 #@! TD*
G04 #@! TO.C,KiKit_MB_8_4*
X60703668Y-31356110D03*
G04 #@! TD*
G04 #@! TO.C,KiKit_MB_24_4*
X90703668Y-61356110D03*
G04 #@! TD*
G04 #@! TO.C,KiKit_MB_4_3*
X31353408Y-30708168D03*
G04 #@! TD*
G04 #@! TO.C,KiKit_MB_34_2*
X71977155Y-91962169D03*
G04 #@! TD*
G04 #@! TO.C,KiKit_MB_19_4*
X61353408Y-41289689D03*
G04 #@! TD*
G04 #@! TO.C,KiKit_MB_25_6*
X12702611Y-69477105D03*
G04 #@! TD*
G04 #@! TO.C,KiKit_MB_9_2*
X70037341Y-11974784D03*
G04 #@! TD*
G04 #@! TO.C,KiKit_MB_33_5*
X71977155Y-70035688D03*
G04 #@! TD*
D13*
G04 #@! TO.C,H1*
X60995716Y-80998929D03*
D14*
X60995716Y-80998929D03*
G04 #@! TD*
D10*
G04 #@! TO.C,KiKit_MB_9_1*
X69476483Y-12698530D03*
G04 #@! TD*
G04 #@! TO.C,KiKit_MB_32_5*
X60015572Y-91963188D03*
G04 #@! TD*
G04 #@! TO.C,KiKit_MB_12_4*
X90703668Y-31356110D03*
G04 #@! TD*
G04 #@! TO.C,KiKit_MB_18_4*
X40641439Y-60711092D03*
G04 #@! TD*
G04 #@! TO.C,KiKit_MB_33_2*
X70037341Y-71974783D03*
G04 #@! TD*
D13*
G04 #@! TO.C,H1*
X30995716Y-50998929D03*
D14*
X30995716Y-50998929D03*
G04 #@! TD*
D10*
G04 #@! TO.C,KiKit_MB_10_3*
X71286844Y-31360597D03*
G04 #@! TD*
G04 #@! TO.C,KiKit_MB_11_4*
X91353408Y-11289690D03*
G04 #@! TD*
G04 #@! TO.C,KiKit_MB_4_4*
X30703668Y-31356110D03*
G04 #@! TD*
G04 #@! TO.C,KiKit_MB_36_6*
X89288652Y-92523198D03*
G04 #@! TD*
D11*
G04 #@! TO.C,J2*
X38874396Y-18877609D03*
D12*
X40995716Y-20998929D03*
G04 #@! TD*
D10*
G04 #@! TO.C,KiKit_MB_23_5*
X91960220Y-41978016D03*
G04 #@! TD*
G04 #@! TO.C,KiKit_MB_13_6*
X12702611Y-39477105D03*
G04 #@! TD*
G04 #@! TO.C,KiKit_MB_21_5*
X71977155Y-40035688D03*
G04 #@! TD*
G04 #@! TO.C,KiKit_MB_17_5*
X41977155Y-40035688D03*
G04 #@! TD*
G04 #@! TO.C,KiKit_MB_31_4*
X61353408Y-71289689D03*
G04 #@! TD*
G04 #@! TO.C,KiKit_MB_27_3*
X30703668Y-70641747D03*
G04 #@! TD*
G04 #@! TO.C,KiKit_MB_23_6*
X92517992Y-42706681D03*
G04 #@! TD*
G04 #@! TO.C,KiKit_MB_10_6*
X69476483Y-29299328D03*
G04 #@! TD*
G04 #@! TO.C,KiKit_MB_7_2*
X60015572Y-10034670D03*
G04 #@! TD*
G04 #@! TO.C,KiKit_MB_23_1*
X89288652Y-39474659D03*
G04 #@! TD*
G04 #@! TO.C,KiKit_MB_16_6*
X29288652Y-62523198D03*
G04 #@! TD*
G04 #@! TO.C,KiKit_MB_29_1*
X39476483Y-72698529D03*
G04 #@! TD*
G04 #@! TO.C,KiKit_MB_31_2*
X60015572Y-70034669D03*
G04 #@! TD*
G04 #@! TO.C,KiKit_MB_23_3*
X90703668Y-40641747D03*
G04 #@! TD*
G04 #@! TO.C,KiKit_MB_14_6*
X9476484Y-59299328D03*
G04 #@! TD*
G04 #@! TO.C,KiKit_MB_27_5*
X31960220Y-71978016D03*
G04 #@! TD*
G04 #@! TO.C,KiKit_MB_17_4*
X41286844Y-40637260D03*
G04 #@! TD*
G04 #@! TO.C,KiKit_MB_8_5*
X60015572Y-31963188D03*
G04 #@! TD*
G04 #@! TO.C,KiKit_MB_9_4*
X71286844Y-10637261D03*
G04 #@! TD*
D13*
G04 #@! TO.C,H1*
X60995716Y-20998929D03*
D14*
X60995716Y-20998929D03*
G04 #@! TD*
D10*
G04 #@! TO.C,KiKit_MB_35_1*
X89288652Y-69474659D03*
G04 #@! TD*
G04 #@! TO.C,KiKit_MB_3_3*
X30703668Y-10641748D03*
G04 #@! TD*
G04 #@! TO.C,KiKit_MB_35_4*
X91353408Y-71289689D03*
G04 #@! TD*
G04 #@! TO.C,KiKit_MB_22_3*
X71286844Y-61360597D03*
G04 #@! TD*
G04 #@! TO.C,KiKit_MB_36_1*
X92517992Y-89291176D03*
G04 #@! TD*
G04 #@! TO.C,KiKit_MB_12_2*
X91960220Y-30019841D03*
G04 #@! TD*
G04 #@! TO.C,KiKit_MB_20_3*
X61353408Y-60708168D03*
G04 #@! TD*
G04 #@! TO.C,KiKit_MB_35_3*
X90703668Y-70641747D03*
G04 #@! TD*
G04 #@! TO.C,KiKit_MB_28_5*
X30015572Y-91963188D03*
G04 #@! TD*
G04 #@! TO.C,KiKit_MB_13_1*
X9476484Y-42698529D03*
G04 #@! TD*
G04 #@! TO.C,KiKit_MB_31_3*
X60703668Y-70641747D03*
G04 #@! TD*
D11*
G04 #@! TO.C,J2*
X8874396Y-78877609D03*
D12*
X10995716Y-80998929D03*
G04 #@! TD*
D10*
G04 #@! TO.C,KiKit_MB_10_2*
X71977155Y-31962169D03*
G04 #@! TD*
G04 #@! TO.C,KiKit_MB_15_3*
X30703668Y-40641747D03*
G04 #@! TD*
G04 #@! TO.C,KiKit_MB_20_2*
X61960220Y-60019841D03*
G04 #@! TD*
G04 #@! TO.C,KiKit_MB_25_2*
X10037342Y-71974783D03*
G04 #@! TD*
G04 #@! TO.C,KiKit_MB_26_1*
X12702611Y-92520752D03*
G04 #@! TD*
G04 #@! TO.C,KiKit_MB_3_6*
X32517992Y-12706682D03*
G04 #@! TD*
G04 #@! TO.C,KiKit_MB_1_2*
X10037342Y-11974784D03*
G04 #@! TD*
G04 #@! TO.C,KiKit_MB_6_4*
X40641439Y-30711092D03*
G04 #@! TD*
G04 #@! TO.C,KiKit_MB_35_2*
X90015572Y-70034669D03*
G04 #@! TD*
G04 #@! TO.C,KiKit_MB_28_4*
X30703668Y-91356110D03*
G04 #@! TD*
G04 #@! TO.C,KiKit_MB_13_4*
X11286845Y-40637260D03*
G04 #@! TD*
G04 #@! TO.C,KiKit_MB_17_1*
X39476483Y-42698529D03*
G04 #@! TD*
D11*
G04 #@! TO.C,J2*
X38874396Y-48877609D03*
D12*
X40995716Y-50998929D03*
G04 #@! TD*
D10*
G04 #@! TO.C,KiKit_MB_20_6*
X59288652Y-62523198D03*
G04 #@! TD*
G04 #@! TO.C,KiKit_MB_8_1*
X62517992Y-29291176D03*
G04 #@! TD*
G04 #@! TO.C,KiKit_MB_22_4*
X70641439Y-60711092D03*
G04 #@! TD*
G04 #@! TO.C,KiKit_MB_7_6*
X62517992Y-12706682D03*
G04 #@! TD*
G04 #@! TO.C,KiKit_MB_19_5*
X61960220Y-41978016D03*
G04 #@! TD*
G04 #@! TO.C,KiKit_MB_18_3*
X41286844Y-61360597D03*
G04 #@! TD*
G04 #@! TO.C,KiKit_MB_29_5*
X41977155Y-70035688D03*
G04 #@! TD*
G04 #@! TO.C,KiKit_MB_12_5*
X90015572Y-31963188D03*
G04 #@! TD*
G04 #@! TO.C,KiKit_MB_17_3*
X40641439Y-41286765D03*
G04 #@! TD*
G04 #@! TO.C,KiKit_MB_3_5*
X31960220Y-11978017D03*
G04 #@! TD*
G04 #@! TO.C,KiKit_MB_3_2*
X30015572Y-10034670D03*
G04 #@! TD*
G04 #@! TO.C,KiKit_MB_22_1*
X72702610Y-62520752D03*
G04 #@! TD*
G04 #@! TO.C,KiKit_MB_33_6*
X72702610Y-69477105D03*
G04 #@! TD*
G04 #@! TO.C,KiKit_MB_30_5*
X40037341Y-90023074D03*
G04 #@! TD*
G04 #@! TO.C,KiKit_MB_3_1*
X29288652Y-9474660D03*
G04 #@! TD*
G04 #@! TO.C,KiKit_MB_27_4*
X31353408Y-71289689D03*
G04 #@! TD*
G04 #@! TO.C,KiKit_MB_2_4*
X10641440Y-30711092D03*
G04 #@! TD*
G04 #@! TO.C,KiKit_MB_22_2*
X71977155Y-61962169D03*
G04 #@! TD*
G04 #@! TO.C,KiKit_MB_27_2*
X30015572Y-70034669D03*
G04 #@! TD*
G04 #@! TO.C,KiKit_MB_10_5*
X70037341Y-30023074D03*
G04 #@! TD*
G04 #@! TO.C,KiKit_MB_31_1*
X59288652Y-69474659D03*
G04 #@! TD*
D13*
G04 #@! TO.C,H1*
X90995716Y-80998929D03*
D14*
X90995716Y-80998929D03*
G04 #@! TD*
D10*
G04 #@! TO.C,KiKit_MB_1_4*
X11287002Y-10637436D03*
G04 #@! TD*
G04 #@! TO.C,KiKit_MB_25_4*
X11286845Y-70637260D03*
G04 #@! TD*
G04 #@! TO.C,KiKit_MB_26_2*
X11977156Y-91962169D03*
G04 #@! TD*
G04 #@! TO.C,KiKit_MB_2_1*
X12702611Y-32520752D03*
G04 #@! TD*
G04 #@! TO.C,KiKit_MB_32_1*
X62517992Y-89291176D03*
G04 #@! TD*
G04 #@! TO.C,KiKit_MB_18_6*
X39476483Y-59299328D03*
G04 #@! TD*
G04 #@! TO.C,KiKit_MB_2_6*
X9476484Y-29299328D03*
G04 #@! TD*
G04 #@! TO.C,KiKit_MB_16_3*
X31353544Y-60708299D03*
G04 #@! TD*
G04 #@! TO.C,KiKit_MB_25_3*
X10641440Y-71286765D03*
G04 #@! TD*
G04 #@! TO.C,KiKit_MB_34_4*
X70641439Y-90711092D03*
G04 #@! TD*
G04 #@! TO.C,KiKit_MB_12_3*
X91353408Y-30708168D03*
G04 #@! TD*
G04 #@! TO.C,KiKit_MB_32_6*
X59288652Y-92523198D03*
G04 #@! TD*
G04 #@! TO.C,KiKit_MB_9_3*
X70641439Y-11286766D03*
G04 #@! TD*
G04 #@! TO.C,KiKit_MB_34_6*
X69476483Y-89299328D03*
G04 #@! TD*
G04 #@! TO.C,KiKit_MB_7_3*
X60703668Y-10641748D03*
G04 #@! TD*
G04 #@! TO.C,KiKit_MB_14_5*
X10037342Y-60023074D03*
G04 #@! TD*
G04 #@! TO.C,KiKit_MB_7_4*
X61353408Y-11289690D03*
G04 #@! TD*
G04 #@! TO.C,KiKit_MB_34_5*
X70037341Y-90023074D03*
G04 #@! TD*
D13*
G04 #@! TO.C,H1*
X90995716Y-50998929D03*
D14*
X90995716Y-50998929D03*
G04 #@! TD*
D10*
G04 #@! TO.C,KiKit_MB_32_2*
X61960220Y-90019841D03*
G04 #@! TD*
G04 #@! TO.C,KiKit_MB_20_4*
X60703668Y-61356110D03*
G04 #@! TD*
G04 #@! TO.C,KiKit_MB_16_1*
X32517992Y-59291176D03*
G04 #@! TD*
G04 #@! TO.C,KiKit_MB_32_4*
X60703668Y-91356110D03*
G04 #@! TD*
G04 #@! TO.C,KiKit_MB_30_1*
X42702610Y-92520752D03*
G04 #@! TD*
G04 #@! TO.C,KiKit_MB_15_1*
X29288652Y-39474659D03*
G04 #@! TD*
G04 #@! TO.C,KiKit_MB_17_2*
X40037341Y-41974783D03*
G04 #@! TD*
G04 #@! TO.C,KiKit_MB_13_5*
X11977156Y-40035688D03*
G04 #@! TD*
G04 #@! TO.C,KiKit_MB_6_1*
X42702610Y-32520752D03*
G04 #@! TD*
G04 #@! TO.C,KiKit_MB_11_3*
X90703668Y-10641748D03*
G04 #@! TD*
G04 #@! TO.C,KiKit_MB_1_6*
X12702611Y-9477106D03*
G04 #@! TD*
G04 #@! TO.C,KiKit_MB_16_4*
X30703668Y-61356110D03*
G04 #@! TD*
G04 #@! TO.C,KiKit_MB_10_4*
X70641439Y-30711092D03*
G04 #@! TD*
G04 #@! TO.C,KiKit_MB_19_1*
X59288652Y-39474659D03*
G04 #@! TD*
G04 #@! TO.C,KiKit_MB_9_6*
X72702610Y-9477106D03*
G04 #@! TD*
G04 #@! TO.C,KiKit_MB_27_1*
X29288652Y-69474659D03*
G04 #@! TD*
G04 #@! TO.C,KiKit_MB_34_3*
X71287001Y-91360422D03*
G04 #@! TD*
G04 #@! TO.C,KiKit_MB_5_5*
X41977155Y-10035689D03*
G04 #@! TD*
G04 #@! TO.C,KiKit_MB_29_4*
X41287001Y-70637435D03*
G04 #@! TD*
D11*
G04 #@! TO.C,J2*
X68874396Y-48877609D03*
D12*
X70995716Y-50998929D03*
G04 #@! TD*
D10*
G04 #@! TO.C,KiKit_MB_4_5*
X30015572Y-31963188D03*
G04 #@! TD*
G04 #@! TO.C,KiKit_MB_18_1*
X42702610Y-62520752D03*
G04 #@! TD*
G04 #@! TO.C,KiKit_MB_31_6*
X62517992Y-72706681D03*
G04 #@! TD*
G04 #@! TO.C,KiKit_MB_20_1*
X62517992Y-59291176D03*
G04 #@! TD*
G04 #@! TO.C,KiKit_MB_5_6*
X42702610Y-9477106D03*
G04 #@! TD*
G04 #@! TO.C,KiKit_MB_14_1*
X12702611Y-62520752D03*
G04 #@! TD*
G04 #@! TO.C,KiKit_MB_15_2*
X30015572Y-40034669D03*
G04 #@! TD*
G04 #@! TO.C,KiKit_MB_19_6*
X62517992Y-42706681D03*
G04 #@! TD*
G04 #@! TO.C,KiKit_MB_33_3*
X70641439Y-71286765D03*
G04 #@! TD*
D15*
G04 #@! TO.C,R4*
X57793216Y-91298929D03*
X56598216Y-91298929D03*
G04 #@! TD*
D16*
G04 #@! TO.C,FPC1*
X55745716Y-14848929D03*
X56245716Y-14848929D03*
X56745716Y-14848929D03*
X57245716Y-14848929D03*
X57745716Y-14848929D03*
X58245716Y-14848929D03*
X58745716Y-14848929D03*
X59245716Y-14848929D03*
D17*
X60245716Y-12348929D03*
X54745716Y-12348929D03*
G04 #@! TD*
D18*
G04 #@! TO.C,D2*
X72495716Y-59498929D03*
X72495716Y-56698929D03*
G04 #@! TD*
D16*
G04 #@! TO.C,FPC1*
X55745716Y-74848929D03*
X56245716Y-74848929D03*
X56745716Y-74848929D03*
X57245716Y-74848929D03*
X57745716Y-74848929D03*
X58245716Y-74848929D03*
X58745716Y-74848929D03*
X59245716Y-74848929D03*
D17*
X60245716Y-72348929D03*
X54745716Y-72348929D03*
G04 #@! TD*
D19*
G04 #@! TO.C,R1*
X58395716Y-85398929D03*
X59590716Y-85398929D03*
G04 #@! TD*
D15*
G04 #@! TO.C,R5*
X90093216Y-30298929D03*
X88898216Y-30298929D03*
G04 #@! TD*
D20*
G04 #@! TO.C,IC2*
X86695716Y-56063929D03*
X86295716Y-56063929D03*
X85895716Y-56063929D03*
X85495716Y-56063929D03*
X85095716Y-56063929D03*
X84695716Y-56063929D03*
X84295716Y-56063929D03*
D21*
X84030716Y-55268929D03*
X84030716Y-54868929D03*
X84030716Y-54468929D03*
X84030716Y-54068929D03*
X84030716Y-53668929D03*
D20*
X84295716Y-53133929D03*
X84695716Y-53133929D03*
X85095716Y-53133929D03*
X85495716Y-53133929D03*
X85895716Y-53133929D03*
X86295716Y-53133929D03*
X86695716Y-53133929D03*
D21*
X86960716Y-53668929D03*
X86960716Y-54068929D03*
X86960716Y-54468929D03*
X86960716Y-54868929D03*
X86960716Y-55268929D03*
D22*
X85495716Y-54598929D03*
G04 #@! TD*
D23*
G04 #@! TO.C,JP2*
X60845716Y-58198929D03*
D24*
X59545716Y-58198929D03*
G04 #@! TD*
D20*
G04 #@! TO.C,IC2*
X86695716Y-86063929D03*
X86295716Y-86063929D03*
X85895716Y-86063929D03*
X85495716Y-86063929D03*
X85095716Y-86063929D03*
X84695716Y-86063929D03*
X84295716Y-86063929D03*
D21*
X84030716Y-85268929D03*
X84030716Y-84868929D03*
X84030716Y-84468929D03*
X84030716Y-84068929D03*
X84030716Y-83668929D03*
D20*
X84295716Y-83133929D03*
X84695716Y-83133929D03*
X85095716Y-83133929D03*
X85495716Y-83133929D03*
X85895716Y-83133929D03*
X86295716Y-83133929D03*
X86695716Y-83133929D03*
D21*
X86960716Y-83668929D03*
X86960716Y-84068929D03*
X86960716Y-84468929D03*
X86960716Y-84868929D03*
X86960716Y-85268929D03*
D22*
X85495716Y-84598929D03*
G04 #@! TD*
D25*
G04 #@! TO.C,C18*
X24958216Y-60598929D03*
X21833216Y-60598929D03*
G04 #@! TD*
D19*
G04 #@! TO.C,R1*
X58395716Y-25398929D03*
X59590716Y-25398929D03*
G04 #@! TD*
D26*
G04 #@! TO.C,C9*
X53163216Y-27398929D03*
X52028216Y-27398929D03*
G04 #@! TD*
G04 #@! TO.C,C17*
X23163216Y-58498929D03*
X22028216Y-58498929D03*
G04 #@! TD*
D15*
G04 #@! TO.C,R5*
X30093216Y-30298929D03*
X28898216Y-30298929D03*
G04 #@! TD*
D23*
G04 #@! TO.C,JP2*
X30845716Y-88198929D03*
D24*
X29545716Y-88198929D03*
G04 #@! TD*
D27*
G04 #@! TO.C,J4*
X16945716Y-79348929D03*
X18945716Y-79348929D03*
X20945716Y-79348929D03*
D28*
X14595716Y-73598929D03*
X23295716Y-73598929D03*
G04 #@! TD*
D15*
G04 #@! TO.C,R4*
X27793216Y-91298929D03*
X26598216Y-91298929D03*
G04 #@! TD*
G04 #@! TO.C,R4*
X87793216Y-91298929D03*
X86598216Y-91298929D03*
G04 #@! TD*
D29*
G04 #@! TO.C,C6*
X84395716Y-58466429D03*
X84395716Y-57331429D03*
G04 #@! TD*
D30*
G04 #@! TO.C,C19*
X47295716Y-31298929D03*
X47295716Y-25898929D03*
G04 #@! TD*
D31*
G04 #@! TO.C,C16*
X26295716Y-51423929D03*
X26295716Y-49698929D03*
G04 #@! TD*
D30*
G04 #@! TO.C,C19*
X77295716Y-91298929D03*
X77295716Y-85898929D03*
G04 #@! TD*
D29*
G04 #@! TO.C,C6*
X24395716Y-88466429D03*
X24395716Y-87331429D03*
G04 #@! TD*
D27*
G04 #@! TO.C,J4*
X76945716Y-19348929D03*
X78945716Y-19348929D03*
X80945716Y-19348929D03*
D28*
X74595716Y-13598929D03*
X83295716Y-13598929D03*
G04 #@! TD*
D25*
G04 #@! TO.C,C18*
X84958216Y-30598929D03*
X81833216Y-30598929D03*
G04 #@! TD*
D23*
G04 #@! TO.C,JP2*
X30845716Y-58198929D03*
D24*
X29545716Y-58198929D03*
G04 #@! TD*
D18*
G04 #@! TO.C,D2*
X72495716Y-89498929D03*
X72495716Y-86698929D03*
G04 #@! TD*
D31*
G04 #@! TO.C,C16*
X56295716Y-51423929D03*
X56295716Y-49698929D03*
G04 #@! TD*
D26*
G04 #@! TO.C,C17*
X53163216Y-88498929D03*
X52028216Y-88498929D03*
G04 #@! TD*
D27*
G04 #@! TO.C,J4*
X46945716Y-19348929D03*
X48945716Y-19348929D03*
X50945716Y-19348929D03*
D28*
X44595716Y-13598929D03*
X53295716Y-13598929D03*
G04 #@! TD*
D30*
G04 #@! TO.C,C19*
X17295716Y-91298929D03*
X17295716Y-85898929D03*
G04 #@! TD*
D32*
G04 #@! TO.C,C20*
X26528216Y-87398929D03*
X27663216Y-87398929D03*
G04 #@! TD*
D19*
G04 #@! TO.C,R1*
X28395716Y-25398929D03*
X29590716Y-25398929D03*
G04 #@! TD*
D23*
G04 #@! TO.C,JP2*
X90845716Y-28198929D03*
D24*
X89545716Y-28198929D03*
G04 #@! TD*
D25*
G04 #@! TO.C,C18*
X24958216Y-90598929D03*
X21833216Y-90598929D03*
G04 #@! TD*
D20*
G04 #@! TO.C,IC2*
X26695716Y-26063929D03*
X26295716Y-26063929D03*
X25895716Y-26063929D03*
X25495716Y-26063929D03*
X25095716Y-26063929D03*
X24695716Y-26063929D03*
X24295716Y-26063929D03*
D21*
X24030716Y-25268929D03*
X24030716Y-24868929D03*
X24030716Y-24468929D03*
X24030716Y-24068929D03*
X24030716Y-23668929D03*
D20*
X24295716Y-23133929D03*
X24695716Y-23133929D03*
X25095716Y-23133929D03*
X25495716Y-23133929D03*
X25895716Y-23133929D03*
X26295716Y-23133929D03*
X26695716Y-23133929D03*
D21*
X26960716Y-23668929D03*
X26960716Y-24068929D03*
X26960716Y-24468929D03*
X26960716Y-24868929D03*
X26960716Y-25268929D03*
D22*
X25495716Y-24598929D03*
G04 #@! TD*
D15*
G04 #@! TO.C,R5*
X90093216Y-90298929D03*
X88898216Y-90298929D03*
G04 #@! TD*
D26*
G04 #@! TO.C,C17*
X83163216Y-28498929D03*
X82028216Y-28498929D03*
G04 #@! TD*
D30*
G04 #@! TO.C,C19*
X77295716Y-31298929D03*
X77295716Y-25898929D03*
G04 #@! TD*
D25*
G04 #@! TO.C,C18*
X84958216Y-60598929D03*
X81833216Y-60598929D03*
G04 #@! TD*
D16*
G04 #@! TO.C,FPC1*
X25745716Y-74848929D03*
X26245716Y-74848929D03*
X26745716Y-74848929D03*
X27245716Y-74848929D03*
X27745716Y-74848929D03*
X28245716Y-74848929D03*
X28745716Y-74848929D03*
X29245716Y-74848929D03*
D17*
X30245716Y-72348929D03*
X24745716Y-72348929D03*
G04 #@! TD*
D27*
G04 #@! TO.C,J4*
X16945716Y-19348929D03*
X18945716Y-19348929D03*
X20945716Y-19348929D03*
D28*
X14595716Y-13598929D03*
X23295716Y-13598929D03*
G04 #@! TD*
D15*
G04 #@! TO.C,R4*
X57793216Y-31298929D03*
X56598216Y-31298929D03*
G04 #@! TD*
D32*
G04 #@! TO.C,C20*
X86528216Y-27398929D03*
X87663216Y-27398929D03*
G04 #@! TD*
D26*
G04 #@! TO.C,C9*
X83163216Y-57398929D03*
X82028216Y-57398929D03*
G04 #@! TD*
D20*
G04 #@! TO.C,IC2*
X86695716Y-26063929D03*
X86295716Y-26063929D03*
X85895716Y-26063929D03*
X85495716Y-26063929D03*
X85095716Y-26063929D03*
X84695716Y-26063929D03*
X84295716Y-26063929D03*
D21*
X84030716Y-25268929D03*
X84030716Y-24868929D03*
X84030716Y-24468929D03*
X84030716Y-24068929D03*
X84030716Y-23668929D03*
D20*
X84295716Y-23133929D03*
X84695716Y-23133929D03*
X85095716Y-23133929D03*
X85495716Y-23133929D03*
X85895716Y-23133929D03*
X86295716Y-23133929D03*
X86695716Y-23133929D03*
D21*
X86960716Y-23668929D03*
X86960716Y-24068929D03*
X86960716Y-24468929D03*
X86960716Y-24868929D03*
X86960716Y-25268929D03*
D22*
X85495716Y-24598929D03*
G04 #@! TD*
D18*
G04 #@! TO.C,D2*
X72495716Y-29498929D03*
X72495716Y-26698929D03*
G04 #@! TD*
D23*
G04 #@! TO.C,JP2*
X60845716Y-28198929D03*
D24*
X59545716Y-28198929D03*
G04 #@! TD*
D26*
G04 #@! TO.C,C9*
X23163216Y-57398929D03*
X22028216Y-57398929D03*
G04 #@! TD*
D29*
G04 #@! TO.C,C6*
X24395716Y-58466429D03*
X24395716Y-57331429D03*
G04 #@! TD*
D20*
G04 #@! TO.C,IC2*
X26695716Y-56063929D03*
X26295716Y-56063929D03*
X25895716Y-56063929D03*
X25495716Y-56063929D03*
X25095716Y-56063929D03*
X24695716Y-56063929D03*
X24295716Y-56063929D03*
D21*
X24030716Y-55268929D03*
X24030716Y-54868929D03*
X24030716Y-54468929D03*
X24030716Y-54068929D03*
X24030716Y-53668929D03*
D20*
X24295716Y-53133929D03*
X24695716Y-53133929D03*
X25095716Y-53133929D03*
X25495716Y-53133929D03*
X25895716Y-53133929D03*
X26295716Y-53133929D03*
X26695716Y-53133929D03*
D21*
X26960716Y-53668929D03*
X26960716Y-54068929D03*
X26960716Y-54468929D03*
X26960716Y-54868929D03*
X26960716Y-55268929D03*
D22*
X25495716Y-54598929D03*
G04 #@! TD*
D25*
G04 #@! TO.C,C18*
X54958216Y-90598929D03*
X51833216Y-90598929D03*
G04 #@! TD*
D18*
G04 #@! TO.C,D2*
X12495716Y-59498929D03*
X12495716Y-56698929D03*
G04 #@! TD*
D16*
G04 #@! TO.C,FPC1*
X85745716Y-44848929D03*
X86245716Y-44848929D03*
X86745716Y-44848929D03*
X87245716Y-44848929D03*
X87745716Y-44848929D03*
X88245716Y-44848929D03*
X88745716Y-44848929D03*
X89245716Y-44848929D03*
D17*
X90245716Y-42348929D03*
X84745716Y-42348929D03*
G04 #@! TD*
D32*
G04 #@! TO.C,C20*
X86528216Y-57398929D03*
X87663216Y-57398929D03*
G04 #@! TD*
G04 #@! TO.C,C20*
X56528216Y-27398929D03*
X57663216Y-27398929D03*
G04 #@! TD*
D31*
G04 #@! TO.C,C16*
X26295716Y-21423929D03*
X26295716Y-19698929D03*
G04 #@! TD*
D15*
G04 #@! TO.C,R4*
X87793216Y-61298929D03*
X86598216Y-61298929D03*
G04 #@! TD*
D27*
G04 #@! TO.C,J4*
X46945716Y-49348929D03*
X48945716Y-49348929D03*
X50945716Y-49348929D03*
D28*
X44595716Y-43598929D03*
X53295716Y-43598929D03*
G04 #@! TD*
D19*
G04 #@! TO.C,R1*
X28395716Y-85398929D03*
X29590716Y-85398929D03*
G04 #@! TD*
D15*
G04 #@! TO.C,R4*
X87793216Y-31298929D03*
X86598216Y-31298929D03*
G04 #@! TD*
D19*
G04 #@! TO.C,R1*
X88395716Y-85398929D03*
X89590716Y-85398929D03*
G04 #@! TD*
D30*
G04 #@! TO.C,C19*
X47295716Y-61298929D03*
X47295716Y-55898929D03*
G04 #@! TD*
D15*
G04 #@! TO.C,R5*
X60093216Y-90298929D03*
X58898216Y-90298929D03*
G04 #@! TD*
D23*
G04 #@! TO.C,JP2*
X60845716Y-88198929D03*
D24*
X59545716Y-88198929D03*
G04 #@! TD*
D16*
G04 #@! TO.C,FPC1*
X85745716Y-74848929D03*
X86245716Y-74848929D03*
X86745716Y-74848929D03*
X87245716Y-74848929D03*
X87745716Y-74848929D03*
X88245716Y-74848929D03*
X88745716Y-74848929D03*
X89245716Y-74848929D03*
D17*
X90245716Y-72348929D03*
X84745716Y-72348929D03*
G04 #@! TD*
D23*
G04 #@! TO.C,JP2*
X90845716Y-58198929D03*
D24*
X89545716Y-58198929D03*
G04 #@! TD*
D23*
G04 #@! TO.C,JP2*
X90845716Y-88198929D03*
D24*
X89545716Y-88198929D03*
G04 #@! TD*
D25*
G04 #@! TO.C,C18*
X54958216Y-30598929D03*
X51833216Y-30598929D03*
G04 #@! TD*
D15*
G04 #@! TO.C,R4*
X27793216Y-31298929D03*
X26598216Y-31298929D03*
G04 #@! TD*
D26*
G04 #@! TO.C,C17*
X53163216Y-58498929D03*
X52028216Y-58498929D03*
G04 #@! TD*
G04 #@! TO.C,C17*
X23163216Y-28498929D03*
X22028216Y-28498929D03*
G04 #@! TD*
G04 #@! TO.C,C9*
X83163216Y-27398929D03*
X82028216Y-27398929D03*
G04 #@! TD*
D30*
G04 #@! TO.C,C19*
X17295716Y-31298929D03*
X17295716Y-25898929D03*
G04 #@! TD*
D31*
G04 #@! TO.C,C16*
X86295716Y-51423929D03*
X86295716Y-49698929D03*
G04 #@! TD*
D15*
G04 #@! TO.C,R4*
X27793216Y-61298929D03*
X26598216Y-61298929D03*
G04 #@! TD*
G04 #@! TO.C,R5*
X60093216Y-60298929D03*
X58898216Y-60298929D03*
G04 #@! TD*
G04 #@! TO.C,R5*
X30093216Y-90298929D03*
X28898216Y-90298929D03*
G04 #@! TD*
D32*
G04 #@! TO.C,C20*
X26528216Y-27398929D03*
X27663216Y-27398929D03*
G04 #@! TD*
G04 #@! TO.C,C20*
X56528216Y-57398929D03*
X57663216Y-57398929D03*
G04 #@! TD*
D16*
G04 #@! TO.C,FPC1*
X55745716Y-44848929D03*
X56245716Y-44848929D03*
X56745716Y-44848929D03*
X57245716Y-44848929D03*
X57745716Y-44848929D03*
X58245716Y-44848929D03*
X58745716Y-44848929D03*
X59245716Y-44848929D03*
D17*
X60245716Y-42348929D03*
X54745716Y-42348929D03*
G04 #@! TD*
D29*
G04 #@! TO.C,C6*
X84395716Y-28466429D03*
X84395716Y-27331429D03*
G04 #@! TD*
D18*
G04 #@! TO.C,D2*
X42495716Y-89498929D03*
X42495716Y-86698929D03*
G04 #@! TD*
D19*
G04 #@! TO.C,R1*
X88395716Y-55398929D03*
X89590716Y-55398929D03*
G04 #@! TD*
D31*
G04 #@! TO.C,C16*
X86295716Y-81423929D03*
X86295716Y-79698929D03*
G04 #@! TD*
G04 #@! TO.C,C16*
X26295716Y-81423929D03*
X26295716Y-79698929D03*
G04 #@! TD*
D19*
G04 #@! TO.C,R1*
X58395716Y-55398929D03*
X59590716Y-55398929D03*
G04 #@! TD*
D26*
G04 #@! TO.C,C17*
X53163216Y-28498929D03*
X52028216Y-28498929D03*
G04 #@! TD*
D30*
G04 #@! TO.C,C19*
X77295716Y-61298929D03*
X77295716Y-55898929D03*
G04 #@! TD*
D16*
G04 #@! TO.C,FPC1*
X85745716Y-14848929D03*
X86245716Y-14848929D03*
X86745716Y-14848929D03*
X87245716Y-14848929D03*
X87745716Y-14848929D03*
X88245716Y-14848929D03*
X88745716Y-14848929D03*
X89245716Y-14848929D03*
D17*
X90245716Y-12348929D03*
X84745716Y-12348929D03*
G04 #@! TD*
D19*
G04 #@! TO.C,R1*
X28395716Y-55398929D03*
X29590716Y-55398929D03*
G04 #@! TD*
D25*
G04 #@! TO.C,C18*
X54958216Y-60598929D03*
X51833216Y-60598929D03*
G04 #@! TD*
D32*
G04 #@! TO.C,C20*
X56528216Y-87398929D03*
X57663216Y-87398929D03*
G04 #@! TD*
D31*
G04 #@! TO.C,C16*
X56295716Y-81423929D03*
X56295716Y-79698929D03*
G04 #@! TD*
D20*
G04 #@! TO.C,IC2*
X56695716Y-56063929D03*
X56295716Y-56063929D03*
X55895716Y-56063929D03*
X55495716Y-56063929D03*
X55095716Y-56063929D03*
X54695716Y-56063929D03*
X54295716Y-56063929D03*
D21*
X54030716Y-55268929D03*
X54030716Y-54868929D03*
X54030716Y-54468929D03*
X54030716Y-54068929D03*
X54030716Y-53668929D03*
D20*
X54295716Y-53133929D03*
X54695716Y-53133929D03*
X55095716Y-53133929D03*
X55495716Y-53133929D03*
X55895716Y-53133929D03*
X56295716Y-53133929D03*
X56695716Y-53133929D03*
D21*
X56960716Y-53668929D03*
X56960716Y-54068929D03*
X56960716Y-54468929D03*
X56960716Y-54868929D03*
X56960716Y-55268929D03*
D22*
X55495716Y-54598929D03*
G04 #@! TD*
D25*
G04 #@! TO.C,C18*
X84958216Y-90598929D03*
X81833216Y-90598929D03*
G04 #@! TD*
D26*
G04 #@! TO.C,C9*
X23163216Y-87398929D03*
X22028216Y-87398929D03*
G04 #@! TD*
D23*
G04 #@! TO.C,JP2*
X30845716Y-28198929D03*
D24*
X29545716Y-28198929D03*
G04 #@! TD*
D26*
G04 #@! TO.C,C17*
X23163216Y-88498929D03*
X22028216Y-88498929D03*
G04 #@! TD*
D29*
G04 #@! TO.C,C6*
X24395716Y-28466429D03*
X24395716Y-27331429D03*
G04 #@! TD*
D25*
G04 #@! TO.C,C18*
X24958216Y-30598929D03*
X21833216Y-30598929D03*
G04 #@! TD*
D15*
G04 #@! TO.C,R5*
X60093216Y-30298929D03*
X58898216Y-30298929D03*
G04 #@! TD*
D32*
G04 #@! TO.C,C20*
X86528216Y-87398929D03*
X87663216Y-87398929D03*
G04 #@! TD*
D20*
G04 #@! TO.C,IC2*
X56695716Y-26063929D03*
X56295716Y-26063929D03*
X55895716Y-26063929D03*
X55495716Y-26063929D03*
X55095716Y-26063929D03*
X54695716Y-26063929D03*
X54295716Y-26063929D03*
D21*
X54030716Y-25268929D03*
X54030716Y-24868929D03*
X54030716Y-24468929D03*
X54030716Y-24068929D03*
X54030716Y-23668929D03*
D20*
X54295716Y-23133929D03*
X54695716Y-23133929D03*
X55095716Y-23133929D03*
X55495716Y-23133929D03*
X55895716Y-23133929D03*
X56295716Y-23133929D03*
X56695716Y-23133929D03*
D21*
X56960716Y-23668929D03*
X56960716Y-24068929D03*
X56960716Y-24468929D03*
X56960716Y-24868929D03*
X56960716Y-25268929D03*
D22*
X55495716Y-24598929D03*
G04 #@! TD*
D29*
G04 #@! TO.C,C6*
X54395716Y-28466429D03*
X54395716Y-27331429D03*
G04 #@! TD*
D16*
G04 #@! TO.C,FPC1*
X25745716Y-44848929D03*
X26245716Y-44848929D03*
X26745716Y-44848929D03*
X27245716Y-44848929D03*
X27745716Y-44848929D03*
X28245716Y-44848929D03*
X28745716Y-44848929D03*
X29245716Y-44848929D03*
D17*
X30245716Y-42348929D03*
X24745716Y-42348929D03*
G04 #@! TD*
D15*
G04 #@! TO.C,R4*
X57793216Y-61298929D03*
X56598216Y-61298929D03*
G04 #@! TD*
D27*
G04 #@! TO.C,J4*
X76945716Y-79348929D03*
X78945716Y-79348929D03*
X80945716Y-79348929D03*
D28*
X74595716Y-73598929D03*
X83295716Y-73598929D03*
G04 #@! TD*
D29*
G04 #@! TO.C,C6*
X54395716Y-58466429D03*
X54395716Y-57331429D03*
G04 #@! TD*
D20*
G04 #@! TO.C,IC2*
X56695716Y-86063929D03*
X56295716Y-86063929D03*
X55895716Y-86063929D03*
X55495716Y-86063929D03*
X55095716Y-86063929D03*
X54695716Y-86063929D03*
X54295716Y-86063929D03*
D21*
X54030716Y-85268929D03*
X54030716Y-84868929D03*
X54030716Y-84468929D03*
X54030716Y-84068929D03*
X54030716Y-83668929D03*
D20*
X54295716Y-83133929D03*
X54695716Y-83133929D03*
X55095716Y-83133929D03*
X55495716Y-83133929D03*
X55895716Y-83133929D03*
X56295716Y-83133929D03*
X56695716Y-83133929D03*
D21*
X56960716Y-83668929D03*
X56960716Y-84068929D03*
X56960716Y-84468929D03*
X56960716Y-84868929D03*
X56960716Y-85268929D03*
D22*
X55495716Y-84598929D03*
G04 #@! TD*
D18*
G04 #@! TO.C,D2*
X12495716Y-29498929D03*
X12495716Y-26698929D03*
G04 #@! TD*
D26*
G04 #@! TO.C,C17*
X83163216Y-88498929D03*
X82028216Y-88498929D03*
G04 #@! TD*
G04 #@! TO.C,C17*
X83163216Y-58498929D03*
X82028216Y-58498929D03*
G04 #@! TD*
D27*
G04 #@! TO.C,J4*
X46945716Y-79348929D03*
X48945716Y-79348929D03*
X50945716Y-79348929D03*
D28*
X44595716Y-73598929D03*
X53295716Y-73598929D03*
G04 #@! TD*
D15*
G04 #@! TO.C,R5*
X90093216Y-60298929D03*
X88898216Y-60298929D03*
G04 #@! TD*
D20*
G04 #@! TO.C,IC2*
X26695716Y-86063929D03*
X26295716Y-86063929D03*
X25895716Y-86063929D03*
X25495716Y-86063929D03*
X25095716Y-86063929D03*
X24695716Y-86063929D03*
X24295716Y-86063929D03*
D21*
X24030716Y-85268929D03*
X24030716Y-84868929D03*
X24030716Y-84468929D03*
X24030716Y-84068929D03*
X24030716Y-83668929D03*
D20*
X24295716Y-83133929D03*
X24695716Y-83133929D03*
X25095716Y-83133929D03*
X25495716Y-83133929D03*
X25895716Y-83133929D03*
X26295716Y-83133929D03*
X26695716Y-83133929D03*
D21*
X26960716Y-83668929D03*
X26960716Y-84068929D03*
X26960716Y-84468929D03*
X26960716Y-84868929D03*
X26960716Y-85268929D03*
D22*
X25495716Y-84598929D03*
G04 #@! TD*
D16*
G04 #@! TO.C,FPC1*
X25745716Y-14848929D03*
X26245716Y-14848929D03*
X26745716Y-14848929D03*
X27245716Y-14848929D03*
X27745716Y-14848929D03*
X28245716Y-14848929D03*
X28745716Y-14848929D03*
X29245716Y-14848929D03*
D17*
X30245716Y-12348929D03*
X24745716Y-12348929D03*
G04 #@! TD*
D26*
G04 #@! TO.C,C9*
X23163216Y-27398929D03*
X22028216Y-27398929D03*
G04 #@! TD*
D32*
G04 #@! TO.C,C20*
X26528216Y-57398929D03*
X27663216Y-57398929D03*
G04 #@! TD*
D30*
G04 #@! TO.C,C19*
X47295716Y-91298929D03*
X47295716Y-85898929D03*
G04 #@! TD*
D26*
G04 #@! TO.C,C9*
X53163216Y-87398929D03*
X52028216Y-87398929D03*
G04 #@! TD*
D27*
G04 #@! TO.C,J4*
X76945716Y-49348929D03*
X78945716Y-49348929D03*
X80945716Y-49348929D03*
D28*
X74595716Y-43598929D03*
X83295716Y-43598929D03*
G04 #@! TD*
D19*
G04 #@! TO.C,R1*
X88395716Y-25398929D03*
X89590716Y-25398929D03*
G04 #@! TD*
D18*
G04 #@! TO.C,D2*
X42495716Y-29498929D03*
X42495716Y-26698929D03*
G04 #@! TD*
D29*
G04 #@! TO.C,C6*
X84395716Y-88466429D03*
X84395716Y-87331429D03*
G04 #@! TD*
D31*
G04 #@! TO.C,C16*
X56295716Y-21423929D03*
X56295716Y-19698929D03*
G04 #@! TD*
G04 #@! TO.C,C16*
X86295716Y-21423929D03*
X86295716Y-19698929D03*
G04 #@! TD*
D29*
G04 #@! TO.C,C6*
X54395716Y-88466429D03*
X54395716Y-87331429D03*
G04 #@! TD*
D18*
G04 #@! TO.C,D2*
X12495716Y-89498929D03*
X12495716Y-86698929D03*
G04 #@! TD*
G04 #@! TO.C,D2*
X42495716Y-59498929D03*
X42495716Y-56698929D03*
G04 #@! TD*
D30*
G04 #@! TO.C,C19*
X17295716Y-61298929D03*
X17295716Y-55898929D03*
G04 #@! TD*
D15*
G04 #@! TO.C,R5*
X30093216Y-60298929D03*
X28898216Y-60298929D03*
G04 #@! TD*
D27*
G04 #@! TO.C,J4*
X16945716Y-49348929D03*
X18945716Y-49348929D03*
X20945716Y-49348929D03*
D28*
X14595716Y-43598929D03*
X23295716Y-43598929D03*
G04 #@! TD*
D26*
G04 #@! TO.C,C9*
X83163216Y-87398929D03*
X82028216Y-87398929D03*
G04 #@! TD*
G04 #@! TO.C,C9*
X53163216Y-57398929D03*
X52028216Y-57398929D03*
G04 #@! TD*
M02*
