G04 #@! TF.GenerationSoftware,KiCad,Pcbnew,9.0.1-9.0.1-0~ubuntu24.04.1*
G04 #@! TF.CreationDate,2025-04-05T17:55:53+02:00*
G04 #@! TF.ProjectId,panel,70616e65-6c2e-46b6-9963-61645f706362,rev?*
G04 #@! TF.SameCoordinates,Original*
G04 #@! TF.FileFunction,Other,Comment*
%FSLAX46Y46*%
G04 Gerber Fmt 4.6, Leading zero omitted, Abs format (unit mm)*
G04 Created by KiCad (PCBNEW 9.0.1-9.0.1-0~ubuntu24.04.1) date 2025-04-05 17:55:53*
%MOMM*%
%LPD*%
G01*
G04 APERTURE LIST*
%ADD10C,0.150000*%
G04 APERTURE END LIST*
D10*
G04 #@! TO.C,H1*
X63195716Y-20998929D02*
G75*
G02*
X58795716Y-20998929I-2200000J0D01*
G01*
X58795716Y-20998929D02*
G75*
G02*
X63195716Y-20998929I2200000J0D01*
G01*
X63195716Y-80998929D02*
G75*
G02*
X58795716Y-80998929I-2200000J0D01*
G01*
X58795716Y-80998929D02*
G75*
G02*
X63195716Y-80998929I2200000J0D01*
G01*
X123195716Y-20998929D02*
G75*
G02*
X118795716Y-20998929I-2200000J0D01*
G01*
X118795716Y-20998929D02*
G75*
G02*
X123195716Y-20998929I2200000J0D01*
G01*
X33195716Y-20998929D02*
G75*
G02*
X28795716Y-20998929I-2200000J0D01*
G01*
X28795716Y-20998929D02*
G75*
G02*
X33195716Y-20998929I2200000J0D01*
G01*
X123195716Y-80998929D02*
G75*
G02*
X118795716Y-80998929I-2200000J0D01*
G01*
X118795716Y-80998929D02*
G75*
G02*
X123195716Y-80998929I2200000J0D01*
G01*
X63195716Y-50998929D02*
G75*
G02*
X58795716Y-50998929I-2200000J0D01*
G01*
X58795716Y-50998929D02*
G75*
G02*
X63195716Y-50998929I2200000J0D01*
G01*
X93195716Y-80998929D02*
G75*
G02*
X88795716Y-80998929I-2200000J0D01*
G01*
X88795716Y-80998929D02*
G75*
G02*
X93195716Y-80998929I2200000J0D01*
G01*
X33195716Y-50998929D02*
G75*
G02*
X28795716Y-50998929I-2200000J0D01*
G01*
X28795716Y-50998929D02*
G75*
G02*
X33195716Y-50998929I2200000J0D01*
G01*
X93195716Y-50998929D02*
G75*
G02*
X88795716Y-50998929I-2200000J0D01*
G01*
X88795716Y-50998929D02*
G75*
G02*
X93195716Y-50998929I2200000J0D01*
G01*
X93195716Y-20998929D02*
G75*
G02*
X88795716Y-20998929I-2200000J0D01*
G01*
X88795716Y-20998929D02*
G75*
G02*
X93195716Y-20998929I2200000J0D01*
G01*
X33195716Y-80998929D02*
G75*
G02*
X28795716Y-80998929I-2200000J0D01*
G01*
X28795716Y-80998929D02*
G75*
G02*
X33195716Y-80998929I2200000J0D01*
G01*
X123195716Y-50998929D02*
G75*
G02*
X118795716Y-50998929I-2200000J0D01*
G01*
X118795716Y-50998929D02*
G75*
G02*
X123195716Y-50998929I2200000J0D01*
G01*
G04 #@! TD*
M02*
