G04 #@! TF.GenerationSoftware,KiCad,Pcbnew,9.0.1-9.0.1-0~ubuntu24.04.1*
G04 #@! TF.CreationDate,2025-04-05T23:11:07+02:00*
G04 #@! TF.ProjectId,panel,70616e65-6c2e-46b6-9963-61645f706362,rev?*
G04 #@! TF.SameCoordinates,Original*
G04 #@! TF.FileFunction,Paste,Top*
G04 #@! TF.FilePolarity,Positive*
%FSLAX46Y46*%
G04 Gerber Fmt 4.6, Leading zero omitted, Abs format (unit mm)*
G04 Created by KiCad (PCBNEW 9.0.1-9.0.1-0~ubuntu24.04.1) date 2025-04-05 23:11:07*
%MOMM*%
%LPD*%
G01*
G04 APERTURE LIST*
G04 Aperture macros list*
%AMRoundRect*
0 Rectangle with rounded corners*
0 $1 Rounding radius*
0 $2 $3 $4 $5 $6 $7 $8 $9 X,Y pos of 4 corners*
0 Add a 4 corners polygon primitive as box body*
4,1,4,$2,$3,$4,$5,$6,$7,$8,$9,$2,$3,0*
0 Add four circle primitives for the rounded corners*
1,1,$1+$1,$2,$3*
1,1,$1+$1,$4,$5*
1,1,$1+$1,$6,$7*
1,1,$1+$1,$8,$9*
0 Add four rect primitives between the rounded corners*
20,1,$1+$1,$2,$3,$4,$5,0*
20,1,$1+$1,$4,$5,$6,$7,0*
20,1,$1+$1,$6,$7,$8,$9,0*
20,1,$1+$1,$8,$9,$2,$3,0*%
G04 Aperture macros list end*
%ADD10RoundRect,0.160000X-0.197500X-0.160000X0.197500X-0.160000X0.197500X0.160000X-0.197500X0.160000X0*%
%ADD11RoundRect,0.237500X-0.237500X0.300000X-0.237500X-0.300000X0.237500X-0.300000X0.237500X0.300000X0*%
%ADD12RoundRect,0.155000X-0.212500X-0.155000X0.212500X-0.155000X0.212500X0.155000X-0.212500X0.155000X0*%
%ADD13RoundRect,0.232500X-0.232500X0.232500X-0.232500X-0.232500X0.232500X-0.232500X0.232500X0.232500X0*%
%ADD14RoundRect,0.062500X-0.062500X0.375000X-0.062500X-0.375000X0.062500X-0.375000X0.062500X0.375000X0*%
%ADD15RoundRect,0.062500X-0.375000X0.062500X-0.375000X-0.062500X0.375000X-0.062500X0.375000X0.062500X0*%
%ADD16RoundRect,0.155000X-0.155000X0.212500X-0.155000X-0.212500X0.155000X-0.212500X0.155000X0.212500X0*%
%ADD17RoundRect,0.150000X0.128190X-0.629835X0.400083X-0.503050X-0.128190X0.629835X-0.400083X0.503050X0*%
%ADD18RoundRect,0.250000X-0.042506X-0.737016X0.591910X-0.441184X0.042506X0.737016X-0.591910X0.441184X0*%
%ADD19RoundRect,0.160000X-0.160000X0.197500X-0.160000X-0.197500X0.160000X-0.197500X0.160000X0.197500X0*%
%ADD20RoundRect,0.150000X-0.400083X-0.503050X-0.128190X-0.629835X0.400083X0.503050X0.128190X0.629835X0*%
%ADD21RoundRect,0.250000X-0.591910X-0.441184X0.042506X-0.737016X0.591910X0.441184X-0.042506X0.737016X0*%
%ADD22RoundRect,0.237500X-0.300000X-0.237500X0.300000X-0.237500X0.300000X0.237500X-0.300000X0.237500X0*%
%ADD23RoundRect,0.150000X-0.825000X-0.150000X0.825000X-0.150000X0.825000X0.150000X-0.825000X0.150000X0*%
%ADD24RoundRect,0.172500X0.172500X0.172500X-0.172500X0.172500X-0.172500X-0.172500X0.172500X-0.172500X0*%
%ADD25RoundRect,0.062500X0.350000X0.062500X-0.350000X0.062500X-0.350000X-0.062500X0.350000X-0.062500X0*%
%ADD26RoundRect,0.062500X0.062500X0.350000X-0.062500X0.350000X-0.062500X-0.350000X0.062500X-0.350000X0*%
%ADD27C,1.000000*%
%ADD28C,2.000000*%
G04 APERTURE END LIST*
D10*
G04 #@! TO.C,FB1*
X72098216Y-15998929D03*
X73293216Y-15998929D03*
G04 #@! TD*
D11*
G04 #@! TO.C,C1*
X23595716Y-8536429D03*
X23595716Y-10261429D03*
G04 #@! TD*
D12*
G04 #@! TO.C,C33*
X72028216Y-12398929D03*
X73163216Y-12398929D03*
G04 #@! TD*
D13*
G04 #@! TO.C,U4*
X49445716Y-41848929D03*
X48295716Y-41848929D03*
X47145716Y-41848929D03*
X49445716Y-42998929D03*
X48295716Y-42998929D03*
X47145716Y-42998929D03*
X49445716Y-44148929D03*
X48295716Y-44148929D03*
X47145716Y-44148929D03*
D14*
X50045716Y-40561429D03*
X49545716Y-40561429D03*
X49045716Y-40561429D03*
X48545716Y-40561429D03*
X48045716Y-40561429D03*
X47545716Y-40561429D03*
X47045716Y-40561429D03*
X46545716Y-40561429D03*
D15*
X45858216Y-41248929D03*
X45858216Y-41748929D03*
X45858216Y-42248929D03*
X45858216Y-42748929D03*
X45858216Y-43248929D03*
X45858216Y-43748929D03*
X45858216Y-44248929D03*
X45858216Y-44748929D03*
D14*
X46545716Y-45436429D03*
X47045716Y-45436429D03*
X47545716Y-45436429D03*
X48045716Y-45436429D03*
X48545716Y-45436429D03*
X49045716Y-45436429D03*
X49545716Y-45436429D03*
X50045716Y-45436429D03*
D15*
X50733216Y-44748929D03*
X50733216Y-44248929D03*
X50733216Y-43748929D03*
X50733216Y-43248929D03*
X50733216Y-42748929D03*
X50733216Y-42248929D03*
X50733216Y-41748929D03*
X50733216Y-41248929D03*
G04 #@! TD*
D11*
G04 #@! TO.C,C1*
X83595716Y-8536429D03*
X83595716Y-10261429D03*
G04 #@! TD*
D16*
G04 #@! TO.C,C13*
X76895716Y-47031429D03*
X76895716Y-48166429D03*
G04 #@! TD*
D11*
G04 #@! TO.C,C1*
X23595716Y-38536429D03*
X23595716Y-40261429D03*
G04 #@! TD*
D17*
G04 #@! TO.C,J1*
X22437864Y-59031550D03*
X23344172Y-58608932D03*
X24250479Y-58186313D03*
X25156787Y-57763695D03*
X26063095Y-57341077D03*
D18*
X22897310Y-63092896D03*
X28878941Y-60303616D03*
G04 #@! TD*
D19*
G04 #@! TO.C,R3*
X55895716Y-39201429D03*
X55895716Y-40396429D03*
G04 #@! TD*
D10*
G04 #@! TO.C,FB1*
X42098216Y-45998929D03*
X43293216Y-45998929D03*
G04 #@! TD*
D20*
G04 #@! TO.C,J6*
X45928337Y-57341077D03*
X46834645Y-57763695D03*
X47740953Y-58186313D03*
X48647260Y-58608932D03*
X49553568Y-59031550D03*
D21*
X43112491Y-60303616D03*
X49094122Y-63092896D03*
G04 #@! TD*
D22*
G04 #@! TO.C,C4*
X12233216Y-44698929D03*
X13958216Y-44698929D03*
G04 #@! TD*
D23*
G04 #@! TO.C,U3*
X23820716Y-43293929D03*
X23820716Y-44563929D03*
X23820716Y-45833929D03*
X23820716Y-47103929D03*
X28770716Y-47103929D03*
X28770716Y-45833929D03*
X28770716Y-44563929D03*
X28770716Y-43293929D03*
G04 #@! TD*
D12*
G04 #@! TO.C,C2*
X48928216Y-8398929D03*
X50063216Y-8398929D03*
G04 #@! TD*
D16*
G04 #@! TO.C,C13*
X76895716Y-17031429D03*
X76895716Y-18166429D03*
G04 #@! TD*
G04 #@! TO.C,C13*
X46895716Y-47031429D03*
X46895716Y-48166429D03*
G04 #@! TD*
D23*
G04 #@! TO.C,U3*
X83820716Y-13293929D03*
X83820716Y-14563929D03*
X83820716Y-15833929D03*
X83820716Y-17103929D03*
X88770716Y-17103929D03*
X88770716Y-15833929D03*
X88770716Y-14563929D03*
X88770716Y-13293929D03*
G04 #@! TD*
D12*
G04 #@! TO.C,C2*
X78928216Y-38398929D03*
X80063216Y-38398929D03*
G04 #@! TD*
D24*
G04 #@! TO.C,U2*
X81420716Y-51423929D03*
X81420716Y-50573929D03*
X80570716Y-51423929D03*
X80570716Y-50573929D03*
D25*
X82458216Y-51748929D03*
X82458216Y-51248929D03*
X82458216Y-50748929D03*
X82458216Y-50248929D03*
D26*
X81745716Y-49536429D03*
X81245716Y-49536429D03*
X80745716Y-49536429D03*
X80245716Y-49536429D03*
D25*
X79533216Y-50248929D03*
X79533216Y-50748929D03*
X79533216Y-51248929D03*
X79533216Y-51748929D03*
D26*
X80245716Y-52461429D03*
X80745716Y-52461429D03*
X81245716Y-52461429D03*
X81745716Y-52461429D03*
G04 #@! TD*
D11*
G04 #@! TO.C,C1*
X53595716Y-8536429D03*
X53595716Y-10261429D03*
G04 #@! TD*
D27*
G04 #@! TO.C,KiKit_FID_T_1*
X10000000Y-3850000D03*
G04 #@! TD*
D12*
G04 #@! TO.C,C7*
X80628216Y-23798929D03*
X81763216Y-23798929D03*
G04 #@! TD*
D13*
G04 #@! TO.C,U4*
X79445716Y-41848929D03*
X78295716Y-41848929D03*
X77145716Y-41848929D03*
X79445716Y-42998929D03*
X78295716Y-42998929D03*
X77145716Y-42998929D03*
X79445716Y-44148929D03*
X78295716Y-44148929D03*
X77145716Y-44148929D03*
D14*
X80045716Y-40561429D03*
X79545716Y-40561429D03*
X79045716Y-40561429D03*
X78545716Y-40561429D03*
X78045716Y-40561429D03*
X77545716Y-40561429D03*
X77045716Y-40561429D03*
X76545716Y-40561429D03*
D15*
X75858216Y-41248929D03*
X75858216Y-41748929D03*
X75858216Y-42248929D03*
X75858216Y-42748929D03*
X75858216Y-43248929D03*
X75858216Y-43748929D03*
X75858216Y-44248929D03*
X75858216Y-44748929D03*
D14*
X76545716Y-45436429D03*
X77045716Y-45436429D03*
X77545716Y-45436429D03*
X78045716Y-45436429D03*
X78545716Y-45436429D03*
X79045716Y-45436429D03*
X79545716Y-45436429D03*
X80045716Y-45436429D03*
D15*
X80733216Y-44748929D03*
X80733216Y-44248929D03*
X80733216Y-43748929D03*
X80733216Y-43248929D03*
X80733216Y-42748929D03*
X80733216Y-42248929D03*
X80733216Y-41748929D03*
X80733216Y-41248929D03*
G04 #@! TD*
D17*
G04 #@! TO.C,J1*
X22437864Y-29031550D03*
X23344172Y-28608932D03*
X24250479Y-28186313D03*
X25156787Y-27763695D03*
X26063095Y-27341077D03*
D18*
X22897310Y-33092896D03*
X28878941Y-30303616D03*
G04 #@! TD*
D12*
G04 #@! TO.C,C5*
X12028216Y-13398929D03*
X13163216Y-13398929D03*
G04 #@! TD*
D16*
G04 #@! TO.C,C3*
X22295716Y-38531429D03*
X22295716Y-39666429D03*
G04 #@! TD*
D23*
G04 #@! TO.C,U3*
X23820716Y-13293929D03*
X23820716Y-14563929D03*
X23820716Y-15833929D03*
X23820716Y-17103929D03*
X28770716Y-17103929D03*
X28770716Y-15833929D03*
X28770716Y-14563929D03*
X28770716Y-13293929D03*
G04 #@! TD*
D13*
G04 #@! TO.C,U4*
X19445716Y-41848929D03*
X18295716Y-41848929D03*
X17145716Y-41848929D03*
X19445716Y-42998929D03*
X18295716Y-42998929D03*
X17145716Y-42998929D03*
X19445716Y-44148929D03*
X18295716Y-44148929D03*
X17145716Y-44148929D03*
D14*
X20045716Y-40561429D03*
X19545716Y-40561429D03*
X19045716Y-40561429D03*
X18545716Y-40561429D03*
X18045716Y-40561429D03*
X17545716Y-40561429D03*
X17045716Y-40561429D03*
X16545716Y-40561429D03*
D15*
X15858216Y-41248929D03*
X15858216Y-41748929D03*
X15858216Y-42248929D03*
X15858216Y-42748929D03*
X15858216Y-43248929D03*
X15858216Y-43748929D03*
X15858216Y-44248929D03*
X15858216Y-44748929D03*
D14*
X16545716Y-45436429D03*
X17045716Y-45436429D03*
X17545716Y-45436429D03*
X18045716Y-45436429D03*
X18545716Y-45436429D03*
X19045716Y-45436429D03*
X19545716Y-45436429D03*
X20045716Y-45436429D03*
D15*
X20733216Y-44748929D03*
X20733216Y-44248929D03*
X20733216Y-43748929D03*
X20733216Y-43248929D03*
X20733216Y-42748929D03*
X20733216Y-42248929D03*
X20733216Y-41748929D03*
X20733216Y-41248929D03*
G04 #@! TD*
D13*
G04 #@! TO.C,U4*
X79445716Y-11848929D03*
X78295716Y-11848929D03*
X77145716Y-11848929D03*
X79445716Y-12998929D03*
X78295716Y-12998929D03*
X77145716Y-12998929D03*
X79445716Y-14148929D03*
X78295716Y-14148929D03*
X77145716Y-14148929D03*
D14*
X80045716Y-10561429D03*
X79545716Y-10561429D03*
X79045716Y-10561429D03*
X78545716Y-10561429D03*
X78045716Y-10561429D03*
X77545716Y-10561429D03*
X77045716Y-10561429D03*
X76545716Y-10561429D03*
D15*
X75858216Y-11248929D03*
X75858216Y-11748929D03*
X75858216Y-12248929D03*
X75858216Y-12748929D03*
X75858216Y-13248929D03*
X75858216Y-13748929D03*
X75858216Y-14248929D03*
X75858216Y-14748929D03*
D14*
X76545716Y-15436429D03*
X77045716Y-15436429D03*
X77545716Y-15436429D03*
X78045716Y-15436429D03*
X78545716Y-15436429D03*
X79045716Y-15436429D03*
X79545716Y-15436429D03*
X80045716Y-15436429D03*
D15*
X80733216Y-14748929D03*
X80733216Y-14248929D03*
X80733216Y-13748929D03*
X80733216Y-13248929D03*
X80733216Y-12748929D03*
X80733216Y-12248929D03*
X80733216Y-11748929D03*
X80733216Y-11248929D03*
G04 #@! TD*
D12*
G04 #@! TO.C,C7*
X20628216Y-53798929D03*
X21763216Y-53798929D03*
G04 #@! TD*
D10*
G04 #@! TO.C,FB1*
X12098216Y-15998929D03*
X13293216Y-15998929D03*
G04 #@! TD*
D23*
G04 #@! TO.C,U3*
X83820716Y-43293929D03*
X83820716Y-44563929D03*
X83820716Y-45833929D03*
X83820716Y-47103929D03*
X88770716Y-47103929D03*
X88770716Y-45833929D03*
X88770716Y-44563929D03*
X88770716Y-43293929D03*
G04 #@! TD*
D13*
G04 #@! TO.C,U4*
X19445716Y-11848929D03*
X18295716Y-11848929D03*
X17145716Y-11848929D03*
X19445716Y-12998929D03*
X18295716Y-12998929D03*
X17145716Y-12998929D03*
X19445716Y-14148929D03*
X18295716Y-14148929D03*
X17145716Y-14148929D03*
D14*
X20045716Y-10561429D03*
X19545716Y-10561429D03*
X19045716Y-10561429D03*
X18545716Y-10561429D03*
X18045716Y-10561429D03*
X17545716Y-10561429D03*
X17045716Y-10561429D03*
X16545716Y-10561429D03*
D15*
X15858216Y-11248929D03*
X15858216Y-11748929D03*
X15858216Y-12248929D03*
X15858216Y-12748929D03*
X15858216Y-13248929D03*
X15858216Y-13748929D03*
X15858216Y-14248929D03*
X15858216Y-14748929D03*
D14*
X16545716Y-15436429D03*
X17045716Y-15436429D03*
X17545716Y-15436429D03*
X18045716Y-15436429D03*
X18545716Y-15436429D03*
X19045716Y-15436429D03*
X19545716Y-15436429D03*
X20045716Y-15436429D03*
D15*
X20733216Y-14748929D03*
X20733216Y-14248929D03*
X20733216Y-13748929D03*
X20733216Y-13248929D03*
X20733216Y-12748929D03*
X20733216Y-12248929D03*
X20733216Y-11748929D03*
X20733216Y-11248929D03*
G04 #@! TD*
D28*
G04 #@! TO.C,KiKit_TO_3*
X5000000Y-69497858D03*
G04 #@! TD*
D27*
G04 #@! TO.C,KiKit_FID_T_3*
X10000000Y-68147858D03*
G04 #@! TD*
D12*
G04 #@! TO.C,C5*
X42028216Y-43398929D03*
X43163216Y-43398929D03*
G04 #@! TD*
D16*
G04 #@! TO.C,C3*
X52295716Y-8531429D03*
X52295716Y-9666429D03*
G04 #@! TD*
D12*
G04 #@! TO.C,C33*
X12028216Y-12398929D03*
X13163216Y-12398929D03*
G04 #@! TD*
D16*
G04 #@! TO.C,C13*
X46895716Y-17031429D03*
X46895716Y-18166429D03*
G04 #@! TD*
D17*
G04 #@! TO.C,J1*
X52437864Y-59031550D03*
X53344172Y-58608932D03*
X54250479Y-58186313D03*
X55156787Y-57763695D03*
X56063095Y-57341077D03*
D18*
X52897310Y-63092896D03*
X58878941Y-60303616D03*
G04 #@! TD*
D12*
G04 #@! TO.C,C2*
X78928216Y-8398929D03*
X80063216Y-8398929D03*
G04 #@! TD*
D19*
G04 #@! TO.C,R3*
X85895716Y-39201429D03*
X85895716Y-40396429D03*
G04 #@! TD*
G04 #@! TO.C,R3*
X55895716Y-9201429D03*
X55895716Y-10396429D03*
G04 #@! TD*
D12*
G04 #@! TO.C,C7*
X50628216Y-53798929D03*
X51763216Y-53798929D03*
G04 #@! TD*
D23*
G04 #@! TO.C,U3*
X53820716Y-13293929D03*
X53820716Y-14563929D03*
X53820716Y-15833929D03*
X53820716Y-17103929D03*
X58770716Y-17103929D03*
X58770716Y-15833929D03*
X58770716Y-14563929D03*
X58770716Y-13293929D03*
G04 #@! TD*
D12*
G04 #@! TO.C,C10*
X55328216Y-18598929D03*
X56463216Y-18598929D03*
G04 #@! TD*
G04 #@! TO.C,C33*
X42028216Y-12398929D03*
X43163216Y-12398929D03*
G04 #@! TD*
G04 #@! TO.C,C5*
X12028216Y-43398929D03*
X13163216Y-43398929D03*
G04 #@! TD*
D13*
G04 #@! TO.C,U4*
X49445716Y-11848929D03*
X48295716Y-11848929D03*
X47145716Y-11848929D03*
X49445716Y-12998929D03*
X48295716Y-12998929D03*
X47145716Y-12998929D03*
X49445716Y-14148929D03*
X48295716Y-14148929D03*
X47145716Y-14148929D03*
D14*
X50045716Y-10561429D03*
X49545716Y-10561429D03*
X49045716Y-10561429D03*
X48545716Y-10561429D03*
X48045716Y-10561429D03*
X47545716Y-10561429D03*
X47045716Y-10561429D03*
X46545716Y-10561429D03*
D15*
X45858216Y-11248929D03*
X45858216Y-11748929D03*
X45858216Y-12248929D03*
X45858216Y-12748929D03*
X45858216Y-13248929D03*
X45858216Y-13748929D03*
X45858216Y-14248929D03*
X45858216Y-14748929D03*
D14*
X46545716Y-15436429D03*
X47045716Y-15436429D03*
X47545716Y-15436429D03*
X48045716Y-15436429D03*
X48545716Y-15436429D03*
X49045716Y-15436429D03*
X49545716Y-15436429D03*
X50045716Y-15436429D03*
D15*
X50733216Y-14748929D03*
X50733216Y-14248929D03*
X50733216Y-13748929D03*
X50733216Y-13248929D03*
X50733216Y-12748929D03*
X50733216Y-12248929D03*
X50733216Y-11748929D03*
X50733216Y-11248929D03*
G04 #@! TD*
D16*
G04 #@! TO.C,C3*
X22295716Y-8531429D03*
X22295716Y-9666429D03*
G04 #@! TD*
D24*
G04 #@! TO.C,U2*
X51420716Y-21423929D03*
X51420716Y-20573929D03*
X50570716Y-21423929D03*
X50570716Y-20573929D03*
D25*
X52458216Y-21748929D03*
X52458216Y-21248929D03*
X52458216Y-20748929D03*
X52458216Y-20248929D03*
D26*
X51745716Y-19536429D03*
X51245716Y-19536429D03*
X50745716Y-19536429D03*
X50245716Y-19536429D03*
D25*
X49533216Y-20248929D03*
X49533216Y-20748929D03*
X49533216Y-21248929D03*
X49533216Y-21748929D03*
D26*
X50245716Y-22461429D03*
X50745716Y-22461429D03*
X51245716Y-22461429D03*
X51745716Y-22461429D03*
G04 #@! TD*
D12*
G04 #@! TO.C,C5*
X72028216Y-43398929D03*
X73163216Y-43398929D03*
G04 #@! TD*
D28*
G04 #@! TO.C,KiKit_TO_4*
X96995716Y-69497858D03*
G04 #@! TD*
D20*
G04 #@! TO.C,J6*
X15928337Y-57341077D03*
X16834645Y-57763695D03*
X17740953Y-58186313D03*
X18647260Y-58608932D03*
X19553568Y-59031550D03*
D21*
X13112491Y-60303616D03*
X19094122Y-63092896D03*
G04 #@! TD*
D12*
G04 #@! TO.C,C5*
X42028216Y-13398929D03*
X43163216Y-13398929D03*
G04 #@! TD*
G04 #@! TO.C,C5*
X72028216Y-13398929D03*
X73163216Y-13398929D03*
G04 #@! TD*
D17*
G04 #@! TO.C,J1*
X52437864Y-29031550D03*
X53344172Y-28608932D03*
X54250479Y-28186313D03*
X55156787Y-27763695D03*
X56063095Y-27341077D03*
D18*
X52897310Y-33092896D03*
X58878941Y-30303616D03*
G04 #@! TD*
D12*
G04 #@! TO.C,C33*
X42028216Y-42398929D03*
X43163216Y-42398929D03*
G04 #@! TD*
D16*
G04 #@! TO.C,C3*
X52295716Y-38531429D03*
X52295716Y-39666429D03*
G04 #@! TD*
D24*
G04 #@! TO.C,U2*
X81420716Y-21423929D03*
X81420716Y-20573929D03*
X80570716Y-21423929D03*
X80570716Y-20573929D03*
D25*
X82458216Y-21748929D03*
X82458216Y-21248929D03*
X82458216Y-20748929D03*
X82458216Y-20248929D03*
D26*
X81745716Y-19536429D03*
X81245716Y-19536429D03*
X80745716Y-19536429D03*
X80245716Y-19536429D03*
D25*
X79533216Y-20248929D03*
X79533216Y-20748929D03*
X79533216Y-21248929D03*
X79533216Y-21748929D03*
D26*
X80245716Y-22461429D03*
X80745716Y-22461429D03*
X81245716Y-22461429D03*
X81745716Y-22461429D03*
G04 #@! TD*
D12*
G04 #@! TO.C,C2*
X18928216Y-8398929D03*
X20063216Y-8398929D03*
G04 #@! TD*
G04 #@! TO.C,C2*
X48928216Y-38398929D03*
X50063216Y-38398929D03*
G04 #@! TD*
D22*
G04 #@! TO.C,C4*
X42233216Y-14698929D03*
X43958216Y-14698929D03*
G04 #@! TD*
D24*
G04 #@! TO.C,U2*
X21420716Y-51423929D03*
X21420716Y-50573929D03*
X20570716Y-51423929D03*
X20570716Y-50573929D03*
D25*
X22458216Y-51748929D03*
X22458216Y-51248929D03*
X22458216Y-50748929D03*
X22458216Y-50248929D03*
D26*
X21745716Y-49536429D03*
X21245716Y-49536429D03*
X20745716Y-49536429D03*
X20245716Y-49536429D03*
D25*
X19533216Y-50248929D03*
X19533216Y-50748929D03*
X19533216Y-51248929D03*
X19533216Y-51748929D03*
D26*
X20245716Y-52461429D03*
X20745716Y-52461429D03*
X21245716Y-52461429D03*
X21745716Y-52461429D03*
G04 #@! TD*
D12*
G04 #@! TO.C,C33*
X12028216Y-42398929D03*
X13163216Y-42398929D03*
G04 #@! TD*
D10*
G04 #@! TO.C,FB1*
X12098216Y-45998929D03*
X13293216Y-45998929D03*
G04 #@! TD*
D22*
G04 #@! TO.C,C4*
X42233216Y-44698929D03*
X43958216Y-44698929D03*
G04 #@! TD*
D11*
G04 #@! TO.C,C1*
X83595716Y-38536429D03*
X83595716Y-40261429D03*
G04 #@! TD*
D12*
G04 #@! TO.C,C10*
X85328216Y-18598929D03*
X86463216Y-18598929D03*
G04 #@! TD*
D20*
G04 #@! TO.C,J6*
X75928337Y-27341077D03*
X76834645Y-27763695D03*
X77740953Y-28186313D03*
X78647260Y-28608932D03*
X79553568Y-29031550D03*
D21*
X73112491Y-30303616D03*
X79094122Y-33092896D03*
G04 #@! TD*
D17*
G04 #@! TO.C,J1*
X82437864Y-29031550D03*
X83344172Y-28608932D03*
X84250479Y-28186313D03*
X85156787Y-27763695D03*
X86063095Y-27341077D03*
D18*
X82897310Y-33092896D03*
X88878941Y-30303616D03*
G04 #@! TD*
D28*
G04 #@! TO.C,KiKit_TO_1*
X5000000Y-2500000D03*
G04 #@! TD*
D16*
G04 #@! TO.C,C13*
X16895716Y-47031429D03*
X16895716Y-48166429D03*
G04 #@! TD*
D24*
G04 #@! TO.C,U2*
X51420716Y-51423929D03*
X51420716Y-50573929D03*
X50570716Y-51423929D03*
X50570716Y-50573929D03*
D25*
X52458216Y-51748929D03*
X52458216Y-51248929D03*
X52458216Y-50748929D03*
X52458216Y-50248929D03*
D26*
X51745716Y-49536429D03*
X51245716Y-49536429D03*
X50745716Y-49536429D03*
X50245716Y-49536429D03*
D25*
X49533216Y-50248929D03*
X49533216Y-50748929D03*
X49533216Y-51248929D03*
X49533216Y-51748929D03*
D26*
X50245716Y-52461429D03*
X50745716Y-52461429D03*
X51245716Y-52461429D03*
X51745716Y-52461429D03*
G04 #@! TD*
D16*
G04 #@! TO.C,C3*
X82295716Y-8531429D03*
X82295716Y-9666429D03*
G04 #@! TD*
G04 #@! TO.C,C13*
X16895716Y-17031429D03*
X16895716Y-18166429D03*
G04 #@! TD*
D22*
G04 #@! TO.C,C4*
X72233216Y-14698929D03*
X73958216Y-14698929D03*
G04 #@! TD*
D12*
G04 #@! TO.C,C7*
X50628216Y-23798929D03*
X51763216Y-23798929D03*
G04 #@! TD*
D22*
G04 #@! TO.C,C4*
X12233216Y-14698929D03*
X13958216Y-14698929D03*
G04 #@! TD*
D19*
G04 #@! TO.C,R3*
X85895716Y-9201429D03*
X85895716Y-10396429D03*
G04 #@! TD*
D24*
G04 #@! TO.C,U2*
X21420716Y-21423929D03*
X21420716Y-20573929D03*
X20570716Y-21423929D03*
X20570716Y-20573929D03*
D25*
X22458216Y-21748929D03*
X22458216Y-21248929D03*
X22458216Y-20748929D03*
X22458216Y-20248929D03*
D26*
X21745716Y-19536429D03*
X21245716Y-19536429D03*
X20745716Y-19536429D03*
X20245716Y-19536429D03*
D25*
X19533216Y-20248929D03*
X19533216Y-20748929D03*
X19533216Y-21248929D03*
X19533216Y-21748929D03*
D26*
X20245716Y-22461429D03*
X20745716Y-22461429D03*
X21245716Y-22461429D03*
X21745716Y-22461429D03*
G04 #@! TD*
D11*
G04 #@! TO.C,C1*
X53595716Y-38536429D03*
X53595716Y-40261429D03*
G04 #@! TD*
D20*
G04 #@! TO.C,J6*
X75928337Y-57341077D03*
X76834645Y-57763695D03*
X77740953Y-58186313D03*
X78647260Y-58608932D03*
X79553568Y-59031550D03*
D21*
X73112491Y-60303616D03*
X79094122Y-63092896D03*
G04 #@! TD*
D10*
G04 #@! TO.C,FB1*
X72098216Y-45998929D03*
X73293216Y-45998929D03*
G04 #@! TD*
D23*
G04 #@! TO.C,U3*
X53820716Y-43293929D03*
X53820716Y-44563929D03*
X53820716Y-45833929D03*
X53820716Y-47103929D03*
X58770716Y-47103929D03*
X58770716Y-45833929D03*
X58770716Y-44563929D03*
X58770716Y-43293929D03*
G04 #@! TD*
D16*
G04 #@! TO.C,C3*
X82295716Y-38531429D03*
X82295716Y-39666429D03*
G04 #@! TD*
D12*
G04 #@! TO.C,C7*
X20628216Y-23798929D03*
X21763216Y-23798929D03*
G04 #@! TD*
G04 #@! TO.C,C10*
X25328216Y-48598929D03*
X26463216Y-48598929D03*
G04 #@! TD*
D22*
G04 #@! TO.C,C4*
X72233216Y-44698929D03*
X73958216Y-44698929D03*
G04 #@! TD*
D28*
G04 #@! TO.C,KiKit_TO_2*
X96995716Y-2500000D03*
G04 #@! TD*
D17*
G04 #@! TO.C,J1*
X82437864Y-59031550D03*
X83344172Y-58608932D03*
X84250479Y-58186313D03*
X85156787Y-57763695D03*
X86063095Y-57341077D03*
D18*
X82897310Y-63092896D03*
X88878941Y-60303616D03*
G04 #@! TD*
D12*
G04 #@! TO.C,C33*
X72028216Y-42398929D03*
X73163216Y-42398929D03*
G04 #@! TD*
D19*
G04 #@! TO.C,R3*
X25895716Y-39201429D03*
X25895716Y-40396429D03*
G04 #@! TD*
G04 #@! TO.C,R3*
X25895716Y-9201429D03*
X25895716Y-10396429D03*
G04 #@! TD*
D10*
G04 #@! TO.C,FB1*
X42098216Y-15998929D03*
X43293216Y-15998929D03*
G04 #@! TD*
D27*
G04 #@! TO.C,KiKit_FID_T_4*
X91995716Y-68147858D03*
G04 #@! TD*
D12*
G04 #@! TO.C,C10*
X25328216Y-18598929D03*
X26463216Y-18598929D03*
G04 #@! TD*
G04 #@! TO.C,C10*
X85328216Y-48598929D03*
X86463216Y-48598929D03*
G04 #@! TD*
D20*
G04 #@! TO.C,J6*
X15928337Y-27341077D03*
X16834645Y-27763695D03*
X17740953Y-28186313D03*
X18647260Y-28608932D03*
X19553568Y-29031550D03*
D21*
X13112491Y-30303616D03*
X19094122Y-33092896D03*
G04 #@! TD*
D12*
G04 #@! TO.C,C10*
X55328216Y-48598929D03*
X56463216Y-48598929D03*
G04 #@! TD*
G04 #@! TO.C,C2*
X18928216Y-38398929D03*
X20063216Y-38398929D03*
G04 #@! TD*
G04 #@! TO.C,C7*
X80628216Y-53798929D03*
X81763216Y-53798929D03*
G04 #@! TD*
D20*
G04 #@! TO.C,J6*
X45928337Y-27341077D03*
X46834645Y-27763695D03*
X47740953Y-28186313D03*
X48647260Y-28608932D03*
X49553568Y-29031550D03*
D21*
X43112491Y-30303616D03*
X49094122Y-33092896D03*
G04 #@! TD*
D27*
G04 #@! TO.C,KiKit_FID_T_2*
X91995716Y-3850000D03*
G04 #@! TD*
M02*
