G04 #@! TF.GenerationSoftware,KiCad,Pcbnew,9.0.1-9.0.1-0~ubuntu24.04.1*
G04 #@! TF.CreationDate,2025-04-05T17:47:22+02:00*
G04 #@! TF.ProjectId,panel,70616e65-6c2e-46b6-9963-61645f706362,rev?*
G04 #@! TF.SameCoordinates,Original*
G04 #@! TF.FileFunction,Soldermask,Top*
G04 #@! TF.FilePolarity,Negative*
%FSLAX46Y46*%
G04 Gerber Fmt 4.6, Leading zero omitted, Abs format (unit mm)*
G04 Created by KiCad (PCBNEW 9.0.1-9.0.1-0~ubuntu24.04.1) date 2025-04-05 17:47:22*
%MOMM*%
%LPD*%
G01*
G04 APERTURE LIST*
G04 Aperture macros list*
%AMRoundRect*
0 Rectangle with rounded corners*
0 $1 Rounding radius*
0 $2 $3 $4 $5 $6 $7 $8 $9 X,Y pos of 4 corners*
0 Add a 4 corners polygon primitive as box body*
4,1,4,$2,$3,$4,$5,$6,$7,$8,$9,$2,$3,0*
0 Add four circle primitives for the rounded corners*
1,1,$1+$1,$2,$3*
1,1,$1+$1,$4,$5*
1,1,$1+$1,$6,$7*
1,1,$1+$1,$8,$9*
0 Add four rect primitives between the rounded corners*
20,1,$1+$1,$2,$3,$4,$5,0*
20,1,$1+$1,$4,$5,$6,$7,0*
20,1,$1+$1,$6,$7,$8,$9,0*
20,1,$1+$1,$8,$9,$2,$3,0*%
%AMRotRect*
0 Rectangle, with rotation*
0 The origin of the aperture is its center*
0 $1 length*
0 $2 width*
0 $3 Rotation angle, in degrees counterclockwise*
0 Add horizontal line*
21,1,$1,$2,0,0,$3*%
%AMFreePoly0*
4,1,14,0.460331,1.078955,0.915618,1.006844,1.139000,0.950004,0.621000,-0.981996,0.468616,-0.943709,0.157101,-0.902697,-0.157101,-0.902697,-0.468616,-0.943709,-0.621000,-0.981996,-1.139000,0.950004,-0.915618,1.006844,-0.460331,1.078955,0.000000,1.103080,0.460331,1.078955,0.460331,1.078955,$1*%
%AMFreePoly1*
4,1,14,0.460320,1.078851,0.915597,1.006743,1.139000,0.950004,0.621000,-0.981996,0.468616,-0.943709,0.157101,-0.902697,-0.157101,-0.902697,-0.468616,-0.943709,-0.621000,-0.981996,-1.139000,0.950004,-0.915597,1.006743,-0.460320,1.078851,0.000000,1.102975,0.460320,1.078851,0.460320,1.078851,$1*%
%AMFreePoly2*
4,1,16,0.460320,1.078850,0.915597,1.006743,1.139000,0.950004,0.621000,-0.981996,0.468594,-0.943818,0.400000,-0.934787,0.400000,-1.300000,-0.400000,-1.300000,-0.400000,-0.934787,-0.468594,-0.943818,-0.621000,-0.981996,-1.139000,0.950004,-0.915597,1.006743,-0.460320,1.078850,0.000000,1.102975,0.460320,1.078850,0.460320,1.078850,$1*%
%AMFreePoly3*
4,1,14,0.460320,1.078847,0.915597,1.006739,1.139000,0.950001,0.620999,-0.982000,0.468593,-0.943822,0.157093,-0.902813,-0.157094,-0.902813,-0.468594,-0.943822,-0.621000,-0.981999,-1.139000,0.950001,-0.915597,1.006739,-0.460320,1.078847,0.000000,1.102971,0.460320,1.078847,0.460320,1.078847,$1*%
%AMFreePoly4*
4,1,23,0.500000,-0.750000,0.000000,-0.750000,0.000000,-0.745722,-0.065263,-0.745722,-0.191342,-0.711940,-0.304381,-0.646677,-0.396677,-0.554381,-0.461940,-0.441342,-0.495722,-0.315263,-0.495722,-0.250000,-0.500000,-0.250000,-0.500000,0.250000,-0.495722,0.250000,-0.495722,0.315263,-0.461940,0.441342,-0.396677,0.554381,-0.304381,0.646677,-0.191342,0.711940,-0.065263,0.745722,0.000000,0.745722,
0.000000,0.750000,0.500000,0.750000,0.500000,-0.750000,0.500000,-0.750000,$1*%
%AMFreePoly5*
4,1,23,0.000000,0.745722,0.065263,0.745722,0.191342,0.711940,0.304381,0.646677,0.396677,0.554381,0.461940,0.441342,0.495722,0.315263,0.495722,0.250000,0.500000,0.250000,0.500000,-0.250000,0.495722,-0.250000,0.495722,-0.315263,0.461940,-0.441342,0.396677,-0.554381,0.304381,-0.646677,0.191342,-0.711940,0.065263,-0.745722,0.000000,-0.745722,0.000000,-0.750000,-0.500000,-0.750000,
-0.500000,0.750000,0.000000,0.750000,0.000000,0.745722,0.000000,0.745722,$1*%
G04 Aperture macros list end*
%ADD10RoundRect,0.155000X-0.212500X-0.155000X0.212500X-0.155000X0.212500X0.155000X-0.212500X0.155000X0*%
%ADD11RoundRect,0.062500X-0.062500X0.375000X-0.062500X-0.375000X0.062500X-0.375000X0.062500X0.375000X0*%
%ADD12RoundRect,0.062500X-0.375000X0.062500X-0.375000X-0.062500X0.375000X-0.062500X0.375000X0.062500X0*%
%ADD13R,3.450000X3.450000*%
%ADD14RoundRect,0.237500X-0.237500X0.300000X-0.237500X-0.300000X0.237500X-0.300000X0.237500X0.300000X0*%
%ADD15C,2.600000*%
%ADD16C,4.400000*%
%ADD17RoundRect,0.160000X-0.160000X0.197500X-0.160000X-0.197500X0.160000X-0.197500X0.160000X0.197500X0*%
%ADD18C,2.000000*%
%ADD19RoundRect,0.155000X-0.155000X0.212500X-0.155000X-0.212500X0.155000X-0.212500X0.155000X0.212500X0*%
%ADD20RotRect,1.500000X1.500000X25.000000*%
%ADD21RoundRect,0.237500X-0.300000X-0.237500X0.300000X-0.237500X0.300000X0.237500X-0.300000X0.237500X0*%
%ADD22RoundRect,0.062500X0.350000X0.062500X-0.350000X0.062500X-0.350000X-0.062500X0.350000X-0.062500X0*%
%ADD23RoundRect,0.062500X0.062500X0.350000X-0.062500X0.350000X-0.062500X-0.350000X0.062500X-0.350000X0*%
%ADD24R,1.700000X1.700000*%
%ADD25RotRect,1.500000X1.500000X335.000000*%
%ADD26RoundRect,0.150000X-0.825000X-0.150000X0.825000X-0.150000X0.825000X0.150000X-0.825000X0.150000X0*%
%ADD27FreePoly0,153.000000*%
%ADD28FreePoly1,189.000000*%
%ADD29FreePoly2,225.000000*%
%ADD30C,4.200000*%
%ADD31FreePoly3,261.000000*%
%ADD32FreePoly0,297.000000*%
%ADD33RoundRect,0.160000X-0.197500X-0.160000X0.197500X-0.160000X0.197500X0.160000X-0.197500X0.160000X0*%
%ADD34FreePoly4,180.000000*%
%ADD35FreePoly5,180.000000*%
%ADD36RoundRect,0.150000X-0.400083X-0.503050X-0.128190X-0.629835X0.400083X0.503050X0.128190X0.629835X0*%
%ADD37RoundRect,0.250000X-0.591910X-0.441184X0.042506X-0.737016X0.591910X0.441184X-0.042506X0.737016X0*%
%ADD38RoundRect,0.150000X0.128190X-0.629835X0.400083X-0.503050X-0.128190X0.629835X-0.400083X0.503050X0*%
%ADD39RoundRect,0.250000X-0.042506X-0.737016X0.591910X-0.441184X0.042506X0.737016X-0.591910X0.441184X0*%
G04 APERTURE END LIST*
G04 #@! TO.C,JP1*
G36*
X88345716Y-11748929D02*
G01*
X88045716Y-11748929D01*
X88045716Y-10248929D01*
X88345716Y-10248929D01*
X88345716Y-11748929D01*
G37*
G36*
X58345716Y-41748929D02*
G01*
X58045716Y-41748929D01*
X58045716Y-40248929D01*
X58345716Y-40248929D01*
X58345716Y-41748929D01*
G37*
G36*
X58345716Y-11748929D02*
G01*
X58045716Y-11748929D01*
X58045716Y-10248929D01*
X58345716Y-10248929D01*
X58345716Y-11748929D01*
G37*
G36*
X28345716Y-41748929D02*
G01*
X28045716Y-41748929D01*
X28045716Y-40248929D01*
X28345716Y-40248929D01*
X28345716Y-41748929D01*
G37*
G36*
X28345716Y-71748929D02*
G01*
X28045716Y-71748929D01*
X28045716Y-70248929D01*
X28345716Y-70248929D01*
X28345716Y-71748929D01*
G37*
G36*
X88345716Y-41748929D02*
G01*
X88045716Y-41748929D01*
X88045716Y-40248929D01*
X88345716Y-40248929D01*
X88345716Y-41748929D01*
G37*
G36*
X118345716Y-71748929D02*
G01*
X118045716Y-71748929D01*
X118045716Y-70248929D01*
X118345716Y-70248929D01*
X118345716Y-71748929D01*
G37*
G36*
X118345716Y-11748929D02*
G01*
X118045716Y-11748929D01*
X118045716Y-10248929D01*
X118345716Y-10248929D01*
X118345716Y-11748929D01*
G37*
G36*
X28345716Y-11748929D02*
G01*
X28045716Y-11748929D01*
X28045716Y-10248929D01*
X28345716Y-10248929D01*
X28345716Y-11748929D01*
G37*
G36*
X58345716Y-71748929D02*
G01*
X58045716Y-71748929D01*
X58045716Y-70248929D01*
X58345716Y-70248929D01*
X58345716Y-71748929D01*
G37*
G36*
X88345716Y-71748929D02*
G01*
X88045716Y-71748929D01*
X88045716Y-70248929D01*
X88345716Y-70248929D01*
X88345716Y-71748929D01*
G37*
G36*
X118345716Y-41748929D02*
G01*
X118045716Y-41748929D01*
X118045716Y-40248929D01*
X118345716Y-40248929D01*
X118345716Y-41748929D01*
G37*
G04 #@! TD*
D10*
G04 #@! TO.C,C2*
X48928216Y-38398929D03*
X50063216Y-38398929D03*
G04 #@! TD*
D11*
G04 #@! TO.C,U4*
X80045716Y-70561429D03*
X79545716Y-70561429D03*
X79045716Y-70561429D03*
X78545716Y-70561429D03*
X78045716Y-70561429D03*
X77545716Y-70561429D03*
X77045716Y-70561429D03*
X76545716Y-70561429D03*
D12*
X75858216Y-71248929D03*
X75858216Y-71748929D03*
X75858216Y-72248929D03*
X75858216Y-72748929D03*
X75858216Y-73248929D03*
X75858216Y-73748929D03*
X75858216Y-74248929D03*
X75858216Y-74748929D03*
D11*
X76545716Y-75436429D03*
X77045716Y-75436429D03*
X77545716Y-75436429D03*
X78045716Y-75436429D03*
X78545716Y-75436429D03*
X79045716Y-75436429D03*
X79545716Y-75436429D03*
X80045716Y-75436429D03*
D12*
X80733216Y-74748929D03*
X80733216Y-74248929D03*
X80733216Y-73748929D03*
X80733216Y-73248929D03*
X80733216Y-72748929D03*
X80733216Y-72248929D03*
X80733216Y-71748929D03*
X80733216Y-71248929D03*
D13*
X78295716Y-72998929D03*
G04 #@! TD*
D14*
G04 #@! TO.C,C1*
X23595716Y-8536429D03*
X23595716Y-10261429D03*
G04 #@! TD*
D15*
G04 #@! TO.C,H1*
X30995716Y-50998929D03*
D16*
X30995716Y-50998929D03*
G04 #@! TD*
D10*
G04 #@! TO.C,C10*
X55328216Y-48598929D03*
X56463216Y-48598929D03*
G04 #@! TD*
D17*
G04 #@! TO.C,R3*
X115895716Y-9201429D03*
X115895716Y-10396429D03*
G04 #@! TD*
D18*
G04 #@! TO.C,KiKit_FID_T_4*
X121995716Y-98147858D03*
G04 #@! TD*
G04 #@! TO.C,KiKit_FID_T_1*
X10000000Y-3850000D03*
G04 #@! TD*
D19*
G04 #@! TO.C,C13*
X46895716Y-17031429D03*
X46895716Y-18166429D03*
G04 #@! TD*
D10*
G04 #@! TO.C,C5*
X12028216Y-13398929D03*
X13163216Y-13398929D03*
G04 #@! TD*
D20*
G04 #@! TO.C,PAD4*
X90995716Y-87498929D03*
G04 #@! TD*
D21*
G04 #@! TO.C,C4*
X42233216Y-14698929D03*
X43958216Y-14698929D03*
G04 #@! TD*
D22*
G04 #@! TO.C,U2*
X112458216Y-21748929D03*
X112458216Y-21248929D03*
X112458216Y-20748929D03*
X112458216Y-20248929D03*
D23*
X111745716Y-19536429D03*
X111245716Y-19536429D03*
X110745716Y-19536429D03*
X110245716Y-19536429D03*
D22*
X109533216Y-20248929D03*
X109533216Y-20748929D03*
X109533216Y-21248929D03*
X109533216Y-21748929D03*
D23*
X110245716Y-22461429D03*
X110745716Y-22461429D03*
X111245716Y-22461429D03*
X111745716Y-22461429D03*
D24*
X110995716Y-20998929D03*
G04 #@! TD*
D10*
G04 #@! TO.C,C7*
X110628216Y-83798929D03*
X111763216Y-83798929D03*
G04 #@! TD*
D14*
G04 #@! TO.C,C1*
X23595716Y-38536429D03*
X23595716Y-40261429D03*
G04 #@! TD*
D10*
G04 #@! TO.C,C5*
X42028216Y-73398929D03*
X43163216Y-73398929D03*
G04 #@! TD*
D15*
G04 #@! TO.C,H1*
X90995716Y-80998929D03*
D16*
X90995716Y-80998929D03*
G04 #@! TD*
D10*
G04 #@! TO.C,C33*
X12028216Y-42398929D03*
X13163216Y-42398929D03*
G04 #@! TD*
D22*
G04 #@! TO.C,U2*
X112458216Y-51748929D03*
X112458216Y-51248929D03*
X112458216Y-50748929D03*
X112458216Y-50248929D03*
D23*
X111745716Y-49536429D03*
X111245716Y-49536429D03*
X110745716Y-49536429D03*
X110245716Y-49536429D03*
D22*
X109533216Y-50248929D03*
X109533216Y-50748929D03*
X109533216Y-51248929D03*
X109533216Y-51748929D03*
D23*
X110245716Y-52461429D03*
X110745716Y-52461429D03*
X111245716Y-52461429D03*
X111745716Y-52461429D03*
D24*
X110995716Y-50998929D03*
G04 #@! TD*
D19*
G04 #@! TO.C,C13*
X46895716Y-77031429D03*
X46895716Y-78166429D03*
G04 #@! TD*
D25*
G04 #@! TO.C,PAD5*
X40995716Y-87498929D03*
G04 #@! TD*
D10*
G04 #@! TO.C,C2*
X18928216Y-38398929D03*
X20063216Y-38398929D03*
G04 #@! TD*
D15*
G04 #@! TO.C,H1*
X120995716Y-50998929D03*
D16*
X120995716Y-50998929D03*
G04 #@! TD*
D10*
G04 #@! TO.C,C2*
X108928216Y-8398929D03*
X110063216Y-8398929D03*
G04 #@! TD*
G04 #@! TO.C,C33*
X42028216Y-72398929D03*
X43163216Y-72398929D03*
G04 #@! TD*
D26*
G04 #@! TO.C,U3*
X53820716Y-73293929D03*
X53820716Y-74563929D03*
X53820716Y-75833929D03*
X53820716Y-77103929D03*
X58770716Y-77103929D03*
X58770716Y-75833929D03*
X58770716Y-74563929D03*
X58770716Y-73293929D03*
G04 #@! TD*
D17*
G04 #@! TO.C,R3*
X55895716Y-69201429D03*
X55895716Y-70396429D03*
G04 #@! TD*
D27*
G04 #@! TO.C,J2*
X9497548Y-23939250D03*
D28*
X11511950Y-24258300D03*
D29*
X13329168Y-23332381D03*
D30*
X10995716Y-20998929D03*
D31*
X14255087Y-21515163D03*
D32*
X13936037Y-19500761D03*
G04 #@! TD*
D10*
G04 #@! TO.C,C7*
X110628216Y-53798929D03*
X111763216Y-53798929D03*
G04 #@! TD*
D19*
G04 #@! TO.C,C13*
X106895716Y-17031429D03*
X106895716Y-18166429D03*
G04 #@! TD*
D27*
G04 #@! TO.C,J2*
X99497548Y-83939250D03*
D28*
X101511950Y-84258300D03*
D29*
X103329168Y-83332381D03*
D30*
X100995716Y-80998929D03*
D31*
X104255087Y-81515163D03*
D32*
X103936037Y-79500761D03*
G04 #@! TD*
D10*
G04 #@! TO.C,C10*
X55328216Y-18598929D03*
X56463216Y-18598929D03*
G04 #@! TD*
D33*
G04 #@! TO.C,FB1*
X42098216Y-15998929D03*
X43293216Y-15998929D03*
G04 #@! TD*
D19*
G04 #@! TO.C,C3*
X52295716Y-38531429D03*
X52295716Y-39666429D03*
G04 #@! TD*
D34*
G04 #@! TO.C,JP1*
X88845716Y-10998929D03*
D35*
X87545716Y-10998929D03*
G04 #@! TD*
D10*
G04 #@! TO.C,C2*
X108928216Y-68398929D03*
X110063216Y-68398929D03*
G04 #@! TD*
D36*
G04 #@! TO.C,J6*
X75928337Y-27341077D03*
X76834645Y-27763695D03*
X77740953Y-28186313D03*
X78647260Y-28608932D03*
X79553568Y-29031550D03*
D37*
X73112491Y-30303616D03*
X79094122Y-33092896D03*
G04 #@! TD*
D10*
G04 #@! TO.C,C7*
X80628216Y-23798929D03*
X81763216Y-23798929D03*
G04 #@! TD*
D20*
G04 #@! TO.C,PAD4*
X120995716Y-87498929D03*
G04 #@! TD*
D38*
G04 #@! TO.C,J1*
X52437864Y-59031550D03*
X53344172Y-58608932D03*
X54250479Y-58186313D03*
X55156787Y-57763695D03*
X56063095Y-57341077D03*
D39*
X52897310Y-63092896D03*
X58878941Y-60303616D03*
G04 #@! TD*
D10*
G04 #@! TO.C,C33*
X12028216Y-72398929D03*
X13163216Y-72398929D03*
G04 #@! TD*
G04 #@! TO.C,C33*
X102028216Y-72398929D03*
X103163216Y-72398929D03*
G04 #@! TD*
D38*
G04 #@! TO.C,J1*
X112437864Y-89031550D03*
X113344172Y-88608932D03*
X114250479Y-88186313D03*
X115156787Y-87763695D03*
X116063095Y-87341077D03*
D39*
X112897310Y-93092896D03*
X118878941Y-90303616D03*
G04 #@! TD*
D10*
G04 #@! TO.C,C5*
X42028216Y-13398929D03*
X43163216Y-13398929D03*
G04 #@! TD*
D26*
G04 #@! TO.C,U3*
X83820716Y-43293929D03*
X83820716Y-44563929D03*
X83820716Y-45833929D03*
X83820716Y-47103929D03*
X88770716Y-47103929D03*
X88770716Y-45833929D03*
X88770716Y-44563929D03*
X88770716Y-43293929D03*
G04 #@! TD*
G04 #@! TO.C,U3*
X53820716Y-13293929D03*
X53820716Y-14563929D03*
X53820716Y-15833929D03*
X53820716Y-17103929D03*
X58770716Y-17103929D03*
X58770716Y-15833929D03*
X58770716Y-14563929D03*
X58770716Y-13293929D03*
G04 #@! TD*
D21*
G04 #@! TO.C,C4*
X42233216Y-74698929D03*
X43958216Y-74698929D03*
G04 #@! TD*
D10*
G04 #@! TO.C,C10*
X115328216Y-48598929D03*
X116463216Y-48598929D03*
G04 #@! TD*
D14*
G04 #@! TO.C,C1*
X113595716Y-8536429D03*
X113595716Y-10261429D03*
G04 #@! TD*
D25*
G04 #@! TO.C,PAD5*
X10995716Y-27498929D03*
G04 #@! TD*
D27*
G04 #@! TO.C,J2*
X39497548Y-23939250D03*
D28*
X41511950Y-24258300D03*
D29*
X43329168Y-23332381D03*
D30*
X40995716Y-20998929D03*
D31*
X44255087Y-21515163D03*
D32*
X43936037Y-19500761D03*
G04 #@! TD*
D34*
G04 #@! TO.C,JP1*
X58845716Y-40998929D03*
D35*
X57545716Y-40998929D03*
G04 #@! TD*
D10*
G04 #@! TO.C,C7*
X50628216Y-23798929D03*
X51763216Y-23798929D03*
G04 #@! TD*
G04 #@! TO.C,C5*
X102028216Y-43398929D03*
X103163216Y-43398929D03*
G04 #@! TD*
D14*
G04 #@! TO.C,C1*
X23595716Y-68536429D03*
X23595716Y-70261429D03*
G04 #@! TD*
D33*
G04 #@! TO.C,FB1*
X102098216Y-75998929D03*
X103293216Y-75998929D03*
G04 #@! TD*
D22*
G04 #@! TO.C,U2*
X52458216Y-51748929D03*
X52458216Y-51248929D03*
X52458216Y-50748929D03*
X52458216Y-50248929D03*
D23*
X51745716Y-49536429D03*
X51245716Y-49536429D03*
X50745716Y-49536429D03*
X50245716Y-49536429D03*
D22*
X49533216Y-50248929D03*
X49533216Y-50748929D03*
X49533216Y-51248929D03*
X49533216Y-51748929D03*
D23*
X50245716Y-52461429D03*
X50745716Y-52461429D03*
X51245716Y-52461429D03*
X51745716Y-52461429D03*
D24*
X50995716Y-50998929D03*
G04 #@! TD*
D27*
G04 #@! TO.C,J2*
X99497548Y-23939250D03*
D28*
X101511950Y-24258300D03*
D29*
X103329168Y-23332381D03*
D30*
X100995716Y-20998929D03*
D31*
X104255087Y-21515163D03*
D32*
X103936037Y-19500761D03*
G04 #@! TD*
D22*
G04 #@! TO.C,U2*
X52458216Y-81748929D03*
X52458216Y-81248929D03*
X52458216Y-80748929D03*
X52458216Y-80248929D03*
D23*
X51745716Y-79536429D03*
X51245716Y-79536429D03*
X50745716Y-79536429D03*
X50245716Y-79536429D03*
D22*
X49533216Y-80248929D03*
X49533216Y-80748929D03*
X49533216Y-81248929D03*
X49533216Y-81748929D03*
D23*
X50245716Y-82461429D03*
X50745716Y-82461429D03*
X51245716Y-82461429D03*
X51745716Y-82461429D03*
D24*
X50995716Y-80998929D03*
G04 #@! TD*
D20*
G04 #@! TO.C,PAD4*
X30995716Y-27498929D03*
G04 #@! TD*
D21*
G04 #@! TO.C,C4*
X72233216Y-74698929D03*
X73958216Y-74698929D03*
G04 #@! TD*
D15*
G04 #@! TO.C,H1*
X30995716Y-20998929D03*
D16*
X30995716Y-20998929D03*
G04 #@! TD*
D11*
G04 #@! TO.C,U4*
X20045716Y-70561429D03*
X19545716Y-70561429D03*
X19045716Y-70561429D03*
X18545716Y-70561429D03*
X18045716Y-70561429D03*
X17545716Y-70561429D03*
X17045716Y-70561429D03*
X16545716Y-70561429D03*
D12*
X15858216Y-71248929D03*
X15858216Y-71748929D03*
X15858216Y-72248929D03*
X15858216Y-72748929D03*
X15858216Y-73248929D03*
X15858216Y-73748929D03*
X15858216Y-74248929D03*
X15858216Y-74748929D03*
D11*
X16545716Y-75436429D03*
X17045716Y-75436429D03*
X17545716Y-75436429D03*
X18045716Y-75436429D03*
X18545716Y-75436429D03*
X19045716Y-75436429D03*
X19545716Y-75436429D03*
X20045716Y-75436429D03*
D12*
X20733216Y-74748929D03*
X20733216Y-74248929D03*
X20733216Y-73748929D03*
X20733216Y-73248929D03*
X20733216Y-72748929D03*
X20733216Y-72248929D03*
X20733216Y-71748929D03*
X20733216Y-71248929D03*
D13*
X18295716Y-72998929D03*
G04 #@! TD*
D36*
G04 #@! TO.C,J6*
X105928337Y-87341077D03*
X106834645Y-87763695D03*
X107740953Y-88186313D03*
X108647260Y-88608932D03*
X109553568Y-89031550D03*
D37*
X103112491Y-90303616D03*
X109094122Y-93092896D03*
G04 #@! TD*
D10*
G04 #@! TO.C,C5*
X102028216Y-13398929D03*
X103163216Y-13398929D03*
G04 #@! TD*
D11*
G04 #@! TO.C,U4*
X50045716Y-70561429D03*
X49545716Y-70561429D03*
X49045716Y-70561429D03*
X48545716Y-70561429D03*
X48045716Y-70561429D03*
X47545716Y-70561429D03*
X47045716Y-70561429D03*
X46545716Y-70561429D03*
D12*
X45858216Y-71248929D03*
X45858216Y-71748929D03*
X45858216Y-72248929D03*
X45858216Y-72748929D03*
X45858216Y-73248929D03*
X45858216Y-73748929D03*
X45858216Y-74248929D03*
X45858216Y-74748929D03*
D11*
X46545716Y-75436429D03*
X47045716Y-75436429D03*
X47545716Y-75436429D03*
X48045716Y-75436429D03*
X48545716Y-75436429D03*
X49045716Y-75436429D03*
X49545716Y-75436429D03*
X50045716Y-75436429D03*
D12*
X50733216Y-74748929D03*
X50733216Y-74248929D03*
X50733216Y-73748929D03*
X50733216Y-73248929D03*
X50733216Y-72748929D03*
X50733216Y-72248929D03*
X50733216Y-71748929D03*
X50733216Y-71248929D03*
D13*
X48295716Y-72998929D03*
G04 #@! TD*
D36*
G04 #@! TO.C,J6*
X75928337Y-87341077D03*
X76834645Y-87763695D03*
X77740953Y-88186313D03*
X78647260Y-88608932D03*
X79553568Y-89031550D03*
D37*
X73112491Y-90303616D03*
X79094122Y-93092896D03*
G04 #@! TD*
D25*
G04 #@! TO.C,PAD5*
X70995716Y-57498929D03*
G04 #@! TD*
D10*
G04 #@! TO.C,C2*
X48928216Y-8398929D03*
X50063216Y-8398929D03*
G04 #@! TD*
D19*
G04 #@! TO.C,C13*
X106895716Y-77031429D03*
X106895716Y-78166429D03*
G04 #@! TD*
D10*
G04 #@! TO.C,C33*
X102028216Y-12398929D03*
X103163216Y-12398929D03*
G04 #@! TD*
D19*
G04 #@! TO.C,C3*
X52295716Y-8531429D03*
X52295716Y-9666429D03*
G04 #@! TD*
D36*
G04 #@! TO.C,J6*
X15928337Y-87341077D03*
X16834645Y-87763695D03*
X17740953Y-88186313D03*
X18647260Y-88608932D03*
X19553568Y-89031550D03*
D37*
X13112491Y-90303616D03*
X19094122Y-93092896D03*
G04 #@! TD*
D10*
G04 #@! TO.C,C5*
X72028216Y-13398929D03*
X73163216Y-13398929D03*
G04 #@! TD*
D15*
G04 #@! TO.C,H1*
X90995716Y-20998929D03*
D16*
X90995716Y-20998929D03*
G04 #@! TD*
D17*
G04 #@! TO.C,R3*
X25895716Y-39201429D03*
X25895716Y-40396429D03*
G04 #@! TD*
D11*
G04 #@! TO.C,U4*
X80045716Y-40561429D03*
X79545716Y-40561429D03*
X79045716Y-40561429D03*
X78545716Y-40561429D03*
X78045716Y-40561429D03*
X77545716Y-40561429D03*
X77045716Y-40561429D03*
X76545716Y-40561429D03*
D12*
X75858216Y-41248929D03*
X75858216Y-41748929D03*
X75858216Y-42248929D03*
X75858216Y-42748929D03*
X75858216Y-43248929D03*
X75858216Y-43748929D03*
X75858216Y-44248929D03*
X75858216Y-44748929D03*
D11*
X76545716Y-45436429D03*
X77045716Y-45436429D03*
X77545716Y-45436429D03*
X78045716Y-45436429D03*
X78545716Y-45436429D03*
X79045716Y-45436429D03*
X79545716Y-45436429D03*
X80045716Y-45436429D03*
D12*
X80733216Y-44748929D03*
X80733216Y-44248929D03*
X80733216Y-43748929D03*
X80733216Y-43248929D03*
X80733216Y-42748929D03*
X80733216Y-42248929D03*
X80733216Y-41748929D03*
X80733216Y-41248929D03*
D13*
X78295716Y-42998929D03*
G04 #@! TD*
D38*
G04 #@! TO.C,J1*
X22437864Y-29031550D03*
X23344172Y-28608932D03*
X24250479Y-28186313D03*
X25156787Y-27763695D03*
X26063095Y-27341077D03*
D39*
X22897310Y-33092896D03*
X28878941Y-30303616D03*
G04 #@! TD*
D10*
G04 #@! TO.C,C2*
X78928216Y-8398929D03*
X80063216Y-8398929D03*
G04 #@! TD*
D25*
G04 #@! TO.C,PAD5*
X70995716Y-87498929D03*
G04 #@! TD*
D21*
G04 #@! TO.C,C4*
X102233216Y-44698929D03*
X103958216Y-44698929D03*
G04 #@! TD*
D33*
G04 #@! TO.C,FB1*
X12098216Y-75998929D03*
X13293216Y-75998929D03*
G04 #@! TD*
D10*
G04 #@! TO.C,C7*
X50628216Y-83798929D03*
X51763216Y-83798929D03*
G04 #@! TD*
D14*
G04 #@! TO.C,C1*
X83595716Y-68536429D03*
X83595716Y-70261429D03*
G04 #@! TD*
D10*
G04 #@! TO.C,C7*
X20628216Y-23798929D03*
X21763216Y-23798929D03*
G04 #@! TD*
D14*
G04 #@! TO.C,C1*
X53595716Y-8536429D03*
X53595716Y-10261429D03*
G04 #@! TD*
D19*
G04 #@! TO.C,C3*
X82295716Y-8531429D03*
X82295716Y-9666429D03*
G04 #@! TD*
D26*
G04 #@! TO.C,U3*
X83820716Y-73293929D03*
X83820716Y-74563929D03*
X83820716Y-75833929D03*
X83820716Y-77103929D03*
X88770716Y-77103929D03*
X88770716Y-75833929D03*
X88770716Y-74563929D03*
X88770716Y-73293929D03*
G04 #@! TD*
D10*
G04 #@! TO.C,C10*
X25328216Y-78598929D03*
X26463216Y-78598929D03*
G04 #@! TD*
D19*
G04 #@! TO.C,C13*
X76895716Y-77031429D03*
X76895716Y-78166429D03*
G04 #@! TD*
D38*
G04 #@! TO.C,J1*
X52437864Y-29031550D03*
X53344172Y-28608932D03*
X54250479Y-28186313D03*
X55156787Y-27763695D03*
X56063095Y-27341077D03*
D39*
X52897310Y-33092896D03*
X58878941Y-30303616D03*
G04 #@! TD*
D10*
G04 #@! TO.C,C5*
X72028216Y-73398929D03*
X73163216Y-73398929D03*
G04 #@! TD*
D21*
G04 #@! TO.C,C4*
X12233216Y-74698929D03*
X13958216Y-74698929D03*
G04 #@! TD*
D11*
G04 #@! TO.C,U4*
X20045716Y-10561429D03*
X19545716Y-10561429D03*
X19045716Y-10561429D03*
X18545716Y-10561429D03*
X18045716Y-10561429D03*
X17545716Y-10561429D03*
X17045716Y-10561429D03*
X16545716Y-10561429D03*
D12*
X15858216Y-11248929D03*
X15858216Y-11748929D03*
X15858216Y-12248929D03*
X15858216Y-12748929D03*
X15858216Y-13248929D03*
X15858216Y-13748929D03*
X15858216Y-14248929D03*
X15858216Y-14748929D03*
D11*
X16545716Y-15436429D03*
X17045716Y-15436429D03*
X17545716Y-15436429D03*
X18045716Y-15436429D03*
X18545716Y-15436429D03*
X19045716Y-15436429D03*
X19545716Y-15436429D03*
X20045716Y-15436429D03*
D12*
X20733216Y-14748929D03*
X20733216Y-14248929D03*
X20733216Y-13748929D03*
X20733216Y-13248929D03*
X20733216Y-12748929D03*
X20733216Y-12248929D03*
X20733216Y-11748929D03*
X20733216Y-11248929D03*
D13*
X18295716Y-12998929D03*
G04 #@! TD*
D34*
G04 #@! TO.C,JP1*
X58845716Y-10998929D03*
D35*
X57545716Y-10998929D03*
G04 #@! TD*
D27*
G04 #@! TO.C,J2*
X69497548Y-53939250D03*
D28*
X71511950Y-54258300D03*
D29*
X73329168Y-53332381D03*
D30*
X70995716Y-50998929D03*
D31*
X74255087Y-51515163D03*
D32*
X73936037Y-49500761D03*
G04 #@! TD*
D10*
G04 #@! TO.C,C5*
X42028216Y-43398929D03*
X43163216Y-43398929D03*
G04 #@! TD*
D36*
G04 #@! TO.C,J6*
X45928337Y-27341077D03*
X46834645Y-27763695D03*
X47740953Y-28186313D03*
X48647260Y-28608932D03*
X49553568Y-29031550D03*
D37*
X43112491Y-30303616D03*
X49094122Y-33092896D03*
G04 #@! TD*
D21*
G04 #@! TO.C,C4*
X102233216Y-14698929D03*
X103958216Y-14698929D03*
G04 #@! TD*
D25*
G04 #@! TO.C,PAD5*
X70995716Y-27498929D03*
G04 #@! TD*
D20*
G04 #@! TO.C,PAD4*
X30995716Y-87498929D03*
G04 #@! TD*
D10*
G04 #@! TO.C,C7*
X110628216Y-23798929D03*
X111763216Y-23798929D03*
G04 #@! TD*
D22*
G04 #@! TO.C,U2*
X82458216Y-51748929D03*
X82458216Y-51248929D03*
X82458216Y-50748929D03*
X82458216Y-50248929D03*
D23*
X81745716Y-49536429D03*
X81245716Y-49536429D03*
X80745716Y-49536429D03*
X80245716Y-49536429D03*
D22*
X79533216Y-50248929D03*
X79533216Y-50748929D03*
X79533216Y-51248929D03*
X79533216Y-51748929D03*
D23*
X80245716Y-52461429D03*
X80745716Y-52461429D03*
X81245716Y-52461429D03*
X81745716Y-52461429D03*
D24*
X80995716Y-50998929D03*
G04 #@! TD*
D11*
G04 #@! TO.C,U4*
X110045716Y-70561429D03*
X109545716Y-70561429D03*
X109045716Y-70561429D03*
X108545716Y-70561429D03*
X108045716Y-70561429D03*
X107545716Y-70561429D03*
X107045716Y-70561429D03*
X106545716Y-70561429D03*
D12*
X105858216Y-71248929D03*
X105858216Y-71748929D03*
X105858216Y-72248929D03*
X105858216Y-72748929D03*
X105858216Y-73248929D03*
X105858216Y-73748929D03*
X105858216Y-74248929D03*
X105858216Y-74748929D03*
D11*
X106545716Y-75436429D03*
X107045716Y-75436429D03*
X107545716Y-75436429D03*
X108045716Y-75436429D03*
X108545716Y-75436429D03*
X109045716Y-75436429D03*
X109545716Y-75436429D03*
X110045716Y-75436429D03*
D12*
X110733216Y-74748929D03*
X110733216Y-74248929D03*
X110733216Y-73748929D03*
X110733216Y-73248929D03*
X110733216Y-72748929D03*
X110733216Y-72248929D03*
X110733216Y-71748929D03*
X110733216Y-71248929D03*
D13*
X108295716Y-72998929D03*
G04 #@! TD*
D19*
G04 #@! TO.C,C3*
X82295716Y-38531429D03*
X82295716Y-39666429D03*
G04 #@! TD*
D26*
G04 #@! TO.C,U3*
X23820716Y-73293929D03*
X23820716Y-74563929D03*
X23820716Y-75833929D03*
X23820716Y-77103929D03*
X28770716Y-77103929D03*
X28770716Y-75833929D03*
X28770716Y-74563929D03*
X28770716Y-73293929D03*
G04 #@! TD*
D36*
G04 #@! TO.C,J6*
X105928337Y-57341077D03*
X106834645Y-57763695D03*
X107740953Y-58186313D03*
X108647260Y-58608932D03*
X109553568Y-59031550D03*
D37*
X103112491Y-60303616D03*
X109094122Y-63092896D03*
G04 #@! TD*
D17*
G04 #@! TO.C,R3*
X55895716Y-9201429D03*
X55895716Y-10396429D03*
G04 #@! TD*
D10*
G04 #@! TO.C,C7*
X80628216Y-53798929D03*
X81763216Y-53798929D03*
G04 #@! TD*
D38*
G04 #@! TO.C,J1*
X82437864Y-59031550D03*
X83344172Y-58608932D03*
X84250479Y-58186313D03*
X85156787Y-57763695D03*
X86063095Y-57341077D03*
D39*
X82897310Y-63092896D03*
X88878941Y-60303616D03*
G04 #@! TD*
D15*
G04 #@! TO.C,H1*
X120995716Y-80998929D03*
D16*
X120995716Y-80998929D03*
G04 #@! TD*
D10*
G04 #@! TO.C,C5*
X72028216Y-43398929D03*
X73163216Y-43398929D03*
G04 #@! TD*
D15*
G04 #@! TO.C,H1*
X60995716Y-50998929D03*
D16*
X60995716Y-50998929D03*
G04 #@! TD*
D10*
G04 #@! TO.C,C33*
X102028216Y-42398929D03*
X103163216Y-42398929D03*
G04 #@! TD*
G04 #@! TO.C,C33*
X72028216Y-42398929D03*
X73163216Y-42398929D03*
G04 #@! TD*
D27*
G04 #@! TO.C,J2*
X69497548Y-23939250D03*
D28*
X71511950Y-24258300D03*
D29*
X73329168Y-23332381D03*
D30*
X70995716Y-20998929D03*
D31*
X74255087Y-21515163D03*
D32*
X73936037Y-19500761D03*
G04 #@! TD*
D11*
G04 #@! TO.C,U4*
X80045716Y-10561429D03*
X79545716Y-10561429D03*
X79045716Y-10561429D03*
X78545716Y-10561429D03*
X78045716Y-10561429D03*
X77545716Y-10561429D03*
X77045716Y-10561429D03*
X76545716Y-10561429D03*
D12*
X75858216Y-11248929D03*
X75858216Y-11748929D03*
X75858216Y-12248929D03*
X75858216Y-12748929D03*
X75858216Y-13248929D03*
X75858216Y-13748929D03*
X75858216Y-14248929D03*
X75858216Y-14748929D03*
D11*
X76545716Y-15436429D03*
X77045716Y-15436429D03*
X77545716Y-15436429D03*
X78045716Y-15436429D03*
X78545716Y-15436429D03*
X79045716Y-15436429D03*
X79545716Y-15436429D03*
X80045716Y-15436429D03*
D12*
X80733216Y-14748929D03*
X80733216Y-14248929D03*
X80733216Y-13748929D03*
X80733216Y-13248929D03*
X80733216Y-12748929D03*
X80733216Y-12248929D03*
X80733216Y-11748929D03*
X80733216Y-11248929D03*
D13*
X78295716Y-12998929D03*
G04 #@! TD*
D27*
G04 #@! TO.C,J2*
X9497548Y-83939250D03*
D28*
X11511950Y-84258300D03*
D29*
X13329168Y-83332381D03*
D30*
X10995716Y-80998929D03*
D31*
X14255087Y-81515163D03*
D32*
X13936037Y-79500761D03*
G04 #@! TD*
D19*
G04 #@! TO.C,C13*
X76895716Y-17031429D03*
X76895716Y-18166429D03*
G04 #@! TD*
D27*
G04 #@! TO.C,J2*
X69497548Y-83939250D03*
D28*
X71511950Y-84258300D03*
D29*
X73329168Y-83332381D03*
D30*
X70995716Y-80998929D03*
D31*
X74255087Y-81515163D03*
D32*
X73936037Y-79500761D03*
G04 #@! TD*
D25*
G04 #@! TO.C,PAD5*
X40995716Y-27498929D03*
G04 #@! TD*
D34*
G04 #@! TO.C,JP1*
X28845716Y-40998929D03*
D35*
X27545716Y-40998929D03*
G04 #@! TD*
D11*
G04 #@! TO.C,U4*
X20045716Y-40561429D03*
X19545716Y-40561429D03*
X19045716Y-40561429D03*
X18545716Y-40561429D03*
X18045716Y-40561429D03*
X17545716Y-40561429D03*
X17045716Y-40561429D03*
X16545716Y-40561429D03*
D12*
X15858216Y-41248929D03*
X15858216Y-41748929D03*
X15858216Y-42248929D03*
X15858216Y-42748929D03*
X15858216Y-43248929D03*
X15858216Y-43748929D03*
X15858216Y-44248929D03*
X15858216Y-44748929D03*
D11*
X16545716Y-45436429D03*
X17045716Y-45436429D03*
X17545716Y-45436429D03*
X18045716Y-45436429D03*
X18545716Y-45436429D03*
X19045716Y-45436429D03*
X19545716Y-45436429D03*
X20045716Y-45436429D03*
D12*
X20733216Y-44748929D03*
X20733216Y-44248929D03*
X20733216Y-43748929D03*
X20733216Y-43248929D03*
X20733216Y-42748929D03*
X20733216Y-42248929D03*
X20733216Y-41748929D03*
X20733216Y-41248929D03*
D13*
X18295716Y-42998929D03*
G04 #@! TD*
D22*
G04 #@! TO.C,U2*
X52458216Y-21748929D03*
X52458216Y-21248929D03*
X52458216Y-20748929D03*
X52458216Y-20248929D03*
D23*
X51745716Y-19536429D03*
X51245716Y-19536429D03*
X50745716Y-19536429D03*
X50245716Y-19536429D03*
D22*
X49533216Y-20248929D03*
X49533216Y-20748929D03*
X49533216Y-21248929D03*
X49533216Y-21748929D03*
D23*
X50245716Y-22461429D03*
X50745716Y-22461429D03*
X51245716Y-22461429D03*
X51745716Y-22461429D03*
D24*
X50995716Y-20998929D03*
G04 #@! TD*
D19*
G04 #@! TO.C,C13*
X76895716Y-47031429D03*
X76895716Y-48166429D03*
G04 #@! TD*
D26*
G04 #@! TO.C,U3*
X113820716Y-43293929D03*
X113820716Y-44563929D03*
X113820716Y-45833929D03*
X113820716Y-47103929D03*
X118770716Y-47103929D03*
X118770716Y-45833929D03*
X118770716Y-44563929D03*
X118770716Y-43293929D03*
G04 #@! TD*
D18*
G04 #@! TO.C,KiKit_FID_T_2*
X121995716Y-3850000D03*
G04 #@! TD*
D33*
G04 #@! TO.C,FB1*
X72098216Y-75998929D03*
X73293216Y-75998929D03*
G04 #@! TD*
D10*
G04 #@! TO.C,C10*
X25328216Y-18598929D03*
X26463216Y-18598929D03*
G04 #@! TD*
D15*
G04 #@! TO.C,H1*
X90995716Y-50998929D03*
D16*
X90995716Y-50998929D03*
G04 #@! TD*
D26*
G04 #@! TO.C,U3*
X23820716Y-13293929D03*
X23820716Y-14563929D03*
X23820716Y-15833929D03*
X23820716Y-17103929D03*
X28770716Y-17103929D03*
X28770716Y-15833929D03*
X28770716Y-14563929D03*
X28770716Y-13293929D03*
G04 #@! TD*
D38*
G04 #@! TO.C,J1*
X112437864Y-59031550D03*
X113344172Y-58608932D03*
X114250479Y-58186313D03*
X115156787Y-57763695D03*
X116063095Y-57341077D03*
D39*
X112897310Y-63092896D03*
X118878941Y-60303616D03*
G04 #@! TD*
D36*
G04 #@! TO.C,J6*
X75928337Y-57341077D03*
X76834645Y-57763695D03*
X77740953Y-58186313D03*
X78647260Y-58608932D03*
X79553568Y-59031550D03*
D37*
X73112491Y-60303616D03*
X79094122Y-63092896D03*
G04 #@! TD*
D11*
G04 #@! TO.C,U4*
X50045716Y-40561429D03*
X49545716Y-40561429D03*
X49045716Y-40561429D03*
X48545716Y-40561429D03*
X48045716Y-40561429D03*
X47545716Y-40561429D03*
X47045716Y-40561429D03*
X46545716Y-40561429D03*
D12*
X45858216Y-41248929D03*
X45858216Y-41748929D03*
X45858216Y-42248929D03*
X45858216Y-42748929D03*
X45858216Y-43248929D03*
X45858216Y-43748929D03*
X45858216Y-44248929D03*
X45858216Y-44748929D03*
D11*
X46545716Y-45436429D03*
X47045716Y-45436429D03*
X47545716Y-45436429D03*
X48045716Y-45436429D03*
X48545716Y-45436429D03*
X49045716Y-45436429D03*
X49545716Y-45436429D03*
X50045716Y-45436429D03*
D12*
X50733216Y-44748929D03*
X50733216Y-44248929D03*
X50733216Y-43748929D03*
X50733216Y-43248929D03*
X50733216Y-42748929D03*
X50733216Y-42248929D03*
X50733216Y-41748929D03*
X50733216Y-41248929D03*
D13*
X48295716Y-42998929D03*
G04 #@! TD*
D10*
G04 #@! TO.C,C5*
X12028216Y-73398929D03*
X13163216Y-73398929D03*
G04 #@! TD*
G04 #@! TO.C,C2*
X18928216Y-68398929D03*
X20063216Y-68398929D03*
G04 #@! TD*
D21*
G04 #@! TO.C,C4*
X42233216Y-44698929D03*
X43958216Y-44698929D03*
G04 #@! TD*
D17*
G04 #@! TO.C,R3*
X85895716Y-39201429D03*
X85895716Y-40396429D03*
G04 #@! TD*
D22*
G04 #@! TO.C,U2*
X22458216Y-51748929D03*
X22458216Y-51248929D03*
X22458216Y-50748929D03*
X22458216Y-50248929D03*
D23*
X21745716Y-49536429D03*
X21245716Y-49536429D03*
X20745716Y-49536429D03*
X20245716Y-49536429D03*
D22*
X19533216Y-50248929D03*
X19533216Y-50748929D03*
X19533216Y-51248929D03*
X19533216Y-51748929D03*
D23*
X20245716Y-52461429D03*
X20745716Y-52461429D03*
X21245716Y-52461429D03*
X21745716Y-52461429D03*
D24*
X20995716Y-50998929D03*
G04 #@! TD*
D25*
G04 #@! TO.C,PAD5*
X100995716Y-27498929D03*
G04 #@! TD*
D10*
G04 #@! TO.C,C10*
X85328216Y-48598929D03*
X86463216Y-48598929D03*
G04 #@! TD*
D27*
G04 #@! TO.C,J2*
X9497548Y-53939250D03*
D28*
X11511950Y-54258300D03*
D29*
X13329168Y-53332381D03*
D30*
X10995716Y-50998929D03*
D31*
X14255087Y-51515163D03*
D32*
X13936037Y-49500761D03*
G04 #@! TD*
D21*
G04 #@! TO.C,C4*
X72233216Y-14698929D03*
X73958216Y-14698929D03*
G04 #@! TD*
D19*
G04 #@! TO.C,C3*
X52295716Y-68531429D03*
X52295716Y-69666429D03*
G04 #@! TD*
D17*
G04 #@! TO.C,R3*
X55895716Y-39201429D03*
X55895716Y-40396429D03*
G04 #@! TD*
D18*
G04 #@! TO.C,KiKit_FID_T_3*
X10000000Y-98147858D03*
G04 #@! TD*
D10*
G04 #@! TO.C,C33*
X42028216Y-42398929D03*
X43163216Y-42398929D03*
G04 #@! TD*
D20*
G04 #@! TO.C,PAD4*
X90995716Y-57498929D03*
G04 #@! TD*
D10*
G04 #@! TO.C,C2*
X18928216Y-8398929D03*
X20063216Y-8398929D03*
G04 #@! TD*
D36*
G04 #@! TO.C,J6*
X45928337Y-87341077D03*
X46834645Y-87763695D03*
X47740953Y-88186313D03*
X48647260Y-88608932D03*
X49553568Y-89031550D03*
D37*
X43112491Y-90303616D03*
X49094122Y-93092896D03*
G04 #@! TD*
D20*
G04 #@! TO.C,PAD4*
X120995716Y-27498929D03*
G04 #@! TD*
D19*
G04 #@! TO.C,C13*
X16895716Y-17031429D03*
X16895716Y-18166429D03*
G04 #@! TD*
G04 #@! TO.C,C3*
X22295716Y-38531429D03*
X22295716Y-39666429D03*
G04 #@! TD*
D26*
G04 #@! TO.C,U3*
X83820716Y-13293929D03*
X83820716Y-14563929D03*
X83820716Y-15833929D03*
X83820716Y-17103929D03*
X88770716Y-17103929D03*
X88770716Y-15833929D03*
X88770716Y-14563929D03*
X88770716Y-13293929D03*
G04 #@! TD*
D38*
G04 #@! TO.C,J1*
X112437864Y-29031550D03*
X113344172Y-28608932D03*
X114250479Y-28186313D03*
X115156787Y-27763695D03*
X116063095Y-27341077D03*
D39*
X112897310Y-33092896D03*
X118878941Y-30303616D03*
G04 #@! TD*
D17*
G04 #@! TO.C,R3*
X115895716Y-39201429D03*
X115895716Y-40396429D03*
G04 #@! TD*
D19*
G04 #@! TO.C,C13*
X16895716Y-47031429D03*
X16895716Y-48166429D03*
G04 #@! TD*
D15*
G04 #@! TO.C,H1*
X60995716Y-20998929D03*
D16*
X60995716Y-20998929D03*
G04 #@! TD*
D25*
G04 #@! TO.C,PAD5*
X100995716Y-87498929D03*
G04 #@! TD*
D14*
G04 #@! TO.C,C1*
X53595716Y-68536429D03*
X53595716Y-70261429D03*
G04 #@! TD*
D17*
G04 #@! TO.C,R3*
X85895716Y-69201429D03*
X85895716Y-70396429D03*
G04 #@! TD*
G04 #@! TO.C,R3*
X85895716Y-9201429D03*
X85895716Y-10396429D03*
G04 #@! TD*
D14*
G04 #@! TO.C,C1*
X113595716Y-68536429D03*
X113595716Y-70261429D03*
G04 #@! TD*
D10*
G04 #@! TO.C,C7*
X80628216Y-83798929D03*
X81763216Y-83798929D03*
G04 #@! TD*
D33*
G04 #@! TO.C,FB1*
X12098216Y-15998929D03*
X13293216Y-15998929D03*
G04 #@! TD*
D15*
G04 #@! TO.C,H1*
X120995716Y-20998929D03*
D16*
X120995716Y-20998929D03*
G04 #@! TD*
D10*
G04 #@! TO.C,C5*
X102028216Y-73398929D03*
X103163216Y-73398929D03*
G04 #@! TD*
D33*
G04 #@! TO.C,FB1*
X72098216Y-15998929D03*
X73293216Y-15998929D03*
G04 #@! TD*
D10*
G04 #@! TO.C,C10*
X85328216Y-78598929D03*
X86463216Y-78598929D03*
G04 #@! TD*
D20*
G04 #@! TO.C,PAD4*
X60995716Y-87498929D03*
G04 #@! TD*
D10*
G04 #@! TO.C,C2*
X108928216Y-38398929D03*
X110063216Y-38398929D03*
G04 #@! TD*
D25*
G04 #@! TO.C,PAD5*
X10995716Y-87498929D03*
G04 #@! TD*
D10*
G04 #@! TO.C,C10*
X115328216Y-78598929D03*
X116463216Y-78598929D03*
G04 #@! TD*
D26*
G04 #@! TO.C,U3*
X23820716Y-43293929D03*
X23820716Y-44563929D03*
X23820716Y-45833929D03*
X23820716Y-47103929D03*
X28770716Y-47103929D03*
X28770716Y-45833929D03*
X28770716Y-44563929D03*
X28770716Y-43293929D03*
G04 #@! TD*
D11*
G04 #@! TO.C,U4*
X110045716Y-10561429D03*
X109545716Y-10561429D03*
X109045716Y-10561429D03*
X108545716Y-10561429D03*
X108045716Y-10561429D03*
X107545716Y-10561429D03*
X107045716Y-10561429D03*
X106545716Y-10561429D03*
D12*
X105858216Y-11248929D03*
X105858216Y-11748929D03*
X105858216Y-12248929D03*
X105858216Y-12748929D03*
X105858216Y-13248929D03*
X105858216Y-13748929D03*
X105858216Y-14248929D03*
X105858216Y-14748929D03*
D11*
X106545716Y-15436429D03*
X107045716Y-15436429D03*
X107545716Y-15436429D03*
X108045716Y-15436429D03*
X108545716Y-15436429D03*
X109045716Y-15436429D03*
X109545716Y-15436429D03*
X110045716Y-15436429D03*
D12*
X110733216Y-14748929D03*
X110733216Y-14248929D03*
X110733216Y-13748929D03*
X110733216Y-13248929D03*
X110733216Y-12748929D03*
X110733216Y-12248929D03*
X110733216Y-11748929D03*
X110733216Y-11248929D03*
D13*
X108295716Y-12998929D03*
G04 #@! TD*
D21*
G04 #@! TO.C,C4*
X72233216Y-44698929D03*
X73958216Y-44698929D03*
G04 #@! TD*
D19*
G04 #@! TO.C,C3*
X22295716Y-68531429D03*
X22295716Y-69666429D03*
G04 #@! TD*
D34*
G04 #@! TO.C,JP1*
X28845716Y-70998929D03*
D35*
X27545716Y-70998929D03*
G04 #@! TD*
D33*
G04 #@! TO.C,FB1*
X12098216Y-45998929D03*
X13293216Y-45998929D03*
G04 #@! TD*
D27*
G04 #@! TO.C,J2*
X99497548Y-53939250D03*
D28*
X101511950Y-54258300D03*
D29*
X103329168Y-53332381D03*
D30*
X100995716Y-50998929D03*
D31*
X104255087Y-51515163D03*
D32*
X103936037Y-49500761D03*
G04 #@! TD*
D26*
G04 #@! TO.C,U3*
X113820716Y-13293929D03*
X113820716Y-14563929D03*
X113820716Y-15833929D03*
X113820716Y-17103929D03*
X118770716Y-17103929D03*
X118770716Y-15833929D03*
X118770716Y-14563929D03*
X118770716Y-13293929D03*
G04 #@! TD*
D38*
G04 #@! TO.C,J1*
X22437864Y-89031550D03*
X23344172Y-88608932D03*
X24250479Y-88186313D03*
X25156787Y-87763695D03*
X26063095Y-87341077D03*
D39*
X22897310Y-93092896D03*
X28878941Y-90303616D03*
G04 #@! TD*
D34*
G04 #@! TO.C,JP1*
X88845716Y-40998929D03*
D35*
X87545716Y-40998929D03*
G04 #@! TD*
D26*
G04 #@! TO.C,U3*
X53820716Y-43293929D03*
X53820716Y-44563929D03*
X53820716Y-45833929D03*
X53820716Y-47103929D03*
X58770716Y-47103929D03*
X58770716Y-45833929D03*
X58770716Y-44563929D03*
X58770716Y-43293929D03*
G04 #@! TD*
D36*
G04 #@! TO.C,J6*
X105928337Y-27341077D03*
X106834645Y-27763695D03*
X107740953Y-28186313D03*
X108647260Y-28608932D03*
X109553568Y-29031550D03*
D37*
X103112491Y-30303616D03*
X109094122Y-33092896D03*
G04 #@! TD*
D33*
G04 #@! TO.C,FB1*
X42098216Y-75998929D03*
X43293216Y-75998929D03*
G04 #@! TD*
D10*
G04 #@! TO.C,C5*
X12028216Y-43398929D03*
X13163216Y-43398929D03*
G04 #@! TD*
D14*
G04 #@! TO.C,C1*
X83595716Y-38536429D03*
X83595716Y-40261429D03*
G04 #@! TD*
D34*
G04 #@! TO.C,JP1*
X118845716Y-70998929D03*
D35*
X117545716Y-70998929D03*
G04 #@! TD*
D19*
G04 #@! TO.C,C3*
X112295716Y-8531429D03*
X112295716Y-9666429D03*
G04 #@! TD*
D27*
G04 #@! TO.C,J2*
X39497548Y-53939250D03*
D28*
X41511950Y-54258300D03*
D29*
X43329168Y-53332381D03*
D30*
X40995716Y-50998929D03*
D31*
X44255087Y-51515163D03*
D32*
X43936037Y-49500761D03*
G04 #@! TD*
D19*
G04 #@! TO.C,C3*
X82295716Y-68531429D03*
X82295716Y-69666429D03*
G04 #@! TD*
D36*
G04 #@! TO.C,J6*
X15928337Y-57341077D03*
X16834645Y-57763695D03*
X17740953Y-58186313D03*
X18647260Y-58608932D03*
X19553568Y-59031550D03*
D37*
X13112491Y-60303616D03*
X19094122Y-63092896D03*
G04 #@! TD*
D20*
G04 #@! TO.C,PAD4*
X60995716Y-57498929D03*
G04 #@! TD*
D38*
G04 #@! TO.C,J1*
X82437864Y-29031550D03*
X83344172Y-28608932D03*
X84250479Y-28186313D03*
X85156787Y-27763695D03*
X86063095Y-27341077D03*
D39*
X82897310Y-33092896D03*
X88878941Y-30303616D03*
G04 #@! TD*
D22*
G04 #@! TO.C,U2*
X112458216Y-81748929D03*
X112458216Y-81248929D03*
X112458216Y-80748929D03*
X112458216Y-80248929D03*
D23*
X111745716Y-79536429D03*
X111245716Y-79536429D03*
X110745716Y-79536429D03*
X110245716Y-79536429D03*
D22*
X109533216Y-80248929D03*
X109533216Y-80748929D03*
X109533216Y-81248929D03*
X109533216Y-81748929D03*
D23*
X110245716Y-82461429D03*
X110745716Y-82461429D03*
X111245716Y-82461429D03*
X111745716Y-82461429D03*
D24*
X110995716Y-80998929D03*
G04 #@! TD*
D21*
G04 #@! TO.C,C4*
X102233216Y-74698929D03*
X103958216Y-74698929D03*
G04 #@! TD*
D11*
G04 #@! TO.C,U4*
X50045716Y-10561429D03*
X49545716Y-10561429D03*
X49045716Y-10561429D03*
X48545716Y-10561429D03*
X48045716Y-10561429D03*
X47545716Y-10561429D03*
X47045716Y-10561429D03*
X46545716Y-10561429D03*
D12*
X45858216Y-11248929D03*
X45858216Y-11748929D03*
X45858216Y-12248929D03*
X45858216Y-12748929D03*
X45858216Y-13248929D03*
X45858216Y-13748929D03*
X45858216Y-14248929D03*
X45858216Y-14748929D03*
D11*
X46545716Y-15436429D03*
X47045716Y-15436429D03*
X47545716Y-15436429D03*
X48045716Y-15436429D03*
X48545716Y-15436429D03*
X49045716Y-15436429D03*
X49545716Y-15436429D03*
X50045716Y-15436429D03*
D12*
X50733216Y-14748929D03*
X50733216Y-14248929D03*
X50733216Y-13748929D03*
X50733216Y-13248929D03*
X50733216Y-12748929D03*
X50733216Y-12248929D03*
X50733216Y-11748929D03*
X50733216Y-11248929D03*
D13*
X48295716Y-12998929D03*
G04 #@! TD*
D26*
G04 #@! TO.C,U3*
X113820716Y-73293929D03*
X113820716Y-74563929D03*
X113820716Y-75833929D03*
X113820716Y-77103929D03*
X118770716Y-77103929D03*
X118770716Y-75833929D03*
X118770716Y-74563929D03*
X118770716Y-73293929D03*
G04 #@! TD*
D10*
G04 #@! TO.C,C10*
X85328216Y-18598929D03*
X86463216Y-18598929D03*
G04 #@! TD*
G04 #@! TO.C,C33*
X12028216Y-12398929D03*
X13163216Y-12398929D03*
G04 #@! TD*
G04 #@! TO.C,C7*
X50628216Y-53798929D03*
X51763216Y-53798929D03*
G04 #@! TD*
D34*
G04 #@! TO.C,JP1*
X118845716Y-10998929D03*
D35*
X117545716Y-10998929D03*
G04 #@! TD*
D15*
G04 #@! TO.C,H1*
X30995716Y-80998929D03*
D16*
X30995716Y-80998929D03*
G04 #@! TD*
D19*
G04 #@! TO.C,C13*
X46895716Y-47031429D03*
X46895716Y-48166429D03*
G04 #@! TD*
D10*
G04 #@! TO.C,C2*
X78928216Y-38398929D03*
X80063216Y-38398929D03*
G04 #@! TD*
D38*
G04 #@! TO.C,J1*
X82437864Y-89031550D03*
X83344172Y-88608932D03*
X84250479Y-88186313D03*
X85156787Y-87763695D03*
X86063095Y-87341077D03*
D39*
X82897310Y-93092896D03*
X88878941Y-90303616D03*
G04 #@! TD*
D21*
G04 #@! TO.C,C4*
X12233216Y-44698929D03*
X13958216Y-44698929D03*
G04 #@! TD*
D34*
G04 #@! TO.C,JP1*
X28845716Y-10998929D03*
D35*
X27545716Y-10998929D03*
G04 #@! TD*
D34*
G04 #@! TO.C,JP1*
X58845716Y-70998929D03*
D35*
X57545716Y-70998929D03*
G04 #@! TD*
D20*
G04 #@! TO.C,PAD4*
X120995716Y-57498929D03*
G04 #@! TD*
D38*
G04 #@! TO.C,J1*
X52437864Y-89031550D03*
X53344172Y-88608932D03*
X54250479Y-88186313D03*
X55156787Y-87763695D03*
X56063095Y-87341077D03*
D39*
X52897310Y-93092896D03*
X58878941Y-90303616D03*
G04 #@! TD*
D19*
G04 #@! TO.C,C3*
X112295716Y-38531429D03*
X112295716Y-39666429D03*
G04 #@! TD*
D22*
G04 #@! TO.C,U2*
X22458216Y-21748929D03*
X22458216Y-21248929D03*
X22458216Y-20748929D03*
X22458216Y-20248929D03*
D23*
X21745716Y-19536429D03*
X21245716Y-19536429D03*
X20745716Y-19536429D03*
X20245716Y-19536429D03*
D22*
X19533216Y-20248929D03*
X19533216Y-20748929D03*
X19533216Y-21248929D03*
X19533216Y-21748929D03*
D23*
X20245716Y-22461429D03*
X20745716Y-22461429D03*
X21245716Y-22461429D03*
X21745716Y-22461429D03*
D24*
X20995716Y-20998929D03*
G04 #@! TD*
D17*
G04 #@! TO.C,R3*
X115895716Y-69201429D03*
X115895716Y-70396429D03*
G04 #@! TD*
D38*
G04 #@! TO.C,J1*
X22437864Y-59031550D03*
X23344172Y-58608932D03*
X24250479Y-58186313D03*
X25156787Y-57763695D03*
X26063095Y-57341077D03*
D39*
X22897310Y-63092896D03*
X28878941Y-60303616D03*
G04 #@! TD*
D27*
G04 #@! TO.C,J2*
X39497548Y-83939250D03*
D28*
X41511950Y-84258300D03*
D29*
X43329168Y-83332381D03*
D30*
X40995716Y-80998929D03*
D31*
X44255087Y-81515163D03*
D32*
X43936037Y-79500761D03*
G04 #@! TD*
D34*
G04 #@! TO.C,JP1*
X88845716Y-70998929D03*
D35*
X87545716Y-70998929D03*
G04 #@! TD*
D33*
G04 #@! TO.C,FB1*
X102098216Y-15998929D03*
X103293216Y-15998929D03*
G04 #@! TD*
D20*
G04 #@! TO.C,PAD4*
X30995716Y-57498929D03*
G04 #@! TD*
D10*
G04 #@! TO.C,C7*
X20628216Y-83798929D03*
X21763216Y-83798929D03*
G04 #@! TD*
D11*
G04 #@! TO.C,U4*
X110045716Y-40561429D03*
X109545716Y-40561429D03*
X109045716Y-40561429D03*
X108545716Y-40561429D03*
X108045716Y-40561429D03*
X107545716Y-40561429D03*
X107045716Y-40561429D03*
X106545716Y-40561429D03*
D12*
X105858216Y-41248929D03*
X105858216Y-41748929D03*
X105858216Y-42248929D03*
X105858216Y-42748929D03*
X105858216Y-43248929D03*
X105858216Y-43748929D03*
X105858216Y-44248929D03*
X105858216Y-44748929D03*
D11*
X106545716Y-45436429D03*
X107045716Y-45436429D03*
X107545716Y-45436429D03*
X108045716Y-45436429D03*
X108545716Y-45436429D03*
X109045716Y-45436429D03*
X109545716Y-45436429D03*
X110045716Y-45436429D03*
D12*
X110733216Y-44748929D03*
X110733216Y-44248929D03*
X110733216Y-43748929D03*
X110733216Y-43248929D03*
X110733216Y-42748929D03*
X110733216Y-42248929D03*
X110733216Y-41748929D03*
X110733216Y-41248929D03*
D13*
X108295716Y-42998929D03*
G04 #@! TD*
D10*
G04 #@! TO.C,C33*
X72028216Y-72398929D03*
X73163216Y-72398929D03*
G04 #@! TD*
G04 #@! TO.C,C7*
X20628216Y-53798929D03*
X21763216Y-53798929D03*
G04 #@! TD*
D19*
G04 #@! TO.C,C13*
X106895716Y-47031429D03*
X106895716Y-48166429D03*
G04 #@! TD*
D36*
G04 #@! TO.C,J6*
X15928337Y-27341077D03*
X16834645Y-27763695D03*
X17740953Y-28186313D03*
X18647260Y-28608932D03*
X19553568Y-29031550D03*
D37*
X13112491Y-30303616D03*
X19094122Y-33092896D03*
G04 #@! TD*
D17*
G04 #@! TO.C,R3*
X25895716Y-69201429D03*
X25895716Y-70396429D03*
G04 #@! TD*
D10*
G04 #@! TO.C,C10*
X115328216Y-18598929D03*
X116463216Y-18598929D03*
G04 #@! TD*
D15*
G04 #@! TO.C,H1*
X60995716Y-80998929D03*
D16*
X60995716Y-80998929D03*
G04 #@! TD*
D14*
G04 #@! TO.C,C1*
X83595716Y-8536429D03*
X83595716Y-10261429D03*
G04 #@! TD*
D25*
G04 #@! TO.C,PAD5*
X40995716Y-57498929D03*
G04 #@! TD*
D14*
G04 #@! TO.C,C1*
X53595716Y-38536429D03*
X53595716Y-40261429D03*
G04 #@! TD*
D10*
G04 #@! TO.C,C2*
X48928216Y-68398929D03*
X50063216Y-68398929D03*
G04 #@! TD*
G04 #@! TO.C,C2*
X78928216Y-68398929D03*
X80063216Y-68398929D03*
G04 #@! TD*
D17*
G04 #@! TO.C,R3*
X25895716Y-9201429D03*
X25895716Y-10396429D03*
G04 #@! TD*
D19*
G04 #@! TO.C,C3*
X112295716Y-68531429D03*
X112295716Y-69666429D03*
G04 #@! TD*
G04 #@! TO.C,C13*
X16895716Y-77031429D03*
X16895716Y-78166429D03*
G04 #@! TD*
D22*
G04 #@! TO.C,U2*
X22458216Y-81748929D03*
X22458216Y-81248929D03*
X22458216Y-80748929D03*
X22458216Y-80248929D03*
D23*
X21745716Y-79536429D03*
X21245716Y-79536429D03*
X20745716Y-79536429D03*
X20245716Y-79536429D03*
D22*
X19533216Y-80248929D03*
X19533216Y-80748929D03*
X19533216Y-81248929D03*
X19533216Y-81748929D03*
D23*
X20245716Y-82461429D03*
X20745716Y-82461429D03*
X21245716Y-82461429D03*
X21745716Y-82461429D03*
D24*
X20995716Y-80998929D03*
G04 #@! TD*
D33*
G04 #@! TO.C,FB1*
X102098216Y-45998929D03*
X103293216Y-45998929D03*
G04 #@! TD*
D20*
G04 #@! TO.C,PAD4*
X60995716Y-27498929D03*
G04 #@! TD*
D22*
G04 #@! TO.C,U2*
X82458216Y-21748929D03*
X82458216Y-21248929D03*
X82458216Y-20748929D03*
X82458216Y-20248929D03*
D23*
X81745716Y-19536429D03*
X81245716Y-19536429D03*
X80745716Y-19536429D03*
X80245716Y-19536429D03*
D22*
X79533216Y-20248929D03*
X79533216Y-20748929D03*
X79533216Y-21248929D03*
X79533216Y-21748929D03*
D23*
X80245716Y-22461429D03*
X80745716Y-22461429D03*
X81245716Y-22461429D03*
X81745716Y-22461429D03*
D24*
X80995716Y-20998929D03*
G04 #@! TD*
D33*
G04 #@! TO.C,FB1*
X42098216Y-45998929D03*
X43293216Y-45998929D03*
G04 #@! TD*
D22*
G04 #@! TO.C,U2*
X82458216Y-81748929D03*
X82458216Y-81248929D03*
X82458216Y-80748929D03*
X82458216Y-80248929D03*
D23*
X81745716Y-79536429D03*
X81245716Y-79536429D03*
X80745716Y-79536429D03*
X80245716Y-79536429D03*
D22*
X79533216Y-80248929D03*
X79533216Y-80748929D03*
X79533216Y-81248929D03*
X79533216Y-81748929D03*
D23*
X80245716Y-82461429D03*
X80745716Y-82461429D03*
X81245716Y-82461429D03*
X81745716Y-82461429D03*
D24*
X80995716Y-80998929D03*
G04 #@! TD*
D36*
G04 #@! TO.C,J6*
X45928337Y-57341077D03*
X46834645Y-57763695D03*
X47740953Y-58186313D03*
X48647260Y-58608932D03*
X49553568Y-59031550D03*
D37*
X43112491Y-60303616D03*
X49094122Y-63092896D03*
G04 #@! TD*
D10*
G04 #@! TO.C,C33*
X72028216Y-12398929D03*
X73163216Y-12398929D03*
G04 #@! TD*
D33*
G04 #@! TO.C,FB1*
X72098216Y-45998929D03*
X73293216Y-45998929D03*
G04 #@! TD*
D34*
G04 #@! TO.C,JP1*
X118845716Y-40998929D03*
D35*
X117545716Y-40998929D03*
G04 #@! TD*
D25*
G04 #@! TO.C,PAD5*
X100995716Y-57498929D03*
G04 #@! TD*
D20*
G04 #@! TO.C,PAD4*
X90995716Y-27498929D03*
G04 #@! TD*
D14*
G04 #@! TO.C,C1*
X113595716Y-38536429D03*
X113595716Y-40261429D03*
G04 #@! TD*
D21*
G04 #@! TO.C,C4*
X12233216Y-14698929D03*
X13958216Y-14698929D03*
G04 #@! TD*
D10*
G04 #@! TO.C,C10*
X55328216Y-78598929D03*
X56463216Y-78598929D03*
G04 #@! TD*
G04 #@! TO.C,C33*
X42028216Y-12398929D03*
X43163216Y-12398929D03*
G04 #@! TD*
G04 #@! TO.C,C10*
X25328216Y-48598929D03*
X26463216Y-48598929D03*
G04 #@! TD*
D19*
G04 #@! TO.C,C3*
X22295716Y-8531429D03*
X22295716Y-9666429D03*
G04 #@! TD*
D25*
G04 #@! TO.C,PAD5*
X10995716Y-57498929D03*
G04 #@! TD*
M02*
