G04 #@! TF.GenerationSoftware,KiCad,Pcbnew,9.0.1-9.0.1-0~ubuntu24.04.1*
G04 #@! TF.CreationDate,2025-04-05T23:11:07+02:00*
G04 #@! TF.ProjectId,panel,70616e65-6c2e-46b6-9963-61645f706362,rev?*
G04 #@! TF.SameCoordinates,Original*
G04 #@! TF.FileFunction,Paste,Bot*
G04 #@! TF.FilePolarity,Positive*
%FSLAX46Y46*%
G04 Gerber Fmt 4.6, Leading zero omitted, Abs format (unit mm)*
G04 Created by KiCad (PCBNEW 9.0.1-9.0.1-0~ubuntu24.04.1) date 2025-04-05 23:11:07*
%MOMM*%
%LPD*%
G01*
G04 APERTURE LIST*
G04 Aperture macros list*
%AMRoundRect*
0 Rectangle with rounded corners*
0 $1 Rounding radius*
0 $2 $3 $4 $5 $6 $7 $8 $9 X,Y pos of 4 corners*
0 Add a 4 corners polygon primitive as box body*
4,1,4,$2,$3,$4,$5,$6,$7,$8,$9,$2,$3,0*
0 Add four circle primitives for the rounded corners*
1,1,$1+$1,$2,$3*
1,1,$1+$1,$4,$5*
1,1,$1+$1,$6,$7*
1,1,$1+$1,$8,$9*
0 Add four rect primitives between the rounded corners*
20,1,$1+$1,$2,$3,$4,$5,0*
20,1,$1+$1,$4,$5,$6,$7,0*
20,1,$1+$1,$6,$7,$8,$9,0*
20,1,$1+$1,$8,$9,$2,$3,0*%
G04 Aperture macros list end*
%ADD10C,2.000000*%
%ADD11C,1.000000*%
%ADD12RoundRect,0.250000X-0.250000X-1.500000X0.250000X-1.500000X0.250000X1.500000X-0.250000X1.500000X0*%
%ADD13RoundRect,0.250001X-0.499999X-1.449999X0.499999X-1.449999X0.499999X1.449999X-0.499999X1.449999X0*%
%ADD14RoundRect,0.160000X0.197500X0.160000X-0.197500X0.160000X-0.197500X-0.160000X0.197500X-0.160000X0*%
%ADD15RoundRect,0.160000X-0.197500X-0.160000X0.197500X-0.160000X0.197500X0.160000X-0.197500X0.160000X0*%
%ADD16RoundRect,0.155000X-0.212500X-0.155000X0.212500X-0.155000X0.212500X0.155000X-0.212500X0.155000X0*%
%ADD17RoundRect,0.237500X0.237500X-0.300000X0.237500X0.300000X-0.237500X0.300000X-0.237500X-0.300000X0*%
%ADD18RoundRect,0.155000X0.212500X0.155000X-0.212500X0.155000X-0.212500X-0.155000X0.212500X-0.155000X0*%
%ADD19RoundRect,0.250000X0.412500X1.100000X-0.412500X1.100000X-0.412500X-1.100000X0.412500X-1.100000X0*%
%ADD20RoundRect,0.250000X0.300000X-0.300000X0.300000X0.300000X-0.300000X0.300000X-0.300000X-0.300000X0*%
%ADD21RoundRect,0.250000X0.550000X-1.500000X0.550000X1.500000X-0.550000X1.500000X-0.550000X-1.500000X0*%
%ADD22R,0.300000X0.800000*%
%ADD23R,0.400000X0.800000*%
%ADD24RoundRect,0.155000X0.155000X-0.212500X0.155000X0.212500X-0.155000X0.212500X-0.155000X-0.212500X0*%
%ADD25R,0.200000X0.470000*%
%ADD26R,0.470000X0.200000*%
%ADD27R,1.900000X1.900000*%
G04 APERTURE END LIST*
D10*
G04 #@! TO.C,KiKit_TO_3*
X5000000Y-69497858D03*
G04 #@! TD*
G04 #@! TO.C,KiKit_TO_4*
X96995716Y-69497858D03*
G04 #@! TD*
G04 #@! TO.C,KiKit_TO_1*
X5000000Y-2500000D03*
G04 #@! TD*
G04 #@! TO.C,KiKit_TO_2*
X96995716Y-2500000D03*
G04 #@! TD*
D11*
G04 #@! TO.C,KiKit_FID_B_2*
X91995716Y-3850000D03*
G04 #@! TD*
D12*
G04 #@! TO.C,J4*
X76945716Y-49348929D03*
X78945716Y-49348929D03*
X80945716Y-49348929D03*
D13*
X74595716Y-43598929D03*
X83295716Y-43598929D03*
G04 #@! TD*
D14*
G04 #@! TO.C,R5*
X60093216Y-30298929D03*
X58898216Y-30298929D03*
G04 #@! TD*
D15*
G04 #@! TO.C,R1*
X88395716Y-55398929D03*
X89590716Y-55398929D03*
G04 #@! TD*
D16*
G04 #@! TO.C,C20*
X56528216Y-57398929D03*
X57663216Y-57398929D03*
G04 #@! TD*
D11*
G04 #@! TO.C,KiKit_FID_B_1*
X10000000Y-3850000D03*
G04 #@! TD*
D17*
G04 #@! TO.C,C16*
X56295716Y-51423929D03*
X56295716Y-49698929D03*
G04 #@! TD*
D16*
G04 #@! TO.C,C20*
X56528216Y-27398929D03*
X57663216Y-27398929D03*
G04 #@! TD*
D18*
G04 #@! TO.C,C17*
X53163216Y-28498929D03*
X52028216Y-28498929D03*
G04 #@! TD*
D12*
G04 #@! TO.C,J4*
X76945716Y-19348929D03*
X78945716Y-19348929D03*
X80945716Y-19348929D03*
D13*
X74595716Y-13598929D03*
X83295716Y-13598929D03*
G04 #@! TD*
D19*
G04 #@! TO.C,C18*
X24958216Y-60598929D03*
X21833216Y-60598929D03*
G04 #@! TD*
G04 #@! TO.C,C18*
X24958216Y-30598929D03*
X21833216Y-30598929D03*
G04 #@! TD*
D20*
G04 #@! TO.C,D2*
X72495716Y-29498929D03*
X72495716Y-26698929D03*
G04 #@! TD*
D12*
G04 #@! TO.C,J4*
X46945716Y-49348929D03*
X48945716Y-49348929D03*
X50945716Y-49348929D03*
D13*
X44595716Y-43598929D03*
X53295716Y-43598929D03*
G04 #@! TD*
D20*
G04 #@! TO.C,D2*
X42495716Y-59498929D03*
X42495716Y-56698929D03*
G04 #@! TD*
D21*
G04 #@! TO.C,C19*
X77295716Y-31298929D03*
X77295716Y-25898929D03*
G04 #@! TD*
D12*
G04 #@! TO.C,J4*
X16945716Y-49348929D03*
X18945716Y-49348929D03*
X20945716Y-49348929D03*
D13*
X14595716Y-43598929D03*
X23295716Y-43598929D03*
G04 #@! TD*
D20*
G04 #@! TO.C,D2*
X12495716Y-29498929D03*
X12495716Y-26698929D03*
G04 #@! TD*
D21*
G04 #@! TO.C,C19*
X17295716Y-31298929D03*
X17295716Y-25898929D03*
G04 #@! TD*
D19*
G04 #@! TO.C,C18*
X54958216Y-60598929D03*
X51833216Y-60598929D03*
G04 #@! TD*
D17*
G04 #@! TO.C,C16*
X26295716Y-51423929D03*
X26295716Y-49698929D03*
G04 #@! TD*
D16*
G04 #@! TO.C,C20*
X26528216Y-57398929D03*
X27663216Y-57398929D03*
G04 #@! TD*
D18*
G04 #@! TO.C,C9*
X23163216Y-57398929D03*
X22028216Y-57398929D03*
G04 #@! TD*
D22*
G04 #@! TO.C,FPC1*
X25745716Y-44848929D03*
X26245716Y-44848929D03*
X26745716Y-44848929D03*
X27245716Y-44848929D03*
X27745716Y-44848929D03*
X28245716Y-44848929D03*
X28745716Y-44848929D03*
X29245716Y-44848929D03*
D23*
X30245716Y-42348929D03*
X24745716Y-42348929D03*
G04 #@! TD*
D19*
G04 #@! TO.C,C18*
X84958216Y-30598929D03*
X81833216Y-30598929D03*
G04 #@! TD*
D24*
G04 #@! TO.C,C6*
X24395716Y-28466429D03*
X24395716Y-27331429D03*
G04 #@! TD*
D25*
G04 #@! TO.C,IC2*
X56695716Y-56063929D03*
X56295716Y-56063929D03*
X55895716Y-56063929D03*
X55495716Y-56063929D03*
X55095716Y-56063929D03*
X54695716Y-56063929D03*
X54295716Y-56063929D03*
D26*
X54030716Y-55268929D03*
X54030716Y-54868929D03*
X54030716Y-54468929D03*
X54030716Y-54068929D03*
X54030716Y-53668929D03*
D25*
X54295716Y-53133929D03*
X54695716Y-53133929D03*
X55095716Y-53133929D03*
X55495716Y-53133929D03*
X55895716Y-53133929D03*
X56295716Y-53133929D03*
X56695716Y-53133929D03*
D26*
X56960716Y-53668929D03*
X56960716Y-54068929D03*
X56960716Y-54468929D03*
X56960716Y-54868929D03*
X56960716Y-55268929D03*
D27*
X55495716Y-54598929D03*
G04 #@! TD*
D18*
G04 #@! TO.C,C17*
X23163216Y-28498929D03*
X22028216Y-28498929D03*
G04 #@! TD*
D14*
G04 #@! TO.C,R4*
X27793216Y-61298929D03*
X26598216Y-61298929D03*
G04 #@! TD*
D18*
G04 #@! TO.C,C17*
X83163216Y-28498929D03*
X82028216Y-28498929D03*
G04 #@! TD*
D17*
G04 #@! TO.C,C16*
X86295716Y-21423929D03*
X86295716Y-19698929D03*
G04 #@! TD*
G04 #@! TO.C,C16*
X86295716Y-51423929D03*
X86295716Y-49698929D03*
G04 #@! TD*
G04 #@! TO.C,C16*
X26295716Y-21423929D03*
X26295716Y-19698929D03*
G04 #@! TD*
D25*
G04 #@! TO.C,IC2*
X26695716Y-56063929D03*
X26295716Y-56063929D03*
X25895716Y-56063929D03*
X25495716Y-56063929D03*
X25095716Y-56063929D03*
X24695716Y-56063929D03*
X24295716Y-56063929D03*
D26*
X24030716Y-55268929D03*
X24030716Y-54868929D03*
X24030716Y-54468929D03*
X24030716Y-54068929D03*
X24030716Y-53668929D03*
D25*
X24295716Y-53133929D03*
X24695716Y-53133929D03*
X25095716Y-53133929D03*
X25495716Y-53133929D03*
X25895716Y-53133929D03*
X26295716Y-53133929D03*
X26695716Y-53133929D03*
D26*
X26960716Y-53668929D03*
X26960716Y-54068929D03*
X26960716Y-54468929D03*
X26960716Y-54868929D03*
X26960716Y-55268929D03*
D27*
X25495716Y-54598929D03*
G04 #@! TD*
D19*
G04 #@! TO.C,C18*
X84958216Y-60598929D03*
X81833216Y-60598929D03*
G04 #@! TD*
D16*
G04 #@! TO.C,C20*
X86528216Y-27398929D03*
X87663216Y-27398929D03*
G04 #@! TD*
D21*
G04 #@! TO.C,C19*
X77295716Y-61298929D03*
X77295716Y-55898929D03*
G04 #@! TD*
D18*
G04 #@! TO.C,C17*
X23163216Y-58498929D03*
X22028216Y-58498929D03*
G04 #@! TD*
D20*
G04 #@! TO.C,D2*
X72495716Y-59498929D03*
X72495716Y-56698929D03*
G04 #@! TD*
D14*
G04 #@! TO.C,R5*
X30093216Y-60298929D03*
X28898216Y-60298929D03*
G04 #@! TD*
D16*
G04 #@! TO.C,C20*
X86528216Y-57398929D03*
X87663216Y-57398929D03*
G04 #@! TD*
D18*
G04 #@! TO.C,C9*
X53163216Y-27398929D03*
X52028216Y-27398929D03*
G04 #@! TD*
D14*
G04 #@! TO.C,R5*
X60093216Y-60298929D03*
X58898216Y-60298929D03*
G04 #@! TD*
D22*
G04 #@! TO.C,FPC1*
X25745716Y-14848929D03*
X26245716Y-14848929D03*
X26745716Y-14848929D03*
X27245716Y-14848929D03*
X27745716Y-14848929D03*
X28245716Y-14848929D03*
X28745716Y-14848929D03*
X29245716Y-14848929D03*
D23*
X30245716Y-12348929D03*
X24745716Y-12348929D03*
G04 #@! TD*
D25*
G04 #@! TO.C,IC2*
X86695716Y-26063929D03*
X86295716Y-26063929D03*
X85895716Y-26063929D03*
X85495716Y-26063929D03*
X85095716Y-26063929D03*
X84695716Y-26063929D03*
X84295716Y-26063929D03*
D26*
X84030716Y-25268929D03*
X84030716Y-24868929D03*
X84030716Y-24468929D03*
X84030716Y-24068929D03*
X84030716Y-23668929D03*
D25*
X84295716Y-23133929D03*
X84695716Y-23133929D03*
X85095716Y-23133929D03*
X85495716Y-23133929D03*
X85895716Y-23133929D03*
X86295716Y-23133929D03*
X86695716Y-23133929D03*
D26*
X86960716Y-23668929D03*
X86960716Y-24068929D03*
X86960716Y-24468929D03*
X86960716Y-24868929D03*
X86960716Y-25268929D03*
D27*
X85495716Y-24598929D03*
G04 #@! TD*
D25*
G04 #@! TO.C,IC2*
X26695716Y-26063929D03*
X26295716Y-26063929D03*
X25895716Y-26063929D03*
X25495716Y-26063929D03*
X25095716Y-26063929D03*
X24695716Y-26063929D03*
X24295716Y-26063929D03*
D26*
X24030716Y-25268929D03*
X24030716Y-24868929D03*
X24030716Y-24468929D03*
X24030716Y-24068929D03*
X24030716Y-23668929D03*
D25*
X24295716Y-23133929D03*
X24695716Y-23133929D03*
X25095716Y-23133929D03*
X25495716Y-23133929D03*
X25895716Y-23133929D03*
X26295716Y-23133929D03*
X26695716Y-23133929D03*
D26*
X26960716Y-23668929D03*
X26960716Y-24068929D03*
X26960716Y-24468929D03*
X26960716Y-24868929D03*
X26960716Y-25268929D03*
D27*
X25495716Y-24598929D03*
G04 #@! TD*
D16*
G04 #@! TO.C,C20*
X26528216Y-27398929D03*
X27663216Y-27398929D03*
G04 #@! TD*
D24*
G04 #@! TO.C,C6*
X54395716Y-28466429D03*
X54395716Y-27331429D03*
G04 #@! TD*
D19*
G04 #@! TO.C,C18*
X54958216Y-30598929D03*
X51833216Y-30598929D03*
G04 #@! TD*
D20*
G04 #@! TO.C,D2*
X42495716Y-29498929D03*
X42495716Y-26698929D03*
G04 #@! TD*
D15*
G04 #@! TO.C,R1*
X28395716Y-25398929D03*
X29590716Y-25398929D03*
G04 #@! TD*
D22*
G04 #@! TO.C,FPC1*
X85745716Y-14848929D03*
X86245716Y-14848929D03*
X86745716Y-14848929D03*
X87245716Y-14848929D03*
X87745716Y-14848929D03*
X88245716Y-14848929D03*
X88745716Y-14848929D03*
X89245716Y-14848929D03*
D23*
X90245716Y-12348929D03*
X84745716Y-12348929D03*
G04 #@! TD*
D14*
G04 #@! TO.C,R4*
X87793216Y-61298929D03*
X86598216Y-61298929D03*
G04 #@! TD*
G04 #@! TO.C,R4*
X27793216Y-31298929D03*
X26598216Y-31298929D03*
G04 #@! TD*
G04 #@! TO.C,R5*
X30093216Y-30298929D03*
X28898216Y-30298929D03*
G04 #@! TD*
D18*
G04 #@! TO.C,C17*
X53163216Y-58498929D03*
X52028216Y-58498929D03*
G04 #@! TD*
D25*
G04 #@! TO.C,IC2*
X86695716Y-56063929D03*
X86295716Y-56063929D03*
X85895716Y-56063929D03*
X85495716Y-56063929D03*
X85095716Y-56063929D03*
X84695716Y-56063929D03*
X84295716Y-56063929D03*
D26*
X84030716Y-55268929D03*
X84030716Y-54868929D03*
X84030716Y-54468929D03*
X84030716Y-54068929D03*
X84030716Y-53668929D03*
D25*
X84295716Y-53133929D03*
X84695716Y-53133929D03*
X85095716Y-53133929D03*
X85495716Y-53133929D03*
X85895716Y-53133929D03*
X86295716Y-53133929D03*
X86695716Y-53133929D03*
D26*
X86960716Y-53668929D03*
X86960716Y-54068929D03*
X86960716Y-54468929D03*
X86960716Y-54868929D03*
X86960716Y-55268929D03*
D27*
X85495716Y-54598929D03*
G04 #@! TD*
D24*
G04 #@! TO.C,C6*
X24395716Y-58466429D03*
X24395716Y-57331429D03*
G04 #@! TD*
D18*
G04 #@! TO.C,C9*
X83163216Y-57398929D03*
X82028216Y-57398929D03*
G04 #@! TD*
D14*
G04 #@! TO.C,R5*
X90093216Y-30298929D03*
X88898216Y-30298929D03*
G04 #@! TD*
D15*
G04 #@! TO.C,R1*
X58395716Y-55398929D03*
X59590716Y-55398929D03*
G04 #@! TD*
D24*
G04 #@! TO.C,C6*
X84395716Y-58466429D03*
X84395716Y-57331429D03*
G04 #@! TD*
D21*
G04 #@! TO.C,C19*
X17295716Y-61298929D03*
X17295716Y-55898929D03*
G04 #@! TD*
D11*
G04 #@! TO.C,KiKit_FID_B_4*
X91995716Y-68147858D03*
G04 #@! TD*
D22*
G04 #@! TO.C,FPC1*
X85745716Y-44848929D03*
X86245716Y-44848929D03*
X86745716Y-44848929D03*
X87245716Y-44848929D03*
X87745716Y-44848929D03*
X88245716Y-44848929D03*
X88745716Y-44848929D03*
X89245716Y-44848929D03*
D23*
X90245716Y-42348929D03*
X84745716Y-42348929D03*
G04 #@! TD*
D14*
G04 #@! TO.C,R4*
X87793216Y-31298929D03*
X86598216Y-31298929D03*
G04 #@! TD*
D21*
G04 #@! TO.C,C19*
X47295716Y-31298929D03*
X47295716Y-25898929D03*
G04 #@! TD*
D14*
G04 #@! TO.C,R4*
X57793216Y-61298929D03*
X56598216Y-61298929D03*
G04 #@! TD*
D21*
G04 #@! TO.C,C19*
X47295716Y-61298929D03*
X47295716Y-55898929D03*
G04 #@! TD*
D11*
G04 #@! TO.C,KiKit_FID_B_3*
X10000000Y-68147858D03*
G04 #@! TD*
D22*
G04 #@! TO.C,FPC1*
X55745716Y-14848929D03*
X56245716Y-14848929D03*
X56745716Y-14848929D03*
X57245716Y-14848929D03*
X57745716Y-14848929D03*
X58245716Y-14848929D03*
X58745716Y-14848929D03*
X59245716Y-14848929D03*
D23*
X60245716Y-12348929D03*
X54745716Y-12348929D03*
G04 #@! TD*
D24*
G04 #@! TO.C,C6*
X54395716Y-58466429D03*
X54395716Y-57331429D03*
G04 #@! TD*
D15*
G04 #@! TO.C,R1*
X58395716Y-25398929D03*
X59590716Y-25398929D03*
G04 #@! TD*
D14*
G04 #@! TO.C,R5*
X90093216Y-60298929D03*
X88898216Y-60298929D03*
G04 #@! TD*
D18*
G04 #@! TO.C,C9*
X53163216Y-57398929D03*
X52028216Y-57398929D03*
G04 #@! TD*
D22*
G04 #@! TO.C,FPC1*
X55745716Y-44848929D03*
X56245716Y-44848929D03*
X56745716Y-44848929D03*
X57245716Y-44848929D03*
X57745716Y-44848929D03*
X58245716Y-44848929D03*
X58745716Y-44848929D03*
X59245716Y-44848929D03*
D23*
X60245716Y-42348929D03*
X54745716Y-42348929D03*
G04 #@! TD*
D14*
G04 #@! TO.C,R4*
X57793216Y-31298929D03*
X56598216Y-31298929D03*
G04 #@! TD*
D25*
G04 #@! TO.C,IC2*
X56695716Y-26063929D03*
X56295716Y-26063929D03*
X55895716Y-26063929D03*
X55495716Y-26063929D03*
X55095716Y-26063929D03*
X54695716Y-26063929D03*
X54295716Y-26063929D03*
D26*
X54030716Y-25268929D03*
X54030716Y-24868929D03*
X54030716Y-24468929D03*
X54030716Y-24068929D03*
X54030716Y-23668929D03*
D25*
X54295716Y-23133929D03*
X54695716Y-23133929D03*
X55095716Y-23133929D03*
X55495716Y-23133929D03*
X55895716Y-23133929D03*
X56295716Y-23133929D03*
X56695716Y-23133929D03*
D26*
X56960716Y-23668929D03*
X56960716Y-24068929D03*
X56960716Y-24468929D03*
X56960716Y-24868929D03*
X56960716Y-25268929D03*
D27*
X55495716Y-24598929D03*
G04 #@! TD*
D12*
G04 #@! TO.C,J4*
X16945716Y-19348929D03*
X18945716Y-19348929D03*
X20945716Y-19348929D03*
D13*
X14595716Y-13598929D03*
X23295716Y-13598929D03*
G04 #@! TD*
D15*
G04 #@! TO.C,R1*
X28395716Y-55398929D03*
X29590716Y-55398929D03*
G04 #@! TD*
D18*
G04 #@! TO.C,C9*
X83163216Y-27398929D03*
X82028216Y-27398929D03*
G04 #@! TD*
G04 #@! TO.C,C9*
X23163216Y-27398929D03*
X22028216Y-27398929D03*
G04 #@! TD*
D15*
G04 #@! TO.C,R1*
X88395716Y-25398929D03*
X89590716Y-25398929D03*
G04 #@! TD*
D18*
G04 #@! TO.C,C17*
X83163216Y-58498929D03*
X82028216Y-58498929D03*
G04 #@! TD*
D20*
G04 #@! TO.C,D2*
X12495716Y-59498929D03*
X12495716Y-56698929D03*
G04 #@! TD*
D24*
G04 #@! TO.C,C6*
X84395716Y-28466429D03*
X84395716Y-27331429D03*
G04 #@! TD*
D12*
G04 #@! TO.C,J4*
X46945716Y-19348929D03*
X48945716Y-19348929D03*
X50945716Y-19348929D03*
D13*
X44595716Y-13598929D03*
X53295716Y-13598929D03*
G04 #@! TD*
D17*
G04 #@! TO.C,C16*
X56295716Y-21423929D03*
X56295716Y-19698929D03*
G04 #@! TD*
M02*
