M48
; DRILL file {KiCad 9.0.1-9.0.1-0~ubuntu24.04.1} date 2025-04-05T17:55:53+0200
; FORMAT={-:-/ absolute / metric / decimal}
; #@! TF.CreationDate,2025-04-05T17:55:53+02:00
; #@! TF.GenerationSoftware,Kicad,Pcbnew,9.0.1-9.0.1-0~ubuntu24.04.1
; #@! TF.FileFunction,Plated,1,6,PTH
FMAT,2
METRIC
; #@! TA.AperFunction,Plated,PTH,ViaDrill
T1C0.300
; #@! TA.AperFunction,Plated,PTH,ComponentDrill
T2C2.100
; #@! TA.AperFunction,Plated,PTH,ComponentDrill
T3C2.200
%
G90
G05
T1
X8.169Y-21.888
X8.169Y-51.888
X8.169Y-81.888
X9.134Y-26.257
X9.134Y-56.257
X9.134Y-86.257
X9.642Y-16.706
X9.642Y-46.706
X9.642Y-76.706
X9.796Y-24.899
X9.796Y-54.899
X9.796Y-84.899
X10.404Y-14.776
X10.404Y-44.776
X10.404Y-74.776
X11.013Y-12.439
X11.013Y-42.439
X11.013Y-72.439
X11.471Y-17.925
X11.471Y-47.925
X11.471Y-77.925
X11.826Y-29.914
X11.826Y-59.914
X11.826Y-89.914
X12.283Y-28.492
X12.283Y-58.492
X12.283Y-88.492
X12.296Y-24.899
X12.296Y-54.899
X12.296Y-84.899
X12.596Y-11.299
X12.596Y-41.299
X12.596Y-71.299
X12.893Y-25.596
X12.893Y-55.596
X12.893Y-85.596
X13.163Y-13.399
X13.163Y-43.399
X13.163Y-73.399
X13.496Y-10.299
X13.496Y-40.299
X13.496Y-70.299
X13.503Y-17.773
X13.503Y-47.773
X13.503Y-77.773
X13.858Y-32.099
X13.858Y-62.099
X13.858Y-92.099
X14.196Y-18.599
X14.196Y-48.599
X14.196Y-78.599
X14.471Y-11.099
X14.471Y-41.099
X14.471Y-71.099
X14.569Y-9.594
X14.569Y-39.594
X14.569Y-69.594
X14.671Y-29.203
X14.671Y-31.286
X14.671Y-59.203
X14.671Y-61.286
X14.671Y-89.203
X14.671Y-91.286
X14.996Y-20.899
X14.996Y-50.899
X14.996Y-80.899
X15.027Y-25.85
X15.027Y-55.85
X15.027Y-85.85
X15.077Y-10.356
X15.077Y-40.356
X15.077Y-70.356
X15.128Y-24.021
X15.128Y-54.021
X15.128Y-84.021
X15.621Y-16.65
X15.621Y-46.65
X15.621Y-76.65
X15.636Y-9.34
X15.636Y-39.34
X15.636Y-69.34
X15.858Y-11.199
X15.858Y-41.199
X15.858Y-71.199
X16.652Y-30.473
X16.652Y-60.473
X16.652Y-90.473
X16.855Y-9.766
X16.855Y-39.766
X16.855Y-69.766
X17.008Y-11.699
X17.008Y-14.199
X17.008Y-41.699
X17.008Y-44.199
X17.008Y-71.699
X17.008Y-74.199
X17.059Y-33.623
X17.059Y-63.623
X17.059Y-93.623
X17.363Y-32.556
X17.363Y-62.556
X17.363Y-92.556
X17.414Y-26.612
X17.414Y-56.612
X17.414Y-86.612
X17.447Y-9.412
X17.447Y-39.412
X17.447Y-69.412
X17.516Y-24.783
X17.516Y-54.783
X17.516Y-84.783
X17.741Y-28.399
X17.741Y-58.399
X17.741Y-88.399
X17.821Y-8.223
X17.821Y-38.223
X17.821Y-68.223
X17.996Y-18.199
X17.996Y-48.199
X17.996Y-78.199
X18.07Y-9.599
X18.07Y-39.599
X18.07Y-69.599
X18.684Y-26.257
X18.684Y-56.257
X18.684Y-86.257
X18.912Y-8.415
X18.912Y-38.415
X18.912Y-68.415
X19.358Y-9.261
X19.358Y-39.261
X19.358Y-69.261
X19.497Y-11.677
X19.497Y-14.217
X19.497Y-41.677
X19.497Y-44.217
X19.497Y-71.677
X19.497Y-74.217
X19.554Y-22.415
X19.554Y-52.415
X19.554Y-82.415
X19.751Y-27.425
X19.751Y-57.425
X19.751Y-87.425
X19.871Y-19.499
X19.871Y-49.499
X19.871Y-79.499
X20.259Y-33.877
X20.259Y-63.877
X20.259Y-93.877
X20.496Y-9.599
X20.496Y-39.599
X20.496Y-69.599
X20.696Y-10.561
X20.696Y-40.561
X20.696Y-70.561
X20.818Y-26.46
X20.818Y-56.46
X20.818Y-86.46
X20.915Y-17.048
X20.915Y-47.048
X20.915Y-77.048
X20.996Y-8.099
X20.996Y-38.099
X20.996Y-68.099
X21.275Y-33.165
X21.275Y-63.165
X21.275Y-93.165
X21.396Y-34.199
X21.396Y-64.199
X21.396Y-94.199
X21.496Y-21.499
X21.496Y-51.499
X21.496Y-81.499
X21.783Y-7.765
X21.783Y-37.765
X21.783Y-67.765
X21.832Y-16.822
X21.832Y-46.822
X21.832Y-76.822
X21.971Y-14.999
X21.971Y-15.649
X21.971Y-44.999
X21.971Y-45.649
X21.971Y-74.999
X21.971Y-75.649
X22.096Y-13.499
X22.096Y-43.499
X22.096Y-73.499
X23.053Y-30.473
X23.053Y-60.473
X23.053Y-90.473
X23.155Y-19.246
X23.155Y-49.246
X23.155Y-79.246
X23.307Y-21.481
X23.307Y-51.481
X23.307Y-81.481
X23.51Y-19.907
X23.51Y-49.907
X23.51Y-79.907
X23.561Y-9.848
X23.561Y-39.848
X23.561Y-69.848
X24.018Y-20.567
X24.018Y-50.567
X24.018Y-80.567
X24.12Y-18.992
X24.12Y-48.992
X24.12Y-78.992
X24.323Y-33.318
X24.323Y-63.318
X24.323Y-93.318
X24.496Y-14.564
X24.496Y-44.564
X24.496Y-74.564
X24.498Y-11.497
X24.498Y-41.497
X24.498Y-71.497
X24.589Y-17.948
X24.589Y-47.948
X24.589Y-77.948
X24.78Y-19.703
X24.78Y-49.703
X24.78Y-79.703
X24.796Y-23.899
X24.796Y-24.599
X24.796Y-25.299
X24.796Y-53.899
X24.796Y-54.599
X24.796Y-55.299
X24.796Y-83.899
X24.796Y-84.599
X24.796Y-85.299
X24.933Y-8.426
X24.933Y-38.426
X24.933Y-68.426
X25.496Y-23.899
X25.496Y-24.599
X25.496Y-25.299
X25.496Y-53.899
X25.496Y-54.599
X25.496Y-55.299
X25.496Y-83.899
X25.496Y-84.599
X25.496Y-85.299
X25.593Y-33.318
X25.593Y-63.318
X25.593Y-93.318
X25.771Y-13.899
X25.771Y-43.899
X25.771Y-73.899
X26.152Y-19.907
X26.152Y-33.064
X26.152Y-49.907
X26.152Y-63.064
X26.152Y-79.907
X26.152Y-93.064
X26.196Y-23.899
X26.196Y-24.599
X26.196Y-25.299
X26.196Y-53.899
X26.196Y-54.599
X26.196Y-55.299
X26.196Y-83.899
X26.196Y-84.599
X26.196Y-85.299
X26.204Y-12.371
X26.204Y-42.371
X26.204Y-72.371
X26.296Y-21.424
X26.296Y-29.899
X26.296Y-51.424
X26.296Y-59.899
X26.296Y-81.424
X26.296Y-89.899
X26.371Y-12.999
X26.371Y-42.999
X26.371Y-72.999
X26.406Y-32.556
X26.406Y-62.556
X26.406Y-92.556
X26.463Y-18.599
X26.463Y-48.599
X26.463Y-78.599
X26.796Y-26.899
X26.796Y-56.899
X26.796Y-86.899
X26.965Y-30.422
X26.965Y-60.422
X26.965Y-90.422
X27.066Y-32.657
X27.066Y-62.657
X27.066Y-92.657
X27.245Y-13.954
X27.245Y-43.954
X27.245Y-73.954
X27.422Y-9.543
X27.422Y-29.624
X27.422Y-39.543
X27.422Y-59.624
X27.422Y-69.543
X27.422Y-89.624
X27.796Y-30.599
X27.796Y-60.599
X27.796Y-90.599
X27.989Y-20.068
X27.989Y-50.068
X27.989Y-80.068
X27.996Y-21.499
X27.996Y-28.299
X27.996Y-51.499
X27.996Y-58.299
X27.996Y-81.499
X27.996Y-88.299
X28.496Y-22.599
X28.496Y-27.699
X28.496Y-52.599
X28.496Y-57.699
X28.496Y-82.599
X28.496Y-87.699
X28.724Y-28.92
X28.724Y-58.92
X28.724Y-88.92
X28.793Y-26.968
X28.793Y-56.968
X28.793Y-86.968
X28.796Y-17.899
X28.796Y-47.899
X28.796Y-77.899
X29.396Y-13.299
X29.396Y-23.399
X29.396Y-43.299
X29.396Y-53.399
X29.396Y-73.299
X29.396Y-83.399
X29.62Y-26.944
X29.62Y-56.944
X29.62Y-86.944
X30.074Y-16.52
X30.074Y-46.52
X30.074Y-76.52
X30.093Y-30.299
X30.093Y-60.299
X30.093Y-90.299
X30.627Y-24.469
X30.627Y-54.469
X30.627Y-84.469
X31.232Y-29.355
X31.232Y-59.355
X31.232Y-89.355
X31.537Y-18.383
X31.537Y-48.383
X31.537Y-78.383
X31.996Y-26.099
X31.996Y-56.099
X31.996Y-86.099
X32.096Y-24.599
X32.096Y-54.599
X32.096Y-84.599
X32.553Y-15.131
X32.553Y-45.131
X32.553Y-75.131
X32.705Y-26.815
X32.705Y-56.815
X32.705Y-86.815
X33.416Y-25.037
X33.416Y-55.037
X33.416Y-85.037
X38.169Y-21.888
X38.169Y-51.888
X38.169Y-81.888
X39.134Y-26.257
X39.134Y-56.257
X39.134Y-86.257
X39.642Y-16.706
X39.642Y-46.706
X39.642Y-76.706
X39.796Y-24.899
X39.796Y-54.899
X39.796Y-84.899
X40.404Y-14.776
X40.404Y-44.776
X40.404Y-74.776
X41.013Y-12.439
X41.013Y-42.439
X41.013Y-72.439
X41.471Y-17.925
X41.471Y-47.925
X41.471Y-77.925
X41.826Y-29.914
X41.826Y-59.914
X41.826Y-89.914
X42.283Y-28.492
X42.283Y-58.492
X42.283Y-88.492
X42.296Y-24.899
X42.296Y-54.899
X42.296Y-84.899
X42.596Y-11.299
X42.596Y-41.299
X42.596Y-71.299
X42.893Y-25.596
X42.893Y-55.596
X42.893Y-85.596
X43.163Y-13.399
X43.163Y-43.399
X43.163Y-73.399
X43.496Y-10.299
X43.496Y-40.299
X43.496Y-70.299
X43.503Y-17.773
X43.503Y-47.773
X43.503Y-77.773
X43.858Y-32.099
X43.858Y-62.099
X43.858Y-92.099
X44.196Y-18.599
X44.196Y-48.599
X44.196Y-78.599
X44.471Y-11.099
X44.471Y-41.099
X44.471Y-71.099
X44.569Y-9.594
X44.569Y-39.594
X44.569Y-69.594
X44.671Y-29.203
X44.671Y-31.286
X44.671Y-59.203
X44.671Y-61.286
X44.671Y-89.203
X44.671Y-91.286
X44.996Y-20.899
X44.996Y-50.899
X44.996Y-80.899
X45.027Y-25.85
X45.027Y-55.85
X45.027Y-85.85
X45.077Y-10.356
X45.077Y-40.356
X45.077Y-70.356
X45.128Y-24.021
X45.128Y-54.021
X45.128Y-84.021
X45.621Y-16.65
X45.621Y-46.65
X45.621Y-76.65
X45.636Y-9.34
X45.636Y-39.34
X45.636Y-69.34
X45.858Y-11.199
X45.858Y-41.199
X45.858Y-71.199
X46.652Y-30.473
X46.652Y-60.473
X46.652Y-90.473
X46.855Y-9.766
X46.855Y-39.766
X46.855Y-69.766
X47.008Y-11.699
X47.008Y-14.199
X47.008Y-41.699
X47.008Y-44.199
X47.008Y-71.699
X47.008Y-74.199
X47.059Y-33.623
X47.059Y-63.623
X47.059Y-93.623
X47.363Y-32.556
X47.363Y-62.556
X47.363Y-92.556
X47.414Y-26.612
X47.414Y-56.612
X47.414Y-86.612
X47.447Y-9.412
X47.447Y-39.412
X47.447Y-69.412
X47.516Y-24.783
X47.516Y-54.783
X47.516Y-84.783
X47.741Y-28.399
X47.741Y-58.399
X47.741Y-88.399
X47.821Y-8.223
X47.821Y-38.223
X47.821Y-68.223
X47.996Y-18.199
X47.996Y-48.199
X47.996Y-78.199
X48.07Y-9.599
X48.07Y-39.599
X48.07Y-69.599
X48.684Y-26.257
X48.684Y-56.257
X48.684Y-86.257
X48.912Y-8.415
X48.912Y-38.415
X48.912Y-68.415
X49.358Y-9.261
X49.358Y-39.261
X49.358Y-69.261
X49.497Y-11.677
X49.497Y-14.217
X49.497Y-41.677
X49.497Y-44.217
X49.497Y-71.677
X49.497Y-74.217
X49.554Y-22.415
X49.554Y-52.415
X49.554Y-82.415
X49.751Y-27.425
X49.751Y-57.425
X49.751Y-87.425
X49.871Y-19.499
X49.871Y-49.499
X49.871Y-79.499
X50.259Y-33.877
X50.259Y-63.877
X50.259Y-93.877
X50.496Y-9.599
X50.496Y-39.599
X50.496Y-69.599
X50.696Y-10.561
X50.696Y-40.561
X50.696Y-70.561
X50.818Y-26.46
X50.818Y-56.46
X50.818Y-86.46
X50.915Y-17.048
X50.915Y-47.048
X50.915Y-77.048
X50.996Y-8.099
X50.996Y-38.099
X50.996Y-68.099
X51.275Y-33.165
X51.275Y-63.165
X51.275Y-93.165
X51.396Y-34.199
X51.396Y-64.199
X51.396Y-94.199
X51.496Y-21.499
X51.496Y-51.499
X51.496Y-81.499
X51.783Y-7.765
X51.783Y-37.765
X51.783Y-67.765
X51.832Y-16.822
X51.832Y-46.822
X51.832Y-76.822
X51.971Y-14.999
X51.971Y-15.649
X51.971Y-44.999
X51.971Y-45.649
X51.971Y-74.999
X51.971Y-75.649
X52.096Y-13.499
X52.096Y-43.499
X52.096Y-73.499
X53.053Y-30.473
X53.053Y-60.473
X53.053Y-90.473
X53.155Y-19.246
X53.155Y-49.246
X53.155Y-79.246
X53.307Y-21.481
X53.307Y-51.481
X53.307Y-81.481
X53.51Y-19.907
X53.51Y-49.907
X53.51Y-79.907
X53.561Y-9.848
X53.561Y-39.848
X53.561Y-69.848
X54.018Y-20.567
X54.018Y-50.567
X54.018Y-80.567
X54.12Y-18.992
X54.12Y-48.992
X54.12Y-78.992
X54.323Y-33.318
X54.323Y-63.318
X54.323Y-93.318
X54.496Y-14.564
X54.496Y-44.564
X54.496Y-74.564
X54.498Y-11.497
X54.498Y-41.497
X54.498Y-71.497
X54.589Y-17.948
X54.589Y-47.948
X54.589Y-77.948
X54.78Y-19.703
X54.78Y-49.703
X54.78Y-79.703
X54.796Y-23.899
X54.796Y-24.599
X54.796Y-25.299
X54.796Y-53.899
X54.796Y-54.599
X54.796Y-55.299
X54.796Y-83.899
X54.796Y-84.599
X54.796Y-85.299
X54.933Y-8.426
X54.933Y-38.426
X54.933Y-68.426
X55.496Y-23.899
X55.496Y-24.599
X55.496Y-25.299
X55.496Y-53.899
X55.496Y-54.599
X55.496Y-55.299
X55.496Y-83.899
X55.496Y-84.599
X55.496Y-85.299
X55.593Y-33.318
X55.593Y-63.318
X55.593Y-93.318
X55.771Y-13.899
X55.771Y-43.899
X55.771Y-73.899
X56.152Y-19.907
X56.152Y-33.064
X56.152Y-49.907
X56.152Y-63.064
X56.152Y-79.907
X56.152Y-93.064
X56.196Y-23.899
X56.196Y-24.599
X56.196Y-25.299
X56.196Y-53.899
X56.196Y-54.599
X56.196Y-55.299
X56.196Y-83.899
X56.196Y-84.599
X56.196Y-85.299
X56.204Y-12.371
X56.204Y-42.371
X56.204Y-72.371
X56.296Y-21.424
X56.296Y-29.899
X56.296Y-51.424
X56.296Y-59.899
X56.296Y-81.424
X56.296Y-89.899
X56.371Y-12.999
X56.371Y-42.999
X56.371Y-72.999
X56.406Y-32.556
X56.406Y-62.556
X56.406Y-92.556
X56.463Y-18.599
X56.463Y-48.599
X56.463Y-78.599
X56.796Y-26.899
X56.796Y-56.899
X56.796Y-86.899
X56.965Y-30.422
X56.965Y-60.422
X56.965Y-90.422
X57.066Y-32.657
X57.066Y-62.657
X57.066Y-92.657
X57.245Y-13.954
X57.245Y-43.954
X57.245Y-73.954
X57.422Y-9.543
X57.422Y-29.624
X57.422Y-39.543
X57.422Y-59.624
X57.422Y-69.543
X57.422Y-89.624
X57.796Y-30.599
X57.796Y-60.599
X57.796Y-90.599
X57.989Y-20.068
X57.989Y-50.068
X57.989Y-80.068
X57.996Y-21.499
X57.996Y-28.299
X57.996Y-51.499
X57.996Y-58.299
X57.996Y-81.499
X57.996Y-88.299
X58.496Y-22.599
X58.496Y-27.699
X58.496Y-52.599
X58.496Y-57.699
X58.496Y-82.599
X58.496Y-87.699
X58.724Y-28.92
X58.724Y-58.92
X58.724Y-88.92
X58.793Y-26.968
X58.793Y-56.968
X58.793Y-86.968
X58.796Y-17.899
X58.796Y-47.899
X58.796Y-77.899
X59.396Y-13.299
X59.396Y-23.399
X59.396Y-43.299
X59.396Y-53.399
X59.396Y-73.299
X59.396Y-83.399
X59.62Y-26.944
X59.62Y-56.944
X59.62Y-86.944
X60.074Y-16.52
X60.074Y-46.52
X60.074Y-76.52
X60.093Y-30.299
X60.093Y-60.299
X60.093Y-90.299
X60.627Y-24.469
X60.627Y-54.469
X60.627Y-84.469
X61.232Y-29.355
X61.232Y-59.355
X61.232Y-89.355
X61.537Y-18.383
X61.537Y-48.383
X61.537Y-78.383
X61.996Y-26.099
X61.996Y-56.099
X61.996Y-86.099
X62.096Y-24.599
X62.096Y-54.599
X62.096Y-84.599
X62.553Y-15.131
X62.553Y-45.131
X62.553Y-75.131
X62.705Y-26.815
X62.705Y-56.815
X62.705Y-86.815
X63.416Y-25.037
X63.416Y-55.037
X63.416Y-85.037
X68.169Y-21.888
X68.169Y-51.888
X68.169Y-81.888
X69.134Y-26.257
X69.134Y-56.257
X69.134Y-86.257
X69.642Y-16.706
X69.642Y-46.706
X69.642Y-76.706
X69.796Y-24.899
X69.796Y-54.899
X69.796Y-84.899
X70.404Y-14.776
X70.404Y-44.776
X70.404Y-74.776
X71.013Y-12.439
X71.013Y-42.439
X71.013Y-72.439
X71.471Y-17.925
X71.471Y-47.925
X71.471Y-77.925
X71.826Y-29.914
X71.826Y-59.914
X71.826Y-89.914
X72.283Y-28.492
X72.283Y-58.492
X72.283Y-88.492
X72.296Y-24.899
X72.296Y-54.899
X72.296Y-84.899
X72.596Y-11.299
X72.596Y-41.299
X72.596Y-71.299
X72.893Y-25.596
X72.893Y-55.596
X72.893Y-85.596
X73.163Y-13.399
X73.163Y-43.399
X73.163Y-73.399
X73.496Y-10.299
X73.496Y-40.299
X73.496Y-70.299
X73.503Y-17.773
X73.503Y-47.773
X73.503Y-77.773
X73.858Y-32.099
X73.858Y-62.099
X73.858Y-92.099
X74.196Y-18.599
X74.196Y-48.599
X74.196Y-78.599
X74.471Y-11.099
X74.471Y-41.099
X74.471Y-71.099
X74.569Y-9.594
X74.569Y-39.594
X74.569Y-69.594
X74.671Y-29.203
X74.671Y-31.286
X74.671Y-59.203
X74.671Y-61.286
X74.671Y-89.203
X74.671Y-91.286
X74.996Y-20.899
X74.996Y-50.899
X74.996Y-80.899
X75.027Y-25.85
X75.027Y-55.85
X75.027Y-85.85
X75.077Y-10.356
X75.077Y-40.356
X75.077Y-70.356
X75.128Y-24.021
X75.128Y-54.021
X75.128Y-84.021
X75.621Y-16.65
X75.621Y-46.65
X75.621Y-76.65
X75.636Y-9.34
X75.636Y-39.34
X75.636Y-69.34
X75.858Y-11.199
X75.858Y-41.199
X75.858Y-71.199
X76.652Y-30.473
X76.652Y-60.473
X76.652Y-90.473
X76.855Y-9.766
X76.855Y-39.766
X76.855Y-69.766
X77.008Y-11.699
X77.008Y-14.199
X77.008Y-41.699
X77.008Y-44.199
X77.008Y-71.699
X77.008Y-74.199
X77.059Y-33.623
X77.059Y-63.623
X77.059Y-93.623
X77.363Y-32.556
X77.363Y-62.556
X77.363Y-92.556
X77.414Y-26.612
X77.414Y-56.612
X77.414Y-86.612
X77.447Y-9.412
X77.447Y-39.412
X77.447Y-69.412
X77.516Y-24.783
X77.516Y-54.783
X77.516Y-84.783
X77.741Y-28.399
X77.741Y-58.399
X77.741Y-88.399
X77.821Y-8.223
X77.821Y-38.223
X77.821Y-68.223
X77.996Y-18.199
X77.996Y-48.199
X77.996Y-78.199
X78.07Y-9.599
X78.07Y-39.599
X78.07Y-69.599
X78.684Y-26.257
X78.684Y-56.257
X78.684Y-86.257
X78.912Y-8.415
X78.912Y-38.415
X78.912Y-68.415
X79.358Y-9.261
X79.358Y-39.261
X79.358Y-69.261
X79.497Y-11.677
X79.497Y-14.217
X79.497Y-41.677
X79.497Y-44.217
X79.497Y-71.677
X79.497Y-74.217
X79.554Y-22.415
X79.554Y-52.415
X79.554Y-82.415
X79.751Y-27.425
X79.751Y-57.425
X79.751Y-87.425
X79.871Y-19.499
X79.871Y-49.499
X79.871Y-79.499
X80.259Y-33.877
X80.259Y-63.877
X80.259Y-93.877
X80.496Y-9.599
X80.496Y-39.599
X80.496Y-69.599
X80.696Y-10.561
X80.696Y-40.561
X80.696Y-70.561
X80.818Y-26.46
X80.818Y-56.46
X80.818Y-86.46
X80.915Y-17.048
X80.915Y-47.048
X80.915Y-77.048
X80.996Y-8.099
X80.996Y-38.099
X80.996Y-68.099
X81.275Y-33.165
X81.275Y-63.165
X81.275Y-93.165
X81.396Y-34.199
X81.396Y-64.199
X81.396Y-94.199
X81.496Y-21.499
X81.496Y-51.499
X81.496Y-81.499
X81.783Y-7.765
X81.783Y-37.765
X81.783Y-67.765
X81.832Y-16.822
X81.832Y-46.822
X81.832Y-76.822
X81.971Y-14.999
X81.971Y-15.649
X81.971Y-44.999
X81.971Y-45.649
X81.971Y-74.999
X81.971Y-75.649
X82.096Y-13.499
X82.096Y-43.499
X82.096Y-73.499
X83.053Y-30.473
X83.053Y-60.473
X83.053Y-90.473
X83.155Y-19.246
X83.155Y-49.246
X83.155Y-79.246
X83.307Y-21.481
X83.307Y-51.481
X83.307Y-81.481
X83.51Y-19.907
X83.51Y-49.907
X83.51Y-79.907
X83.561Y-9.848
X83.561Y-39.848
X83.561Y-69.848
X84.018Y-20.567
X84.018Y-50.567
X84.018Y-80.567
X84.12Y-18.992
X84.12Y-48.992
X84.12Y-78.992
X84.323Y-33.318
X84.323Y-63.318
X84.323Y-93.318
X84.496Y-14.564
X84.496Y-44.564
X84.496Y-74.564
X84.498Y-11.497
X84.498Y-41.497
X84.498Y-71.497
X84.589Y-17.948
X84.589Y-47.948
X84.589Y-77.948
X84.78Y-19.703
X84.78Y-49.703
X84.78Y-79.703
X84.796Y-23.899
X84.796Y-24.599
X84.796Y-25.299
X84.796Y-53.899
X84.796Y-54.599
X84.796Y-55.299
X84.796Y-83.899
X84.796Y-84.599
X84.796Y-85.299
X84.933Y-8.426
X84.933Y-38.426
X84.933Y-68.426
X85.496Y-23.899
X85.496Y-24.599
X85.496Y-25.299
X85.496Y-53.899
X85.496Y-54.599
X85.496Y-55.299
X85.496Y-83.899
X85.496Y-84.599
X85.496Y-85.299
X85.593Y-33.318
X85.593Y-63.318
X85.593Y-93.318
X85.771Y-13.899
X85.771Y-43.899
X85.771Y-73.899
X86.152Y-19.907
X86.152Y-33.064
X86.152Y-49.907
X86.152Y-63.064
X86.152Y-79.907
X86.152Y-93.064
X86.196Y-23.899
X86.196Y-24.599
X86.196Y-25.299
X86.196Y-53.899
X86.196Y-54.599
X86.196Y-55.299
X86.196Y-83.899
X86.196Y-84.599
X86.196Y-85.299
X86.204Y-12.371
X86.204Y-42.371
X86.204Y-72.371
X86.296Y-21.424
X86.296Y-29.899
X86.296Y-51.424
X86.296Y-59.899
X86.296Y-81.424
X86.296Y-89.899
X86.371Y-12.999
X86.371Y-42.999
X86.371Y-72.999
X86.406Y-32.556
X86.406Y-62.556
X86.406Y-92.556
X86.463Y-18.599
X86.463Y-48.599
X86.463Y-78.599
X86.796Y-26.899
X86.796Y-56.899
X86.796Y-86.899
X86.965Y-30.422
X86.965Y-60.422
X86.965Y-90.422
X87.066Y-32.657
X87.066Y-62.657
X87.066Y-92.657
X87.245Y-13.954
X87.245Y-43.954
X87.245Y-73.954
X87.422Y-9.543
X87.422Y-29.624
X87.422Y-39.543
X87.422Y-59.624
X87.422Y-69.543
X87.422Y-89.624
X87.796Y-30.599
X87.796Y-60.599
X87.796Y-90.599
X87.989Y-20.068
X87.989Y-50.068
X87.989Y-80.068
X87.996Y-21.499
X87.996Y-28.299
X87.996Y-51.499
X87.996Y-58.299
X87.996Y-81.499
X87.996Y-88.299
X88.496Y-22.599
X88.496Y-27.699
X88.496Y-52.599
X88.496Y-57.699
X88.496Y-82.599
X88.496Y-87.699
X88.724Y-28.92
X88.724Y-58.92
X88.724Y-88.92
X88.793Y-26.968
X88.793Y-56.968
X88.793Y-86.968
X88.796Y-17.899
X88.796Y-47.899
X88.796Y-77.899
X89.396Y-13.299
X89.396Y-23.399
X89.396Y-43.299
X89.396Y-53.399
X89.396Y-73.299
X89.396Y-83.399
X89.62Y-26.944
X89.62Y-56.944
X89.62Y-86.944
X90.074Y-16.52
X90.074Y-46.52
X90.074Y-76.52
X90.093Y-30.299
X90.093Y-60.299
X90.093Y-90.299
X90.627Y-24.469
X90.627Y-54.469
X90.627Y-84.469
X91.232Y-29.355
X91.232Y-59.355
X91.232Y-89.355
X91.537Y-18.383
X91.537Y-48.383
X91.537Y-78.383
X91.996Y-26.099
X91.996Y-56.099
X91.996Y-86.099
X92.096Y-24.599
X92.096Y-54.599
X92.096Y-84.599
X92.553Y-15.131
X92.553Y-45.131
X92.553Y-75.131
X92.705Y-26.815
X92.705Y-56.815
X92.705Y-86.815
X93.416Y-25.037
X93.416Y-55.037
X93.416Y-85.037
X98.169Y-21.888
X98.169Y-51.888
X98.169Y-81.888
X99.134Y-26.257
X99.134Y-56.257
X99.134Y-86.257
X99.642Y-16.706
X99.642Y-46.706
X99.642Y-76.706
X99.796Y-24.899
X99.796Y-54.899
X99.796Y-84.899
X100.404Y-14.776
X100.404Y-44.776
X100.404Y-74.776
X101.013Y-12.439
X101.013Y-42.439
X101.013Y-72.439
X101.471Y-17.925
X101.471Y-47.925
X101.471Y-77.925
X101.826Y-29.914
X101.826Y-59.914
X101.826Y-89.914
X102.283Y-28.492
X102.283Y-58.492
X102.283Y-88.492
X102.296Y-24.899
X102.296Y-54.899
X102.296Y-84.899
X102.596Y-11.299
X102.596Y-41.299
X102.596Y-71.299
X102.893Y-25.596
X102.893Y-55.596
X102.893Y-85.596
X103.163Y-13.399
X103.163Y-43.399
X103.163Y-73.399
X103.496Y-10.299
X103.496Y-40.299
X103.496Y-70.299
X103.503Y-17.773
X103.503Y-47.773
X103.503Y-77.773
X103.858Y-32.099
X103.858Y-62.099
X103.858Y-92.099
X104.196Y-18.599
X104.196Y-48.599
X104.196Y-78.599
X104.471Y-11.099
X104.471Y-41.099
X104.471Y-71.099
X104.569Y-9.594
X104.569Y-39.594
X104.569Y-69.594
X104.671Y-29.203
X104.671Y-31.286
X104.671Y-59.203
X104.671Y-61.286
X104.671Y-89.203
X104.671Y-91.286
X104.996Y-20.899
X104.996Y-50.899
X104.996Y-80.899
X105.027Y-25.85
X105.027Y-55.85
X105.027Y-85.85
X105.077Y-10.356
X105.077Y-40.356
X105.077Y-70.356
X105.128Y-24.021
X105.128Y-54.021
X105.128Y-84.021
X105.621Y-16.65
X105.621Y-46.65
X105.621Y-76.65
X105.636Y-9.34
X105.636Y-39.34
X105.636Y-69.34
X105.858Y-11.199
X105.858Y-41.199
X105.858Y-71.199
X106.652Y-30.473
X106.652Y-60.473
X106.652Y-90.473
X106.855Y-9.766
X106.855Y-39.766
X106.855Y-69.766
X107.008Y-11.699
X107.008Y-14.199
X107.008Y-41.699
X107.008Y-44.199
X107.008Y-71.699
X107.008Y-74.199
X107.059Y-33.623
X107.059Y-63.623
X107.059Y-93.623
X107.363Y-32.556
X107.363Y-62.556
X107.363Y-92.556
X107.414Y-26.612
X107.414Y-56.612
X107.414Y-86.612
X107.447Y-9.412
X107.447Y-39.412
X107.447Y-69.412
X107.516Y-24.783
X107.516Y-54.783
X107.516Y-84.783
X107.741Y-28.399
X107.741Y-58.399
X107.741Y-88.399
X107.821Y-8.223
X107.821Y-38.223
X107.821Y-68.223
X107.996Y-18.199
X107.996Y-48.199
X107.996Y-78.199
X108.07Y-9.599
X108.07Y-39.599
X108.07Y-69.599
X108.684Y-26.257
X108.684Y-56.257
X108.684Y-86.257
X108.912Y-8.415
X108.912Y-38.415
X108.912Y-68.415
X109.358Y-9.261
X109.358Y-39.261
X109.358Y-69.261
X109.497Y-11.677
X109.497Y-14.217
X109.497Y-41.677
X109.497Y-44.217
X109.497Y-71.677
X109.497Y-74.217
X109.554Y-22.415
X109.554Y-52.415
X109.554Y-82.415
X109.751Y-27.425
X109.751Y-57.425
X109.751Y-87.425
X109.871Y-19.499
X109.871Y-49.499
X109.871Y-79.499
X110.259Y-33.877
X110.259Y-63.877
X110.259Y-93.877
X110.496Y-9.599
X110.496Y-39.599
X110.496Y-69.599
X110.696Y-10.561
X110.696Y-40.561
X110.696Y-70.561
X110.818Y-26.46
X110.818Y-56.46
X110.818Y-86.46
X110.915Y-17.048
X110.915Y-47.048
X110.915Y-77.048
X110.996Y-8.099
X110.996Y-38.099
X110.996Y-68.099
X111.275Y-33.165
X111.275Y-63.165
X111.275Y-93.165
X111.396Y-34.199
X111.396Y-64.199
X111.396Y-94.199
X111.496Y-21.499
X111.496Y-51.499
X111.496Y-81.499
X111.783Y-7.765
X111.783Y-37.765
X111.783Y-67.765
X111.832Y-16.822
X111.832Y-46.822
X111.832Y-76.822
X111.971Y-14.999
X111.971Y-15.649
X111.971Y-44.999
X111.971Y-45.649
X111.971Y-74.999
X111.971Y-75.649
X112.096Y-13.499
X112.096Y-43.499
X112.096Y-73.499
X113.053Y-30.473
X113.053Y-60.473
X113.053Y-90.473
X113.155Y-19.246
X113.155Y-49.246
X113.155Y-79.246
X113.307Y-21.481
X113.307Y-51.481
X113.307Y-81.481
X113.51Y-19.907
X113.51Y-49.907
X113.51Y-79.907
X113.561Y-9.848
X113.561Y-39.848
X113.561Y-69.848
X114.018Y-20.567
X114.018Y-50.567
X114.018Y-80.567
X114.12Y-18.992
X114.12Y-48.992
X114.12Y-78.992
X114.323Y-33.318
X114.323Y-63.318
X114.323Y-93.318
X114.496Y-14.564
X114.496Y-44.564
X114.496Y-74.564
X114.498Y-11.497
X114.498Y-41.497
X114.498Y-71.497
X114.589Y-17.948
X114.589Y-47.948
X114.589Y-77.948
X114.78Y-19.703
X114.78Y-49.703
X114.78Y-79.703
X114.796Y-23.899
X114.796Y-24.599
X114.796Y-25.299
X114.796Y-53.899
X114.796Y-54.599
X114.796Y-55.299
X114.796Y-83.899
X114.796Y-84.599
X114.796Y-85.299
X114.933Y-8.426
X114.933Y-38.426
X114.933Y-68.426
X115.496Y-23.899
X115.496Y-24.599
X115.496Y-25.299
X115.496Y-53.899
X115.496Y-54.599
X115.496Y-55.299
X115.496Y-83.899
X115.496Y-84.599
X115.496Y-85.299
X115.593Y-33.318
X115.593Y-63.318
X115.593Y-93.318
X115.771Y-13.899
X115.771Y-43.899
X115.771Y-73.899
X116.152Y-19.907
X116.152Y-33.064
X116.152Y-49.907
X116.152Y-63.064
X116.152Y-79.907
X116.152Y-93.064
X116.196Y-23.899
X116.196Y-24.599
X116.196Y-25.299
X116.196Y-53.899
X116.196Y-54.599
X116.196Y-55.299
X116.196Y-83.899
X116.196Y-84.599
X116.196Y-85.299
X116.204Y-12.371
X116.204Y-42.371
X116.204Y-72.371
X116.296Y-21.424
X116.296Y-29.899
X116.296Y-51.424
X116.296Y-59.899
X116.296Y-81.424
X116.296Y-89.899
X116.371Y-12.999
X116.371Y-42.999
X116.371Y-72.999
X116.406Y-32.556
X116.406Y-62.556
X116.406Y-92.556
X116.463Y-18.599
X116.463Y-48.599
X116.463Y-78.599
X116.796Y-26.899
X116.796Y-56.899
X116.796Y-86.899
X116.965Y-30.422
X116.965Y-60.422
X116.965Y-90.422
X117.066Y-32.657
X117.066Y-62.657
X117.066Y-92.657
X117.245Y-13.954
X117.245Y-43.954
X117.245Y-73.954
X117.422Y-9.543
X117.422Y-29.624
X117.422Y-39.543
X117.422Y-59.624
X117.422Y-69.543
X117.422Y-89.624
X117.796Y-30.599
X117.796Y-60.599
X117.796Y-90.599
X117.989Y-20.068
X117.989Y-50.068
X117.989Y-80.068
X117.996Y-21.499
X117.996Y-28.299
X117.996Y-51.499
X117.996Y-58.299
X117.996Y-81.499
X117.996Y-88.299
X118.496Y-22.599
X118.496Y-27.699
X118.496Y-52.599
X118.496Y-57.699
X118.496Y-82.599
X118.496Y-87.699
X118.724Y-28.92
X118.724Y-58.92
X118.724Y-88.92
X118.793Y-26.968
X118.793Y-56.968
X118.793Y-86.968
X118.796Y-17.899
X118.796Y-47.899
X118.796Y-77.899
X119.396Y-13.299
X119.396Y-23.399
X119.396Y-43.299
X119.396Y-53.399
X119.396Y-73.299
X119.396Y-83.399
X119.62Y-26.944
X119.62Y-56.944
X119.62Y-86.944
X120.074Y-16.52
X120.074Y-46.52
X120.074Y-76.52
X120.093Y-30.299
X120.093Y-60.299
X120.093Y-90.299
X120.627Y-24.469
X120.627Y-54.469
X120.627Y-84.469
X121.232Y-29.355
X121.232Y-59.355
X121.232Y-89.355
X121.537Y-18.383
X121.537Y-48.383
X121.537Y-78.383
X121.996Y-26.099
X121.996Y-56.099
X121.996Y-86.099
X122.096Y-24.599
X122.096Y-54.599
X122.096Y-84.599
X122.553Y-15.131
X122.553Y-45.131
X122.553Y-75.131
X122.705Y-26.815
X122.705Y-56.815
X122.705Y-86.815
X123.416Y-25.037
X123.416Y-55.037
X123.416Y-85.037
T2
X10.996Y-20.999
X10.996Y-50.999
X10.996Y-80.999
X40.996Y-20.999
X40.996Y-50.999
X40.996Y-80.999
X70.996Y-20.999
X70.996Y-50.999
X70.996Y-80.999
X100.996Y-20.999
X100.996Y-50.999
X100.996Y-80.999
T3
X30.996Y-20.999
X30.996Y-50.999
X30.996Y-80.999
X60.996Y-20.999
X60.996Y-50.999
X60.996Y-80.999
X90.996Y-20.999
X90.996Y-50.999
X90.996Y-80.999
X120.996Y-20.999
X120.996Y-50.999
X120.996Y-80.999
M30
