%TF.GenerationSoftware,KiCad,Pcbnew,8.0.7-8.0.7-0~ubuntu22.04.1*%
%TF.CreationDate,2025-01-08T19:04:50+01:00*%
%TF.ProjectId,bldc_servo_mini_v1,626c6463-5f73-4657-9276-6f5f6d696e69,rev?*%
%TF.SameCoordinates,Original*%
%TF.FileFunction,Paste,Top*%
%TF.FilePolarity,Positive*%
%FSLAX46Y46*%
G04 Gerber Fmt 4.6, Leading zero omitted, Abs format (unit mm)*
G04 Created by KiCad (PCBNEW 8.0.7-8.0.7-0~ubuntu22.04.1) date 2025-01-08 19:04:50*
%MOMM*%
%LPD*%
G01*
G04 APERTURE LIST*
G04 Aperture macros list*
%AMRoundRect*
0 Rectangle with rounded corners*
0 $1 Rounding radius*
0 $2 $3 $4 $5 $6 $7 $8 $9 X,Y pos of 4 corners*
0 Add a 4 corners polygon primitive as box body*
4,1,4,$2,$3,$4,$5,$6,$7,$8,$9,$2,$3,0*
0 Add four circle primitives for the rounded corners*
1,1,$1+$1,$2,$3*
1,1,$1+$1,$4,$5*
1,1,$1+$1,$6,$7*
1,1,$1+$1,$8,$9*
0 Add four rect primitives between the rounded corners*
20,1,$1+$1,$2,$3,$4,$5,0*
20,1,$1+$1,$4,$5,$6,$7,0*
20,1,$1+$1,$6,$7,$8,$9,0*
20,1,$1+$1,$8,$9,$2,$3,0*%
G04 Aperture macros list end*
%ADD10RoundRect,0.155000X0.212500X0.155000X-0.212500X0.155000X-0.212500X-0.155000X0.212500X-0.155000X0*%
%ADD11RoundRect,0.250000X0.337500X0.475000X-0.337500X0.475000X-0.337500X-0.475000X0.337500X-0.475000X0*%
%ADD12RoundRect,0.155000X-0.212500X-0.155000X0.212500X-0.155000X0.212500X0.155000X-0.212500X0.155000X0*%
%ADD13O,1.950000X0.568500*%
%ADD14RoundRect,0.155000X0.155000X-0.212500X0.155000X0.212500X-0.155000X0.212500X-0.155000X-0.212500X0*%
%ADD15RoundRect,0.155000X-0.155000X0.212500X-0.155000X-0.212500X0.155000X-0.212500X0.155000X0.212500X0*%
%ADD16O,0.568500X1.950000*%
%ADD17RoundRect,0.150000X-0.150000X0.825000X-0.150000X-0.825000X0.150000X-0.825000X0.150000X0.825000X0*%
%ADD18RoundRect,0.237500X-0.250000X-0.237500X0.250000X-0.237500X0.250000X0.237500X-0.250000X0.237500X0*%
%ADD19RoundRect,0.160000X0.160000X-0.197500X0.160000X0.197500X-0.160000X0.197500X-0.160000X-0.197500X0*%
%ADD20RoundRect,0.150000X-0.548008X-0.335876X-0.335876X-0.548008X0.548008X0.335876X0.335876X0.548008X0*%
%ADD21RoundRect,0.250000X-0.707107X-0.212132X-0.212132X-0.707107X0.707107X0.212132X0.212132X0.707107X0*%
%ADD22RoundRect,0.250000X0.212132X-0.707107X0.707107X-0.212132X-0.212132X0.707107X-0.707107X0.212132X0*%
%ADD23RoundRect,0.150000X0.335876X-0.548008X0.548008X-0.335876X-0.335876X0.548008X-0.548008X0.335876X0*%
%ADD24R,3.100000X5.180000*%
%ADD25R,1.475000X0.450000*%
%ADD26R,0.400000X0.800000*%
%ADD27R,0.300000X0.800000*%
%ADD28RoundRect,0.250000X-0.337500X-0.475000X0.337500X-0.475000X0.337500X0.475000X-0.337500X0.475000X0*%
G04 APERTURE END LIST*
D10*
%TO.C,C15*%
X89767500Y-94300000D03*
X88632500Y-94300000D03*
%TD*%
D11*
%TO.C,C8*%
X89937500Y-96200000D03*
X87862500Y-96200000D03*
%TD*%
D12*
%TO.C,C14*%
X93732500Y-99300000D03*
X94867500Y-99300000D03*
%TD*%
D13*
%TO.C,U1*%
X97295000Y-98095000D03*
X97295000Y-99365000D03*
X97295000Y-100635000D03*
X97295000Y-101905000D03*
X102705000Y-98095000D03*
X102705000Y-99365000D03*
X102705000Y-100635000D03*
X102705000Y-101905000D03*
%TD*%
D14*
%TO.C,C7*%
X104500000Y-99467500D03*
X104500000Y-98332500D03*
%TD*%
D12*
%TO.C,C16*%
X95067500Y-88500000D03*
X93932500Y-88500000D03*
%TD*%
D15*
%TO.C,C10*%
X95300000Y-101032500D03*
X95300000Y-102167500D03*
%TD*%
D12*
%TO.C,C9*%
X104432500Y-96400000D03*
X105567500Y-96400000D03*
%TD*%
D10*
%TO.C,C6*%
X93367500Y-89500000D03*
X92232500Y-89500000D03*
%TD*%
D16*
%TO.C,U4*%
X76895000Y32295000D03*
X78165000Y32295000D03*
X79435000Y32295000D03*
X80705000Y32295000D03*
X76895000Y37705000D03*
X78165000Y37705000D03*
X79435000Y37705000D03*
X80705000Y37705000D03*
%TD*%
D17*
%TO.C,U3*%
X101905000Y-104225000D03*
X100635000Y-104225000D03*
X99365000Y-104225000D03*
X98095000Y-104225000D03*
X98095000Y-109175000D03*
X99365000Y-109175000D03*
X100635000Y-109175000D03*
X101905000Y-109175000D03*
%TD*%
D18*
%TO.C,R29*%
X91687500Y-91900000D03*
X93512500Y-91900000D03*
%TD*%
%TO.C,R16*%
X91687500Y-95500000D03*
X93512500Y-95500000D03*
%TD*%
%TO.C,R13*%
X93512500Y-93700000D03*
X91687500Y-93700000D03*
%TD*%
D19*
%TO.C,R3*%
X98100000Y-112097500D03*
X98100000Y-110902500D03*
%TD*%
D20*
%TO.C,J6*%
X93500000Y-103671573D03*
X94207108Y-104378680D03*
X94914214Y-105085786D03*
X95621320Y-105792893D03*
X96328427Y-106500000D03*
D21*
X89840722Y-105492372D03*
X94507627Y-110159279D03*
%TD*%
D22*
%TO.C,J1*%
X110159279Y-105492373D03*
X105492374Y-110159278D03*
D23*
X106500000Y-103671573D03*
X105792893Y-104378680D03*
X105085784Y-105085786D03*
X104378680Y-105792893D03*
X103671573Y-106500000D03*
%TD*%
D24*
%TO.C,IC1*%
X100000000Y-92125000D03*
D25*
X102938000Y-87900000D03*
X102938000Y-88550000D03*
X102938000Y-89200000D03*
X102938000Y-89850000D03*
X102938000Y-90500000D03*
X102938000Y-91150000D03*
X102938000Y-91800000D03*
X102938000Y-92450000D03*
X102938000Y-93100000D03*
X102938000Y-93750000D03*
X102938000Y-94400000D03*
X102938000Y-95050000D03*
X102938000Y-95700000D03*
X102938000Y-96350000D03*
X97062000Y-96350000D03*
X97062000Y-95700000D03*
X97062000Y-95050000D03*
X97062000Y-94400000D03*
X97062000Y-93750000D03*
X97062000Y-93100000D03*
X97062000Y-92450000D03*
X97062000Y-91800000D03*
X97062000Y-91150000D03*
X97062000Y-90500000D03*
X97062000Y-89850000D03*
X97062000Y-89200000D03*
X97062000Y-88550000D03*
X97062000Y-87900000D03*
%TD*%
D26*
%TO.C,FPC_SENSOR2*%
X76050000Y29350000D03*
D27*
X80550000Y26850000D03*
X80050000Y26850000D03*
X79550000Y26850000D03*
X79050000Y26850000D03*
X78550000Y26850000D03*
X78050000Y26850000D03*
X77550000Y26850000D03*
X77050000Y26850000D03*
D26*
X81550000Y29350000D03*
%TD*%
D28*
%TO.C,C12*%
X95137500Y-97700000D03*
X93062500Y-97700000D03*
%TD*%
D10*
%TO.C,C11*%
X79867500Y25600000D03*
X78732500Y25600000D03*
%TD*%
M02*
