M48
; DRILL file {KiCad 8.0.7-8.0.7-0~ubuntu22.04.1} date 2025-01-08T19:05:11+0100
; FORMAT={-:-/ absolute / metric / decimal}
; #@! TF.CreationDate,2025-01-08T19:05:11+01:00
; #@! TF.GenerationSoftware,Kicad,Pcbnew,8.0.7-8.0.7-0~ubuntu22.04.1
; #@! TF.FileFunction,Plated,1,4,PTH
FMAT,2
METRIC
; #@! TA.AperFunction,Plated,PTH,ViaDrill
T1C0.300
; #@! TA.AperFunction,Plated,PTH,ComponentDrill
T2C2.200
%
G90
G05
T1
X73.6Y22.6
X77.2Y28.8
X78.8Y36.1
X79.0Y28.3
X80.7Y29.2
X87.5Y-97.5
X87.9Y-95.0
X88.4Y-97.4
X88.6Y-95.0
X90.101Y-92.2
X91.051Y-91.6
X91.051Y-92.2
X91.051Y-93.4
X91.051Y-94.0
X91.051Y-95.2
X91.051Y-95.8
X91.1Y-92.8
X91.1Y-94.6
X91.696Y-105.661
X91.756Y-106.85
X92.2Y-92.8
X92.2Y-94.6
X92.2Y-96.4
X92.2Y-108.2
X92.965Y-92.838
X93.0Y-94.6
X93.0Y-96.4
X93.4Y-108.4
X93.5Y-109.4
X93.756Y-104.8
X94.193Y-104.393
X94.367Y-102.807
X95.3Y-90.5
X95.3Y-92.4
X95.3Y-93.1
X95.47Y-101.85
X95.5Y-98.6
X95.5Y-102.5
X95.9Y-90.5
X95.9Y-92.4
X95.9Y-93.1
X95.9Y-112.0
X96.196Y-98.706
X96.397Y-102.609
X96.6Y-112.0
X96.989Y-109.323
X97.0Y-95.4
X97.0Y-97.0
X97.5Y-87.1
X98.7Y-88.0
X98.7Y-88.6
X98.7Y-89.2
X98.7Y-89.8
X98.7Y-90.4
X98.7Y-91.0
X98.7Y-91.6
X98.7Y-92.2
X98.7Y-92.8
X98.7Y-93.4
X98.833Y-111.515
X98.963Y-105.75
X99.091Y-112.644
X99.3Y-88.0
X99.3Y-88.6
X99.3Y-89.2
X99.3Y-89.8
X99.3Y-90.4
X99.3Y-91.0
X99.3Y-91.6
X99.3Y-92.2
X99.3Y-92.8
X99.3Y-93.4
X99.5Y-87.0
X99.6Y-105.75
X99.9Y-88.0
X99.9Y-88.6
X99.9Y-89.2
X99.9Y-89.8
X99.9Y-90.4
X99.9Y-91.0
X99.9Y-91.6
X99.9Y-92.2
X99.9Y-92.8
X99.9Y-93.4
X99.9Y-94.0
X100.2Y-105.75
X100.5Y-88.0
X100.5Y-88.6
X100.5Y-89.2
X100.5Y-89.8
X100.5Y-90.4
X100.5Y-91.0
X100.5Y-91.6
X100.5Y-92.2
X100.5Y-92.8
X100.5Y-93.4
X100.5Y-94.0
X100.6Y-103.6
X100.6Y-104.8
X100.742Y-101.123
X100.8Y-105.75
X101.1Y-88.0
X101.1Y-88.6
X101.1Y-89.2
X101.1Y-89.8
X101.1Y-90.4
X101.1Y-91.0
X101.1Y-91.6
X101.1Y-92.2
X101.1Y-92.8
X101.4Y-105.75
X101.524Y-101.293
X101.727Y-110.115
X101.8Y-87.1
X102.3Y-112.0
X102.825Y-102.639
X102.905Y-99.501
X103.3Y-111.9
X103.303Y-110.736
X103.5Y-99.365
X103.925Y-102.418
X104.0Y-98.095
X104.1Y-90.6
X104.121Y-100.75
X104.168Y-107.8
X104.295Y-103.012
X104.507Y-92.148
X104.707Y-93.826
X104.739Y-107.639
X104.805Y-88.657
X105.099Y-102.428
X105.171Y-94.35
X105.172Y-107.206
X105.183Y-112.083
X105.3Y-91.1
X105.65Y-101.394
X105.667Y-106.711
X105.7Y-97.1
X105.95Y-99.474
X106.089Y-106.289
X106.75Y-105.75
X106.85Y-102.395
X106.852Y-93.365
X107.0Y-90.4
X107.4Y-110.8
X107.533Y-104.844
X107.739Y-108.539
X107.879Y-98.412
X108.05Y-102.597
X108.25Y-106.8
X108.4Y-90.1
X108.5Y-95.6
X108.5Y-107.5
X108.7Y-103.8
X108.9Y-106.5
X109.0Y-97.2
X109.2Y-92.5
X109.8Y-103.2
X110.1Y-107.0
X110.2Y-91.9
X111.0Y-93.9
X111.7Y-104.5
X112.3Y-96.5
X112.6Y-102.9
T2
X68.3Y20.05
X68.3Y14.1
X90.0Y-100.0
X110.0Y-100.0
M30
