%TF.GenerationSoftware,KiCad,Pcbnew,8.0.7-8.0.7-0~ubuntu22.04.1*%
%TF.CreationDate,2025-01-08T19:04:50+01:00*%
%TF.ProjectId,bldc_servo_mini_v1,626c6463-5f73-4657-9276-6f5f6d696e69,rev?*%
%TF.SameCoordinates,Original*%
%TF.FileFunction,Copper,L4,Bot*%
%TF.FilePolarity,Positive*%
%FSLAX46Y46*%
G04 Gerber Fmt 4.6, Leading zero omitted, Abs format (unit mm)*
G04 Created by KiCad (PCBNEW 8.0.7-8.0.7-0~ubuntu22.04.1) date 2025-01-08 19:04:50*
%MOMM*%
%LPD*%
G01*
G04 APERTURE LIST*
G04 Aperture macros list*
%AMRoundRect*
0 Rectangle with rounded corners*
0 $1 Rounding radius*
0 $2 $3 $4 $5 $6 $7 $8 $9 X,Y pos of 4 corners*
0 Add a 4 corners polygon primitive as box body*
4,1,4,$2,$3,$4,$5,$6,$7,$8,$9,$2,$3,0*
0 Add four circle primitives for the rounded corners*
1,1,$1+$1,$2,$3*
1,1,$1+$1,$4,$5*
1,1,$1+$1,$6,$7*
1,1,$1+$1,$8,$9*
0 Add four rect primitives between the rounded corners*
20,1,$1+$1,$2,$3,$4,$5,0*
20,1,$1+$1,$4,$5,$6,$7,0*
20,1,$1+$1,$6,$7,$8,$9,0*
20,1,$1+$1,$8,$9,$2,$3,0*%
%AMRotRect*
0 Rectangle, with rotation*
0 The origin of the aperture is its center*
0 $1 length*
0 $2 width*
0 $3 Rotation angle, in degrees counterclockwise*
0 Add horizontal line*
21,1,$1,$2,0,0,$3*%
G04 Aperture macros list end*
%TA.AperFunction,SMDPad,CuDef*%
%ADD10RoundRect,0.250000X-0.300000X0.300000X-0.300000X-0.300000X0.300000X-0.300000X0.300000X0.300000X0*%
%TD*%
%TA.AperFunction,SMDPad,CuDef*%
%ADD11C,1.800000*%
%TD*%
%TA.AperFunction,SMDPad,CuDef*%
%ADD12RotRect,0.400000X0.800000X225.000000*%
%TD*%
%TA.AperFunction,SMDPad,CuDef*%
%ADD13RotRect,0.300000X0.800000X225.000000*%
%TD*%
%TA.AperFunction,SMDPad,CuDef*%
%ADD14RoundRect,0.237500X-0.237500X0.300000X-0.237500X-0.300000X0.237500X-0.300000X0.237500X0.300000X0*%
%TD*%
%TA.AperFunction,SMDPad,CuDef*%
%ADD15RoundRect,0.155000X-0.155000X0.212500X-0.155000X-0.212500X0.155000X-0.212500X0.155000X0.212500X0*%
%TD*%
%TA.AperFunction,SMDPad,CuDef*%
%ADD16RoundRect,0.155000X-0.212500X-0.155000X0.212500X-0.155000X0.212500X0.155000X-0.212500X0.155000X0*%
%TD*%
%TA.AperFunction,SMDPad,CuDef*%
%ADD17RoundRect,0.250001X-0.499999X-1.449999X0.499999X-1.449999X0.499999X1.449999X-0.499999X1.449999X0*%
%TD*%
%TA.AperFunction,SMDPad,CuDef*%
%ADD18RoundRect,0.250000X-0.250000X-1.500000X0.250000X-1.500000X0.250000X1.500000X-0.250000X1.500000X0*%
%TD*%
%TA.AperFunction,SMDPad,CuDef*%
%ADD19RoundRect,0.062500X0.062500X-0.375000X0.062500X0.375000X-0.062500X0.375000X-0.062500X-0.375000X0*%
%TD*%
%TA.AperFunction,SMDPad,CuDef*%
%ADD20RoundRect,0.062500X0.375000X-0.062500X0.375000X0.062500X-0.375000X0.062500X-0.375000X-0.062500X0*%
%TD*%
%TA.AperFunction,HeatsinkPad*%
%ADD21R,5.600000X5.600000*%
%TD*%
%TA.AperFunction,SMDPad,CuDef*%
%ADD22RoundRect,0.160000X0.197500X0.160000X-0.197500X0.160000X-0.197500X-0.160000X0.197500X-0.160000X0*%
%TD*%
%TA.AperFunction,SMDPad,CuDef*%
%ADD23RoundRect,0.160000X0.160000X-0.197500X0.160000X0.197500X-0.160000X0.197500X-0.160000X-0.197500X0*%
%TD*%
%TA.AperFunction,SMDPad,CuDef*%
%ADD24RoundRect,0.160000X-0.160000X0.197500X-0.160000X-0.197500X0.160000X-0.197500X0.160000X0.197500X0*%
%TD*%
%TA.AperFunction,SMDPad,CuDef*%
%ADD25RoundRect,0.160000X-0.197500X-0.160000X0.197500X-0.160000X0.197500X0.160000X-0.197500X0.160000X0*%
%TD*%
%TA.AperFunction,ComponentPad*%
%ADD26C,2.600000*%
%TD*%
%TA.AperFunction,ConnectorPad*%
%ADD27C,4.400000*%
%TD*%
%TA.AperFunction,SMDPad,CuDef*%
%ADD28RoundRect,0.155000X0.212500X0.155000X-0.212500X0.155000X-0.212500X-0.155000X0.212500X-0.155000X0*%
%TD*%
%TA.AperFunction,SMDPad,CuDef*%
%ADD29RoundRect,0.237500X-0.300000X-0.237500X0.300000X-0.237500X0.300000X0.237500X-0.300000X0.237500X0*%
%TD*%
%TA.AperFunction,ViaPad*%
%ADD30C,0.500000*%
%TD*%
%TA.AperFunction,Conductor*%
%ADD31C,0.500000*%
%TD*%
%TA.AperFunction,Conductor*%
%ADD32C,0.200000*%
%TD*%
%TA.AperFunction,Conductor*%
%ADD33C,0.400000*%
%TD*%
G04 APERTURE END LIST*
D10*
%TO.P,D2,1,K*%
%TO.N,VCC*%
X89200000Y-93200000D03*
%TO.P,D2,2,A*%
%TO.N,GND*%
X89200000Y-96000000D03*
%TD*%
D11*
%TO.P,J5,1,GND*%
%TO.N,GND*%
X105832061Y-92405817D03*
%TO.P,J5,2,NRST*%
%TO.N,/NRST*%
X108181292Y-91550767D03*
%TO.P,J5,3,SWCLK*%
%TO.N,/SWCLK*%
X106687111Y-94755049D03*
%TO.P,J5,4,SWDIO*%
%TO.N,/SWDIO*%
X109036343Y-93899999D03*
%TO.P,J5,5,SWO*%
%TO.N,/SWO*%
X107542161Y-97104281D03*
%TO.P,J5,6,+3.3V*%
%TO.N,+3.3V*%
X109891393Y-96249230D03*
%TD*%
D12*
%TO.P,FPC_BOARD1,10,10*%
%TO.N,unconnected-(FPC_BOARD1-Pad10)*%
X111528427Y-105939340D03*
D13*
%TO.P,FPC_BOARD1,8,8*%
%TO.N,/MOSI*%
X106578680Y-107353553D03*
%TO.P,FPC_BOARD1,7,7*%
%TO.N,+3.3V*%
X106932233Y-107000000D03*
%TO.P,FPC_BOARD1,6,6*%
%TO.N,/CS*%
X107285786Y-106646447D03*
%TO.P,FPC_BOARD1,5,5*%
%TO.N,GND*%
X107639340Y-106292893D03*
%TO.P,FPC_BOARD1,4,4*%
X107992893Y-105939340D03*
%TO.P,FPC_BOARD1,3,3*%
%TO.N,/SCK*%
X108346447Y-105585786D03*
%TO.P,FPC_BOARD1,2,2*%
%TO.N,+3.3V*%
X108700000Y-105232233D03*
%TO.P,FPC_BOARD1,1,1*%
%TO.N,/MISO*%
X109053553Y-104878680D03*
D12*
%TO.P,FPC_BOARD1,9,9*%
%TO.N,unconnected-(FPC_BOARD1-Pad9)*%
X107639340Y-109828427D03*
%TD*%
D14*
%TO.P,C1,1*%
%TO.N,+3.3V*%
X105000000Y-109137500D03*
%TO.P,C1,2*%
%TO.N,GND*%
X105000000Y-110862500D03*
%TD*%
D15*
%TO.P,C32,1*%
%TO.N,+3.3V*%
X103800000Y-110732500D03*
%TO.P,C32,2*%
%TO.N,GND*%
X103800000Y-111867500D03*
%TD*%
%TO.P,C30,2*%
%TO.N,GND*%
X102800000Y-111867500D03*
%TO.P,C30,1*%
%TO.N,+3.3V*%
X102800000Y-110732500D03*
%TD*%
D16*
%TO.P,C13,1*%
%TO.N,+3.3V*%
X102432500Y-101000000D03*
%TO.P,C13,2*%
%TO.N,GND*%
X103567500Y-101000000D03*
%TD*%
%TO.P,C3,1*%
%TO.N,+3.3V*%
X95932500Y-101000000D03*
%TO.P,C3,2*%
%TO.N,GND*%
X97067500Y-101000000D03*
%TD*%
D15*
%TO.P,C2,1*%
%TO.N,/NRST*%
X101800000Y-110932500D03*
%TO.P,C2,2*%
%TO.N,GND*%
X101800000Y-112067500D03*
%TD*%
D17*
%TO.P,J3,MP*%
%TO.N,N/C*%
X102350000Y-90500000D03*
X93650000Y-90500000D03*
D18*
%TO.P,J3,3,Pin_3*%
%TO.N,/OUT1*%
X100000000Y-96250000D03*
%TO.P,J3,2,Pin_2*%
%TO.N,/OUT2*%
X98000000Y-96250000D03*
%TO.P,J3,1,Pin_1*%
%TO.N,/OUT3*%
X96000000Y-96250000D03*
%TD*%
D19*
%TO.P,U5,1,VBAT*%
%TO.N,+3.3V*%
X102750000Y-109437500D03*
%TO.P,U5,2,PC13*%
%TO.N,unconnected-(U5-PC13-Pad2)*%
X102250000Y-109437500D03*
%TO.P,U5,3,PC14*%
%TO.N,/CAN_Rs*%
X101750000Y-109437500D03*
%TO.P,U5,4,PC15*%
%TO.N,unconnected-(U5-PC15-Pad4)*%
X101250000Y-109437500D03*
%TO.P,U5,5,PF0*%
%TO.N,unconnected-(U5-PF0-Pad5)*%
X100750000Y-109437500D03*
%TO.P,U5,6,PF1*%
%TO.N,unconnected-(U5-PF1-Pad6)*%
X100250000Y-109437500D03*
%TO.P,U5,7,PG10*%
%TO.N,/NRST*%
X99750000Y-109437500D03*
%TO.P,U5,8,PA0*%
%TO.N,/VOLTAGE_SENCE*%
X99250000Y-109437500D03*
%TO.P,U5,9,PA1*%
%TO.N,/OP_AMP3_IN*%
X98750000Y-109437500D03*
%TO.P,U5,10,PA2*%
%TO.N,/OP_AMP3_OUT*%
X98250000Y-109437500D03*
%TO.P,U5,11,PA3*%
%TO.N,/SHUNT3-*%
X97750000Y-109437500D03*
%TO.P,U5,12,PA4*%
%TO.N,/CAN_EN*%
X97250000Y-109437500D03*
D20*
%TO.P,U5,13,PA5*%
%TO.N,/SHUNT2-*%
X96562500Y-108750000D03*
%TO.P,U5,14,PA6*%
%TO.N,/OP_AMP2_OUT*%
X96562500Y-108250000D03*
%TO.P,U5,15,PA7*%
%TO.N,/OP_AMP2_IN*%
X96562500Y-107750000D03*
%TO.P,U5,16,PC4*%
%TO.N,unconnected-(U5-PC4-Pad16)*%
X96562500Y-107250000D03*
%TO.P,U5,17,PB0*%
%TO.N,/OP_AMP1_IN*%
X96562500Y-106750000D03*
%TO.P,U5,18,PB1*%
%TO.N,/OP_AMP1_OUT*%
X96562500Y-106250000D03*
%TO.P,U5,19,PB2*%
%TO.N,/SHUNT1-*%
X96562500Y-105750000D03*
%TO.P,U5,20,VREF+*%
%TO.N,VDDA*%
X96562500Y-105250000D03*
%TO.P,U5,21,VDDA*%
X96562500Y-104750000D03*
%TO.P,U5,22,PB10*%
%TO.N,unconnected-(U5-PB10-Pad22)*%
X96562500Y-104250000D03*
%TO.P,U5,23,VDD*%
%TO.N,+3.3V*%
X96562500Y-103750000D03*
%TO.P,U5,24,PB11*%
%TO.N,unconnected-(U5-PB11-Pad24)*%
X96562500Y-103250000D03*
D19*
%TO.P,U5,25,PB12*%
%TO.N,unconnected-(U5-PB12-Pad25)*%
X97250000Y-102562500D03*
%TO.P,U5,26,PB13*%
%TO.N,/EN1*%
X97750000Y-102562500D03*
%TO.P,U5,27,PB14*%
%TO.N,/EN2*%
X98250000Y-102562500D03*
%TO.P,U5,28,PB15*%
%TO.N,/EN3*%
X98750000Y-102562500D03*
%TO.P,U5,29,PC6*%
%TO.N,unconnected-(U5-PC6-Pad29)*%
X99250000Y-102562500D03*
%TO.P,U5,30,PA8*%
%TO.N,/IN1*%
X99750000Y-102562500D03*
%TO.P,U5,31,PA9*%
%TO.N,/IN2*%
X100250000Y-102562500D03*
%TO.P,U5,32,PA10*%
%TO.N,/IN3*%
X100750000Y-102562500D03*
%TO.P,U5,33,PA11*%
%TO.N,/CAN_RX*%
X101250000Y-102562500D03*
%TO.P,U5,34,PA12*%
%TO.N,/CAN_TX*%
X101750000Y-102562500D03*
%TO.P,U5,35,VDD*%
%TO.N,+3.3V*%
X102250000Y-102562500D03*
%TO.P,U5,36,PA13*%
%TO.N,/SWDIO*%
X102750000Y-102562500D03*
D20*
%TO.P,U5,37,PA14*%
%TO.N,/SWCLK*%
X103437500Y-103250000D03*
%TO.P,U5,38,PA15*%
%TO.N,/CS*%
X103437500Y-103750000D03*
%TO.P,U5,39,PC10*%
%TO.N,/SCK*%
X103437500Y-104250000D03*
%TO.P,U5,40,PC11*%
%TO.N,/MISO*%
X103437500Y-104750000D03*
%TO.P,U5,41,PB3*%
%TO.N,/SWO*%
X103437500Y-105250000D03*
%TO.P,U5,42,PB4*%
%TO.N,/DRIVER_NRST*%
X103437500Y-105750000D03*
%TO.P,U5,43,PB5*%
%TO.N,/MOSI*%
X103437500Y-106250000D03*
%TO.P,U5,44,PB6*%
%TO.N,/DRIVER_NSLEEP*%
X103437500Y-106750000D03*
%TO.P,U5,45,PB7*%
%TO.N,/DRIVER_NFAULT*%
X103437500Y-107250000D03*
%TO.P,U5,46,PB8*%
%TO.N,GND*%
X103437500Y-107750000D03*
%TO.P,U5,47,PB9*%
%TO.N,unconnected-(U5-PB9-Pad47)*%
X103437500Y-108250000D03*
%TO.P,U5,48,VDD*%
%TO.N,+3.3V*%
X103437500Y-108750000D03*
D21*
%TO.P,U5,49,VSS*%
%TO.N,GND*%
X100000000Y-106000000D03*
%TD*%
D22*
%TO.P,R27,2*%
%TO.N,/SHUNT3+*%
X94802500Y-111100000D03*
%TO.P,R27,1*%
%TO.N,/OP_AMP3_IN*%
X95997500Y-111100000D03*
%TD*%
D23*
%TO.P,R26,2*%
%TO.N,/OP_AMP3_IN*%
X97100000Y-111100000D03*
%TO.P,R26,1*%
%TO.N,GND*%
X97100000Y-112295000D03*
%TD*%
D24*
%TO.P,R25,2*%
%TO.N,+3.3V*%
X98100000Y-112295000D03*
%TO.P,R25,1*%
%TO.N,/OP_AMP3_IN*%
X98100000Y-111100000D03*
%TD*%
D22*
%TO.P,R24,2*%
%TO.N,/SHUNT1+*%
X91297500Y-104400000D03*
%TO.P,R24,1*%
%TO.N,/OP_AMP1_IN*%
X92492500Y-104400000D03*
%TD*%
%TO.P,R23,1*%
%TO.N,/OP_AMP2_IN*%
X95302500Y-107400000D03*
%TO.P,R23,2*%
%TO.N,/SHUNT2+*%
X94107500Y-107400000D03*
%TD*%
D25*
%TO.P,R22,2*%
%TO.N,/OP_AMP1_IN*%
X92495000Y-105400000D03*
%TO.P,R22,1*%
%TO.N,GND*%
X91300000Y-105400000D03*
%TD*%
D22*
%TO.P,R21,2*%
%TO.N,+3.3V*%
X91297500Y-106400000D03*
%TO.P,R21,1*%
%TO.N,/OP_AMP1_IN*%
X92492500Y-106400000D03*
%TD*%
D25*
%TO.P,R20,1*%
%TO.N,GND*%
X94102500Y-108400000D03*
%TO.P,R20,2*%
%TO.N,/OP_AMP2_IN*%
X95297500Y-108400000D03*
%TD*%
D22*
%TO.P,R19,1*%
%TO.N,/OP_AMP2_IN*%
X95300000Y-109400000D03*
%TO.P,R19,2*%
%TO.N,+3.3V*%
X94105000Y-109400000D03*
%TD*%
D26*
%TO.P,H6,1,1*%
%TO.N,/SENSOR2_GND*%
X68300000Y14100000D03*
D27*
X68300000Y14100000D03*
%TD*%
D26*
%TO.P,H5,1,1*%
%TO.N,/SENSOR2_GND*%
X68300000Y20050000D03*
D27*
X68300000Y20050000D03*
%TD*%
D26*
%TO.P,H2,1,1*%
%TO.N,GND*%
X90000000Y-100000000D03*
D27*
X90000000Y-100000000D03*
%TD*%
D26*
%TO.P,H1,1,1*%
%TO.N,GND*%
X110000000Y-100000000D03*
D27*
X110000000Y-100000000D03*
%TD*%
D25*
%TO.P,FB1,1*%
%TO.N,+3.3V*%
X93870000Y-103600000D03*
%TO.P,FB1,2*%
%TO.N,VDDA*%
X95065000Y-103600000D03*
%TD*%
D28*
%TO.P,C33,1*%
%TO.N,VDDA*%
X95070000Y-104600000D03*
%TO.P,C33,2*%
%TO.N,GND*%
X93935000Y-104600000D03*
%TD*%
%TO.P,C5,2*%
%TO.N,GND*%
X93932500Y-105600000D03*
%TO.P,C5,1*%
%TO.N,VDDA*%
X95067500Y-105600000D03*
%TD*%
D29*
%TO.P,C4,2*%
%TO.N,GND*%
X97162500Y-99600000D03*
%TO.P,C4,1*%
%TO.N,VDDA*%
X95437500Y-99600000D03*
%TD*%
D24*
%TO.P,R4,2*%
%TO.N,VCC*%
X100500000Y-112097500D03*
%TO.P,R4,1*%
%TO.N,/VOLTAGE_SENCE*%
X100500000Y-110902500D03*
%TD*%
D23*
%TO.P,R5,2*%
%TO.N,/VOLTAGE_SENCE*%
X99500000Y-110902500D03*
%TO.P,R5,1*%
%TO.N,GND*%
X99500000Y-112097500D03*
%TD*%
D30*
%TO.N,VCC*%
X90100768Y-92200000D03*
%TO.N,GND*%
X88400000Y-97400000D03*
X88600000Y-95000000D03*
%TO.N,/MISO*%
X110100000Y-107000000D03*
%TO.N,GND*%
X108250000Y-106800000D03*
%TO.N,/SCK*%
X108900000Y-106500000D03*
%TO.N,/MOSI*%
X107738909Y-108538909D03*
%TO.N,/CS*%
X108500000Y-107500000D03*
%TO.N,GND*%
X92200000Y-108200000D03*
X95500000Y-98600000D03*
X97000000Y-95400000D03*
X97000000Y-97000000D03*
X107400000Y-110800000D03*
X108700000Y-103800000D03*
X109800000Y-103200000D03*
X111700000Y-104500000D03*
X112600000Y-102900000D03*
X108500000Y-95600000D03*
X112300000Y-96500000D03*
X111000000Y-93900000D03*
X110200000Y-91900000D03*
X108400000Y-90100000D03*
X107000000Y-90400000D03*
X101800000Y-87100000D03*
X99500000Y-87000000D03*
X97500000Y-87100000D03*
X87500000Y-97500000D03*
X87900000Y-95000000D03*
X100600000Y-104800000D03*
X101400000Y-105750000D03*
X100200000Y-105750000D03*
X100800000Y-105750000D03*
X99600000Y-105750000D03*
X98963369Y-105750000D03*
X99900000Y-88000000D03*
X101100000Y-88000000D03*
X98700000Y-88000000D03*
X99300000Y-88000000D03*
X100500000Y-88000000D03*
X101100000Y-88600000D03*
X99900000Y-88600000D03*
X98700000Y-88600000D03*
X99300000Y-88600000D03*
X100500000Y-88600000D03*
X99300000Y-89200000D03*
X101100000Y-89200000D03*
X100500000Y-89200000D03*
X99900000Y-89200000D03*
X98700000Y-89200000D03*
X100500000Y-94000000D03*
X99900000Y-94000000D03*
X99900000Y-93400000D03*
X98700000Y-93400000D03*
X99300000Y-93400000D03*
X100500000Y-93400000D03*
X101100000Y-92800000D03*
X100500000Y-92800000D03*
X98700000Y-92800000D03*
X99900000Y-92800000D03*
X99300000Y-92800000D03*
X99900000Y-92200000D03*
X99300000Y-92200000D03*
X101100000Y-92200000D03*
X98700000Y-92200000D03*
X100500000Y-92200000D03*
X98700000Y-91600000D03*
X99900000Y-91600000D03*
X99300000Y-91600000D03*
X101100000Y-91600000D03*
X100500000Y-91600000D03*
X98700000Y-91000000D03*
X99300000Y-91000000D03*
X99900000Y-91000000D03*
X100500000Y-91000000D03*
X101100000Y-91000000D03*
X99300000Y-90400000D03*
X101100000Y-90400000D03*
X100500000Y-90400000D03*
X99900000Y-90400000D03*
X98700000Y-90400000D03*
X101100000Y-89800000D03*
X100500000Y-89800000D03*
X99900000Y-89800000D03*
X99300000Y-89800000D03*
X91100000Y-94600000D03*
X91100000Y-92800000D03*
X91050768Y-91600000D03*
X91050768Y-92200000D03*
X91050768Y-94000000D03*
X91050768Y-93400000D03*
X91050768Y-95800000D03*
%TO.N,+3.3V*%
X105666934Y-106710884D03*
X106088981Y-106288837D03*
%TO.N,GND*%
X105171959Y-107205859D03*
X95500000Y-102500000D03*
X94192894Y-104392894D03*
X95470000Y-101850000D03*
%TO.N,/SWDIO*%
X103925000Y-102418418D03*
X102825000Y-102639250D03*
%TO.N,/DRIVER_NFAULT*%
X107878768Y-98411645D03*
%TO.N,+3.3V*%
X103500000Y-99365000D03*
%TO.N,/NRST*%
X105183361Y-112083361D03*
X109200000Y-92500000D03*
%TO.N,GND*%
X100600000Y-103600000D03*
%TO.N,/DRIVER_NSLEEP*%
X108050000Y-102597193D03*
%TO.N,/DRIVER_NRST*%
X106850000Y-102395228D03*
%TO.N,VCC*%
X95900000Y-112000000D03*
%TO.N,GND*%
X96600000Y-112000000D03*
%TO.N,/CAN_H*%
X106750000Y-105750000D03*
X107533364Y-104844455D03*
%TO.N,+3.3V*%
X98833109Y-111515125D03*
%TO.N,/CAN_Rs*%
X101726647Y-110115001D03*
%TO.N,/CAN_EN*%
X96988721Y-109322737D03*
%TO.N,GND*%
X104167889Y-107800000D03*
%TO.N,/SENSOR2_GND*%
X73600000Y22600000D03*
%TO.N,/SENSOR2_MOSI*%
X77200000Y28800000D03*
X78800000Y36100000D03*
%TO.N,/SENSOR2_GND*%
X80700000Y29200000D03*
X79000000Y28300000D03*
%TO.N,GND*%
X105700000Y-97100000D03*
X105300000Y-91100000D03*
%TO.N,+3.3V*%
X109000000Y-97200000D03*
X103303240Y-110735587D03*
%TO.N,GND*%
X104120939Y-100750000D03*
%TO.N,+3.3V*%
X102905494Y-99500750D03*
%TO.N,GND*%
X104000000Y-98095000D03*
X96196321Y-98705506D03*
X103300000Y-111900000D03*
X102300000Y-112000000D03*
X99091382Y-112643900D03*
%TO.N,+3.3V*%
X96397220Y-102609459D03*
X94367459Y-102806621D03*
X93500000Y-109400000D03*
%TO.N,GND*%
X93400000Y-108400000D03*
%TO.N,+3.3V*%
X91756067Y-106850001D03*
%TO.N,GND*%
X91695656Y-105661038D03*
X91050768Y-95200000D03*
X98700000Y-89800000D03*
%TO.N,/IN1*%
X106852044Y-93364798D03*
%TO.N,/IN3*%
X105170896Y-94350000D03*
%TO.N,/IN2*%
X104706705Y-93826048D03*
%TO.N,/MISO*%
X105649999Y-101393503D03*
%TO.N,/MOSI*%
X105950001Y-99474257D03*
%TO.N,/SCK*%
X105098811Y-102427808D03*
%TO.N,/CS*%
X104295384Y-103012402D03*
%TO.N,/CAN_TX*%
X101523797Y-101293032D03*
%TO.N,/CAN_RX*%
X100742112Y-101122826D03*
%TO.N,GND*%
X93756162Y-104800000D03*
%TO.N,/EN3*%
X104506886Y-92148106D03*
%TO.N,/EN2*%
X104100000Y-90600000D03*
%TO.N,/EN1*%
X104804578Y-88656586D03*
%TO.N,/OUT1*%
X95300000Y-90500000D03*
X95900000Y-90500000D03*
%TO.N,/OUT3*%
X95300000Y-93100000D03*
X95900000Y-93100000D03*
%TO.N,/OUT2*%
X95300000Y-92400000D03*
X95900000Y-92400000D03*
%TO.N,/SHUNT3+*%
X93000000Y-96400000D03*
%TO.N,/SHUNT3-*%
X92200000Y-96400000D03*
%TO.N,/SHUNT1-*%
X92200000Y-92800000D03*
%TO.N,/SHUNT1+*%
X92964713Y-92838247D03*
%TO.N,/SHUNT2-*%
X92200000Y-94600000D03*
%TO.N,/SHUNT2+*%
X93000000Y-94600000D03*
%TO.N,GND*%
X104738909Y-107638909D03*
%TD*%
D31*
%TO.N,VCC*%
X89200000Y-93200000D02*
X89200000Y-93100768D01*
X89200000Y-93100768D02*
X90100768Y-92200000D01*
D32*
%TO.N,/MISO*%
X110100000Y-105925127D02*
X110100000Y-107000000D01*
X109053553Y-104878680D02*
X110100000Y-105925127D01*
%TO.N,+3.3V*%
X106932233Y-107000000D02*
X107002943Y-107000000D01*
X107002943Y-107000000D02*
X108052943Y-108050000D01*
X108052943Y-108050000D02*
X108850000Y-108050000D01*
X108850000Y-108050000D02*
X109450000Y-107450000D01*
X109450000Y-107450000D02*
X109450000Y-105982233D01*
X109450000Y-105982233D02*
X108700000Y-105232233D01*
%TO.N,/CS*%
X108500000Y-107500000D02*
X108139339Y-107500000D01*
X108139339Y-107500000D02*
X107285786Y-106646447D01*
%TO.N,GND*%
X107742893Y-106292893D02*
X108250000Y-106800000D01*
X107639340Y-106292893D02*
X107742893Y-106292893D01*
%TO.N,/SCK*%
X108900000Y-106139339D02*
X108900000Y-106500000D01*
X108346447Y-105585786D02*
X108900000Y-106139339D01*
%TO.N,+3.3V*%
X106932233Y-107000000D02*
X106221070Y-106288837D01*
X106221070Y-106288837D02*
X106088981Y-106288837D01*
%TO.N,/MOSI*%
X106578680Y-107378680D02*
X107738909Y-108538909D01*
X106578680Y-107353553D02*
X106578680Y-107378680D01*
%TO.N,/SWCLK*%
X103437500Y-103250000D02*
X103375000Y-103187500D01*
X103375000Y-102190600D02*
X103915600Y-101650000D01*
X105100000Y-96342160D02*
X106687111Y-94755049D01*
X103375000Y-103187500D02*
X103375000Y-102190600D01*
X104678543Y-101021457D02*
X104678543Y-100437733D01*
X103915600Y-101650000D02*
X104050000Y-101650000D01*
X105100000Y-97900000D02*
X105100000Y-96342160D01*
X104050000Y-101650000D02*
X104678543Y-101021457D01*
X104678543Y-100437733D02*
X104600000Y-100359190D01*
X104600000Y-100359190D02*
X104600000Y-98400000D01*
X104600000Y-98400000D02*
X105100000Y-97900000D01*
%TO.N,GND*%
X107992893Y-105939340D02*
X107639340Y-106292893D01*
D33*
%TO.N,/OUT1*%
X98526166Y-94100000D02*
X99013083Y-94586917D01*
X100000000Y-96250000D02*
X99013083Y-95263083D01*
X99013083Y-95263083D02*
X99013083Y-94586917D01*
D32*
%TO.N,/CAN_H*%
X106750000Y-105750000D02*
X107533364Y-104966636D01*
X107533364Y-104966636D02*
X107533364Y-104844455D01*
%TO.N,GND*%
X104117889Y-107750000D02*
X103437500Y-107750000D01*
X104167889Y-107800000D02*
X104117889Y-107750000D01*
%TO.N,VDDA*%
X95437500Y-99600000D02*
X94900000Y-100137500D01*
X94900000Y-100137500D02*
X94900000Y-102561344D01*
X94900000Y-102561344D02*
X94917459Y-102578803D01*
X94917459Y-102578803D02*
X94917459Y-103452459D01*
X94917459Y-103452459D02*
X95065000Y-103600000D01*
%TO.N,+3.3V*%
X94367459Y-102806621D02*
X93870000Y-103304080D01*
X93870000Y-103304080D02*
X93870000Y-103600000D01*
%TO.N,GND*%
X94192894Y-104392894D02*
X94207108Y-104378680D01*
X93756162Y-104800000D02*
X93935000Y-104978838D01*
X93935000Y-104978838D02*
X93935000Y-105597500D01*
%TO.N,+3.3V*%
X96397220Y-102609459D02*
X96397220Y-101797220D01*
X96397220Y-101797220D02*
X95932500Y-101332500D01*
X95932500Y-101332500D02*
X95932500Y-101000000D01*
X95800000Y-103500000D02*
X95800000Y-103060614D01*
X95800000Y-103060614D02*
X96251155Y-102609459D01*
X96251155Y-102609459D02*
X96397220Y-102609459D01*
D33*
%TO.N,/OUT3*%
X95900000Y-93100000D02*
X95300000Y-93100000D01*
%TO.N,/OUT1*%
X95300000Y-90500000D02*
X95900000Y-90500000D01*
X96633883Y-92066117D02*
X97150000Y-92582233D01*
X96633883Y-92066117D02*
X95900000Y-91332234D01*
X95900000Y-91332234D02*
X95900000Y-90500000D01*
X97150000Y-92582233D02*
X97150000Y-93450000D01*
X97150000Y-93450000D02*
X97800000Y-94100000D01*
X97800000Y-94100000D02*
X98526166Y-94100000D01*
%TO.N,/OUT2*%
X95900000Y-92400000D02*
X96119239Y-92400000D01*
X96119239Y-92400000D02*
X96550000Y-92830761D01*
X96550000Y-92830761D02*
X96550000Y-93950000D01*
X98000000Y-95400000D02*
X98000000Y-96250000D01*
X96550000Y-93950000D02*
X98000000Y-95400000D01*
D32*
%TO.N,/DRIVER_NFAULT*%
X103437500Y-107250000D02*
X104350000Y-107250000D01*
X104350000Y-107250000D02*
X108600000Y-103000000D01*
X108600000Y-103000000D02*
X108600000Y-102369375D01*
X108600000Y-102369375D02*
X107500000Y-101269375D01*
X107500000Y-101269375D02*
X107500000Y-98790413D01*
X107500000Y-98790413D02*
X107878768Y-98411645D01*
%TO.N,/SWO*%
X105478543Y-100106361D02*
X105400001Y-100027819D01*
X105400001Y-100027819D02*
X105400001Y-99246439D01*
%TO.N,/MOSI*%
X107400000Y-101800000D02*
X107400000Y-103068628D01*
X105950001Y-99474257D02*
X105950001Y-100350001D01*
X107400000Y-103068628D02*
X104218628Y-106250000D01*
X105950001Y-100350001D02*
X107400000Y-101800000D01*
X104218628Y-106250000D02*
X103437500Y-106250000D01*
%TO.N,/SWO*%
X103437500Y-105250000D02*
X104087256Y-105250000D01*
X104087256Y-105250000D02*
X106200000Y-103137256D01*
X106200000Y-103137256D02*
X106200000Y-101165686D01*
X105478543Y-100444229D02*
X105478543Y-100106361D01*
X105478543Y-100106361D02*
X105400000Y-100027818D01*
X105400000Y-100027818D02*
X105400000Y-99246440D01*
X105400000Y-99246440D02*
X107542160Y-97104280D01*
%TO.N,/MISO*%
X105649999Y-103120759D02*
X104020758Y-104750000D01*
X105649999Y-101393503D02*
X105649999Y-103120759D01*
X104020758Y-104750000D02*
X103437500Y-104750000D01*
%TO.N,/SCK*%
X105098811Y-102427808D02*
X105100000Y-102428997D01*
X105100000Y-102428997D02*
X105100000Y-103105072D01*
X105100000Y-103105072D02*
X103955072Y-104250000D01*
X103955072Y-104250000D02*
X103437500Y-104250000D01*
%TO.N,/SWDIO*%
X103925000Y-102418418D02*
X105078543Y-101264875D01*
X105078543Y-101264875D02*
X105078543Y-100272047D01*
X105000000Y-100193504D02*
X105000000Y-98900000D01*
X105078543Y-100272047D02*
X105000000Y-100193504D01*
X105000000Y-98900000D02*
X106342160Y-97557840D01*
X106342160Y-96607223D02*
X106994334Y-95955049D01*
X106342160Y-97557840D02*
X106342160Y-96607223D01*
X106994334Y-95955049D02*
X107184168Y-95955049D01*
X107184168Y-95955049D02*
X109036342Y-94102875D01*
X109036342Y-94102875D02*
X109036342Y-93900000D01*
%TO.N,/DRIVER_NRST*%
X106850000Y-102395228D02*
X106850000Y-103052942D01*
X104152942Y-105750000D02*
X103437500Y-105750000D01*
X106850000Y-103052942D02*
X104152942Y-105750000D01*
%TO.N,GND*%
X104120939Y-100750000D02*
X103870939Y-101000000D01*
X103870939Y-101000000D02*
X103567500Y-101000000D01*
%TO.N,/CS*%
X104295384Y-103344002D02*
X103889386Y-103750000D01*
X104295384Y-103012402D02*
X104295384Y-103344002D01*
X103889386Y-103750000D02*
X103437500Y-103750000D01*
%TO.N,/SWDIO*%
X102825000Y-102639250D02*
X102825000Y-102637500D01*
X102825000Y-102637500D02*
X102750000Y-102562500D01*
%TO.N,/IN3*%
X100750000Y-101979243D02*
X100750000Y-102562500D01*
X100142112Y-101371355D02*
X100750000Y-101979243D01*
X100142112Y-100874297D02*
X100142112Y-101371355D01*
X101328427Y-100300000D02*
X100716409Y-100300000D01*
X103100000Y-98528428D02*
X102865685Y-98762742D01*
X102865685Y-98762742D02*
X101328427Y-100300000D01*
X100716409Y-100300000D02*
X100142112Y-100874297D01*
X105170896Y-94350000D02*
X104965078Y-94555818D01*
X104965078Y-94555818D02*
X103100000Y-94555818D01*
X103100000Y-94555818D02*
X103100000Y-98528428D01*
%TO.N,+3.3V*%
X102905494Y-99500750D02*
X102432500Y-99973744D01*
X102432500Y-99973744D02*
X102432500Y-101000000D01*
%TO.N,/NRST*%
X109200000Y-92500000D02*
X109130525Y-92500000D01*
X109130525Y-92500000D02*
X108181292Y-91550767D01*
X104500000Y-112300000D02*
X104200000Y-112600000D01*
X105183361Y-112083361D02*
X104966722Y-112300000D01*
X104966722Y-112300000D02*
X104500000Y-112300000D01*
X102500000Y-112600000D02*
X102365000Y-112735000D01*
X102365000Y-112735000D02*
X101452238Y-112735000D01*
X104200000Y-112600000D02*
X102500000Y-112600000D01*
X101452238Y-112735000D02*
X101120000Y-112402762D01*
X101120000Y-112402762D02*
X101120000Y-110900000D01*
%TO.N,/DRIVER_NSLEEP*%
X103437500Y-106750000D02*
X104284314Y-106750000D01*
X104284314Y-106750000D02*
X108050000Y-102984314D01*
X108050000Y-102984314D02*
X108050000Y-102597193D01*
%TO.N,VCC*%
X100500000Y-112097500D02*
X100500000Y-112454999D01*
X100500000Y-112454999D02*
X99761099Y-113193900D01*
X99761099Y-113193900D02*
X98000000Y-113193900D01*
X98000000Y-113193900D02*
X97806100Y-113000000D01*
X97806100Y-113000000D02*
X96792528Y-113000000D01*
X96792528Y-113000000D02*
X95900000Y-112107472D01*
X95900000Y-112107472D02*
X95900000Y-112000000D01*
%TO.N,GND*%
X96895000Y-112295000D02*
X96600000Y-112000000D01*
X97100000Y-112295000D02*
X96895000Y-112295000D01*
%TO.N,/SHUNT3+*%
X94020000Y-110820000D02*
X94300000Y-111100000D01*
X94300000Y-111100000D02*
X94802500Y-111100000D01*
%TO.N,GND*%
X99091382Y-112643900D02*
X99500000Y-112235282D01*
X99500000Y-112235282D02*
X99500000Y-112097500D01*
%TO.N,/CAN_EN*%
X96988721Y-109322737D02*
X97103484Y-109437500D01*
X97103484Y-109437500D02*
X97250000Y-109437500D01*
%TO.N,+3.3V*%
X98100000Y-112248234D02*
X98833109Y-111515125D01*
X98100000Y-112295000D02*
X98100000Y-112248234D01*
%TO.N,/CAN_Rs*%
X101750000Y-109437500D02*
X101750000Y-110091648D01*
X101750000Y-110091648D02*
X101726647Y-110115001D01*
%TO.N,/NRST*%
X101120000Y-110900000D02*
X101120000Y-110510028D01*
X101800000Y-110932500D02*
X101152500Y-110932500D01*
X101152500Y-110932500D02*
X101120000Y-110900000D01*
X100809972Y-110200000D02*
X100954986Y-110345014D01*
X101120000Y-110510028D02*
X100954986Y-110345014D01*
X99800000Y-110200000D02*
X100809972Y-110200000D01*
%TO.N,/SHUNT2-*%
X94000000Y-95731372D02*
X93418628Y-95150000D01*
X94000000Y-97302942D02*
X94000000Y-95731372D01*
X93300000Y-98002942D02*
X94000000Y-97302942D01*
X93300000Y-101366906D02*
X93300000Y-98002942D01*
X91366906Y-103300000D02*
X93300000Y-101366906D01*
X96000000Y-109312500D02*
X96000000Y-109720000D01*
X90334314Y-103300000D02*
X91366906Y-103300000D01*
X92450000Y-94600000D02*
X92200000Y-94600000D01*
X90000000Y-103634314D02*
X90334314Y-103300000D01*
X92450000Y-94827818D02*
X92450000Y-94600000D01*
X92951372Y-110020000D02*
X90000000Y-107068628D01*
X96000000Y-109720000D02*
X95700000Y-110020000D01*
X90000000Y-107068628D02*
X90000000Y-103634314D01*
X92772182Y-95150000D02*
X92450000Y-94827818D01*
X95700000Y-110020000D02*
X92951372Y-110020000D01*
X96562500Y-108750000D02*
X96000000Y-109312500D01*
X93418628Y-95150000D02*
X92772182Y-95150000D01*
%TO.N,+3.3V*%
X105000000Y-109137500D02*
X104462500Y-109137500D01*
X104462500Y-109137500D02*
X104050000Y-109550000D01*
X104050000Y-109550000D02*
X104050000Y-109950000D01*
%TO.N,GND*%
X105000000Y-110862500D02*
X105000000Y-111400000D01*
X105000000Y-111400000D02*
X104532500Y-111867500D01*
X104532500Y-111867500D02*
X103800000Y-111867500D01*
%TO.N,/SENSOR2_GND*%
X73600000Y22900000D02*
X79000000Y28300000D01*
X73600000Y22600000D02*
X73600000Y22900000D01*
%TO.N,/SENSOR2_MOSI*%
X78800000Y30400000D02*
X77200000Y28800000D01*
X78800000Y36100000D02*
X78800000Y30400000D01*
%TO.N,/SENSOR2_GND*%
X79900000Y29200000D02*
X79000000Y28300000D01*
X80700000Y29200000D02*
X79900000Y29200000D01*
X68300000Y14100000D02*
X68300000Y20050000D01*
%TO.N,GND*%
X105832062Y-91632062D02*
X105300000Y-91100000D01*
X105832062Y-92405818D02*
X105832062Y-91632062D01*
%TO.N,+3.3V*%
X109891393Y-96308607D02*
X109000000Y-97200000D01*
X109891393Y-96249230D02*
X109891393Y-96308607D01*
X103750000Y-110250000D02*
X104050000Y-109950000D01*
X103800000Y-110732500D02*
X103306327Y-110732500D01*
X103306327Y-110732500D02*
X103303240Y-110735587D01*
X102250000Y-102562500D02*
X102250000Y-101182500D01*
X102250000Y-101182500D02*
X102432500Y-101000000D01*
%TO.N,GND*%
X102200000Y-112000000D02*
X102132500Y-112067500D01*
X102132500Y-112067500D02*
X101800000Y-112067500D01*
X102200000Y-112000000D02*
X103667500Y-112000000D01*
X103667500Y-112000000D02*
X103800000Y-111867500D01*
%TO.N,/NRST*%
X101800000Y-110700000D02*
X101800000Y-110932500D01*
X99750000Y-110150000D02*
X99800000Y-110200000D01*
X99750000Y-109437500D02*
X99750000Y-110150000D01*
%TO.N,/VOLTAGE_SENCE*%
X99500000Y-110902500D02*
X100500000Y-110902500D01*
%TO.N,+3.3V*%
X102800000Y-110732500D02*
X103800000Y-110732500D01*
X103750000Y-110250000D02*
X103750000Y-110682500D01*
X103750000Y-110682500D02*
X103800000Y-110732500D01*
%TO.N,/VOLTAGE_SENCE*%
X99250000Y-109437500D02*
X99250000Y-110150000D01*
X99250000Y-110150000D02*
X99350000Y-110250000D01*
X99350000Y-110250000D02*
X99350000Y-110315685D01*
X99350000Y-110315685D02*
X99500000Y-110465685D01*
X99500000Y-110465685D02*
X99500000Y-110902500D01*
%TO.N,GND*%
X97090815Y-99600000D02*
X96196321Y-98705506D01*
X97162500Y-99600000D02*
X97090815Y-99600000D01*
%TO.N,+3.3V*%
X103750000Y-110250000D02*
X103437500Y-109937500D01*
X103437500Y-109937500D02*
X103437500Y-109362500D01*
X103437500Y-108750000D02*
X103437500Y-109362500D01*
X103437500Y-109362500D02*
X103362500Y-109437500D01*
X103362500Y-109437500D02*
X102750000Y-109437500D01*
%TO.N,/OP_AMP3_IN*%
X98100000Y-111100000D02*
X98100000Y-110600000D01*
X98100000Y-110600000D02*
X98750000Y-109950000D01*
X98750000Y-109950000D02*
X98750000Y-109437500D01*
%TO.N,/SHUNT3+*%
X93000000Y-96400000D02*
X92500000Y-96900000D01*
X92620000Y-110820000D02*
X94020000Y-110820000D01*
X92500000Y-96900000D02*
X92500000Y-101035534D01*
X92500000Y-101035534D02*
X91035534Y-102500000D01*
X90002942Y-102500000D02*
X89200000Y-103302942D01*
X91035534Y-102500000D02*
X90002942Y-102500000D01*
X89200000Y-103302942D02*
X89200000Y-107400000D01*
X89200000Y-107400000D02*
X92620000Y-110820000D01*
%TO.N,VDDA*%
X96562500Y-105250000D02*
X96562500Y-104750000D01*
X95065000Y-103600000D02*
X95065000Y-105597500D01*
X95065000Y-105597500D02*
X95067500Y-105600000D01*
X96562500Y-104750000D02*
X95220000Y-104750000D01*
X95220000Y-104750000D02*
X95070000Y-104600000D01*
%TO.N,+3.3V*%
X96387761Y-102600000D02*
X96397220Y-102609459D01*
%TO.N,GND*%
X97162500Y-99600000D02*
X97162500Y-100905000D01*
X97162500Y-100905000D02*
X97067500Y-101000000D01*
%TO.N,+3.3V*%
X96562500Y-103750000D02*
X96050000Y-103750000D01*
X96050000Y-103750000D02*
X95800000Y-103500000D01*
X95800000Y-101132500D02*
X95932500Y-101000000D01*
X94105000Y-109400000D02*
X93500000Y-109400000D01*
%TO.N,GND*%
X94102500Y-108400000D02*
X93400000Y-108400000D01*
%TO.N,+3.3V*%
X91306066Y-106400000D02*
X91756067Y-106850001D01*
X91297500Y-106400000D02*
X91306066Y-106400000D01*
%TO.N,GND*%
X91434618Y-105400000D02*
X91695656Y-105661038D01*
X91300000Y-105400000D02*
X91434618Y-105400000D01*
%TO.N,/IN1*%
X104338597Y-93226048D02*
X104955234Y-93226048D01*
X102299999Y-98197058D02*
X102299999Y-94197059D01*
X102789000Y-93708058D02*
X103856587Y-93708058D01*
X102299999Y-94197059D02*
X102789000Y-93708058D01*
X104955234Y-93226048D02*
X105335004Y-93605818D01*
X101831370Y-98665686D02*
X102299999Y-98197058D01*
X103856587Y-93708058D02*
X104338597Y-93226048D01*
X100385037Y-99500000D02*
X100997056Y-99500000D01*
X99300000Y-100585037D02*
X100385037Y-99500000D01*
X105335004Y-93605818D02*
X106329119Y-93605818D01*
X100997056Y-99500000D02*
X101831370Y-98665686D01*
X99300000Y-101660614D02*
X99300000Y-100585037D01*
X99750000Y-102110614D02*
X99300000Y-101660614D01*
X99750000Y-102562500D02*
X99750000Y-102110614D01*
X106329119Y-93605818D02*
X106570139Y-93364798D01*
X106570139Y-93364798D02*
X106852044Y-93364798D01*
%TO.N,/IN2*%
X99742112Y-100708611D02*
X99742112Y-101537041D01*
X100550723Y-99900000D02*
X99742112Y-100708611D01*
X101162742Y-99900000D02*
X100550723Y-99900000D01*
X104706705Y-93826048D02*
X104376935Y-94155818D01*
X102700000Y-98362742D02*
X101162742Y-99900000D01*
X102906926Y-94155818D02*
X102700000Y-94362744D01*
X104376935Y-94155818D02*
X102906926Y-94155818D01*
X99742112Y-101537041D02*
X100250000Y-102044929D01*
X102700000Y-94362744D02*
X102700000Y-98362742D01*
X100250000Y-102044929D02*
X100250000Y-102562500D01*
%TO.N,/EN3*%
X98750000Y-102562500D02*
X98750000Y-102110614D01*
X100200000Y-99100000D02*
X100831371Y-99100000D01*
X102623314Y-93308058D02*
X103408058Y-93308058D01*
X98750000Y-102110614D02*
X98900000Y-101960614D01*
X104506886Y-92209230D02*
X104506886Y-92148106D01*
X98900000Y-101960614D02*
X98900000Y-100400000D01*
X98900000Y-100400000D02*
X100200000Y-99100000D01*
X101900000Y-94031372D02*
X102623314Y-93308058D01*
X100831371Y-99100000D02*
X101665685Y-98265686D01*
X101665685Y-98265686D02*
X101900000Y-98031372D01*
X101900000Y-98031372D02*
X101900000Y-94031372D01*
X103408058Y-93308058D02*
X104506886Y-92209230D01*
%TO.N,/EN2*%
X98500000Y-101794928D02*
X98250000Y-102044928D01*
X98500000Y-100234314D02*
X98500000Y-101794928D01*
X99800000Y-98934315D02*
X98500000Y-100234314D01*
X100650430Y-98700000D02*
X100034314Y-98700000D01*
X100034314Y-98700000D02*
X99800000Y-98934315D01*
X101500000Y-97850430D02*
X100650430Y-98700000D01*
X101500000Y-93865686D02*
X101500000Y-97850430D01*
X102465686Y-92900000D02*
X101500000Y-93865686D01*
X103250430Y-92900000D02*
X102465686Y-92900000D01*
X103800000Y-92350430D02*
X103565685Y-92584744D01*
X103800000Y-90900000D02*
X103800000Y-92350430D01*
X98250000Y-102044928D02*
X98250000Y-102562500D01*
X103565685Y-92584744D02*
X103250430Y-92900000D01*
X104100000Y-90600000D02*
X103800000Y-90900000D01*
%TO.N,/EN1*%
X104804578Y-88656586D02*
X103400000Y-90061164D01*
X101100000Y-97684744D02*
X100484744Y-98300000D01*
X103400000Y-90061164D02*
X103400000Y-92184744D01*
X101100000Y-93700000D02*
X101100000Y-97684744D01*
X103400000Y-92184744D02*
X103084744Y-92500000D01*
X103084744Y-92500000D02*
X102300000Y-92500000D01*
X98100000Y-101629242D02*
X97750000Y-101979242D01*
X102300000Y-92500000D02*
X101100000Y-93700000D01*
X97750000Y-101979242D02*
X97750000Y-102562500D01*
X100484744Y-98300000D02*
X99868628Y-98300000D01*
X99868628Y-98300000D02*
X98100000Y-100068628D01*
X98100000Y-100068628D02*
X98100000Y-101629242D01*
%TO.N,/CAN_RX*%
X100742112Y-101122826D02*
X100742112Y-101405669D01*
X100742112Y-101405669D02*
X101250000Y-101913557D01*
X101250000Y-101913557D02*
X101250000Y-102562500D01*
%TO.N,/CAN_TX*%
X101523797Y-101293032D02*
X101750000Y-101519235D01*
X101750000Y-101519235D02*
X101750000Y-102562500D01*
%TO.N,/SWCLK*%
X106687111Y-94755049D02*
X106687111Y-94552174D01*
%TO.N,/OP_AMP3_IN*%
X96100000Y-111100000D02*
X98100000Y-111100000D01*
%TO.N,/SHUNT2+*%
X94107500Y-107400000D02*
X90897058Y-107400000D01*
X94400000Y-97468628D02*
X94400000Y-95565686D01*
X90897058Y-107400000D02*
X90400000Y-106902942D01*
X90400000Y-106902942D02*
X90400000Y-103800000D01*
X90400000Y-103800000D02*
X90500000Y-103700000D01*
X93700000Y-98168628D02*
X94400000Y-97468628D01*
X90500000Y-103700000D02*
X91532592Y-103700000D01*
X93434314Y-94600000D02*
X93000000Y-94600000D01*
X91532592Y-103700000D02*
X93700000Y-101532592D01*
X93700000Y-101532592D02*
X93700000Y-98168628D01*
X94400000Y-95565686D02*
X93434314Y-94600000D01*
%TO.N,/SHUNT3-*%
X92785686Y-110420000D02*
X97219386Y-110420000D01*
X90168628Y-102900000D02*
X89600000Y-103468628D01*
X91201220Y-102900000D02*
X90168628Y-102900000D01*
X92900000Y-101201220D02*
X92665685Y-101435534D01*
X97750000Y-109889386D02*
X97750000Y-109437500D01*
X89600000Y-107234314D02*
X92785686Y-110420000D01*
X92900000Y-97300000D02*
X92900000Y-101201220D01*
X93550000Y-96172182D02*
X93550000Y-96650000D01*
X93227818Y-95850000D02*
X93550000Y-96172182D01*
X89600000Y-103468628D02*
X89600000Y-107234314D01*
X92665685Y-101435534D02*
X91201220Y-102900000D01*
X97219386Y-110420000D02*
X97750000Y-109889386D01*
X92750000Y-95850000D02*
X93227818Y-95850000D01*
X92200000Y-96400000D02*
X92750000Y-95850000D01*
X93550000Y-96650000D02*
X92900000Y-97300000D01*
%TO.N,/OP_AMP2_IN*%
X95302500Y-107400000D02*
X95302500Y-109397500D01*
X95302500Y-109397500D02*
X95300000Y-109400000D01*
X95302500Y-107400000D02*
X95700000Y-107400000D01*
X95700000Y-107400000D02*
X96050000Y-107750000D01*
X96050000Y-107750000D02*
X96562500Y-107750000D01*
%TO.N,GND*%
X94067500Y-105397500D02*
X94065000Y-105400000D01*
X94067500Y-104400000D02*
X94185788Y-104400000D01*
X94185788Y-104400000D02*
X94192894Y-104392894D01*
%TO.N,/SHUNT1-*%
X94500000Y-101890028D02*
X93200000Y-103190028D01*
X94500000Y-98500000D02*
X94500000Y-101890028D01*
X93550000Y-106350000D02*
X95510614Y-106350000D01*
X95200000Y-97800000D02*
X94500000Y-98500000D01*
X93200000Y-106000000D02*
X93550000Y-106350000D01*
X95200000Y-95234315D02*
X95200000Y-97800000D01*
X93200000Y-103190028D02*
X93200000Y-106000000D01*
X94000000Y-94034315D02*
X95200000Y-95234315D01*
X93565686Y-93600000D02*
X94000000Y-94034315D01*
X93521751Y-93556066D02*
X93565686Y-93600000D01*
X92743934Y-93556066D02*
X93521751Y-93556066D01*
X92200000Y-93012132D02*
X92743934Y-93556066D01*
X92200000Y-92800000D02*
X92200000Y-93012132D01*
X96110614Y-105750000D02*
X96562500Y-105750000D01*
X95510614Y-106350000D02*
X96110614Y-105750000D01*
%TO.N,/OP_AMP1_IN*%
X92492500Y-106400000D02*
X92592500Y-106500000D01*
X92592500Y-106500000D02*
X93100000Y-106500000D01*
X93350000Y-106750000D02*
X96562500Y-106750000D01*
X93100000Y-106500000D02*
X93350000Y-106750000D01*
X92492500Y-106400000D02*
X92492500Y-104400000D01*
%TO.N,/SHUNT1+*%
X92964713Y-92838247D02*
X92964713Y-92786895D01*
X92964713Y-92786895D02*
X92427818Y-92250000D01*
X91650000Y-93027818D02*
X92622182Y-94000000D01*
X94800000Y-95400000D02*
X94800000Y-97634314D01*
X91398278Y-104400000D02*
X91297500Y-104400000D01*
X92427818Y-92250000D02*
X91972182Y-92250000D01*
X91972182Y-92250000D02*
X91650000Y-92572182D01*
X94100000Y-98334314D02*
X94100000Y-101698278D01*
X91650000Y-92572182D02*
X91650000Y-93027818D01*
X92622182Y-94000000D02*
X93400000Y-94000000D01*
X93400000Y-94000000D02*
X94800000Y-95400000D01*
X94100000Y-101698278D02*
X91398278Y-104400000D01*
X94800000Y-97634314D02*
X94100000Y-98334314D01*
D33*
%TO.N,/OUT3*%
X95900000Y-93100000D02*
X95900000Y-96150000D01*
X95900000Y-96150000D02*
X96000000Y-96250000D01*
%TO.N,/OUT2*%
X95900000Y-92400000D02*
X95300000Y-92400000D01*
D32*
%TO.N,/SWO*%
X106200000Y-101165686D02*
X105478543Y-100444229D01*
%TD*%
%TA.AperFunction,Conductor*%
%TO.N,GND*%
G36*
X103743039Y-111637185D02*
G01*
X103788794Y-111689989D01*
X103800000Y-111741500D01*
X103800000Y-111993500D01*
X103780315Y-112060539D01*
X103727511Y-112106294D01*
X103676000Y-112117500D01*
X102740000Y-112117500D01*
X102740000Y-112175500D01*
X102720315Y-112242539D01*
X102667511Y-112288294D01*
X102616000Y-112299500D01*
X102460438Y-112299500D01*
X102409029Y-112313275D01*
X102376937Y-112317500D01*
X102050000Y-112317500D01*
X102047090Y-112320409D01*
X102030315Y-112377539D01*
X101977511Y-112423294D01*
X101926000Y-112434500D01*
X101674000Y-112434500D01*
X101606961Y-112414815D01*
X101561206Y-112362011D01*
X101550000Y-112310500D01*
X101550000Y-112191500D01*
X101569685Y-112124461D01*
X101622489Y-112078706D01*
X101674000Y-112067500D01*
X101800000Y-112067500D01*
X101800000Y-111928862D01*
X101819685Y-111861823D01*
X101836319Y-111841181D01*
X101860000Y-111817500D01*
X101860000Y-111741500D01*
X101879685Y-111674461D01*
X101932489Y-111628706D01*
X101984000Y-111617500D01*
X103676000Y-111617500D01*
X103743039Y-111637185D01*
G37*
%TD.AperFunction*%
%TA.AperFunction,Conductor*%
G36*
X100727505Y-86520207D02*
G01*
X100734195Y-86520570D01*
X101456214Y-86579363D01*
X101462869Y-86580086D01*
X102180685Y-86677886D01*
X102187256Y-86678964D01*
X102898690Y-86815477D01*
X102905230Y-86816916D01*
X103608261Y-86991751D01*
X103614699Y-86993539D01*
X104307212Y-87206174D01*
X104313541Y-87208306D01*
X104993541Y-87458125D01*
X104999756Y-87460602D01*
X105665220Y-87746864D01*
X105671294Y-87749674D01*
X105842709Y-87834688D01*
X106320278Y-88071540D01*
X106326207Y-88074684D01*
X106874327Y-88384578D01*
X106922997Y-88434707D01*
X106936839Y-88503192D01*
X106911458Y-88568289D01*
X106882192Y-88595621D01*
X106847824Y-88618585D01*
X106743293Y-88723116D01*
X106743290Y-88723120D01*
X106661161Y-88846034D01*
X106661154Y-88846047D01*
X106604585Y-88982618D01*
X106604582Y-88982628D01*
X106575742Y-89127615D01*
X106575742Y-89127618D01*
X106575742Y-89275454D01*
X106575742Y-89275456D01*
X106575741Y-89275456D01*
X106604582Y-89420443D01*
X106604585Y-89420453D01*
X106661154Y-89557024D01*
X106661161Y-89557037D01*
X106743290Y-89679951D01*
X106743293Y-89679955D01*
X106847822Y-89784484D01*
X106847826Y-89784487D01*
X106970740Y-89866616D01*
X106970753Y-89866623D01*
X107107324Y-89923192D01*
X107107329Y-89923194D01*
X107107333Y-89923194D01*
X107107334Y-89923195D01*
X107252321Y-89952036D01*
X107252324Y-89952036D01*
X107400162Y-89952036D01*
X107497704Y-89932632D01*
X107545155Y-89923194D01*
X107681737Y-89866620D01*
X107804658Y-89784487D01*
X107909193Y-89679952D01*
X107991326Y-89557031D01*
X108047900Y-89420449D01*
X108053462Y-89392489D01*
X108085846Y-89330578D01*
X108146562Y-89296004D01*
X108216332Y-89299743D01*
X108252763Y-89320031D01*
X108700529Y-89679955D01*
X108736760Y-89709078D01*
X108741877Y-89713423D01*
X108975700Y-89923195D01*
X109281110Y-90197191D01*
X109285985Y-90201810D01*
X109798189Y-90714014D01*
X109802808Y-90718889D01*
X110286574Y-91258120D01*
X110290921Y-91263239D01*
X110744752Y-91827832D01*
X110748816Y-91833178D01*
X110989154Y-92167769D01*
X111171437Y-92421540D01*
X111175189Y-92427074D01*
X111392135Y-92766483D01*
X111565334Y-93037451D01*
X111568796Y-93043205D01*
X111925313Y-93673788D01*
X111928459Y-93679721D01*
X112250320Y-94328695D01*
X112253140Y-94334790D01*
X112539392Y-95000231D01*
X112541878Y-95006470D01*
X112791687Y-95686440D01*
X112793831Y-95692804D01*
X113006455Y-96385284D01*
X113008252Y-96391755D01*
X113183081Y-97094760D01*
X113184524Y-97101319D01*
X113321030Y-97812715D01*
X113322117Y-97819342D01*
X113419911Y-98537119D01*
X113420637Y-98543795D01*
X113479428Y-99265796D01*
X113479792Y-99272502D01*
X113499409Y-99996642D01*
X113499409Y-100003358D01*
X113479792Y-100727497D01*
X113479428Y-100734203D01*
X113420637Y-101456204D01*
X113419911Y-101462880D01*
X113322117Y-102180657D01*
X113321030Y-102187284D01*
X113184524Y-102898680D01*
X113183081Y-102905239D01*
X113008252Y-103608244D01*
X113006455Y-103614715D01*
X112793831Y-104307195D01*
X112791687Y-104313559D01*
X112541878Y-104993529D01*
X112539392Y-104999768D01*
X112253140Y-105665209D01*
X112250320Y-105671304D01*
X112186606Y-105799770D01*
X112139184Y-105851083D01*
X112071549Y-105868611D01*
X112005174Y-105846791D01*
X111987837Y-105832356D01*
X111514819Y-105359338D01*
X111465238Y-105326209D01*
X111426121Y-105318429D01*
X111387006Y-105310649D01*
X111387005Y-105310649D01*
X111308773Y-105326209D01*
X111308770Y-105326210D01*
X111259199Y-105359333D01*
X111259191Y-105359339D01*
X110948426Y-105670104D01*
X110948420Y-105670112D01*
X110915297Y-105719683D01*
X110915296Y-105719686D01*
X110904817Y-105772375D01*
X110899736Y-105797919D01*
X110901968Y-105809139D01*
X110915296Y-105876151D01*
X110948425Y-105925732D01*
X111542034Y-106519341D01*
X111542037Y-106519343D01*
X111591617Y-106552471D01*
X111608479Y-106555825D01*
X111670389Y-106588208D01*
X111704965Y-106648923D01*
X111701227Y-106718692D01*
X111692231Y-106738470D01*
X111568796Y-106956794D01*
X111565334Y-106962548D01*
X111175198Y-107572913D01*
X111171429Y-107578472D01*
X110748816Y-108166821D01*
X110744752Y-108172167D01*
X110290921Y-108736760D01*
X110286574Y-108741879D01*
X109802808Y-109281110D01*
X109798189Y-109285985D01*
X109285985Y-109798189D01*
X109281110Y-109802808D01*
X108741879Y-110286574D01*
X108736760Y-110290921D01*
X108172167Y-110744752D01*
X108166821Y-110748816D01*
X107578472Y-111171429D01*
X107572913Y-111175198D01*
X106962548Y-111565334D01*
X106956794Y-111568796D01*
X106326211Y-111925313D01*
X106320277Y-111928459D01*
X105816539Y-112178289D01*
X105747735Y-112190441D01*
X105683283Y-112163464D01*
X105643647Y-112105925D01*
X105638707Y-112084847D01*
X105638493Y-112083363D01*
X105638494Y-112083361D01*
X105620058Y-111955135D01*
X105607778Y-111928245D01*
X105597835Y-111859087D01*
X105626861Y-111795531D01*
X105655478Y-111771195D01*
X105698039Y-111744943D01*
X105819944Y-111623038D01*
X105819947Y-111623034D01*
X105910448Y-111476311D01*
X105910453Y-111476300D01*
X105964680Y-111312652D01*
X105974999Y-111211654D01*
X105975000Y-111211641D01*
X105975000Y-111112500D01*
X105124000Y-111112500D01*
X105056961Y-111092815D01*
X105011206Y-111040011D01*
X105000000Y-110988500D01*
X105000000Y-110736500D01*
X105019685Y-110669461D01*
X105072489Y-110623706D01*
X105124000Y-110612500D01*
X105974999Y-110612500D01*
X105974999Y-110513360D01*
X105974998Y-110513345D01*
X105964680Y-110412347D01*
X105910453Y-110248699D01*
X105910448Y-110248688D01*
X105819947Y-110101965D01*
X105819944Y-110101961D01*
X105698038Y-109980055D01*
X105698034Y-109980052D01*
X105595179Y-109916610D01*
X105548454Y-109864662D01*
X105537233Y-109795700D01*
X105560505Y-109737440D01*
X105597728Y-109687005D01*
X107010649Y-109687005D01*
X107026209Y-109765238D01*
X107059338Y-109814819D01*
X107652947Y-110408428D01*
X107702528Y-110441557D01*
X107702530Y-110441558D01*
X107780761Y-110457118D01*
X107858993Y-110441558D01*
X107908572Y-110408430D01*
X108219343Y-110097659D01*
X108252471Y-110048080D01*
X108268031Y-109969848D01*
X108252471Y-109891617D01*
X108241703Y-109875502D01*
X108219341Y-109842034D01*
X107625732Y-109248425D01*
X107570561Y-109211561D01*
X107569028Y-109209727D01*
X107565533Y-109210754D01*
X107541342Y-109208372D01*
X107497920Y-109199736D01*
X107497919Y-109199736D01*
X107467506Y-109205785D01*
X107419686Y-109215296D01*
X107419683Y-109215297D01*
X107370112Y-109248420D01*
X107370104Y-109248426D01*
X107059339Y-109559191D01*
X107059333Y-109559199D01*
X107026210Y-109608770D01*
X107026209Y-109608773D01*
X107010649Y-109687005D01*
X105597728Y-109687005D01*
X105629116Y-109644475D01*
X105672725Y-109519849D01*
X105675500Y-109490260D01*
X105675500Y-108784739D01*
X105672725Y-108755150D01*
X105644854Y-108675500D01*
X105629116Y-108630525D01*
X105602318Y-108594215D01*
X105550711Y-108524289D01*
X105550710Y-108524288D01*
X105444476Y-108445884D01*
X105319848Y-108402274D01*
X105319849Y-108402274D01*
X105290260Y-108399500D01*
X105290256Y-108399500D01*
X104709744Y-108399500D01*
X104709740Y-108399500D01*
X104680150Y-108402274D01*
X104555523Y-108445884D01*
X104449289Y-108524288D01*
X104449288Y-108524289D01*
X104370884Y-108630523D01*
X104327274Y-108755150D01*
X104324500Y-108784739D01*
X104324500Y-108800201D01*
X104304815Y-108867240D01*
X104275919Y-108898629D01*
X104274918Y-108899396D01*
X104209731Y-108924545D01*
X104141296Y-108910460D01*
X104091340Y-108861611D01*
X104075499Y-108800971D01*
X104075499Y-108661600D01*
X104060240Y-108584883D01*
X104060239Y-108584881D01*
X104060238Y-108584878D01*
X104049555Y-108568891D01*
X104028676Y-108502214D01*
X104047160Y-108434833D01*
X104049517Y-108431164D01*
X104060240Y-108415117D01*
X104070783Y-108362113D01*
X104103167Y-108300204D01*
X104116914Y-108287930D01*
X104213678Y-108213681D01*
X104303843Y-108096175D01*
X104360521Y-107959342D01*
X104360521Y-107959340D01*
X104371626Y-107875000D01*
X102503374Y-107875000D01*
X102514478Y-107959340D01*
X102514478Y-107959342D01*
X102571156Y-108096175D01*
X102661321Y-108213681D01*
X102758086Y-108287931D01*
X102799289Y-108344359D01*
X102804217Y-108362116D01*
X102814759Y-108415115D01*
X102814760Y-108415118D01*
X102825446Y-108431111D01*
X102846323Y-108497788D01*
X102827837Y-108565168D01*
X102825446Y-108568889D01*
X102814759Y-108584882D01*
X102799500Y-108661596D01*
X102799500Y-108675500D01*
X102779815Y-108742539D01*
X102727011Y-108788294D01*
X102675506Y-108799500D01*
X102661602Y-108799500D01*
X102584880Y-108814760D01*
X102568889Y-108825446D01*
X102502212Y-108846323D01*
X102434832Y-108827837D01*
X102431111Y-108825446D01*
X102415117Y-108814759D01*
X102338403Y-108799500D01*
X102161601Y-108799500D01*
X102084880Y-108814760D01*
X102068889Y-108825446D01*
X102002212Y-108846323D01*
X101934832Y-108827837D01*
X101931111Y-108825446D01*
X101915117Y-108814759D01*
X101838403Y-108799500D01*
X101661601Y-108799500D01*
X101584880Y-108814760D01*
X101568889Y-108825446D01*
X101502212Y-108846323D01*
X101434832Y-108827837D01*
X101431111Y-108825446D01*
X101415117Y-108814759D01*
X101338403Y-108799500D01*
X101161601Y-108799500D01*
X101084880Y-108814760D01*
X101068889Y-108825446D01*
X101002212Y-108846323D01*
X100934832Y-108827837D01*
X100931111Y-108825446D01*
X100915117Y-108814759D01*
X100838403Y-108799500D01*
X100661601Y-108799500D01*
X100584880Y-108814760D01*
X100568889Y-108825446D01*
X100502212Y-108846323D01*
X100434832Y-108827837D01*
X100431111Y-108825446D01*
X100415117Y-108814759D01*
X100338403Y-108799500D01*
X100161601Y-108799500D01*
X100084880Y-108814760D01*
X100068889Y-108825446D01*
X100002212Y-108846323D01*
X99934832Y-108827837D01*
X99931111Y-108825446D01*
X99915117Y-108814759D01*
X99838403Y-108799500D01*
X99661601Y-108799500D01*
X99584880Y-108814760D01*
X99568889Y-108825446D01*
X99502212Y-108846323D01*
X99434832Y-108827837D01*
X99431111Y-108825446D01*
X99415117Y-108814759D01*
X99338403Y-108799500D01*
X99161601Y-108799500D01*
X99084880Y-108814760D01*
X99068889Y-108825446D01*
X99002212Y-108846323D01*
X98934832Y-108827837D01*
X98931111Y-108825446D01*
X98915117Y-108814759D01*
X98838403Y-108799500D01*
X98661601Y-108799500D01*
X98584880Y-108814760D01*
X98568889Y-108825446D01*
X98502212Y-108846323D01*
X98434832Y-108827837D01*
X98431111Y-108825446D01*
X98415117Y-108814759D01*
X98338403Y-108799500D01*
X98161601Y-108799500D01*
X98084880Y-108814760D01*
X98068889Y-108825446D01*
X98002212Y-108846323D01*
X97934832Y-108827837D01*
X97931111Y-108825446D01*
X97915117Y-108814759D01*
X97838403Y-108799500D01*
X97661601Y-108799500D01*
X97584880Y-108814760D01*
X97568889Y-108825446D01*
X97502212Y-108846323D01*
X97434832Y-108827837D01*
X97431111Y-108825446D01*
X97415117Y-108814759D01*
X97338403Y-108799500D01*
X97338401Y-108799500D01*
X97324499Y-108799500D01*
X97257460Y-108779815D01*
X97211705Y-108727011D01*
X97200499Y-108675500D01*
X97200499Y-108661602D01*
X97200499Y-108661600D01*
X97185240Y-108584883D01*
X97185239Y-108584881D01*
X97185238Y-108584878D01*
X97174555Y-108568891D01*
X97153676Y-108502214D01*
X97172160Y-108434833D01*
X97174517Y-108431164D01*
X97185240Y-108415117D01*
X97200500Y-108338401D01*
X97200499Y-108161600D01*
X97185240Y-108084883D01*
X97185239Y-108084881D01*
X97185238Y-108084878D01*
X97174555Y-108068891D01*
X97153676Y-108002214D01*
X97172160Y-107934833D01*
X97174517Y-107931164D01*
X97185240Y-107915117D01*
X97200500Y-107838401D01*
X97200499Y-107661600D01*
X97185240Y-107584883D01*
X97185239Y-107584881D01*
X97185238Y-107584878D01*
X97174555Y-107568891D01*
X97153676Y-107502214D01*
X97172160Y-107434833D01*
X97174517Y-107431164D01*
X97185240Y-107415117D01*
X97200500Y-107338401D01*
X97200499Y-107161600D01*
X97185240Y-107084883D01*
X97185239Y-107084881D01*
X97185238Y-107084878D01*
X97174555Y-107068891D01*
X97153676Y-107002214D01*
X97172160Y-106934833D01*
X97174517Y-106931164D01*
X97185240Y-106915117D01*
X97200500Y-106838401D01*
X97200499Y-106661600D01*
X97185240Y-106584883D01*
X97185239Y-106584881D01*
X97185238Y-106584878D01*
X97174555Y-106568891D01*
X97153676Y-106502214D01*
X97172160Y-106434833D01*
X97174517Y-106431164D01*
X97185240Y-106415117D01*
X97200500Y-106338401D01*
X97200499Y-106161600D01*
X97185240Y-106084883D01*
X97185239Y-106084881D01*
X97185238Y-106084878D01*
X97174555Y-106068891D01*
X97153676Y-106002214D01*
X97172160Y-105934833D01*
X97174517Y-105931164D01*
X97185240Y-105915117D01*
X97200500Y-105838401D01*
X97200499Y-105661600D01*
X97185240Y-105584883D01*
X97185239Y-105584881D01*
X97185238Y-105584878D01*
X97174555Y-105568891D01*
X97153676Y-105502214D01*
X97172160Y-105434833D01*
X97174517Y-105431164D01*
X97185240Y-105415117D01*
X97200500Y-105338401D01*
X97200499Y-105161600D01*
X97185240Y-105084883D01*
X97185239Y-105084881D01*
X97185238Y-105084878D01*
X97174555Y-105068891D01*
X97153676Y-105002214D01*
X97172160Y-104934833D01*
X97174517Y-104931164D01*
X97185240Y-104915117D01*
X97200500Y-104838401D01*
X97200499Y-104661600D01*
X97185240Y-104584883D01*
X97185239Y-104584881D01*
X97185238Y-104584878D01*
X97174555Y-104568891D01*
X97153676Y-104502214D01*
X97172160Y-104434833D01*
X97174517Y-104431164D01*
X97185240Y-104415117D01*
X97200500Y-104338401D01*
X97200499Y-104161600D01*
X97185240Y-104084883D01*
X97185239Y-104084881D01*
X97185238Y-104084878D01*
X97174555Y-104068891D01*
X97153676Y-104002214D01*
X97172160Y-103934833D01*
X97174517Y-103931164D01*
X97185240Y-103915117D01*
X97200500Y-103838401D01*
X97200499Y-103661600D01*
X97185240Y-103584883D01*
X97185239Y-103584881D01*
X97185238Y-103584878D01*
X97174555Y-103568891D01*
X97153676Y-103502214D01*
X97172160Y-103434833D01*
X97174517Y-103431164D01*
X97185240Y-103415117D01*
X97200499Y-103338404D01*
X97200500Y-103338404D01*
X97200500Y-103324499D01*
X97220185Y-103257460D01*
X97272989Y-103211705D01*
X97324500Y-103200499D01*
X97338398Y-103200499D01*
X97338400Y-103200499D01*
X97415117Y-103185240D01*
X97431107Y-103174555D01*
X97497783Y-103153676D01*
X97565164Y-103172159D01*
X97568871Y-103174541D01*
X97583792Y-103184511D01*
X97584883Y-103185240D01*
X97584887Y-103185241D01*
X97623241Y-103192870D01*
X97661599Y-103200500D01*
X97838400Y-103200499D01*
X97915117Y-103185240D01*
X97931107Y-103174555D01*
X97997783Y-103153676D01*
X98065164Y-103172159D01*
X98068871Y-103174541D01*
X98083792Y-103184511D01*
X98084883Y-103185240D01*
X98084887Y-103185241D01*
X98123241Y-103192870D01*
X98161599Y-103200500D01*
X98338400Y-103200499D01*
X98415117Y-103185240D01*
X98431107Y-103174555D01*
X98497783Y-103153676D01*
X98565164Y-103172159D01*
X98568871Y-103174541D01*
X98583792Y-103184511D01*
X98584883Y-103185240D01*
X98584887Y-103185241D01*
X98623241Y-103192870D01*
X98661599Y-103200500D01*
X98838400Y-103200499D01*
X98915117Y-103185240D01*
X98931107Y-103174555D01*
X98997783Y-103153676D01*
X99065164Y-103172159D01*
X99068871Y-103174541D01*
X99083792Y-103184511D01*
X99084883Y-103185240D01*
X99084887Y-103185241D01*
X99123241Y-103192870D01*
X99161599Y-103200500D01*
X99338400Y-103200499D01*
X99415117Y-103185240D01*
X99431107Y-103174555D01*
X99497783Y-103153676D01*
X99565164Y-103172159D01*
X99568871Y-103174541D01*
X99583792Y-103184511D01*
X99584883Y-103185240D01*
X99584887Y-103185241D01*
X99623241Y-103192870D01*
X99661599Y-103200500D01*
X99838400Y-103200499D01*
X99915117Y-103185240D01*
X99931107Y-103174555D01*
X99997783Y-103153676D01*
X100065164Y-103172159D01*
X100068871Y-103174541D01*
X100083792Y-103184511D01*
X100084883Y-103185240D01*
X100084887Y-103185241D01*
X100123241Y-103192870D01*
X100161599Y-103200500D01*
X100338400Y-103200499D01*
X100415117Y-103185240D01*
X100431107Y-103174555D01*
X100497783Y-103153676D01*
X100565164Y-103172159D01*
X100568871Y-103174541D01*
X100583792Y-103184511D01*
X100584883Y-103185240D01*
X100584887Y-103185241D01*
X100623241Y-103192870D01*
X100661599Y-103200500D01*
X100838400Y-103200499D01*
X100915117Y-103185240D01*
X100931107Y-103174555D01*
X100997783Y-103153676D01*
X101065164Y-103172159D01*
X101068871Y-103174541D01*
X101083792Y-103184511D01*
X101084883Y-103185240D01*
X101084887Y-103185241D01*
X101123241Y-103192870D01*
X101161599Y-103200500D01*
X101338400Y-103200499D01*
X101415117Y-103185240D01*
X101431107Y-103174555D01*
X101497783Y-103153676D01*
X101565164Y-103172159D01*
X101568871Y-103174541D01*
X101583792Y-103184511D01*
X101584883Y-103185240D01*
X101584887Y-103185241D01*
X101623241Y-103192870D01*
X101661599Y-103200500D01*
X101838400Y-103200499D01*
X101915117Y-103185240D01*
X101931107Y-103174555D01*
X101997783Y-103153676D01*
X102065164Y-103172159D01*
X102068871Y-103174541D01*
X102083792Y-103184511D01*
X102084883Y-103185240D01*
X102084887Y-103185241D01*
X102123241Y-103192870D01*
X102161599Y-103200500D01*
X102338400Y-103200499D01*
X102415117Y-103185240D01*
X102431107Y-103174555D01*
X102497783Y-103153676D01*
X102565164Y-103172159D01*
X102568871Y-103174541D01*
X102583792Y-103184511D01*
X102584883Y-103185240D01*
X102584887Y-103185241D01*
X102623241Y-103192870D01*
X102661599Y-103200500D01*
X102675497Y-103200499D01*
X102742534Y-103220180D01*
X102788292Y-103272982D01*
X102799500Y-103324493D01*
X102799500Y-103338397D01*
X102814760Y-103415119D01*
X102825446Y-103431111D01*
X102846323Y-103497788D01*
X102827837Y-103565168D01*
X102825446Y-103568889D01*
X102814759Y-103584882D01*
X102799500Y-103661596D01*
X102799500Y-103838398D01*
X102814760Y-103915119D01*
X102825446Y-103931111D01*
X102846323Y-103997788D01*
X102827837Y-104065168D01*
X102825446Y-104068889D01*
X102814759Y-104084882D01*
X102799500Y-104161596D01*
X102799500Y-104338398D01*
X102814760Y-104415119D01*
X102825446Y-104431111D01*
X102846323Y-104497788D01*
X102827837Y-104565168D01*
X102825446Y-104568889D01*
X102814759Y-104584882D01*
X102799500Y-104661596D01*
X102799500Y-104838398D01*
X102814760Y-104915119D01*
X102825446Y-104931111D01*
X102846323Y-104997788D01*
X102827837Y-105065168D01*
X102825446Y-105068889D01*
X102814759Y-105084882D01*
X102799500Y-105161596D01*
X102799500Y-105338398D01*
X102814760Y-105415119D01*
X102825446Y-105431111D01*
X102846323Y-105497788D01*
X102827837Y-105565168D01*
X102825446Y-105568889D01*
X102814759Y-105584882D01*
X102799500Y-105661596D01*
X102799500Y-105838398D01*
X102814760Y-105915119D01*
X102825446Y-105931111D01*
X102846323Y-105997788D01*
X102827837Y-106065168D01*
X102825446Y-106068889D01*
X102814759Y-106084882D01*
X102799500Y-106161596D01*
X102799500Y-106338398D01*
X102814760Y-106415119D01*
X102825446Y-106431111D01*
X102846323Y-106497788D01*
X102827837Y-106565168D01*
X102825446Y-106568889D01*
X102814759Y-106584882D01*
X102799500Y-106661596D01*
X102799500Y-106838398D01*
X102814760Y-106915119D01*
X102825446Y-106931111D01*
X102846323Y-106997788D01*
X102827837Y-107065168D01*
X102825446Y-107068889D01*
X102814759Y-107084882D01*
X102804216Y-107137886D01*
X102771830Y-107199796D01*
X102758086Y-107212068D01*
X102661322Y-107286318D01*
X102571156Y-107403824D01*
X102514478Y-107540657D01*
X102514478Y-107540659D01*
X102503373Y-107625000D01*
X104371626Y-107625000D01*
X104385789Y-107608850D01*
X104387720Y-107596464D01*
X104434098Y-107544206D01*
X104458644Y-107533522D01*
X104458482Y-107533130D01*
X104465978Y-107530023D01*
X104465989Y-107530021D01*
X104534511Y-107490460D01*
X104590460Y-107434511D01*
X105090730Y-106934239D01*
X105152051Y-106900756D01*
X105221742Y-106905740D01*
X105277676Y-106947611D01*
X105282721Y-106954877D01*
X105284049Y-106956943D01*
X105284051Y-106956945D01*
X105284052Y-106956947D01*
X105345988Y-107028426D01*
X105368615Y-107054540D01*
X105368885Y-107054851D01*
X105477865Y-107124888D01*
X105529868Y-107140157D01*
X105602159Y-107161383D01*
X105602161Y-107161384D01*
X105602162Y-107161384D01*
X105731707Y-107161384D01*
X105731707Y-107161383D01*
X105819132Y-107135714D01*
X105838355Y-107130070D01*
X105908224Y-107130070D01*
X105967002Y-107167845D01*
X105994906Y-107224856D01*
X106000902Y-107255004D01*
X106000905Y-107255011D01*
X106034028Y-107304582D01*
X106034034Y-107304590D01*
X106627642Y-107898198D01*
X106627650Y-107898204D01*
X106677221Y-107931327D01*
X106677223Y-107931328D01*
X106677225Y-107931329D01*
X106677226Y-107931329D01*
X106688510Y-107936003D01*
X106688033Y-107937153D01*
X106738605Y-107963603D01*
X106740189Y-107965160D01*
X107249527Y-108474498D01*
X107283012Y-108535821D01*
X107284584Y-108544532D01*
X107302211Y-108667134D01*
X107342408Y-108755151D01*
X107356027Y-108784972D01*
X107397521Y-108832859D01*
X107437935Y-108879501D01*
X107440860Y-108882876D01*
X107549840Y-108952913D01*
X107600463Y-108967777D01*
X107633674Y-108989119D01*
X107665176Y-108989401D01*
X107665357Y-108988147D01*
X107674136Y-108989409D01*
X107674137Y-108989409D01*
X107803682Y-108989409D01*
X107803682Y-108989408D01*
X107927978Y-108952913D01*
X108036958Y-108882876D01*
X108121791Y-108784972D01*
X108175606Y-108667135D01*
X108194042Y-108538909D01*
X108191940Y-108524288D01*
X108187319Y-108492146D01*
X108197263Y-108422988D01*
X108243018Y-108370184D01*
X108310057Y-108350500D01*
X108889560Y-108350500D01*
X108889562Y-108350500D01*
X108965989Y-108330021D01*
X109034511Y-108290460D01*
X109090460Y-108234511D01*
X109690460Y-107634511D01*
X109699334Y-107619140D01*
X109730021Y-107565989D01*
X109748104Y-107498501D01*
X109784468Y-107438844D01*
X109847314Y-107408314D01*
X109902813Y-107411620D01*
X109910929Y-107414003D01*
X109910931Y-107414004D01*
X109979044Y-107434003D01*
X110035227Y-107450500D01*
X110035228Y-107450500D01*
X110164773Y-107450500D01*
X110164773Y-107450499D01*
X110289069Y-107414004D01*
X110398049Y-107343967D01*
X110482882Y-107246063D01*
X110536697Y-107128226D01*
X110555133Y-107000000D01*
X110536697Y-106871774D01*
X110482882Y-106753937D01*
X110482880Y-106753935D01*
X110482879Y-106753932D01*
X110430786Y-106693812D01*
X110401762Y-106630256D01*
X110400500Y-106612611D01*
X110400500Y-105885565D01*
X110398875Y-105879500D01*
X110380022Y-105809139D01*
X110340460Y-105740616D01*
X109671399Y-105071555D01*
X109637914Y-105010232D01*
X109637462Y-105008063D01*
X109631329Y-104977225D01*
X109631327Y-104977223D01*
X109631327Y-104977221D01*
X109598201Y-104927646D01*
X109598198Y-104927642D01*
X109004590Y-104334034D01*
X109004582Y-104334028D01*
X108955011Y-104300905D01*
X108955008Y-104300904D01*
X108876776Y-104285344D01*
X108798543Y-104300904D01*
X108748962Y-104334033D01*
X108508906Y-104574089D01*
X108477149Y-104621618D01*
X108442938Y-104655829D01*
X108395409Y-104687586D01*
X108195093Y-104887902D01*
X108133770Y-104921387D01*
X108064078Y-104916403D01*
X108008145Y-104874531D01*
X107984674Y-104817867D01*
X107978133Y-104772375D01*
X107970061Y-104716229D01*
X107916246Y-104598392D01*
X107831413Y-104500488D01*
X107774008Y-104463596D01*
X107728255Y-104410794D01*
X107718311Y-104341636D01*
X107747336Y-104278080D01*
X107753353Y-104271617D01*
X108840460Y-103184511D01*
X108880022Y-103115988D01*
X108900500Y-103039562D01*
X108900500Y-102960438D01*
X108900500Y-102653954D01*
X108920185Y-102586915D01*
X108972989Y-102541160D01*
X109042147Y-102531216D01*
X109061391Y-102535569D01*
X109352661Y-102626333D01*
X109673961Y-102685213D01*
X110000000Y-102704934D01*
X110326038Y-102685213D01*
X110647341Y-102626332D01*
X110959164Y-102529164D01*
X110959175Y-102529160D01*
X111257041Y-102395102D01*
X111257043Y-102395101D01*
X111536586Y-102226112D01*
X111724968Y-102078523D01*
X111724968Y-102078522D01*
X110582736Y-100936290D01*
X110716602Y-100839033D01*
X110839033Y-100716602D01*
X110936290Y-100582736D01*
X112078522Y-101724968D01*
X112078523Y-101724968D01*
X112226112Y-101536586D01*
X112395101Y-101257043D01*
X112395102Y-101257041D01*
X112529160Y-100959175D01*
X112529164Y-100959164D01*
X112626332Y-100647341D01*
X112685213Y-100326038D01*
X112704934Y-100000000D01*
X112685213Y-99673961D01*
X112626332Y-99352658D01*
X112529164Y-99040835D01*
X112529160Y-99040824D01*
X112395102Y-98742958D01*
X112395101Y-98742956D01*
X112226118Y-98463423D01*
X112078522Y-98275030D01*
X110936290Y-99417262D01*
X110839033Y-99283398D01*
X110716602Y-99160967D01*
X110582735Y-99063708D01*
X111724968Y-97921476D01*
X111536576Y-97773881D01*
X111257043Y-97604898D01*
X111257041Y-97604897D01*
X110959175Y-97470839D01*
X110959164Y-97470835D01*
X110647341Y-97373667D01*
X110592320Y-97363584D01*
X110529927Y-97332137D01*
X110494440Y-97271951D01*
X110497126Y-97202133D01*
X110537132Y-97144850D01*
X110549383Y-97136195D01*
X110557434Y-97131211D01*
X110708157Y-96993809D01*
X110831066Y-96831051D01*
X110921975Y-96648480D01*
X110977790Y-96452313D01*
X110996608Y-96249230D01*
X110994112Y-96222298D01*
X110977790Y-96046147D01*
X110935271Y-95896711D01*
X110921975Y-95849980D01*
X110909789Y-95825508D01*
X110855741Y-95716963D01*
X110831066Y-95667409D01*
X110708157Y-95504651D01*
X110708155Y-95504648D01*
X110557434Y-95367249D01*
X110557432Y-95367247D01*
X110384035Y-95259885D01*
X110384028Y-95259881D01*
X110288939Y-95223044D01*
X110193849Y-95186206D01*
X109993369Y-95148730D01*
X109789417Y-95148730D01*
X109588937Y-95186206D01*
X109588934Y-95186206D01*
X109588934Y-95186207D01*
X109398757Y-95259881D01*
X109398750Y-95259885D01*
X109225353Y-95367247D01*
X109225351Y-95367249D01*
X109074630Y-95504648D01*
X108951720Y-95667408D01*
X108860815Y-95849969D01*
X108860810Y-95849982D01*
X108804995Y-96046147D01*
X108786178Y-96249229D01*
X108786178Y-96249230D01*
X108804995Y-96452312D01*
X108860997Y-96649133D01*
X108860411Y-96719001D01*
X108822144Y-96777459D01*
X108808770Y-96787383D01*
X108769614Y-96812547D01*
X108702575Y-96832232D01*
X108635535Y-96812547D01*
X108589781Y-96759743D01*
X108583309Y-96742167D01*
X108572743Y-96705031D01*
X108481834Y-96522460D01*
X108358925Y-96359702D01*
X108358923Y-96359699D01*
X108208202Y-96222300D01*
X108208200Y-96222298D01*
X108034803Y-96114936D01*
X108034796Y-96114932D01*
X107844616Y-96041256D01*
X107804831Y-96033819D01*
X107742551Y-96002151D01*
X107707279Y-95941838D01*
X107710213Y-95872030D01*
X107739935Y-95824252D01*
X108581092Y-94983094D01*
X108642413Y-94949611D01*
X108712104Y-94954595D01*
X108713566Y-94955151D01*
X108733881Y-94963021D01*
X108733882Y-94963021D01*
X108733887Y-94963023D01*
X108934367Y-95000499D01*
X108934369Y-95000499D01*
X109138317Y-95000499D01*
X109138319Y-95000499D01*
X109338799Y-94963023D01*
X109528980Y-94889347D01*
X109702384Y-94781980D01*
X109853107Y-94644578D01*
X109976016Y-94481820D01*
X110066925Y-94299249D01*
X110122740Y-94103082D01*
X110124441Y-94084733D01*
X110141558Y-93899999D01*
X110141558Y-93899998D01*
X110122740Y-93696916D01*
X110117874Y-93679815D01*
X110066925Y-93500749D01*
X110063078Y-93493024D01*
X110008770Y-93383957D01*
X109976016Y-93318178D01*
X109911500Y-93232745D01*
X109853105Y-93155417D01*
X109702385Y-93018019D01*
X109702384Y-93018018D01*
X109594996Y-92951526D01*
X109548362Y-92899499D01*
X109537258Y-92830517D01*
X109565211Y-92766483D01*
X109566562Y-92764897D01*
X109582882Y-92746063D01*
X109636697Y-92628226D01*
X109655133Y-92500000D01*
X109636697Y-92371774D01*
X109582882Y-92253937D01*
X109498049Y-92156033D01*
X109389069Y-92085996D01*
X109389067Y-92085995D01*
X109389065Y-92085994D01*
X109307811Y-92062136D01*
X109249033Y-92024362D01*
X109220008Y-91960806D01*
X109223479Y-91909227D01*
X109267689Y-91753850D01*
X109286507Y-91550767D01*
X109267689Y-91347684D01*
X109211874Y-91151517D01*
X109193680Y-91114979D01*
X109143401Y-91014004D01*
X109120965Y-90968946D01*
X109028168Y-90846063D01*
X108998054Y-90806185D01*
X108847333Y-90668786D01*
X108847331Y-90668784D01*
X108673934Y-90561422D01*
X108673927Y-90561418D01*
X108515387Y-90500000D01*
X108483748Y-90487743D01*
X108283268Y-90450267D01*
X108079316Y-90450267D01*
X107878836Y-90487743D01*
X107878833Y-90487743D01*
X107878833Y-90487744D01*
X107688656Y-90561418D01*
X107688649Y-90561422D01*
X107515252Y-90668784D01*
X107515250Y-90668786D01*
X107364529Y-90806185D01*
X107241619Y-90968945D01*
X107150714Y-91151506D01*
X107150709Y-91151519D01*
X107094894Y-91347684D01*
X107076077Y-91550766D01*
X107076077Y-91550767D01*
X107094894Y-91753849D01*
X107150709Y-91950014D01*
X107150714Y-91950027D01*
X107241619Y-92132588D01*
X107364529Y-92295348D01*
X107492166Y-92411703D01*
X107510221Y-92428163D01*
X107515250Y-92432747D01*
X107515252Y-92432749D01*
X107553116Y-92456193D01*
X107688655Y-92540115D01*
X107878836Y-92613791D01*
X108079316Y-92651267D01*
X108079318Y-92651267D01*
X108283266Y-92651267D01*
X108283268Y-92651267D01*
X108483748Y-92613791D01*
X108561479Y-92583678D01*
X108606658Y-92566176D01*
X108676281Y-92560313D01*
X108738021Y-92593023D01*
X108764244Y-92630287D01*
X108773826Y-92651267D01*
X108785250Y-92676282D01*
X108795193Y-92745441D01*
X108766167Y-92808996D01*
X108717249Y-92843419D01*
X108543716Y-92910646D01*
X108543700Y-92910654D01*
X108370303Y-93018016D01*
X108370301Y-93018018D01*
X108219580Y-93155417D01*
X108096670Y-93318177D01*
X108005765Y-93500738D01*
X108005760Y-93500751D01*
X107949945Y-93696916D01*
X107931128Y-93899998D01*
X107931128Y-93899999D01*
X107949945Y-94103076D01*
X107949945Y-94103080D01*
X108005760Y-94299246D01*
X108005765Y-94299259D01*
X108096671Y-94481822D01*
X108096879Y-94482158D01*
X108096929Y-94482340D01*
X108099225Y-94486951D01*
X108098322Y-94487400D01*
X108115432Y-94549520D01*
X108094622Y-94616218D01*
X108079131Y-94635113D01*
X107993257Y-94720987D01*
X107931934Y-94754472D01*
X107862242Y-94749488D01*
X107806309Y-94707616D01*
X107782105Y-94644747D01*
X107782089Y-94644578D01*
X107773508Y-94551966D01*
X107717693Y-94355799D01*
X107716766Y-94353938D01*
X107650957Y-94221774D01*
X107626784Y-94173228D01*
X107503875Y-94010470D01*
X107503873Y-94010467D01*
X107353152Y-93873068D01*
X107353150Y-93873066D01*
X107252093Y-93810495D01*
X107205457Y-93758467D01*
X107194353Y-93689486D01*
X107222306Y-93625451D01*
X107223607Y-93623923D01*
X107234926Y-93610861D01*
X107288741Y-93493024D01*
X107307177Y-93364798D01*
X107288741Y-93236572D01*
X107234926Y-93118735D01*
X107150093Y-93020831D01*
X107041113Y-92950794D01*
X107041109Y-92950792D01*
X107041108Y-92950792D01*
X106916818Y-92914298D01*
X106916816Y-92914298D01*
X106787272Y-92914298D01*
X106787270Y-92914298D01*
X106662979Y-92950792D01*
X106662976Y-92950793D01*
X106662975Y-92950794D01*
X106553995Y-93020831D01*
X106553994Y-93020831D01*
X106536917Y-93040539D01*
X106478137Y-93078312D01*
X106475302Y-93079108D01*
X106454151Y-93084775D01*
X106385628Y-93124338D01*
X106385625Y-93124340D01*
X106240967Y-93268999D01*
X106179644Y-93302484D01*
X106153286Y-93305318D01*
X105510837Y-93305318D01*
X105443798Y-93285633D01*
X105423156Y-93268999D01*
X105139744Y-92985587D01*
X105115818Y-92971774D01*
X105115181Y-92971406D01*
X105106635Y-92966472D01*
X105071225Y-92946028D01*
X105071224Y-92946027D01*
X105045747Y-92939200D01*
X104994796Y-92925548D01*
X104514901Y-92925548D01*
X104447862Y-92905863D01*
X104402107Y-92853059D01*
X104392163Y-92783901D01*
X104421188Y-92720345D01*
X104427209Y-92713877D01*
X104508400Y-92632686D01*
X104563575Y-92602558D01*
X104563149Y-92601105D01*
X104637379Y-92579308D01*
X104695955Y-92562110D01*
X104804935Y-92492073D01*
X104889768Y-92394169D01*
X104943583Y-92276332D01*
X104962019Y-92148106D01*
X104943583Y-92019880D01*
X104889768Y-91902043D01*
X104804935Y-91804139D01*
X104695955Y-91734102D01*
X104695951Y-91734100D01*
X104695950Y-91734100D01*
X104571660Y-91697606D01*
X104571658Y-91697606D01*
X104442114Y-91697606D01*
X104442112Y-91697606D01*
X104317819Y-91734100D01*
X104317818Y-91734101D01*
X104291538Y-91750990D01*
X104224498Y-91770674D01*
X104157459Y-91750988D01*
X104111705Y-91698184D01*
X104100500Y-91646674D01*
X104100500Y-91162197D01*
X104120185Y-91095158D01*
X104172989Y-91049403D01*
X104189558Y-91043222D01*
X104289069Y-91014004D01*
X104398049Y-90943967D01*
X104482882Y-90846063D01*
X104503002Y-90802004D01*
X104548755Y-90749202D01*
X104615795Y-90729517D01*
X104663245Y-90738955D01*
X104758097Y-90778244D01*
X104758101Y-90778244D01*
X104758102Y-90778245D01*
X104903089Y-90807086D01*
X104903092Y-90807086D01*
X105050930Y-90807086D01*
X105148472Y-90787682D01*
X105195923Y-90778244D01*
X105313561Y-90729517D01*
X105332498Y-90721673D01*
X105332498Y-90721672D01*
X105332505Y-90721670D01*
X105455426Y-90639537D01*
X105559961Y-90535002D01*
X105642094Y-90412081D01*
X105698668Y-90275499D01*
X105716472Y-90185996D01*
X105727510Y-90130506D01*
X105727510Y-89982665D01*
X105698669Y-89837678D01*
X105698668Y-89837677D01*
X105698668Y-89837673D01*
X105676638Y-89784487D01*
X105642097Y-89701097D01*
X105642090Y-89701084D01*
X105559961Y-89578170D01*
X105559958Y-89578166D01*
X105455429Y-89473637D01*
X105455425Y-89473634D01*
X105332511Y-89391505D01*
X105332498Y-89391498D01*
X105195927Y-89334929D01*
X105195917Y-89334926D01*
X105050930Y-89306086D01*
X105050928Y-89306086D01*
X105048001Y-89306086D01*
X105046522Y-89305651D01*
X105044868Y-89305489D01*
X105044898Y-89305175D01*
X104980962Y-89286401D01*
X104935207Y-89233597D01*
X104925263Y-89164439D01*
X104954288Y-89100883D01*
X104986888Y-89076477D01*
X104986186Y-89075384D01*
X104993644Y-89070590D01*
X104993647Y-89070590D01*
X105102627Y-89000553D01*
X105187460Y-88902649D01*
X105241275Y-88784812D01*
X105259711Y-88656586D01*
X105241275Y-88528360D01*
X105187460Y-88410523D01*
X105102627Y-88312619D01*
X104993647Y-88242582D01*
X104993643Y-88242580D01*
X104993642Y-88242580D01*
X104869352Y-88206086D01*
X104869350Y-88206086D01*
X104739806Y-88206086D01*
X104739804Y-88206086D01*
X104615513Y-88242580D01*
X104615510Y-88242581D01*
X104615509Y-88242582D01*
X104580895Y-88264827D01*
X104506528Y-88312619D01*
X104421696Y-88410523D01*
X104421695Y-88410524D01*
X104367880Y-88528360D01*
X104350253Y-88650962D01*
X104321228Y-88714517D01*
X104315196Y-88720995D01*
X103512180Y-89524012D01*
X103450857Y-89557497D01*
X103381166Y-89552513D01*
X103325232Y-89510641D01*
X103300815Y-89445177D01*
X103300499Y-89436331D01*
X103300499Y-88995741D01*
X103300499Y-88995736D01*
X103297646Y-88965302D01*
X103252793Y-88837118D01*
X103172150Y-88727850D01*
X103062882Y-88647207D01*
X103062881Y-88647206D01*
X102934695Y-88602353D01*
X102934698Y-88602353D01*
X102904268Y-88599500D01*
X101795741Y-88599500D01*
X101765301Y-88602354D01*
X101765300Y-88602354D01*
X101637118Y-88647206D01*
X101527850Y-88727850D01*
X101447206Y-88837118D01*
X101402353Y-88965302D01*
X101399500Y-88995731D01*
X101399500Y-92004258D01*
X101402354Y-92034698D01*
X101402354Y-92034699D01*
X101447206Y-92162881D01*
X101447207Y-92162882D01*
X101527850Y-92272150D01*
X101603831Y-92328226D01*
X101637118Y-92352793D01*
X101736137Y-92387441D01*
X101792913Y-92428163D01*
X101818661Y-92493115D01*
X101805205Y-92561677D01*
X101782864Y-92592164D01*
X100915489Y-93459540D01*
X100859541Y-93515487D01*
X100859535Y-93515495D01*
X100819982Y-93584004D01*
X100819979Y-93584009D01*
X100799500Y-93660439D01*
X100799500Y-94359067D01*
X100779815Y-94426106D01*
X100727011Y-94471861D01*
X100657853Y-94481805D01*
X100594297Y-94452780D01*
X100575731Y-94432702D01*
X100572150Y-94427850D01*
X100462882Y-94347207D01*
X100462880Y-94347206D01*
X100334700Y-94302353D01*
X100304270Y-94299500D01*
X100304266Y-94299500D01*
X99695734Y-94299500D01*
X99695730Y-94299500D01*
X99665300Y-94302353D01*
X99665298Y-94302353D01*
X99537119Y-94347206D01*
X99537114Y-94347209D01*
X99508118Y-94368609D01*
X99442489Y-94392579D01*
X99374319Y-94377263D01*
X99336109Y-94344323D01*
X99333565Y-94341008D01*
X99333563Y-94341004D01*
X99258996Y-94266437D01*
X99258995Y-94266436D01*
X99254665Y-94262106D01*
X99254654Y-94262096D01*
X98772081Y-93779522D01*
X98772080Y-93779521D01*
X98772079Y-93779520D01*
X98698641Y-93737120D01*
X98680755Y-93726793D01*
X98613471Y-93708765D01*
X98578893Y-93699500D01*
X98578892Y-93699500D01*
X98017255Y-93699500D01*
X97950216Y-93679815D01*
X97929574Y-93663181D01*
X97586819Y-93320426D01*
X97553334Y-93259103D01*
X97550500Y-93232745D01*
X97550500Y-92529508D01*
X97550499Y-92529504D01*
X97550156Y-92528225D01*
X97533153Y-92464765D01*
X97523207Y-92427645D01*
X97470480Y-92336320D01*
X96954364Y-91820205D01*
X96954363Y-91820204D01*
X96336819Y-91202660D01*
X96303334Y-91141337D01*
X96300500Y-91114979D01*
X96300500Y-90734459D01*
X96311706Y-90682947D01*
X96317373Y-90670538D01*
X96336697Y-90628226D01*
X96355133Y-90500000D01*
X96336697Y-90371774D01*
X96282882Y-90253937D01*
X96198049Y-90156033D01*
X96089069Y-90085996D01*
X96089065Y-90085994D01*
X96089064Y-90085994D01*
X95964774Y-90049500D01*
X95964772Y-90049500D01*
X95835228Y-90049500D01*
X95835226Y-90049500D01*
X95710932Y-90085995D01*
X95705894Y-90088296D01*
X95654386Y-90099500D01*
X95545614Y-90099500D01*
X95494106Y-90088296D01*
X95489067Y-90085995D01*
X95364774Y-90049500D01*
X95364772Y-90049500D01*
X95235228Y-90049500D01*
X95235226Y-90049500D01*
X95110935Y-90085994D01*
X95110932Y-90085995D01*
X95110931Y-90085996D01*
X95059677Y-90118934D01*
X95001950Y-90156033D01*
X94917118Y-90253937D01*
X94917117Y-90253938D01*
X94863302Y-90371774D01*
X94847237Y-90483513D01*
X94841486Y-90496103D01*
X94843476Y-90499199D01*
X94847237Y-90516487D01*
X94863302Y-90628225D01*
X94913872Y-90738956D01*
X94917118Y-90746063D01*
X95001951Y-90843967D01*
X95110931Y-90914004D01*
X95235225Y-90950499D01*
X95235227Y-90950500D01*
X95373640Y-90950500D01*
X95373640Y-90953769D01*
X95426977Y-90961422D01*
X95479795Y-91007161D01*
X95499500Y-91074195D01*
X95499500Y-91384960D01*
X95526793Y-91486823D01*
X95553156Y-91532484D01*
X95579520Y-91578147D01*
X95579522Y-91578149D01*
X95776844Y-91775471D01*
X95810329Y-91836794D01*
X95805345Y-91906486D01*
X95763473Y-91962419D01*
X95724101Y-91982128D01*
X95710933Y-91985994D01*
X95705894Y-91988296D01*
X95654386Y-91999500D01*
X95545614Y-91999500D01*
X95494106Y-91988296D01*
X95489067Y-91985995D01*
X95364774Y-91949500D01*
X95364772Y-91949500D01*
X95235228Y-91949500D01*
X95235226Y-91949500D01*
X95110935Y-91985994D01*
X95110932Y-91985995D01*
X95110931Y-91985996D01*
X95082504Y-92004265D01*
X95001950Y-92056033D01*
X94917118Y-92153937D01*
X94917117Y-92153938D01*
X94863302Y-92271774D01*
X94844867Y-92400000D01*
X94863302Y-92528225D01*
X94917117Y-92646061D01*
X94917120Y-92646067D01*
X94936817Y-92668798D01*
X94965842Y-92732354D01*
X94955898Y-92801512D01*
X94936817Y-92831202D01*
X94917120Y-92853932D01*
X94917117Y-92853938D01*
X94863302Y-92971774D01*
X94844867Y-93100000D01*
X94863302Y-93228225D01*
X94903209Y-93315607D01*
X94917118Y-93346063D01*
X95001951Y-93443967D01*
X95110931Y-93514004D01*
X95235225Y-93550499D01*
X95235227Y-93550500D01*
X95373640Y-93550500D01*
X95373640Y-93553769D01*
X95426977Y-93561422D01*
X95479795Y-93607161D01*
X95499500Y-93674195D01*
X95499500Y-94312372D01*
X95479815Y-94379411D01*
X95449134Y-94412142D01*
X95427850Y-94427850D01*
X95347207Y-94537117D01*
X95303662Y-94661559D01*
X95262940Y-94718335D01*
X95197987Y-94744081D01*
X95129425Y-94730624D01*
X95098940Y-94708284D01*
X94184511Y-93793855D01*
X93813217Y-93422560D01*
X93813213Y-93422555D01*
X93805312Y-93414654D01*
X93762212Y-93371555D01*
X93750197Y-93359540D01*
X93743132Y-93352475D01*
X93743125Y-93352469D01*
X93706263Y-93315607D01*
X93706262Y-93315606D01*
X93678365Y-93299500D01*
X93678365Y-93299498D01*
X93678358Y-93299496D01*
X93672532Y-93296132D01*
X93665643Y-93292154D01*
X93665643Y-93292155D01*
X93665640Y-93292153D01*
X93639307Y-93276949D01*
X93637856Y-93276082D01*
X93637753Y-93276048D01*
X93637745Y-93276045D01*
X93598797Y-93265610D01*
X93598796Y-93265609D01*
X93561313Y-93255566D01*
X93462333Y-93255566D01*
X93395294Y-93235881D01*
X93349539Y-93183077D01*
X93339595Y-93113919D01*
X93349539Y-93080054D01*
X93392680Y-92985588D01*
X93401410Y-92966473D01*
X93419846Y-92838247D01*
X93401410Y-92710021D01*
X93347595Y-92592184D01*
X93347178Y-92591535D01*
X93346960Y-92590794D01*
X93343911Y-92584117D01*
X93344871Y-92583678D01*
X93327496Y-92524495D01*
X93347183Y-92457456D01*
X93399989Y-92411703D01*
X93451492Y-92400499D01*
X94204264Y-92400499D01*
X94234698Y-92397646D01*
X94362882Y-92352793D01*
X94472150Y-92272150D01*
X94552793Y-92162882D01*
X94597646Y-92034698D01*
X94600500Y-92004265D01*
X94600499Y-90534132D01*
X94610039Y-90501641D01*
X94601761Y-90483513D01*
X94600499Y-90465866D01*
X94600499Y-88995741D01*
X94600499Y-88995736D01*
X94597646Y-88965302D01*
X94552793Y-88837118D01*
X94472150Y-88727850D01*
X94362882Y-88647207D01*
X94362881Y-88647206D01*
X94234695Y-88602353D01*
X94234698Y-88602353D01*
X94204269Y-88599500D01*
X93216803Y-88599500D01*
X93149764Y-88579815D01*
X93104009Y-88527011D01*
X93094065Y-88457853D01*
X93123090Y-88394297D01*
X93155769Y-88367562D01*
X93673807Y-88074675D01*
X93679702Y-88071549D01*
X94328719Y-87749667D01*
X94334765Y-87746870D01*
X95000255Y-87460597D01*
X95006445Y-87458130D01*
X95686469Y-87208302D01*
X95692775Y-87206177D01*
X96385310Y-86993536D01*
X96391728Y-86991754D01*
X97094777Y-86816914D01*
X97101301Y-86815478D01*
X97812748Y-86678963D01*
X97819308Y-86677887D01*
X98537134Y-86580086D01*
X98543781Y-86579363D01*
X99265806Y-86520570D01*
X99272492Y-86520207D01*
X99996678Y-86500590D01*
X100003322Y-86500590D01*
X100727505Y-86520207D01*
G37*
%TD.AperFunction*%
%TA.AperFunction,Conductor*%
G36*
X93307095Y-107720185D02*
G01*
X93352850Y-107772989D01*
X93362794Y-107842147D01*
X93346173Y-107888649D01*
X93298726Y-107967136D01*
X93298724Y-107967140D01*
X93251043Y-108120155D01*
X93248331Y-108150000D01*
X93978500Y-108150000D01*
X94045539Y-108169685D01*
X94091294Y-108222489D01*
X94102500Y-108274000D01*
X94102500Y-108526000D01*
X94082815Y-108593039D01*
X94030011Y-108638794D01*
X93978500Y-108650000D01*
X93248331Y-108650000D01*
X93251043Y-108679844D01*
X93298724Y-108832859D01*
X93298725Y-108832860D01*
X93306399Y-108845554D01*
X93324236Y-108913108D01*
X93302719Y-108979582D01*
X93267323Y-109014020D01*
X93201951Y-109056032D01*
X93117118Y-109153937D01*
X93117117Y-109153938D01*
X93063302Y-109271774D01*
X93043852Y-109407056D01*
X93014827Y-109470612D01*
X92956049Y-109508386D01*
X92886179Y-109508386D01*
X92833433Y-109477090D01*
X91268524Y-107912181D01*
X91235039Y-107850858D01*
X91240023Y-107781166D01*
X91281895Y-107725233D01*
X91347359Y-107700816D01*
X91356205Y-107700500D01*
X93240056Y-107700500D01*
X93307095Y-107720185D01*
G37*
%TD.AperFunction*%
%TA.AperFunction,Conductor*%
G36*
X92676729Y-88751265D02*
G01*
X92722353Y-88804182D01*
X92732126Y-88873365D01*
X92726474Y-88896369D01*
X92702353Y-88965302D01*
X92699500Y-88995731D01*
X92699500Y-91850097D01*
X92679815Y-91917136D01*
X92627011Y-91962891D01*
X92557853Y-91972835D01*
X92543413Y-91969873D01*
X92467380Y-91949500D01*
X91932620Y-91949500D01*
X91884407Y-91962419D01*
X91856192Y-91969979D01*
X91796808Y-92004263D01*
X91796809Y-92004264D01*
X91787670Y-92009540D01*
X91787667Y-92009542D01*
X91465489Y-92331722D01*
X91409541Y-92387669D01*
X91409535Y-92387677D01*
X91369982Y-92456186D01*
X91369979Y-92456191D01*
X91359773Y-92494280D01*
X91349500Y-92532620D01*
X91349500Y-93067380D01*
X91363261Y-93118735D01*
X91369979Y-93143807D01*
X91382962Y-93166293D01*
X91382963Y-93166297D01*
X91382964Y-93166297D01*
X91392153Y-93182214D01*
X91409539Y-93212327D01*
X91409541Y-93212330D01*
X92150929Y-93953718D01*
X92184414Y-94015041D01*
X92179430Y-94084733D01*
X92137558Y-94140666D01*
X92098183Y-94160376D01*
X92010934Y-94185994D01*
X91901950Y-94256033D01*
X91817118Y-94353937D01*
X91817117Y-94353938D01*
X91763302Y-94471774D01*
X91744867Y-94600000D01*
X91763302Y-94728225D01*
X91803897Y-94817113D01*
X91817118Y-94846063D01*
X91901951Y-94943967D01*
X92010931Y-95014004D01*
X92135225Y-95050499D01*
X92135227Y-95050500D01*
X92135228Y-95050500D01*
X92196349Y-95050500D01*
X92263388Y-95070185D01*
X92284030Y-95086819D01*
X92587670Y-95390459D01*
X92593844Y-95395197D01*
X92635045Y-95451626D01*
X92639197Y-95521372D01*
X92604983Y-95582291D01*
X92580355Y-95600957D01*
X92565490Y-95609539D01*
X92565487Y-95609541D01*
X92261848Y-95913181D01*
X92200525Y-95946666D01*
X92174167Y-95949500D01*
X92135226Y-95949500D01*
X92010935Y-95985994D01*
X92010932Y-95985995D01*
X92010931Y-95985996D01*
X91983257Y-96003781D01*
X91901950Y-96056033D01*
X91817118Y-96153937D01*
X91817117Y-96153938D01*
X91763302Y-96271774D01*
X91744867Y-96400000D01*
X91763302Y-96528225D01*
X91781313Y-96567662D01*
X91817118Y-96646063D01*
X91901951Y-96743967D01*
X92010931Y-96814004D01*
X92110435Y-96843220D01*
X92169212Y-96880993D01*
X92198238Y-96944548D01*
X92199500Y-96962197D01*
X92199500Y-98150620D01*
X92179815Y-98217659D01*
X92127011Y-98263414D01*
X92081707Y-98271845D01*
X90936290Y-99417262D01*
X90839033Y-99283398D01*
X90716602Y-99160967D01*
X90582736Y-99063709D01*
X91724968Y-97921476D01*
X91536576Y-97773881D01*
X91257043Y-97604898D01*
X91257041Y-97604897D01*
X90959175Y-97470839D01*
X90959164Y-97470835D01*
X90647341Y-97373667D01*
X90326038Y-97314786D01*
X90000000Y-97295065D01*
X89673961Y-97314786D01*
X89352658Y-97373667D01*
X89040835Y-97470835D01*
X89040824Y-97470839D01*
X88742958Y-97604897D01*
X88742956Y-97604898D01*
X88463422Y-97773881D01*
X88463416Y-97773886D01*
X88275030Y-97921474D01*
X88275029Y-97921476D01*
X89417262Y-99063709D01*
X89283398Y-99160967D01*
X89160967Y-99283398D01*
X89063709Y-99417262D01*
X87921476Y-98275029D01*
X87921474Y-98275030D01*
X87773886Y-98463416D01*
X87773881Y-98463422D01*
X87604898Y-98742956D01*
X87604897Y-98742958D01*
X87470839Y-99040824D01*
X87470835Y-99040835D01*
X87373667Y-99352658D01*
X87314786Y-99673961D01*
X87295065Y-100000000D01*
X87314786Y-100326038D01*
X87373667Y-100647341D01*
X87470835Y-100959164D01*
X87470839Y-100959175D01*
X87604897Y-101257041D01*
X87604898Y-101257043D01*
X87773881Y-101536576D01*
X87921476Y-101724968D01*
X89063708Y-100582736D01*
X89160967Y-100716602D01*
X89283398Y-100839033D01*
X89417262Y-100936290D01*
X88275030Y-102078522D01*
X88275030Y-102078523D01*
X88463423Y-102226118D01*
X88742956Y-102395101D01*
X88742958Y-102395102D01*
X89040824Y-102529160D01*
X89040835Y-102529164D01*
X89232289Y-102588824D01*
X89290437Y-102627561D01*
X89318411Y-102691587D01*
X89307329Y-102760572D01*
X89283080Y-102794890D01*
X89015489Y-103062482D01*
X88959541Y-103118429D01*
X88959535Y-103118437D01*
X88919982Y-103186946D01*
X88919979Y-103186951D01*
X88899500Y-103263381D01*
X88899500Y-107265540D01*
X88879815Y-107332579D01*
X88827011Y-107378334D01*
X88757853Y-107388278D01*
X88694297Y-107359253D01*
X88671020Y-107332322D01*
X88477793Y-107030021D01*
X88434660Y-106962541D01*
X88431203Y-106956794D01*
X88416682Y-106931111D01*
X88074684Y-106326207D01*
X88071540Y-106320278D01*
X87996907Y-106169794D01*
X87749674Y-105671294D01*
X87746859Y-105665209D01*
X87718808Y-105600000D01*
X87460602Y-104999756D01*
X87458121Y-104993529D01*
X87208306Y-104313541D01*
X87206174Y-104307212D01*
X86993539Y-103614699D01*
X86991751Y-103608261D01*
X86816916Y-102905230D01*
X86815475Y-102898680D01*
X86678964Y-102187256D01*
X86677886Y-102180685D01*
X86580086Y-101462869D01*
X86579362Y-101456204D01*
X86578720Y-101448324D01*
X86520570Y-100734195D01*
X86520207Y-100727497D01*
X86519294Y-100693794D01*
X86500590Y-100003322D01*
X86500590Y-99996677D01*
X86520207Y-99272492D01*
X86520571Y-99265796D01*
X86579363Y-98543781D01*
X86580088Y-98537119D01*
X86677887Y-97819308D01*
X86678963Y-97812748D01*
X86815478Y-97101301D01*
X86816918Y-97094760D01*
X86828050Y-97049998D01*
X86991754Y-96391728D01*
X86993536Y-96385310D01*
X87004382Y-96349986D01*
X88150001Y-96349986D01*
X88160494Y-96452697D01*
X88215641Y-96619119D01*
X88215643Y-96619124D01*
X88307684Y-96768345D01*
X88431654Y-96892315D01*
X88580875Y-96984356D01*
X88580880Y-96984358D01*
X88747302Y-97039505D01*
X88747309Y-97039506D01*
X88850019Y-97049999D01*
X89450000Y-97049999D01*
X89549972Y-97049999D01*
X89549986Y-97049998D01*
X89652697Y-97039505D01*
X89819119Y-96984358D01*
X89819124Y-96984356D01*
X89968345Y-96892315D01*
X90092315Y-96768345D01*
X90184356Y-96619124D01*
X90184358Y-96619119D01*
X90239505Y-96452697D01*
X90239506Y-96452690D01*
X90249999Y-96349986D01*
X90250000Y-96349973D01*
X90250000Y-96250000D01*
X89450000Y-96250000D01*
X89450000Y-97049999D01*
X88850019Y-97049999D01*
X88950000Y-97049998D01*
X88950000Y-96250000D01*
X88150001Y-96250000D01*
X88150001Y-96349986D01*
X87004382Y-96349986D01*
X87206177Y-95692775D01*
X87208302Y-95686469D01*
X87221695Y-95650013D01*
X88150000Y-95650013D01*
X88150000Y-95750000D01*
X88950000Y-95750000D01*
X89450000Y-95750000D01*
X90249999Y-95750000D01*
X90249999Y-95650028D01*
X90249998Y-95650013D01*
X90239505Y-95547302D01*
X90184358Y-95380880D01*
X90184356Y-95380875D01*
X90092315Y-95231654D01*
X89968345Y-95107684D01*
X89819124Y-95015643D01*
X89819119Y-95015641D01*
X89652697Y-94960494D01*
X89652690Y-94960493D01*
X89549986Y-94950000D01*
X89450000Y-94950000D01*
X89450000Y-95750000D01*
X88950000Y-95750000D01*
X88950000Y-94949999D01*
X88850028Y-94950000D01*
X88850012Y-94950001D01*
X88747302Y-94960494D01*
X88580880Y-95015641D01*
X88580875Y-95015643D01*
X88431654Y-95107684D01*
X88307684Y-95231654D01*
X88215643Y-95380875D01*
X88215641Y-95380880D01*
X88160494Y-95547302D01*
X88160493Y-95547309D01*
X88150000Y-95650013D01*
X87221695Y-95650013D01*
X87458130Y-95006445D01*
X87460597Y-95000255D01*
X87746870Y-94334765D01*
X87749667Y-94328719D01*
X88071549Y-93679702D01*
X88074675Y-93673807D01*
X88217558Y-93421086D01*
X88267688Y-93372417D01*
X88336173Y-93358575D01*
X88401269Y-93383957D01*
X88442309Y-93440503D01*
X88449500Y-93482115D01*
X88449500Y-93554269D01*
X88452353Y-93584699D01*
X88452353Y-93584701D01*
X88485636Y-93679815D01*
X88497207Y-93712882D01*
X88577850Y-93822150D01*
X88687118Y-93902793D01*
X88729845Y-93917744D01*
X88815299Y-93947646D01*
X88845730Y-93950500D01*
X88845734Y-93950500D01*
X89554270Y-93950500D01*
X89584699Y-93947646D01*
X89584701Y-93947646D01*
X89648790Y-93925219D01*
X89712882Y-93902793D01*
X89822150Y-93822150D01*
X89902793Y-93712882D01*
X89925219Y-93648790D01*
X89947646Y-93584701D01*
X89947646Y-93584699D01*
X89950500Y-93554269D01*
X89950500Y-93038732D01*
X89970185Y-92971693D01*
X89986815Y-92951055D01*
X90375643Y-92562226D01*
X90396284Y-92545594D01*
X90398817Y-92543967D01*
X90427816Y-92510498D01*
X90433822Y-92504047D01*
X90461257Y-92476614D01*
X90463482Y-92472759D01*
X90477156Y-92453556D01*
X90483650Y-92446063D01*
X90499200Y-92412011D01*
X90504588Y-92401560D01*
X90520566Y-92373887D01*
X90523501Y-92362930D01*
X90530480Y-92343517D01*
X90537465Y-92328226D01*
X90541816Y-92297959D01*
X90544776Y-92283532D01*
X90551267Y-92259310D01*
X90551267Y-92241099D01*
X90552529Y-92223452D01*
X90555901Y-92199999D01*
X90552529Y-92176545D01*
X90551267Y-92158899D01*
X90551267Y-92140692D01*
X90551266Y-92140688D01*
X90549602Y-92134479D01*
X90544776Y-92116468D01*
X90541816Y-92102043D01*
X90537465Y-92071774D01*
X90530477Y-92056473D01*
X90523502Y-92037073D01*
X90520566Y-92026113D01*
X90516967Y-92019880D01*
X90507952Y-92004265D01*
X90504593Y-91998448D01*
X90499200Y-91987988D01*
X90483650Y-91953937D01*
X90483648Y-91953935D01*
X90483648Y-91953934D01*
X90477155Y-91946441D01*
X90463482Y-91927239D01*
X90461258Y-91923388D01*
X90461258Y-91923387D01*
X90455007Y-91917136D01*
X90433827Y-91895956D01*
X90427807Y-91889490D01*
X90398818Y-91856034D01*
X90398816Y-91856032D01*
X90396279Y-91854402D01*
X90383869Y-91844401D01*
X90383827Y-91844457D01*
X90377383Y-91839512D01*
X90377382Y-91839511D01*
X90337847Y-91816685D01*
X90332871Y-91813652D01*
X90289837Y-91785996D01*
X90289833Y-91785994D01*
X90289832Y-91785994D01*
X90288538Y-91785403D01*
X90279595Y-91782248D01*
X90274658Y-91780203D01*
X90274655Y-91780202D01*
X90224007Y-91766631D01*
X90221168Y-91765833D01*
X90165542Y-91749500D01*
X90165540Y-91749500D01*
X90035996Y-91749500D01*
X90035993Y-91749500D01*
X89980344Y-91765839D01*
X89977509Y-91766635D01*
X89926874Y-91780203D01*
X89921923Y-91782254D01*
X89913003Y-91785401D01*
X89911698Y-91785996D01*
X89868688Y-91813636D01*
X89863655Y-91816703D01*
X89824156Y-91839509D01*
X89817705Y-91844459D01*
X89817663Y-91844404D01*
X89805262Y-91854397D01*
X89802723Y-91856028D01*
X89802721Y-91856030D01*
X89773733Y-91889484D01*
X89767702Y-91895961D01*
X89250484Y-92413181D01*
X89189161Y-92446666D01*
X89162803Y-92449500D01*
X89050221Y-92449500D01*
X88983182Y-92429815D01*
X88937427Y-92377011D01*
X88927483Y-92307853D01*
X88949510Y-92253159D01*
X88964544Y-92232230D01*
X89251186Y-91833173D01*
X89255247Y-91827832D01*
X89288877Y-91785994D01*
X89709095Y-91263218D01*
X89713407Y-91258140D01*
X90197208Y-90718870D01*
X90201791Y-90714033D01*
X90714033Y-90201791D01*
X90718870Y-90197208D01*
X91258140Y-89713407D01*
X91263218Y-89709095D01*
X91827836Y-89255243D01*
X91833178Y-89251183D01*
X91876125Y-89220334D01*
X92421565Y-88828544D01*
X92427022Y-88824842D01*
X92542654Y-88750932D01*
X92609738Y-88731415D01*
X92676729Y-88751265D01*
G37*
%TD.AperFunction*%
%TA.AperFunction,Conductor*%
G36*
X107788737Y-106246007D02*
G01*
X107833086Y-106274508D01*
X108397757Y-106839179D01*
X108410455Y-106842908D01*
X108456210Y-106895712D01*
X108466154Y-106964870D01*
X108437129Y-107028426D01*
X108378351Y-107066200D01*
X108378348Y-107066201D01*
X108311469Y-107085837D01*
X108241600Y-107085835D01*
X108188856Y-107054540D01*
X107837974Y-106703659D01*
X107831138Y-106696117D01*
X107621308Y-106486287D01*
X107587823Y-106424964D01*
X107592807Y-106355272D01*
X107621307Y-106310926D01*
X107657723Y-106274509D01*
X107719045Y-106241023D01*
X107788737Y-106246007D01*
G37*
%TD.AperFunction*%
%TA.AperFunction,Conductor*%
G36*
X94128039Y-104619685D02*
G01*
X94173794Y-104672489D01*
X94185000Y-104724000D01*
X94185000Y-105476000D01*
X94165315Y-105543039D01*
X94112511Y-105588794D01*
X94061000Y-105600000D01*
X93806500Y-105600000D01*
X93739461Y-105580315D01*
X93693706Y-105527511D01*
X93682500Y-105476000D01*
X93682500Y-104724000D01*
X93702185Y-104656961D01*
X93754989Y-104611206D01*
X93806500Y-104600000D01*
X94061000Y-104600000D01*
X94128039Y-104619685D01*
G37*
%TD.AperFunction*%
%TA.AperFunction,Conductor*%
G36*
X95405703Y-101341006D02*
G01*
X95425421Y-101362671D01*
X95426678Y-101364432D01*
X95510569Y-101448323D01*
X95510570Y-101448323D01*
X95510571Y-101448324D01*
X95617160Y-101500433D01*
X95644692Y-101504444D01*
X95708192Y-101533586D01*
X95714496Y-101539467D01*
X96060401Y-101885372D01*
X96093886Y-101946695D01*
X96096720Y-101973053D01*
X96096720Y-102222070D01*
X96077035Y-102289109D01*
X96066434Y-102303271D01*
X96014340Y-102363391D01*
X96014336Y-102363398D01*
X95974952Y-102449634D01*
X95949840Y-102485801D01*
X95615489Y-102820154D01*
X95559541Y-102876101D01*
X95559535Y-102876109D01*
X95519982Y-102944618D01*
X95519977Y-102944629D01*
X95505346Y-102999232D01*
X95468981Y-103058892D01*
X95406133Y-103089420D01*
X95367692Y-103089841D01*
X95324079Y-103083486D01*
X95260579Y-103054341D01*
X95222916Y-102995491D01*
X95217959Y-102960782D01*
X95217959Y-102539244D01*
X95217959Y-102539241D01*
X95213281Y-102521782D01*
X95204725Y-102489850D01*
X95200500Y-102457757D01*
X95200500Y-101434719D01*
X95220185Y-101367680D01*
X95272989Y-101321925D01*
X95342147Y-101311981D01*
X95405703Y-101341006D01*
G37*
%TD.AperFunction*%
%TA.AperFunction,Conductor*%
G36*
X96905703Y-94872541D02*
G01*
X96912171Y-94878564D01*
X96999862Y-94966254D01*
X97263181Y-95229573D01*
X97296666Y-95290896D01*
X97299500Y-95317254D01*
X97299500Y-97804269D01*
X97302353Y-97834699D01*
X97302353Y-97834701D01*
X97347206Y-97962880D01*
X97347207Y-97962882D01*
X97427850Y-98072150D01*
X97537118Y-98152793D01*
X97556400Y-98159540D01*
X97665299Y-98197646D01*
X97695730Y-98200500D01*
X97695734Y-98200500D01*
X98304270Y-98200500D01*
X98334699Y-98197646D01*
X98334701Y-98197646D01*
X98398790Y-98175219D01*
X98462882Y-98152793D01*
X98572150Y-98072150D01*
X98652793Y-97962882D01*
X98677823Y-97891349D01*
X98697646Y-97834701D01*
X98697646Y-97834699D01*
X98700500Y-97804269D01*
X98700500Y-95816255D01*
X98720185Y-95749216D01*
X98772989Y-95703461D01*
X98842147Y-95693517D01*
X98905703Y-95722542D01*
X98912181Y-95728574D01*
X99263181Y-96079574D01*
X99296666Y-96140897D01*
X99299500Y-96167255D01*
X99299500Y-97804269D01*
X99302353Y-97834699D01*
X99302353Y-97834701D01*
X99347206Y-97962880D01*
X99347207Y-97962882D01*
X99424549Y-98067678D01*
X99427850Y-98072150D01*
X99452106Y-98090052D01*
X99494356Y-98145698D01*
X99499815Y-98215354D01*
X99466748Y-98276903D01*
X99466153Y-98277502D01*
X98405864Y-99337791D01*
X98344541Y-99371276D01*
X98274849Y-99366292D01*
X98218916Y-99324420D01*
X98194825Y-99262710D01*
X98189681Y-99212348D01*
X98135453Y-99048699D01*
X98135448Y-99048688D01*
X98044947Y-98901965D01*
X98044944Y-98901961D01*
X97923038Y-98780055D01*
X97923034Y-98780052D01*
X97776311Y-98689551D01*
X97776300Y-98689546D01*
X97612652Y-98635319D01*
X97511654Y-98625000D01*
X97412500Y-98625000D01*
X97412500Y-100581000D01*
X97392815Y-100648039D01*
X97340011Y-100693794D01*
X97325562Y-100696937D01*
X97317500Y-100705000D01*
X97317500Y-100876000D01*
X97297815Y-100943039D01*
X97245011Y-100988794D01*
X97193500Y-101000000D01*
X96941500Y-101000000D01*
X96874461Y-100980315D01*
X96828706Y-100927511D01*
X96817500Y-100876000D01*
X96817500Y-100184000D01*
X96837185Y-100116961D01*
X96889989Y-100071206D01*
X96904437Y-100068062D01*
X96912500Y-100060000D01*
X96912500Y-98624999D01*
X96813360Y-98625000D01*
X96813344Y-98625001D01*
X96712347Y-98635319D01*
X96548699Y-98689546D01*
X96548688Y-98689551D01*
X96401965Y-98780052D01*
X96401961Y-98780055D01*
X96280054Y-98901962D01*
X96216610Y-99004821D01*
X96164662Y-99051545D01*
X96095699Y-99062766D01*
X96037439Y-99039494D01*
X95944474Y-98970883D01*
X95819848Y-98927274D01*
X95819849Y-98927274D01*
X95790260Y-98924500D01*
X95790256Y-98924500D01*
X95084744Y-98924500D01*
X95084740Y-98924500D01*
X95055153Y-98927274D01*
X94965455Y-98958661D01*
X94895676Y-98962222D01*
X94835048Y-98927493D01*
X94802821Y-98865500D01*
X94800500Y-98841619D01*
X94800500Y-98675832D01*
X94820185Y-98608793D01*
X94836815Y-98588155D01*
X95309226Y-98115743D01*
X95370547Y-98082260D01*
X95440238Y-98087244D01*
X95470537Y-98103654D01*
X95537118Y-98152793D01*
X95556400Y-98159540D01*
X95665299Y-98197646D01*
X95695730Y-98200500D01*
X95695734Y-98200500D01*
X96304270Y-98200500D01*
X96334699Y-98197646D01*
X96334701Y-98197646D01*
X96398790Y-98175219D01*
X96462882Y-98152793D01*
X96572150Y-98072150D01*
X96652793Y-97962882D01*
X96677823Y-97891349D01*
X96697646Y-97834701D01*
X96697646Y-97834699D01*
X96700500Y-97804269D01*
X96700500Y-94966254D01*
X96720185Y-94899215D01*
X96772989Y-94853460D01*
X96842147Y-94843516D01*
X96905703Y-94872541D01*
G37*
%TD.AperFunction*%
%TA.AperFunction,Conductor*%
G36*
X105532603Y-94739222D02*
G01*
X105578358Y-94792026D01*
X105589035Y-94832097D01*
X105600713Y-94958130D01*
X105616611Y-95014004D01*
X105654944Y-95148730D01*
X105656530Y-95154301D01*
X105685358Y-95212198D01*
X105697618Y-95280984D01*
X105670744Y-95345478D01*
X105662038Y-95355149D01*
X104915489Y-96101700D01*
X104859541Y-96157647D01*
X104859535Y-96157655D01*
X104819982Y-96226164D01*
X104819979Y-96226169D01*
X104799500Y-96302599D01*
X104799500Y-97724167D01*
X104779815Y-97791206D01*
X104763181Y-97811848D01*
X104359541Y-98215487D01*
X104359535Y-98215495D01*
X104319982Y-98284004D01*
X104319979Y-98284009D01*
X104299500Y-98360439D01*
X104299500Y-100173865D01*
X104279815Y-100240904D01*
X104227011Y-100286659D01*
X104157853Y-100296603D01*
X104112379Y-100280597D01*
X104042197Y-100239092D01*
X104042194Y-100239091D01*
X103883283Y-100192922D01*
X103883277Y-100192921D01*
X103846157Y-100190000D01*
X103817500Y-100190000D01*
X103817500Y-100876000D01*
X103797815Y-100943039D01*
X103745011Y-100988794D01*
X103693500Y-101000000D01*
X103441500Y-101000000D01*
X103374461Y-100980315D01*
X103328706Y-100927511D01*
X103317500Y-100876000D01*
X103317500Y-100190000D01*
X103288842Y-100190000D01*
X103251722Y-100192921D01*
X103251716Y-100192922D01*
X103092805Y-100239091D01*
X103092802Y-100239092D01*
X102950357Y-100323333D01*
X102950349Y-100323339D01*
X102944681Y-100329008D01*
X102883358Y-100362493D01*
X102813666Y-100357509D01*
X102757733Y-100315637D01*
X102733316Y-100250173D01*
X102733000Y-100241327D01*
X102733000Y-100149577D01*
X102752685Y-100082538D01*
X102769319Y-100061896D01*
X102843646Y-99987569D01*
X102904969Y-99954084D01*
X102931327Y-99951250D01*
X102970267Y-99951250D01*
X102970267Y-99951249D01*
X103094563Y-99914754D01*
X103203543Y-99844717D01*
X103218528Y-99827422D01*
X103277303Y-99789648D01*
X103347173Y-99789646D01*
X103347176Y-99789647D01*
X103423399Y-99812026D01*
X103434870Y-99815395D01*
X103435225Y-99815499D01*
X103435227Y-99815500D01*
X103435228Y-99815500D01*
X103564773Y-99815500D01*
X103564773Y-99815499D01*
X103689069Y-99779004D01*
X103798049Y-99708967D01*
X103882882Y-99611063D01*
X103936697Y-99493226D01*
X103955133Y-99365000D01*
X103936697Y-99236774D01*
X103882882Y-99118937D01*
X103798049Y-99021033D01*
X103689069Y-98950996D01*
X103689065Y-98950994D01*
X103689064Y-98950994D01*
X103564774Y-98914500D01*
X103564772Y-98914500D01*
X103437244Y-98914500D01*
X103370205Y-98894815D01*
X103324450Y-98842011D01*
X103314506Y-98772853D01*
X103336703Y-98720154D01*
X103336397Y-98719978D01*
X103337804Y-98717539D01*
X103338869Y-98715013D01*
X103340462Y-98712936D01*
X103353966Y-98689546D01*
X103380021Y-98644417D01*
X103400500Y-98567990D01*
X103400500Y-98488867D01*
X103400500Y-94980318D01*
X103420185Y-94913279D01*
X103472989Y-94867524D01*
X103524500Y-94856318D01*
X105004638Y-94856318D01*
X105004640Y-94856318D01*
X105081067Y-94835839D01*
X105113501Y-94817112D01*
X105175502Y-94800500D01*
X105235669Y-94800500D01*
X105235669Y-94800499D01*
X105359965Y-94764004D01*
X105398526Y-94739222D01*
X105465564Y-94719538D01*
X105532603Y-94739222D01*
G37*
%TD.AperFunction*%
%TA.AperFunction,Conductor*%
G36*
X106216645Y-95752997D02*
G01*
X106218103Y-95753550D01*
X106384655Y-95818073D01*
X106424438Y-95825509D01*
X106486716Y-95857175D01*
X106521990Y-95917486D01*
X106519058Y-95987294D01*
X106489333Y-96035078D01*
X106157649Y-96366763D01*
X106101701Y-96422710D01*
X106101695Y-96422718D01*
X106062142Y-96491227D01*
X106062139Y-96491232D01*
X106041660Y-96567662D01*
X106041660Y-97382007D01*
X106021975Y-97449046D01*
X106005341Y-97469688D01*
X105612181Y-97862848D01*
X105550858Y-97896333D01*
X105481166Y-97891349D01*
X105425233Y-97849477D01*
X105400816Y-97784013D01*
X105400500Y-97775167D01*
X105400500Y-96517992D01*
X105420185Y-96450953D01*
X105436815Y-96430315D01*
X106085633Y-95781496D01*
X106146954Y-95748013D01*
X106216645Y-95752997D01*
G37*
%TD.AperFunction*%
%TD*%
M02*
