%TF.GenerationSoftware,KiCad,Pcbnew,8.0.7-8.0.7-0~ubuntu22.04.1*%
%TF.CreationDate,2025-01-08T19:04:50+01:00*%
%TF.ProjectId,bldc_servo_mini_v1,626c6463-5f73-4657-9276-6f5f6d696e69,rev?*%
%TF.SameCoordinates,Original*%
%TF.FileFunction,Legend,Top*%
%TF.FilePolarity,Positive*%
%FSLAX46Y46*%
G04 Gerber Fmt 4.6, Leading zero omitted, Abs format (unit mm)*
G04 Created by KiCad (PCBNEW 8.0.7-8.0.7-0~ubuntu22.04.1) date 2025-01-08 19:04:50*
%MOMM*%
%LPD*%
G01*
G04 APERTURE LIST*
%ADD10C,0.120000*%
%ADD11C,0.254000*%
%ADD12C,0.300000*%
%ADD13C,0.200000*%
%ADD14C,0.000000*%
G04 APERTURE END LIST*
D10*
%TO.C,PAD5*%
X113043503Y-104200000D02*
X111700000Y-105543503D01*
X111700000Y-102856497D02*
X113043503Y-104200000D01*
X111700000Y-105543503D02*
X110356497Y-104200000D01*
X110356497Y-104200000D02*
X111700000Y-102856497D01*
%TO.C,PAD4*%
X86956497Y-104200000D02*
X88300000Y-102856497D01*
X88300000Y-105543503D02*
X86956497Y-104200000D01*
X88300000Y-102856497D02*
X89643503Y-104200000D01*
X89643503Y-104200000D02*
X88300000Y-105543503D01*
%TO.C,C15*%
X89315835Y-94660000D02*
X89084165Y-94660000D01*
X89315835Y-93940000D02*
X89084165Y-93940000D01*
%TO.C,C8*%
X89161252Y-96935000D02*
X88638748Y-96935000D01*
X89161252Y-95465000D02*
X88638748Y-95465000D01*
%TO.C,C14*%
X94184165Y-98940000D02*
X94415835Y-98940000D01*
X94184165Y-99660000D02*
X94415835Y-99660000D01*
D11*
%TO.C,U1*%
X99273500Y-102495000D02*
G75*
G02*
X100726792Y-102499984I726500J-45000D01*
G01*
D12*
X101166000Y-101778000D02*
G75*
G02*
X100866000Y-101778000I-150000J0D01*
G01*
X100866000Y-101778000D02*
G75*
G02*
X101166000Y-101778000I150000J0D01*
G01*
D11*
X98500000Y-97500000D02*
X101500000Y-97500000D01*
X98500000Y-102500000D02*
X99273500Y-102500000D01*
X101500000Y-102500000D02*
X100726500Y-102500000D01*
X98500000Y-102500000D02*
X98500000Y-97500000D01*
X101500000Y-102500000D02*
X101500000Y-97500000D01*
D10*
%TO.C,C7*%
X104140000Y-99015835D02*
X104140000Y-98784165D01*
X104860000Y-99015835D02*
X104860000Y-98784165D01*
%TO.C,C16*%
X94384165Y-88860000D02*
X94615835Y-88860000D01*
X94384165Y-88140000D02*
X94615835Y-88140000D01*
%TO.C,C10*%
X95660000Y-101484165D02*
X95660000Y-101715835D01*
X94940000Y-101484165D02*
X94940000Y-101715835D01*
%TO.C,C9*%
X104884165Y-96040000D02*
X105115835Y-96040000D01*
X104884165Y-96760000D02*
X105115835Y-96760000D01*
%TO.C,C6*%
X92915835Y-89860000D02*
X92684165Y-89860000D01*
X92915835Y-89140000D02*
X92684165Y-89140000D01*
D11*
%TO.C,U4*%
X76300000Y33500000D02*
X81300000Y33500000D01*
X76300000Y36500000D02*
X81300000Y36500000D01*
X76300000Y33500000D02*
X76300000Y34273500D01*
X76300000Y36500000D02*
X76300000Y35726500D01*
X81300000Y36500000D02*
X81300000Y33500000D01*
D12*
X77172000Y33984000D02*
G75*
G02*
X76872000Y33984000I-150000J0D01*
G01*
X76872000Y33984000D02*
G75*
G02*
X77172000Y33984000I150000J0D01*
G01*
D11*
X76305000Y35726500D02*
G75*
G02*
X76300016Y34273208I-45000J-726500D01*
G01*
D10*
%TO.C,U3*%
X102560000Y-106700000D02*
X102560000Y-104750000D01*
X102560000Y-106700000D02*
X102560000Y-108650000D01*
X97440000Y-106700000D02*
X97440000Y-104750000D01*
X97440000Y-106700000D02*
X97440000Y-108650000D01*
X102795000Y-104240000D02*
X102465000Y-104000000D01*
X102795000Y-103760000D01*
X102795000Y-104240000D01*
G36*
X102795000Y-104240000D02*
G01*
X102465000Y-104000000D01*
X102795000Y-103760000D01*
X102795000Y-104240000D01*
G37*
%TO.C,R29*%
X92345276Y-91377500D02*
X92854724Y-91377500D01*
X92345276Y-92422500D02*
X92854724Y-92422500D01*
%TO.C,R16*%
X92345276Y-94977500D02*
X92854724Y-94977500D01*
X92345276Y-96022500D02*
X92854724Y-96022500D01*
%TO.C,R13*%
X92345276Y-94222500D02*
X92854724Y-94222500D01*
X92345276Y-93177500D02*
X92854724Y-93177500D01*
%TO.C,R3*%
X97720000Y-111667621D02*
X97720000Y-111332379D01*
X98480000Y-111667621D02*
X98480000Y-111332379D01*
%TO.C,JP1*%
X99200000Y-111500000D02*
G75*
G02*
X99900000Y-110800000I700000J0D01*
G01*
X99900000Y-112800000D02*
G75*
G02*
X99200000Y-112100000I0J700000D01*
G01*
X101300000Y-110800000D02*
G75*
G02*
X102000000Y-111500000I1J-699999D01*
G01*
X102000000Y-112100000D02*
G75*
G02*
X101300000Y-112800000I-699999J-1D01*
G01*
X99200000Y-112100000D02*
X99200000Y-111500000D01*
X99900000Y-110800000D02*
X101300000Y-110800000D01*
X101300000Y-112800000D02*
X99900000Y-112800000D01*
X102000000Y-111500000D02*
X102000000Y-112100000D01*
%TO.C,J6*%
X92209529Y-102685159D02*
X92951992Y-103427621D01*
X90441763Y-104452925D02*
X92209529Y-102685159D01*
X92951992Y-103427621D02*
X93652027Y-102727584D01*
X89876079Y-106673241D02*
X93326758Y-110123921D01*
X97314842Y-107790471D02*
X96572379Y-107048009D01*
X95547075Y-109558237D02*
X97314842Y-107790471D01*
%TO.C,J1*%
X109558236Y-104452925D02*
X107790470Y-102685157D01*
X107790470Y-102685157D02*
X107048007Y-103427621D01*
X106673240Y-110123923D02*
X110123922Y-106673241D01*
X103427621Y-107048007D02*
X102727585Y-106347973D01*
X104452927Y-109558236D02*
X102685159Y-107790469D01*
X102685159Y-107790469D02*
X103427621Y-107048007D01*
D13*
%TO.C,IC1*%
X96325000Y-87325000D02*
X97800000Y-87325000D01*
D14*
%TO.C,FPC_SENSOR2*%
G36*
X80530000Y27420000D02*
G01*
X80403000Y27674000D01*
X80657000Y27674000D01*
X80530000Y27420000D01*
G37*
D11*
X81801000Y27000000D02*
X81801000Y28724500D01*
X80931000Y27000000D02*
X81801000Y27000000D01*
X75800000Y27000000D02*
X75800000Y28724500D01*
X76300000Y27000000D02*
X75800000Y27000000D01*
X76300000Y27000000D02*
X76669000Y27000000D01*
X81801000Y30005000D02*
X75799000Y30005000D01*
X76300000Y26390000D02*
X76677000Y26390000D01*
X76300000Y27000000D02*
X76300000Y26390000D01*
X81250000Y26390000D02*
X81250000Y27000000D01*
X80923000Y26390000D02*
X81250000Y26390000D01*
D10*
%TO.C,C12*%
X93838748Y-98435000D02*
X94361252Y-98435000D01*
X93838748Y-96965000D02*
X94361252Y-96965000D01*
%TO.C,C11*%
X79415835Y25240000D02*
X79184165Y25240000D01*
X79415835Y25960000D02*
X79184165Y25960000D01*
%TD*%
M02*
